G75*
%MOIN*%
%OFA0B0*%
%FSLAX25Y25*%
%IPPOS*%
%LPD*%
%AMOC8*
5,1,8,0,0,1.08239X$1,22.5*
%
%ADD10C,0.00000*%
D10*
X0001800Y0017548D02*
X0001800Y0383690D01*
X0001803Y0383975D01*
X0001814Y0384261D01*
X0001831Y0384546D01*
X0001855Y0384830D01*
X0001886Y0385114D01*
X0001924Y0385397D01*
X0001969Y0385678D01*
X0002020Y0385959D01*
X0002078Y0386239D01*
X0002143Y0386517D01*
X0002215Y0386793D01*
X0002293Y0387067D01*
X0002378Y0387340D01*
X0002470Y0387610D01*
X0002568Y0387878D01*
X0002672Y0388144D01*
X0002783Y0388407D01*
X0002900Y0388667D01*
X0003023Y0388925D01*
X0003153Y0389179D01*
X0003289Y0389430D01*
X0003430Y0389678D01*
X0003578Y0389922D01*
X0003731Y0390163D01*
X0003891Y0390399D01*
X0004056Y0390632D01*
X0004226Y0390861D01*
X0004402Y0391086D01*
X0004584Y0391306D01*
X0004770Y0391522D01*
X0004962Y0391733D01*
X0005159Y0391940D01*
X0005361Y0392142D01*
X0005568Y0392339D01*
X0005779Y0392531D01*
X0005995Y0392717D01*
X0006215Y0392899D01*
X0006440Y0393075D01*
X0006669Y0393245D01*
X0006902Y0393410D01*
X0007138Y0393570D01*
X0007379Y0393723D01*
X0007623Y0393871D01*
X0007871Y0394012D01*
X0008122Y0394148D01*
X0008376Y0394278D01*
X0008634Y0394401D01*
X0008894Y0394518D01*
X0009157Y0394629D01*
X0009423Y0394733D01*
X0009691Y0394831D01*
X0009961Y0394923D01*
X0010234Y0395008D01*
X0010508Y0395086D01*
X0010784Y0395158D01*
X0011062Y0395223D01*
X0011342Y0395281D01*
X0011623Y0395332D01*
X0011904Y0395377D01*
X0012187Y0395415D01*
X0012471Y0395446D01*
X0012755Y0395470D01*
X0013040Y0395487D01*
X0013326Y0395498D01*
X0013611Y0395501D01*
X0383690Y0395501D01*
X0383975Y0395498D01*
X0384261Y0395487D01*
X0384546Y0395470D01*
X0384830Y0395446D01*
X0385114Y0395415D01*
X0385397Y0395377D01*
X0385678Y0395332D01*
X0385959Y0395281D01*
X0386239Y0395223D01*
X0386517Y0395158D01*
X0386793Y0395086D01*
X0387067Y0395008D01*
X0387340Y0394923D01*
X0387610Y0394831D01*
X0387878Y0394733D01*
X0388144Y0394629D01*
X0388407Y0394518D01*
X0388667Y0394401D01*
X0388925Y0394278D01*
X0389179Y0394148D01*
X0389430Y0394012D01*
X0389678Y0393871D01*
X0389922Y0393723D01*
X0390163Y0393570D01*
X0390399Y0393410D01*
X0390632Y0393245D01*
X0390861Y0393075D01*
X0391086Y0392899D01*
X0391306Y0392717D01*
X0391522Y0392531D01*
X0391733Y0392339D01*
X0391940Y0392142D01*
X0392142Y0391940D01*
X0392339Y0391733D01*
X0392531Y0391522D01*
X0392717Y0391306D01*
X0392899Y0391086D01*
X0393075Y0390861D01*
X0393245Y0390632D01*
X0393410Y0390399D01*
X0393570Y0390163D01*
X0393723Y0389922D01*
X0393871Y0389678D01*
X0394012Y0389430D01*
X0394148Y0389179D01*
X0394278Y0388925D01*
X0394401Y0388667D01*
X0394518Y0388407D01*
X0394629Y0388144D01*
X0394733Y0387878D01*
X0394831Y0387610D01*
X0394923Y0387340D01*
X0395008Y0387067D01*
X0395086Y0386793D01*
X0395158Y0386517D01*
X0395223Y0386239D01*
X0395281Y0385959D01*
X0395332Y0385678D01*
X0395377Y0385397D01*
X0395415Y0385114D01*
X0395446Y0384830D01*
X0395470Y0384546D01*
X0395487Y0384261D01*
X0395498Y0383975D01*
X0395501Y0383690D01*
X0395501Y0017548D01*
X0373454Y0017548D02*
X0373456Y0017706D01*
X0373462Y0017864D01*
X0373472Y0018022D01*
X0373486Y0018180D01*
X0373504Y0018337D01*
X0373525Y0018494D01*
X0373551Y0018650D01*
X0373581Y0018806D01*
X0373614Y0018961D01*
X0373652Y0019114D01*
X0373693Y0019267D01*
X0373738Y0019419D01*
X0373787Y0019570D01*
X0373840Y0019719D01*
X0373896Y0019867D01*
X0373956Y0020013D01*
X0374020Y0020158D01*
X0374088Y0020301D01*
X0374159Y0020443D01*
X0374233Y0020583D01*
X0374311Y0020720D01*
X0374393Y0020856D01*
X0374477Y0020990D01*
X0374566Y0021121D01*
X0374657Y0021250D01*
X0374752Y0021377D01*
X0374849Y0021502D01*
X0374950Y0021624D01*
X0375054Y0021743D01*
X0375161Y0021860D01*
X0375271Y0021974D01*
X0375384Y0022085D01*
X0375499Y0022194D01*
X0375617Y0022299D01*
X0375738Y0022401D01*
X0375861Y0022501D01*
X0375987Y0022597D01*
X0376115Y0022690D01*
X0376245Y0022780D01*
X0376378Y0022866D01*
X0376513Y0022950D01*
X0376649Y0023029D01*
X0376788Y0023106D01*
X0376929Y0023178D01*
X0377071Y0023248D01*
X0377215Y0023313D01*
X0377361Y0023375D01*
X0377508Y0023433D01*
X0377657Y0023488D01*
X0377807Y0023539D01*
X0377958Y0023586D01*
X0378110Y0023629D01*
X0378263Y0023668D01*
X0378418Y0023704D01*
X0378573Y0023735D01*
X0378729Y0023763D01*
X0378885Y0023787D01*
X0379042Y0023807D01*
X0379200Y0023823D01*
X0379357Y0023835D01*
X0379516Y0023843D01*
X0379674Y0023847D01*
X0379832Y0023847D01*
X0379990Y0023843D01*
X0380149Y0023835D01*
X0380306Y0023823D01*
X0380464Y0023807D01*
X0380621Y0023787D01*
X0380777Y0023763D01*
X0380933Y0023735D01*
X0381088Y0023704D01*
X0381243Y0023668D01*
X0381396Y0023629D01*
X0381548Y0023586D01*
X0381699Y0023539D01*
X0381849Y0023488D01*
X0381998Y0023433D01*
X0382145Y0023375D01*
X0382291Y0023313D01*
X0382435Y0023248D01*
X0382577Y0023178D01*
X0382718Y0023106D01*
X0382857Y0023029D01*
X0382993Y0022950D01*
X0383128Y0022866D01*
X0383261Y0022780D01*
X0383391Y0022690D01*
X0383519Y0022597D01*
X0383645Y0022501D01*
X0383768Y0022401D01*
X0383889Y0022299D01*
X0384007Y0022194D01*
X0384122Y0022085D01*
X0384235Y0021974D01*
X0384345Y0021860D01*
X0384452Y0021743D01*
X0384556Y0021624D01*
X0384657Y0021502D01*
X0384754Y0021377D01*
X0384849Y0021250D01*
X0384940Y0021121D01*
X0385029Y0020990D01*
X0385113Y0020856D01*
X0385195Y0020720D01*
X0385273Y0020583D01*
X0385347Y0020443D01*
X0385418Y0020301D01*
X0385486Y0020158D01*
X0385550Y0020013D01*
X0385610Y0019867D01*
X0385666Y0019719D01*
X0385719Y0019570D01*
X0385768Y0019419D01*
X0385813Y0019267D01*
X0385854Y0019114D01*
X0385892Y0018961D01*
X0385925Y0018806D01*
X0385955Y0018650D01*
X0385981Y0018494D01*
X0386002Y0018337D01*
X0386020Y0018180D01*
X0386034Y0018022D01*
X0386044Y0017864D01*
X0386050Y0017706D01*
X0386052Y0017548D01*
X0386050Y0017390D01*
X0386044Y0017232D01*
X0386034Y0017074D01*
X0386020Y0016916D01*
X0386002Y0016759D01*
X0385981Y0016602D01*
X0385955Y0016446D01*
X0385925Y0016290D01*
X0385892Y0016135D01*
X0385854Y0015982D01*
X0385813Y0015829D01*
X0385768Y0015677D01*
X0385719Y0015526D01*
X0385666Y0015377D01*
X0385610Y0015229D01*
X0385550Y0015083D01*
X0385486Y0014938D01*
X0385418Y0014795D01*
X0385347Y0014653D01*
X0385273Y0014513D01*
X0385195Y0014376D01*
X0385113Y0014240D01*
X0385029Y0014106D01*
X0384940Y0013975D01*
X0384849Y0013846D01*
X0384754Y0013719D01*
X0384657Y0013594D01*
X0384556Y0013472D01*
X0384452Y0013353D01*
X0384345Y0013236D01*
X0384235Y0013122D01*
X0384122Y0013011D01*
X0384007Y0012902D01*
X0383889Y0012797D01*
X0383768Y0012695D01*
X0383645Y0012595D01*
X0383519Y0012499D01*
X0383391Y0012406D01*
X0383261Y0012316D01*
X0383128Y0012230D01*
X0382993Y0012146D01*
X0382857Y0012067D01*
X0382718Y0011990D01*
X0382577Y0011918D01*
X0382435Y0011848D01*
X0382291Y0011783D01*
X0382145Y0011721D01*
X0381998Y0011663D01*
X0381849Y0011608D01*
X0381699Y0011557D01*
X0381548Y0011510D01*
X0381396Y0011467D01*
X0381243Y0011428D01*
X0381088Y0011392D01*
X0380933Y0011361D01*
X0380777Y0011333D01*
X0380621Y0011309D01*
X0380464Y0011289D01*
X0380306Y0011273D01*
X0380149Y0011261D01*
X0379990Y0011253D01*
X0379832Y0011249D01*
X0379674Y0011249D01*
X0379516Y0011253D01*
X0379357Y0011261D01*
X0379200Y0011273D01*
X0379042Y0011289D01*
X0378885Y0011309D01*
X0378729Y0011333D01*
X0378573Y0011361D01*
X0378418Y0011392D01*
X0378263Y0011428D01*
X0378110Y0011467D01*
X0377958Y0011510D01*
X0377807Y0011557D01*
X0377657Y0011608D01*
X0377508Y0011663D01*
X0377361Y0011721D01*
X0377215Y0011783D01*
X0377071Y0011848D01*
X0376929Y0011918D01*
X0376788Y0011990D01*
X0376649Y0012067D01*
X0376513Y0012146D01*
X0376378Y0012230D01*
X0376245Y0012316D01*
X0376115Y0012406D01*
X0375987Y0012499D01*
X0375861Y0012595D01*
X0375738Y0012695D01*
X0375617Y0012797D01*
X0375499Y0012902D01*
X0375384Y0013011D01*
X0375271Y0013122D01*
X0375161Y0013236D01*
X0375054Y0013353D01*
X0374950Y0013472D01*
X0374849Y0013594D01*
X0374752Y0013719D01*
X0374657Y0013846D01*
X0374566Y0013975D01*
X0374477Y0014106D01*
X0374393Y0014240D01*
X0374311Y0014376D01*
X0374233Y0014513D01*
X0374159Y0014653D01*
X0374088Y0014795D01*
X0374020Y0014938D01*
X0373956Y0015083D01*
X0373896Y0015229D01*
X0373840Y0015377D01*
X0373787Y0015526D01*
X0373738Y0015677D01*
X0373693Y0015829D01*
X0373652Y0015982D01*
X0373614Y0016135D01*
X0373581Y0016290D01*
X0373551Y0016446D01*
X0373525Y0016602D01*
X0373504Y0016759D01*
X0373486Y0016916D01*
X0373472Y0017074D01*
X0373462Y0017232D01*
X0373456Y0017390D01*
X0373454Y0017548D01*
X0379753Y0001800D02*
X0380134Y0001805D01*
X0380514Y0001818D01*
X0380894Y0001841D01*
X0381273Y0001874D01*
X0381651Y0001915D01*
X0382028Y0001965D01*
X0382404Y0002025D01*
X0382779Y0002093D01*
X0383151Y0002171D01*
X0383522Y0002258D01*
X0383890Y0002353D01*
X0384256Y0002458D01*
X0384619Y0002571D01*
X0384980Y0002693D01*
X0385337Y0002823D01*
X0385691Y0002963D01*
X0386042Y0003110D01*
X0386389Y0003267D01*
X0386732Y0003431D01*
X0387071Y0003604D01*
X0387406Y0003785D01*
X0387737Y0003974D01*
X0388062Y0004171D01*
X0388383Y0004375D01*
X0388699Y0004588D01*
X0389009Y0004808D01*
X0389315Y0005035D01*
X0389614Y0005270D01*
X0389908Y0005512D01*
X0390196Y0005760D01*
X0390478Y0006016D01*
X0390753Y0006279D01*
X0391022Y0006548D01*
X0391285Y0006823D01*
X0391541Y0007105D01*
X0391789Y0007393D01*
X0392031Y0007687D01*
X0392266Y0007986D01*
X0392493Y0008292D01*
X0392713Y0008602D01*
X0392926Y0008918D01*
X0393130Y0009239D01*
X0393327Y0009564D01*
X0393516Y0009895D01*
X0393697Y0010230D01*
X0393870Y0010569D01*
X0394034Y0010912D01*
X0394191Y0011259D01*
X0394338Y0011610D01*
X0394478Y0011964D01*
X0394608Y0012321D01*
X0394730Y0012682D01*
X0394843Y0013045D01*
X0394948Y0013411D01*
X0395043Y0013779D01*
X0395130Y0014150D01*
X0395208Y0014522D01*
X0395276Y0014897D01*
X0395336Y0015273D01*
X0395386Y0015650D01*
X0395427Y0016028D01*
X0395460Y0016407D01*
X0395483Y0016787D01*
X0395496Y0017167D01*
X0395501Y0017548D01*
X0379753Y0001800D02*
X0017548Y0001800D01*
X0011249Y0017548D02*
X0011251Y0017706D01*
X0011257Y0017864D01*
X0011267Y0018022D01*
X0011281Y0018180D01*
X0011299Y0018337D01*
X0011320Y0018494D01*
X0011346Y0018650D01*
X0011376Y0018806D01*
X0011409Y0018961D01*
X0011447Y0019114D01*
X0011488Y0019267D01*
X0011533Y0019419D01*
X0011582Y0019570D01*
X0011635Y0019719D01*
X0011691Y0019867D01*
X0011751Y0020013D01*
X0011815Y0020158D01*
X0011883Y0020301D01*
X0011954Y0020443D01*
X0012028Y0020583D01*
X0012106Y0020720D01*
X0012188Y0020856D01*
X0012272Y0020990D01*
X0012361Y0021121D01*
X0012452Y0021250D01*
X0012547Y0021377D01*
X0012644Y0021502D01*
X0012745Y0021624D01*
X0012849Y0021743D01*
X0012956Y0021860D01*
X0013066Y0021974D01*
X0013179Y0022085D01*
X0013294Y0022194D01*
X0013412Y0022299D01*
X0013533Y0022401D01*
X0013656Y0022501D01*
X0013782Y0022597D01*
X0013910Y0022690D01*
X0014040Y0022780D01*
X0014173Y0022866D01*
X0014308Y0022950D01*
X0014444Y0023029D01*
X0014583Y0023106D01*
X0014724Y0023178D01*
X0014866Y0023248D01*
X0015010Y0023313D01*
X0015156Y0023375D01*
X0015303Y0023433D01*
X0015452Y0023488D01*
X0015602Y0023539D01*
X0015753Y0023586D01*
X0015905Y0023629D01*
X0016058Y0023668D01*
X0016213Y0023704D01*
X0016368Y0023735D01*
X0016524Y0023763D01*
X0016680Y0023787D01*
X0016837Y0023807D01*
X0016995Y0023823D01*
X0017152Y0023835D01*
X0017311Y0023843D01*
X0017469Y0023847D01*
X0017627Y0023847D01*
X0017785Y0023843D01*
X0017944Y0023835D01*
X0018101Y0023823D01*
X0018259Y0023807D01*
X0018416Y0023787D01*
X0018572Y0023763D01*
X0018728Y0023735D01*
X0018883Y0023704D01*
X0019038Y0023668D01*
X0019191Y0023629D01*
X0019343Y0023586D01*
X0019494Y0023539D01*
X0019644Y0023488D01*
X0019793Y0023433D01*
X0019940Y0023375D01*
X0020086Y0023313D01*
X0020230Y0023248D01*
X0020372Y0023178D01*
X0020513Y0023106D01*
X0020652Y0023029D01*
X0020788Y0022950D01*
X0020923Y0022866D01*
X0021056Y0022780D01*
X0021186Y0022690D01*
X0021314Y0022597D01*
X0021440Y0022501D01*
X0021563Y0022401D01*
X0021684Y0022299D01*
X0021802Y0022194D01*
X0021917Y0022085D01*
X0022030Y0021974D01*
X0022140Y0021860D01*
X0022247Y0021743D01*
X0022351Y0021624D01*
X0022452Y0021502D01*
X0022549Y0021377D01*
X0022644Y0021250D01*
X0022735Y0021121D01*
X0022824Y0020990D01*
X0022908Y0020856D01*
X0022990Y0020720D01*
X0023068Y0020583D01*
X0023142Y0020443D01*
X0023213Y0020301D01*
X0023281Y0020158D01*
X0023345Y0020013D01*
X0023405Y0019867D01*
X0023461Y0019719D01*
X0023514Y0019570D01*
X0023563Y0019419D01*
X0023608Y0019267D01*
X0023649Y0019114D01*
X0023687Y0018961D01*
X0023720Y0018806D01*
X0023750Y0018650D01*
X0023776Y0018494D01*
X0023797Y0018337D01*
X0023815Y0018180D01*
X0023829Y0018022D01*
X0023839Y0017864D01*
X0023845Y0017706D01*
X0023847Y0017548D01*
X0023845Y0017390D01*
X0023839Y0017232D01*
X0023829Y0017074D01*
X0023815Y0016916D01*
X0023797Y0016759D01*
X0023776Y0016602D01*
X0023750Y0016446D01*
X0023720Y0016290D01*
X0023687Y0016135D01*
X0023649Y0015982D01*
X0023608Y0015829D01*
X0023563Y0015677D01*
X0023514Y0015526D01*
X0023461Y0015377D01*
X0023405Y0015229D01*
X0023345Y0015083D01*
X0023281Y0014938D01*
X0023213Y0014795D01*
X0023142Y0014653D01*
X0023068Y0014513D01*
X0022990Y0014376D01*
X0022908Y0014240D01*
X0022824Y0014106D01*
X0022735Y0013975D01*
X0022644Y0013846D01*
X0022549Y0013719D01*
X0022452Y0013594D01*
X0022351Y0013472D01*
X0022247Y0013353D01*
X0022140Y0013236D01*
X0022030Y0013122D01*
X0021917Y0013011D01*
X0021802Y0012902D01*
X0021684Y0012797D01*
X0021563Y0012695D01*
X0021440Y0012595D01*
X0021314Y0012499D01*
X0021186Y0012406D01*
X0021056Y0012316D01*
X0020923Y0012230D01*
X0020788Y0012146D01*
X0020652Y0012067D01*
X0020513Y0011990D01*
X0020372Y0011918D01*
X0020230Y0011848D01*
X0020086Y0011783D01*
X0019940Y0011721D01*
X0019793Y0011663D01*
X0019644Y0011608D01*
X0019494Y0011557D01*
X0019343Y0011510D01*
X0019191Y0011467D01*
X0019038Y0011428D01*
X0018883Y0011392D01*
X0018728Y0011361D01*
X0018572Y0011333D01*
X0018416Y0011309D01*
X0018259Y0011289D01*
X0018101Y0011273D01*
X0017944Y0011261D01*
X0017785Y0011253D01*
X0017627Y0011249D01*
X0017469Y0011249D01*
X0017311Y0011253D01*
X0017152Y0011261D01*
X0016995Y0011273D01*
X0016837Y0011289D01*
X0016680Y0011309D01*
X0016524Y0011333D01*
X0016368Y0011361D01*
X0016213Y0011392D01*
X0016058Y0011428D01*
X0015905Y0011467D01*
X0015753Y0011510D01*
X0015602Y0011557D01*
X0015452Y0011608D01*
X0015303Y0011663D01*
X0015156Y0011721D01*
X0015010Y0011783D01*
X0014866Y0011848D01*
X0014724Y0011918D01*
X0014583Y0011990D01*
X0014444Y0012067D01*
X0014308Y0012146D01*
X0014173Y0012230D01*
X0014040Y0012316D01*
X0013910Y0012406D01*
X0013782Y0012499D01*
X0013656Y0012595D01*
X0013533Y0012695D01*
X0013412Y0012797D01*
X0013294Y0012902D01*
X0013179Y0013011D01*
X0013066Y0013122D01*
X0012956Y0013236D01*
X0012849Y0013353D01*
X0012745Y0013472D01*
X0012644Y0013594D01*
X0012547Y0013719D01*
X0012452Y0013846D01*
X0012361Y0013975D01*
X0012272Y0014106D01*
X0012188Y0014240D01*
X0012106Y0014376D01*
X0012028Y0014513D01*
X0011954Y0014653D01*
X0011883Y0014795D01*
X0011815Y0014938D01*
X0011751Y0015083D01*
X0011691Y0015229D01*
X0011635Y0015377D01*
X0011582Y0015526D01*
X0011533Y0015677D01*
X0011488Y0015829D01*
X0011447Y0015982D01*
X0011409Y0016135D01*
X0011376Y0016290D01*
X0011346Y0016446D01*
X0011320Y0016602D01*
X0011299Y0016759D01*
X0011281Y0016916D01*
X0011267Y0017074D01*
X0011257Y0017232D01*
X0011251Y0017390D01*
X0011249Y0017548D01*
X0001800Y0017548D02*
X0001805Y0017167D01*
X0001818Y0016787D01*
X0001841Y0016407D01*
X0001874Y0016028D01*
X0001915Y0015650D01*
X0001965Y0015273D01*
X0002025Y0014897D01*
X0002093Y0014522D01*
X0002171Y0014150D01*
X0002258Y0013779D01*
X0002353Y0013411D01*
X0002458Y0013045D01*
X0002571Y0012682D01*
X0002693Y0012321D01*
X0002823Y0011964D01*
X0002963Y0011610D01*
X0003110Y0011259D01*
X0003267Y0010912D01*
X0003431Y0010569D01*
X0003604Y0010230D01*
X0003785Y0009895D01*
X0003974Y0009564D01*
X0004171Y0009239D01*
X0004375Y0008918D01*
X0004588Y0008602D01*
X0004808Y0008292D01*
X0005035Y0007986D01*
X0005270Y0007687D01*
X0005512Y0007393D01*
X0005760Y0007105D01*
X0006016Y0006823D01*
X0006279Y0006548D01*
X0006548Y0006279D01*
X0006823Y0006016D01*
X0007105Y0005760D01*
X0007393Y0005512D01*
X0007687Y0005270D01*
X0007986Y0005035D01*
X0008292Y0004808D01*
X0008602Y0004588D01*
X0008918Y0004375D01*
X0009239Y0004171D01*
X0009564Y0003974D01*
X0009895Y0003785D01*
X0010230Y0003604D01*
X0010569Y0003431D01*
X0010912Y0003267D01*
X0011259Y0003110D01*
X0011610Y0002963D01*
X0011964Y0002823D01*
X0012321Y0002693D01*
X0012682Y0002571D01*
X0013045Y0002458D01*
X0013411Y0002353D01*
X0013779Y0002258D01*
X0014150Y0002171D01*
X0014522Y0002093D01*
X0014897Y0002025D01*
X0015273Y0001965D01*
X0015650Y0001915D01*
X0016028Y0001874D01*
X0016407Y0001841D01*
X0016787Y0001818D01*
X0017167Y0001805D01*
X0017548Y0001800D01*
X0011249Y0379753D02*
X0011251Y0379911D01*
X0011257Y0380069D01*
X0011267Y0380227D01*
X0011281Y0380385D01*
X0011299Y0380542D01*
X0011320Y0380699D01*
X0011346Y0380855D01*
X0011376Y0381011D01*
X0011409Y0381166D01*
X0011447Y0381319D01*
X0011488Y0381472D01*
X0011533Y0381624D01*
X0011582Y0381775D01*
X0011635Y0381924D01*
X0011691Y0382072D01*
X0011751Y0382218D01*
X0011815Y0382363D01*
X0011883Y0382506D01*
X0011954Y0382648D01*
X0012028Y0382788D01*
X0012106Y0382925D01*
X0012188Y0383061D01*
X0012272Y0383195D01*
X0012361Y0383326D01*
X0012452Y0383455D01*
X0012547Y0383582D01*
X0012644Y0383707D01*
X0012745Y0383829D01*
X0012849Y0383948D01*
X0012956Y0384065D01*
X0013066Y0384179D01*
X0013179Y0384290D01*
X0013294Y0384399D01*
X0013412Y0384504D01*
X0013533Y0384606D01*
X0013656Y0384706D01*
X0013782Y0384802D01*
X0013910Y0384895D01*
X0014040Y0384985D01*
X0014173Y0385071D01*
X0014308Y0385155D01*
X0014444Y0385234D01*
X0014583Y0385311D01*
X0014724Y0385383D01*
X0014866Y0385453D01*
X0015010Y0385518D01*
X0015156Y0385580D01*
X0015303Y0385638D01*
X0015452Y0385693D01*
X0015602Y0385744D01*
X0015753Y0385791D01*
X0015905Y0385834D01*
X0016058Y0385873D01*
X0016213Y0385909D01*
X0016368Y0385940D01*
X0016524Y0385968D01*
X0016680Y0385992D01*
X0016837Y0386012D01*
X0016995Y0386028D01*
X0017152Y0386040D01*
X0017311Y0386048D01*
X0017469Y0386052D01*
X0017627Y0386052D01*
X0017785Y0386048D01*
X0017944Y0386040D01*
X0018101Y0386028D01*
X0018259Y0386012D01*
X0018416Y0385992D01*
X0018572Y0385968D01*
X0018728Y0385940D01*
X0018883Y0385909D01*
X0019038Y0385873D01*
X0019191Y0385834D01*
X0019343Y0385791D01*
X0019494Y0385744D01*
X0019644Y0385693D01*
X0019793Y0385638D01*
X0019940Y0385580D01*
X0020086Y0385518D01*
X0020230Y0385453D01*
X0020372Y0385383D01*
X0020513Y0385311D01*
X0020652Y0385234D01*
X0020788Y0385155D01*
X0020923Y0385071D01*
X0021056Y0384985D01*
X0021186Y0384895D01*
X0021314Y0384802D01*
X0021440Y0384706D01*
X0021563Y0384606D01*
X0021684Y0384504D01*
X0021802Y0384399D01*
X0021917Y0384290D01*
X0022030Y0384179D01*
X0022140Y0384065D01*
X0022247Y0383948D01*
X0022351Y0383829D01*
X0022452Y0383707D01*
X0022549Y0383582D01*
X0022644Y0383455D01*
X0022735Y0383326D01*
X0022824Y0383195D01*
X0022908Y0383061D01*
X0022990Y0382925D01*
X0023068Y0382788D01*
X0023142Y0382648D01*
X0023213Y0382506D01*
X0023281Y0382363D01*
X0023345Y0382218D01*
X0023405Y0382072D01*
X0023461Y0381924D01*
X0023514Y0381775D01*
X0023563Y0381624D01*
X0023608Y0381472D01*
X0023649Y0381319D01*
X0023687Y0381166D01*
X0023720Y0381011D01*
X0023750Y0380855D01*
X0023776Y0380699D01*
X0023797Y0380542D01*
X0023815Y0380385D01*
X0023829Y0380227D01*
X0023839Y0380069D01*
X0023845Y0379911D01*
X0023847Y0379753D01*
X0023845Y0379595D01*
X0023839Y0379437D01*
X0023829Y0379279D01*
X0023815Y0379121D01*
X0023797Y0378964D01*
X0023776Y0378807D01*
X0023750Y0378651D01*
X0023720Y0378495D01*
X0023687Y0378340D01*
X0023649Y0378187D01*
X0023608Y0378034D01*
X0023563Y0377882D01*
X0023514Y0377731D01*
X0023461Y0377582D01*
X0023405Y0377434D01*
X0023345Y0377288D01*
X0023281Y0377143D01*
X0023213Y0377000D01*
X0023142Y0376858D01*
X0023068Y0376718D01*
X0022990Y0376581D01*
X0022908Y0376445D01*
X0022824Y0376311D01*
X0022735Y0376180D01*
X0022644Y0376051D01*
X0022549Y0375924D01*
X0022452Y0375799D01*
X0022351Y0375677D01*
X0022247Y0375558D01*
X0022140Y0375441D01*
X0022030Y0375327D01*
X0021917Y0375216D01*
X0021802Y0375107D01*
X0021684Y0375002D01*
X0021563Y0374900D01*
X0021440Y0374800D01*
X0021314Y0374704D01*
X0021186Y0374611D01*
X0021056Y0374521D01*
X0020923Y0374435D01*
X0020788Y0374351D01*
X0020652Y0374272D01*
X0020513Y0374195D01*
X0020372Y0374123D01*
X0020230Y0374053D01*
X0020086Y0373988D01*
X0019940Y0373926D01*
X0019793Y0373868D01*
X0019644Y0373813D01*
X0019494Y0373762D01*
X0019343Y0373715D01*
X0019191Y0373672D01*
X0019038Y0373633D01*
X0018883Y0373597D01*
X0018728Y0373566D01*
X0018572Y0373538D01*
X0018416Y0373514D01*
X0018259Y0373494D01*
X0018101Y0373478D01*
X0017944Y0373466D01*
X0017785Y0373458D01*
X0017627Y0373454D01*
X0017469Y0373454D01*
X0017311Y0373458D01*
X0017152Y0373466D01*
X0016995Y0373478D01*
X0016837Y0373494D01*
X0016680Y0373514D01*
X0016524Y0373538D01*
X0016368Y0373566D01*
X0016213Y0373597D01*
X0016058Y0373633D01*
X0015905Y0373672D01*
X0015753Y0373715D01*
X0015602Y0373762D01*
X0015452Y0373813D01*
X0015303Y0373868D01*
X0015156Y0373926D01*
X0015010Y0373988D01*
X0014866Y0374053D01*
X0014724Y0374123D01*
X0014583Y0374195D01*
X0014444Y0374272D01*
X0014308Y0374351D01*
X0014173Y0374435D01*
X0014040Y0374521D01*
X0013910Y0374611D01*
X0013782Y0374704D01*
X0013656Y0374800D01*
X0013533Y0374900D01*
X0013412Y0375002D01*
X0013294Y0375107D01*
X0013179Y0375216D01*
X0013066Y0375327D01*
X0012956Y0375441D01*
X0012849Y0375558D01*
X0012745Y0375677D01*
X0012644Y0375799D01*
X0012547Y0375924D01*
X0012452Y0376051D01*
X0012361Y0376180D01*
X0012272Y0376311D01*
X0012188Y0376445D01*
X0012106Y0376581D01*
X0012028Y0376718D01*
X0011954Y0376858D01*
X0011883Y0377000D01*
X0011815Y0377143D01*
X0011751Y0377288D01*
X0011691Y0377434D01*
X0011635Y0377582D01*
X0011582Y0377731D01*
X0011533Y0377882D01*
X0011488Y0378034D01*
X0011447Y0378187D01*
X0011409Y0378340D01*
X0011376Y0378495D01*
X0011346Y0378651D01*
X0011320Y0378807D01*
X0011299Y0378964D01*
X0011281Y0379121D01*
X0011267Y0379279D01*
X0011257Y0379437D01*
X0011251Y0379595D01*
X0011249Y0379753D01*
X0373454Y0379753D02*
X0373456Y0379911D01*
X0373462Y0380069D01*
X0373472Y0380227D01*
X0373486Y0380385D01*
X0373504Y0380542D01*
X0373525Y0380699D01*
X0373551Y0380855D01*
X0373581Y0381011D01*
X0373614Y0381166D01*
X0373652Y0381319D01*
X0373693Y0381472D01*
X0373738Y0381624D01*
X0373787Y0381775D01*
X0373840Y0381924D01*
X0373896Y0382072D01*
X0373956Y0382218D01*
X0374020Y0382363D01*
X0374088Y0382506D01*
X0374159Y0382648D01*
X0374233Y0382788D01*
X0374311Y0382925D01*
X0374393Y0383061D01*
X0374477Y0383195D01*
X0374566Y0383326D01*
X0374657Y0383455D01*
X0374752Y0383582D01*
X0374849Y0383707D01*
X0374950Y0383829D01*
X0375054Y0383948D01*
X0375161Y0384065D01*
X0375271Y0384179D01*
X0375384Y0384290D01*
X0375499Y0384399D01*
X0375617Y0384504D01*
X0375738Y0384606D01*
X0375861Y0384706D01*
X0375987Y0384802D01*
X0376115Y0384895D01*
X0376245Y0384985D01*
X0376378Y0385071D01*
X0376513Y0385155D01*
X0376649Y0385234D01*
X0376788Y0385311D01*
X0376929Y0385383D01*
X0377071Y0385453D01*
X0377215Y0385518D01*
X0377361Y0385580D01*
X0377508Y0385638D01*
X0377657Y0385693D01*
X0377807Y0385744D01*
X0377958Y0385791D01*
X0378110Y0385834D01*
X0378263Y0385873D01*
X0378418Y0385909D01*
X0378573Y0385940D01*
X0378729Y0385968D01*
X0378885Y0385992D01*
X0379042Y0386012D01*
X0379200Y0386028D01*
X0379357Y0386040D01*
X0379516Y0386048D01*
X0379674Y0386052D01*
X0379832Y0386052D01*
X0379990Y0386048D01*
X0380149Y0386040D01*
X0380306Y0386028D01*
X0380464Y0386012D01*
X0380621Y0385992D01*
X0380777Y0385968D01*
X0380933Y0385940D01*
X0381088Y0385909D01*
X0381243Y0385873D01*
X0381396Y0385834D01*
X0381548Y0385791D01*
X0381699Y0385744D01*
X0381849Y0385693D01*
X0381998Y0385638D01*
X0382145Y0385580D01*
X0382291Y0385518D01*
X0382435Y0385453D01*
X0382577Y0385383D01*
X0382718Y0385311D01*
X0382857Y0385234D01*
X0382993Y0385155D01*
X0383128Y0385071D01*
X0383261Y0384985D01*
X0383391Y0384895D01*
X0383519Y0384802D01*
X0383645Y0384706D01*
X0383768Y0384606D01*
X0383889Y0384504D01*
X0384007Y0384399D01*
X0384122Y0384290D01*
X0384235Y0384179D01*
X0384345Y0384065D01*
X0384452Y0383948D01*
X0384556Y0383829D01*
X0384657Y0383707D01*
X0384754Y0383582D01*
X0384849Y0383455D01*
X0384940Y0383326D01*
X0385029Y0383195D01*
X0385113Y0383061D01*
X0385195Y0382925D01*
X0385273Y0382788D01*
X0385347Y0382648D01*
X0385418Y0382506D01*
X0385486Y0382363D01*
X0385550Y0382218D01*
X0385610Y0382072D01*
X0385666Y0381924D01*
X0385719Y0381775D01*
X0385768Y0381624D01*
X0385813Y0381472D01*
X0385854Y0381319D01*
X0385892Y0381166D01*
X0385925Y0381011D01*
X0385955Y0380855D01*
X0385981Y0380699D01*
X0386002Y0380542D01*
X0386020Y0380385D01*
X0386034Y0380227D01*
X0386044Y0380069D01*
X0386050Y0379911D01*
X0386052Y0379753D01*
X0386050Y0379595D01*
X0386044Y0379437D01*
X0386034Y0379279D01*
X0386020Y0379121D01*
X0386002Y0378964D01*
X0385981Y0378807D01*
X0385955Y0378651D01*
X0385925Y0378495D01*
X0385892Y0378340D01*
X0385854Y0378187D01*
X0385813Y0378034D01*
X0385768Y0377882D01*
X0385719Y0377731D01*
X0385666Y0377582D01*
X0385610Y0377434D01*
X0385550Y0377288D01*
X0385486Y0377143D01*
X0385418Y0377000D01*
X0385347Y0376858D01*
X0385273Y0376718D01*
X0385195Y0376581D01*
X0385113Y0376445D01*
X0385029Y0376311D01*
X0384940Y0376180D01*
X0384849Y0376051D01*
X0384754Y0375924D01*
X0384657Y0375799D01*
X0384556Y0375677D01*
X0384452Y0375558D01*
X0384345Y0375441D01*
X0384235Y0375327D01*
X0384122Y0375216D01*
X0384007Y0375107D01*
X0383889Y0375002D01*
X0383768Y0374900D01*
X0383645Y0374800D01*
X0383519Y0374704D01*
X0383391Y0374611D01*
X0383261Y0374521D01*
X0383128Y0374435D01*
X0382993Y0374351D01*
X0382857Y0374272D01*
X0382718Y0374195D01*
X0382577Y0374123D01*
X0382435Y0374053D01*
X0382291Y0373988D01*
X0382145Y0373926D01*
X0381998Y0373868D01*
X0381849Y0373813D01*
X0381699Y0373762D01*
X0381548Y0373715D01*
X0381396Y0373672D01*
X0381243Y0373633D01*
X0381088Y0373597D01*
X0380933Y0373566D01*
X0380777Y0373538D01*
X0380621Y0373514D01*
X0380464Y0373494D01*
X0380306Y0373478D01*
X0380149Y0373466D01*
X0379990Y0373458D01*
X0379832Y0373454D01*
X0379674Y0373454D01*
X0379516Y0373458D01*
X0379357Y0373466D01*
X0379200Y0373478D01*
X0379042Y0373494D01*
X0378885Y0373514D01*
X0378729Y0373538D01*
X0378573Y0373566D01*
X0378418Y0373597D01*
X0378263Y0373633D01*
X0378110Y0373672D01*
X0377958Y0373715D01*
X0377807Y0373762D01*
X0377657Y0373813D01*
X0377508Y0373868D01*
X0377361Y0373926D01*
X0377215Y0373988D01*
X0377071Y0374053D01*
X0376929Y0374123D01*
X0376788Y0374195D01*
X0376649Y0374272D01*
X0376513Y0374351D01*
X0376378Y0374435D01*
X0376245Y0374521D01*
X0376115Y0374611D01*
X0375987Y0374704D01*
X0375861Y0374800D01*
X0375738Y0374900D01*
X0375617Y0375002D01*
X0375499Y0375107D01*
X0375384Y0375216D01*
X0375271Y0375327D01*
X0375161Y0375441D01*
X0375054Y0375558D01*
X0374950Y0375677D01*
X0374849Y0375799D01*
X0374752Y0375924D01*
X0374657Y0376051D01*
X0374566Y0376180D01*
X0374477Y0376311D01*
X0374393Y0376445D01*
X0374311Y0376581D01*
X0374233Y0376718D01*
X0374159Y0376858D01*
X0374088Y0377000D01*
X0374020Y0377143D01*
X0373956Y0377288D01*
X0373896Y0377434D01*
X0373840Y0377582D01*
X0373787Y0377731D01*
X0373738Y0377882D01*
X0373693Y0378034D01*
X0373652Y0378187D01*
X0373614Y0378340D01*
X0373581Y0378495D01*
X0373551Y0378651D01*
X0373525Y0378807D01*
X0373504Y0378964D01*
X0373486Y0379121D01*
X0373472Y0379279D01*
X0373462Y0379437D01*
X0373456Y0379595D01*
X0373454Y0379753D01*
M02*
