G75*
%MOIN*%
%OFA0B0*%
%FSLAX25Y25*%
%IPPOS*%
%LPD*%
%AMOC8*
5,1,8,0,0,1.08239X$1,22.5*
%
%ADD10C,0.06400*%
%ADD11C,0.04000*%
%ADD12R,0.04000X0.04000*%
%ADD13R,0.10800X0.10800*%
%ADD14C,0.08400*%
%ADD15OC8,0.06800*%
%ADD16C,0.06800*%
%ADD17C,0.13398*%
%ADD18C,0.02600*%
D10*
X0146800Y0211800D03*
X0146800Y0221800D03*
X0146800Y0231800D03*
X0146800Y0241800D03*
X0146800Y0251800D03*
X0146800Y0261800D03*
X0146800Y0271800D03*
X0146800Y0281800D03*
X0146800Y0291800D03*
X0146800Y0301800D03*
X0146800Y0311800D03*
X0146800Y0321800D03*
X0146800Y0331800D03*
X0146800Y0341800D03*
X0146800Y0351800D03*
X0146800Y0361800D03*
X0146800Y0371800D03*
X0146800Y0381800D03*
X0156800Y0381800D03*
X0156800Y0371800D03*
X0156800Y0361800D03*
X0156800Y0351800D03*
X0156800Y0341800D03*
X0156800Y0331800D03*
X0156800Y0321800D03*
X0156800Y0311800D03*
X0156800Y0301800D03*
X0156800Y0291800D03*
X0156800Y0281800D03*
X0156800Y0271800D03*
X0156800Y0261800D03*
X0156800Y0251800D03*
X0156800Y0241800D03*
X0156800Y0231800D03*
X0156800Y0221800D03*
X0156800Y0211800D03*
X0166800Y0211800D03*
X0166800Y0221800D03*
X0176800Y0221800D03*
X0176800Y0211800D03*
X0186800Y0211800D03*
X0186800Y0221800D03*
X0196800Y0221800D03*
X0196800Y0211800D03*
X0206800Y0211800D03*
X0206800Y0221800D03*
X0216800Y0221800D03*
X0216800Y0211800D03*
X0226800Y0211800D03*
X0226800Y0221800D03*
X0236800Y0221800D03*
X0236800Y0211800D03*
X0246800Y0211800D03*
X0246800Y0221800D03*
X0256800Y0221800D03*
X0256800Y0211800D03*
X0266800Y0211800D03*
X0266800Y0221800D03*
X0276800Y0221800D03*
X0276800Y0211800D03*
X0276800Y0231800D03*
X0276800Y0241800D03*
X0266800Y0241800D03*
X0266800Y0231800D03*
X0266800Y0251800D03*
X0266800Y0261800D03*
X0276800Y0261800D03*
X0276800Y0251800D03*
X0276800Y0271800D03*
X0276800Y0281800D03*
X0266800Y0281800D03*
X0266800Y0271800D03*
X0266800Y0291800D03*
X0266800Y0301800D03*
X0276800Y0301800D03*
X0276800Y0291800D03*
X0276800Y0311800D03*
X0276800Y0321800D03*
X0266800Y0321800D03*
X0266800Y0311800D03*
X0266800Y0331800D03*
X0276800Y0331800D03*
X0276800Y0341800D03*
X0276800Y0351800D03*
X0266800Y0351800D03*
X0266800Y0341800D03*
X0266800Y0361800D03*
X0266800Y0371800D03*
X0276800Y0371800D03*
X0276800Y0361800D03*
X0276800Y0381800D03*
X0266800Y0381800D03*
X0089792Y0291800D03*
X0063808Y0291800D03*
D11*
X0316800Y0381800D03*
X0316800Y0386800D03*
X0321800Y0386800D03*
X0321800Y0381800D03*
X0326800Y0381800D03*
X0326800Y0386800D03*
D12*
X0331800Y0386800D03*
X0331800Y0381800D03*
D13*
X0116800Y0080855D03*
D14*
X0136485Y0077055D02*
X0136485Y0084655D01*
X0156170Y0084655D02*
X0156170Y0077055D01*
X0175855Y0077055D02*
X0175855Y0084655D01*
X0195540Y0084655D02*
X0195540Y0077055D01*
X0215225Y0077055D02*
X0215225Y0084655D01*
X0234910Y0084655D02*
X0234910Y0077055D01*
X0254595Y0077055D02*
X0254595Y0084655D01*
X0274280Y0084655D02*
X0274280Y0077055D01*
X0293965Y0077055D02*
X0293965Y0084655D01*
X0313650Y0084655D02*
X0313650Y0077055D01*
X0333335Y0077055D02*
X0333335Y0084655D01*
X0333335Y0025600D02*
X0333335Y0018000D01*
X0313650Y0018000D02*
X0313650Y0025600D01*
X0293965Y0025600D02*
X0293965Y0018000D01*
X0274280Y0018000D02*
X0274280Y0025600D01*
X0254595Y0025600D02*
X0254595Y0018000D01*
X0234910Y0018000D02*
X0234910Y0025600D01*
X0215225Y0025600D02*
X0215225Y0018000D01*
X0195540Y0018000D02*
X0195540Y0025600D01*
X0175855Y0025600D02*
X0175855Y0018000D01*
X0156170Y0018000D02*
X0156170Y0025600D01*
X0136485Y0025600D02*
X0136485Y0018000D01*
X0116800Y0018000D02*
X0116800Y0025600D01*
D15*
X0021800Y0226800D03*
X0021800Y0236800D03*
X0021800Y0246800D03*
X0021800Y0256800D03*
X0021800Y0266800D03*
X0021800Y0276800D03*
X0021800Y0286800D03*
X0021800Y0296800D03*
X0021800Y0306800D03*
X0021800Y0316800D03*
X0021800Y0326800D03*
X0021800Y0336800D03*
X0021800Y0346800D03*
X0021800Y0356800D03*
X0011800Y0356800D03*
X0011800Y0346800D03*
X0011800Y0336800D03*
X0011800Y0326800D03*
X0011800Y0316800D03*
X0011800Y0306800D03*
X0011800Y0296800D03*
X0011800Y0286800D03*
X0011800Y0276800D03*
X0011800Y0266800D03*
X0011800Y0256800D03*
X0011800Y0246800D03*
X0011800Y0236800D03*
X0011800Y0226800D03*
X0056800Y0361800D03*
X0056800Y0371800D03*
X0066800Y0371800D03*
X0066800Y0361800D03*
X0066800Y0381800D03*
X0056800Y0381800D03*
X0376800Y0359300D03*
X0376800Y0349300D03*
X0376800Y0339300D03*
X0376800Y0329300D03*
X0386800Y0329300D03*
X0386800Y0339300D03*
X0386800Y0349300D03*
X0386800Y0359300D03*
X0386800Y0316800D03*
X0386800Y0306800D03*
X0386800Y0296800D03*
X0386800Y0286800D03*
X0386800Y0276800D03*
X0386800Y0266800D03*
X0386800Y0256800D03*
X0386800Y0246800D03*
X0386800Y0236800D03*
X0386800Y0226800D03*
X0386800Y0216800D03*
X0386800Y0206800D03*
X0376800Y0206800D03*
X0376800Y0216800D03*
X0376800Y0226800D03*
X0376800Y0236800D03*
X0376800Y0246800D03*
X0376800Y0256800D03*
X0376800Y0266800D03*
X0376800Y0276800D03*
X0376800Y0286800D03*
X0376800Y0296800D03*
X0376800Y0306800D03*
X0376800Y0316800D03*
X0376800Y0191800D03*
X0376800Y0181800D03*
X0376800Y0171800D03*
X0376800Y0161800D03*
X0376800Y0151800D03*
X0376800Y0141800D03*
X0376800Y0131800D03*
X0376800Y0121800D03*
X0386800Y0121800D03*
X0386800Y0131800D03*
X0386800Y0141800D03*
X0386800Y0151800D03*
X0386800Y0161800D03*
X0386800Y0171800D03*
X0386800Y0181800D03*
X0386800Y0191800D03*
X0386800Y0106800D03*
X0386800Y0096800D03*
X0386800Y0086800D03*
X0386800Y0076800D03*
X0386800Y0066800D03*
X0386800Y0056800D03*
X0386800Y0046800D03*
X0386800Y0036800D03*
X0376800Y0036800D03*
X0376800Y0046800D03*
X0376800Y0056800D03*
X0376800Y0066800D03*
X0376800Y0076800D03*
X0376800Y0086800D03*
X0376800Y0096800D03*
X0376800Y0106800D03*
D16*
X0089800Y0351800D02*
X0083800Y0351800D01*
X0083800Y0361800D02*
X0089800Y0361800D01*
X0089800Y0371800D02*
X0083800Y0371800D01*
X0083800Y0381800D02*
X0089800Y0381800D01*
D17*
X0017548Y0379753D03*
X0379753Y0379753D03*
X0379753Y0017548D03*
X0017548Y0017548D03*
D18*
X0010548Y0010548D03*
X0017548Y0007548D03*
X0025048Y0010548D03*
X0028048Y0017548D03*
X0024548Y0024048D03*
X0017548Y0027548D03*
X0010548Y0024548D03*
X0007548Y0018048D03*
X0017548Y0369753D03*
X0010548Y0372753D03*
X0007548Y0380253D03*
X0010548Y0386753D03*
X0017548Y0389753D03*
X0024548Y0386253D03*
X0028048Y0379753D03*
X0025048Y0372753D03*
X0369753Y0380253D03*
X0372753Y0386753D03*
X0379753Y0389753D03*
X0386753Y0386253D03*
X0390253Y0379753D03*
X0387253Y0372753D03*
X0379753Y0369753D03*
X0372753Y0372753D03*
X0379753Y0027548D03*
X0372753Y0024548D03*
X0369753Y0018048D03*
X0372753Y0010548D03*
X0379753Y0007548D03*
X0387253Y0010548D03*
X0390253Y0017548D03*
X0386753Y0024048D03*
M02*
