G75*
%MOIN*%
%OFA0B0*%
%FSLAX25Y25*%
%IPPOS*%
%LPD*%
%AMOC8*
5,1,8,0,0,1.08239X$1,22.5*
%
%ADD10R,0.06299X0.11811*%
%ADD11R,0.13780X0.06299*%
%ADD12R,0.11811X0.06299*%
%ADD13R,0.09449X0.07087*%
%ADD14R,0.04800X0.08800*%
%ADD15R,0.14173X0.08661*%
%ADD16R,0.08800X0.04800*%
%ADD17R,0.08661X0.14173*%
%ADD18R,0.08000X0.02600*%
%ADD19R,0.04724X0.04724*%
%ADD20R,0.02400X0.03500*%
%ADD21R,0.03543X0.02756*%
%ADD22R,0.05000X0.04500*%
%ADD23R,0.04500X0.05000*%
%ADD24R,0.02500X0.05000*%
%ADD25R,0.01575X0.05906*%
%ADD26R,0.02362X0.02362*%
%ADD27R,0.05118X0.06102*%
D10*
X0032425Y0121264D03*
X0032425Y0138586D03*
X0056175Y0138586D03*
X0056175Y0121264D03*
D11*
X0116170Y0181800D03*
X0137430Y0181800D03*
X0086805Y0199925D03*
X0065545Y0199925D03*
X0042430Y0194925D03*
X0021170Y0194925D03*
D12*
X0113139Y0111800D03*
X0130461Y0111800D03*
D13*
X0081800Y0098772D03*
X0081800Y0082828D03*
X0064925Y0082828D03*
X0064925Y0098772D03*
X0034925Y0098772D03*
X0034925Y0082828D03*
D14*
X0073325Y0152100D03*
X0082425Y0152100D03*
X0091525Y0152100D03*
D15*
X0082425Y0176501D03*
D16*
X0114600Y0155900D03*
X0114600Y0146800D03*
X0114600Y0137700D03*
X0026475Y0155200D03*
X0026475Y0164300D03*
X0026475Y0173400D03*
D17*
X0050876Y0164300D03*
X0139001Y0146800D03*
D18*
X0314700Y0246175D03*
X0314700Y0251175D03*
X0314700Y0256175D03*
X0314700Y0261175D03*
X0314700Y0266175D03*
X0314700Y0271175D03*
X0314700Y0276175D03*
X0314700Y0281175D03*
X0314700Y0303050D03*
X0314700Y0308050D03*
X0314700Y0313050D03*
X0314700Y0318050D03*
X0314700Y0323050D03*
X0314700Y0328050D03*
X0314700Y0333050D03*
X0314700Y0338050D03*
X0338900Y0338050D03*
X0338900Y0333050D03*
X0338900Y0328050D03*
X0338900Y0323050D03*
X0338900Y0318050D03*
X0338900Y0313050D03*
X0338900Y0308050D03*
X0338900Y0303050D03*
X0338900Y0281175D03*
X0338900Y0276175D03*
X0338900Y0271175D03*
X0338900Y0266175D03*
X0338900Y0261175D03*
X0338900Y0256175D03*
X0338900Y0251175D03*
X0338900Y0246175D03*
D19*
X0115934Y0361800D03*
X0107666Y0361800D03*
X0107666Y0382425D03*
X0115934Y0382425D03*
D20*
X0039750Y0356800D03*
X0033850Y0356800D03*
X0033850Y0346800D03*
X0039750Y0346800D03*
X0039750Y0336800D03*
X0033850Y0336800D03*
X0033850Y0326800D03*
X0039750Y0326800D03*
X0039750Y0316800D03*
X0033850Y0316800D03*
X0033850Y0306800D03*
X0039750Y0306800D03*
X0039750Y0296800D03*
X0033850Y0296800D03*
X0033850Y0286800D03*
X0039750Y0286800D03*
X0039750Y0276800D03*
X0033850Y0276800D03*
X0033850Y0266800D03*
X0039750Y0266800D03*
X0039750Y0256800D03*
X0033850Y0256800D03*
X0033850Y0246800D03*
X0039750Y0246800D03*
X0039750Y0236800D03*
X0033850Y0236800D03*
X0033850Y0226800D03*
X0039750Y0226800D03*
X0358850Y0226800D03*
X0364750Y0226800D03*
X0364750Y0236800D03*
X0358850Y0236800D03*
X0358850Y0246800D03*
X0364750Y0246800D03*
X0364750Y0256800D03*
X0358850Y0256800D03*
X0358850Y0266800D03*
X0364750Y0266800D03*
X0364750Y0276800D03*
X0358850Y0276800D03*
X0358850Y0286800D03*
X0364750Y0286800D03*
X0364750Y0296800D03*
X0358850Y0296800D03*
X0358850Y0306800D03*
X0364750Y0306800D03*
X0364750Y0316800D03*
X0358850Y0316800D03*
X0358850Y0216800D03*
X0364750Y0216800D03*
X0364750Y0206800D03*
X0358850Y0206800D03*
D21*
X0316800Y0363616D03*
X0316800Y0368734D03*
X0086800Y0338109D03*
X0086800Y0332991D03*
X0066800Y0341116D03*
X0066800Y0346234D03*
D22*
X0071800Y0248050D03*
X0071800Y0240550D03*
X0109300Y0239925D03*
X0109300Y0247425D03*
X0196800Y0266800D03*
X0196800Y0274300D03*
X0196800Y0293050D03*
X0196800Y0300550D03*
X0231800Y0300550D03*
X0231800Y0293050D03*
X0231800Y0274925D03*
X0231800Y0267425D03*
D23*
X0353050Y0106800D03*
X0360550Y0106800D03*
D24*
X0049300Y0041800D03*
X0084300Y0046800D03*
D25*
X0162725Y0127528D03*
X0165284Y0127528D03*
X0167843Y0127528D03*
X0170402Y0127528D03*
X0172961Y0127528D03*
X0175520Y0127528D03*
X0178080Y0127528D03*
X0180639Y0127528D03*
X0183198Y0127528D03*
X0185757Y0127528D03*
X0188316Y0127528D03*
X0190875Y0127528D03*
X0212725Y0127528D03*
X0215284Y0127528D03*
X0217843Y0127528D03*
X0220402Y0127528D03*
X0222961Y0127528D03*
X0225520Y0127528D03*
X0228080Y0127528D03*
X0230639Y0127528D03*
X0233198Y0127528D03*
X0235757Y0127528D03*
X0238316Y0127528D03*
X0240875Y0127528D03*
X0267725Y0127528D03*
X0270284Y0127528D03*
X0272843Y0127528D03*
X0275402Y0127528D03*
X0277961Y0127528D03*
X0280520Y0127528D03*
X0283080Y0127528D03*
X0285639Y0127528D03*
X0288198Y0127528D03*
X0290757Y0127528D03*
X0293316Y0127528D03*
X0295875Y0127528D03*
X0295875Y0156072D03*
X0293316Y0156072D03*
X0290757Y0156072D03*
X0288198Y0156072D03*
X0285639Y0156072D03*
X0283080Y0156072D03*
X0280520Y0156072D03*
X0277961Y0156072D03*
X0275402Y0156072D03*
X0272843Y0156072D03*
X0270284Y0156072D03*
X0267725Y0156072D03*
X0240875Y0156072D03*
X0238316Y0156072D03*
X0235757Y0156072D03*
X0233198Y0156072D03*
X0230639Y0156072D03*
X0228080Y0156072D03*
X0225520Y0156072D03*
X0222961Y0156072D03*
X0220402Y0156072D03*
X0217843Y0156072D03*
X0215284Y0156072D03*
X0212725Y0156072D03*
X0190875Y0156072D03*
X0188316Y0156072D03*
X0185757Y0156072D03*
X0183198Y0156072D03*
X0180639Y0156072D03*
X0178080Y0156072D03*
X0175520Y0156072D03*
X0172961Y0156072D03*
X0170402Y0156072D03*
X0167843Y0156072D03*
X0165284Y0156072D03*
X0162725Y0156072D03*
D26*
X0091165Y0240560D03*
X0083685Y0244300D03*
X0091165Y0248040D03*
X0208060Y0271800D03*
X0215540Y0268060D03*
X0215540Y0275540D03*
X0215540Y0293060D03*
X0215540Y0300540D03*
X0208060Y0296800D03*
D27*
X0124408Y0313025D03*
X0106692Y0313025D03*
X0106692Y0344325D03*
X0124408Y0344325D03*
X0294817Y0216825D03*
X0312533Y0216825D03*
X0322317Y0216825D03*
X0340033Y0216825D03*
X0340033Y0185525D03*
X0322317Y0185525D03*
X0312533Y0185525D03*
X0294817Y0185525D03*
M02*
