G75*
%MOIN*%
%OFA0B0*%
%FSLAX25Y25*%
%IPPOS*%
%LPD*%
%AMOC8*
5,1,8,0,0,1.08239X$1,22.5*
%
%ADD10C,0.00000*%
%ADD11C,0.00600*%
%ADD12C,0.00700*%
%ADD13R,0.04271X0.00134*%
%ADD14R,0.05872X0.00133*%
%ADD15R,0.07207X0.00133*%
%ADD16R,0.08275X0.00133*%
%ADD17R,0.09076X0.00133*%
%ADD18R,0.10143X0.00133*%
%ADD19R,0.10944X0.00133*%
%ADD20R,0.11478X0.00133*%
%ADD21R,0.12279X0.00134*%
%ADD22R,0.12813X0.00133*%
%ADD23R,0.13346X0.00133*%
%ADD24R,0.13880X0.00133*%
%ADD25R,0.14414X0.00134*%
%ADD26R,0.14948X0.00133*%
%ADD27R,0.15482X0.00133*%
%ADD28R,0.16016X0.00133*%
%ADD29R,0.07207X0.00133*%
%ADD30R,0.06539X0.00133*%
%ADD31R,0.06540X0.00133*%
%ADD32R,0.06140X0.00133*%
%ADD33R,0.06139X0.00133*%
%ADD34R,0.05739X0.00133*%
%ADD35R,0.05472X0.00133*%
%ADD36R,0.05205X0.00133*%
%ADD37R,0.04938X0.00133*%
%ADD38R,0.04939X0.00133*%
%ADD39R,0.04671X0.00133*%
%ADD40R,0.04672X0.00133*%
%ADD41R,0.04538X0.00133*%
%ADD42R,0.04538X0.00133*%
%ADD43R,0.04404X0.00133*%
%ADD44R,0.04270X0.00133*%
%ADD45R,0.04137X0.00133*%
%ADD46R,0.04004X0.00133*%
%ADD47R,0.04004X0.00133*%
%ADD48R,0.03871X0.00133*%
%ADD49R,0.03870X0.00133*%
%ADD50R,0.03737X0.00133*%
%ADD51R,0.03737X0.00133*%
%ADD52R,0.03603X0.00133*%
%ADD53R,0.03604X0.00133*%
%ADD54R,0.03603X0.00133*%
%ADD55R,0.03604X0.00133*%
%ADD56R,0.03470X0.00134*%
%ADD57R,0.03470X0.00133*%
%ADD58R,0.03337X0.00133*%
%ADD59R,0.03337X0.00133*%
%ADD60R,0.03336X0.00133*%
%ADD61R,0.03337X0.00133*%
%ADD62R,0.03337X0.00134*%
%ADD63R,0.03204X0.00133*%
%ADD64R,0.03203X0.00133*%
%ADD65R,0.03070X0.00133*%
%ADD66R,0.03070X0.00133*%
%ADD67R,0.03069X0.00133*%
%ADD68R,0.02936X0.00133*%
%ADD69R,0.02937X0.00133*%
%ADD70R,0.02936X0.00133*%
%ADD71R,0.02803X0.00133*%
%ADD72R,0.02803X0.00133*%
%ADD73R,0.02802X0.00133*%
%ADD74R,0.02803X0.00133*%
%ADD75R,0.02803X0.00134*%
%ADD76R,0.02669X0.00133*%
%ADD77R,0.02669X0.00133*%
%ADD78R,0.02669X0.00133*%
%ADD79R,0.02669X0.00133*%
%ADD80R,0.02669X0.00134*%
%ADD81R,0.02669X0.00134*%
%ADD82R,0.02670X0.00133*%
%ADD83R,0.02536X0.00133*%
%ADD84R,0.02136X0.00133*%
%ADD85R,0.03203X0.00133*%
%ADD86R,0.04004X0.00133*%
%ADD87R,0.02536X0.00133*%
%ADD88R,0.04538X0.00133*%
%ADD89R,0.02536X0.00134*%
%ADD90R,0.05072X0.00134*%
%ADD91R,0.02403X0.00133*%
%ADD92R,0.05606X0.00133*%
%ADD93R,0.02402X0.00133*%
%ADD94R,0.06006X0.00133*%
%ADD95R,0.02402X0.00133*%
%ADD96R,0.06406X0.00133*%
%ADD97R,0.06673X0.00133*%
%ADD98R,0.06940X0.00133*%
%ADD99R,0.02536X0.00133*%
%ADD100R,0.07341X0.00133*%
%ADD101R,0.24157X0.00133*%
%ADD102R,0.24291X0.00133*%
%ADD103R,0.24557X0.00133*%
%ADD104R,0.02403X0.00133*%
%ADD105R,0.24691X0.00133*%
%ADD106R,0.02403X0.00134*%
%ADD107R,0.04138X0.00134*%
%ADD108R,0.20420X0.00134*%
%ADD109R,0.19887X0.00133*%
%ADD110R,0.02269X0.00133*%
%ADD111R,0.19486X0.00133*%
%ADD112R,0.19352X0.00133*%
%ADD113R,0.19086X0.00133*%
%ADD114R,0.18819X0.00133*%
%ADD115R,0.18552X0.00133*%
%ADD116R,0.02535X0.00133*%
%ADD117R,0.18419X0.00133*%
%ADD118R,0.18285X0.00133*%
%ADD119R,0.18284X0.00133*%
%ADD120R,0.02135X0.00133*%
%ADD121R,0.02269X0.00133*%
%ADD122R,0.02135X0.00133*%
%ADD123R,0.02002X0.00133*%
%ADD124R,0.02269X0.00133*%
%ADD125R,0.18151X0.00133*%
%ADD126R,0.02269X0.00134*%
%ADD127R,0.18151X0.00134*%
%ADD128R,0.18418X0.00133*%
%ADD129R,0.18685X0.00133*%
%ADD130R,0.18952X0.00133*%
%ADD131R,0.19619X0.00133*%
%ADD132R,0.03737X0.00133*%
%ADD133R,0.20020X0.00133*%
%ADD134R,0.24825X0.00133*%
%ADD135R,0.24691X0.00133*%
%ADD136R,0.07741X0.00133*%
%ADD137R,0.07474X0.00133*%
%ADD138R,0.05872X0.00133*%
%ADD139R,0.05339X0.00133*%
%ADD140R,0.04939X0.00134*%
%ADD141R,0.04271X0.00133*%
%ADD142R,0.03336X0.00133*%
%ADD143R,0.14414X0.00133*%
%ADD144R,0.13880X0.00133*%
%ADD145R,0.12279X0.00133*%
%ADD146R,0.11478X0.00133*%
%ADD147R,0.14606X0.00055*%
%ADD148R,0.15047X0.00055*%
%ADD149R,0.15268X0.00055*%
%ADD150R,0.15433X0.00055*%
%ADD151R,0.15598X0.00055*%
%ADD152R,0.15764X0.00055*%
%ADD153R,0.15874X0.00055*%
%ADD154R,0.16039X0.00055*%
%ADD155R,0.16150X0.00055*%
%ADD156R,0.16260X0.00055*%
%ADD157R,0.16315X0.00055*%
%ADD158R,0.16370X0.00055*%
%ADD159R,0.16480X0.00055*%
%ADD160R,0.16535X0.00055*%
%ADD161R,0.16591X0.00055*%
%ADD162R,0.16646X0.00055*%
%ADD163R,0.16701X0.00055*%
%ADD164R,0.16756X0.00055*%
%ADD165R,0.16811X0.00055*%
%ADD166R,0.02811X0.00055*%
%ADD167R,0.02756X0.00055*%
%ADD168R,0.02701X0.00055*%
%ADD169R,0.02866X0.00055*%
%ADD170R,0.03031X0.00055*%
%ADD171R,0.02921X0.00055*%
%ADD172R,0.03307X0.00055*%
%ADD173R,0.03142X0.00055*%
%ADD174R,0.03528X0.00055*%
%ADD175R,0.03252X0.00055*%
%ADD176R,0.03748X0.00055*%
%ADD177R,0.03417X0.00055*%
%ADD178R,0.04079X0.00055*%
%ADD179R,0.04299X0.00055*%
%ADD180R,0.03583X0.00055*%
%ADD181R,0.03693X0.00055*%
%ADD182R,0.04630X0.00055*%
%ADD183R,0.03858X0.00055*%
%ADD184R,0.04961X0.00055*%
%ADD185R,0.03913X0.00055*%
%ADD186R,0.05402X0.00055*%
%ADD187R,0.05953X0.00055*%
%ADD188R,0.04354X0.00055*%
%ADD189R,0.16866X0.00055*%
%ADD190R,0.04024X0.00055*%
%ADD191R,0.03638X0.00055*%
%ADD192R,0.02425X0.00055*%
%ADD193R,0.02480X0.00055*%
%ADD194R,0.01929X0.00055*%
%ADD195R,0.02039X0.00055*%
%ADD196R,0.01047X0.00055*%
%ADD197R,0.01157X0.00055*%
%ADD198R,0.04134X0.00055*%
%ADD199R,0.05181X0.00055*%
%ADD200R,0.05126X0.00055*%
%ADD201R,0.05291X0.00055*%
%ADD202R,0.05457X0.00055*%
%ADD203R,0.05567X0.00055*%
%ADD204R,0.05512X0.00055*%
%ADD205R,0.05622X0.00055*%
%ADD206R,0.05732X0.00055*%
%ADD207R,0.05843X0.00055*%
%ADD208R,0.05787X0.00055*%
%ADD209R,0.05898X0.00055*%
%ADD210R,0.06008X0.00055*%
%ADD211R,0.06063X0.00055*%
%ADD212R,0.06118X0.00055*%
%ADD213R,0.06173X0.00055*%
%ADD214R,0.06283X0.00055*%
%ADD215R,0.06228X0.00055*%
%ADD216R,0.06339X0.00055*%
%ADD217R,0.06394X0.00055*%
%ADD218R,0.06449X0.00055*%
%ADD219R,0.06504X0.00055*%
%ADD220R,0.06559X0.00055*%
%ADD221R,0.06614X0.00055*%
%ADD222R,0.06669X0.00055*%
%ADD223R,0.06724X0.00055*%
%ADD224R,0.06780X0.00055*%
%ADD225R,0.06835X0.00055*%
%ADD226R,0.06890X0.00055*%
%ADD227R,0.06945X0.00055*%
%ADD228R,0.07000X0.00055*%
%ADD229R,0.02976X0.00055*%
%ADD230R,0.02646X0.00055*%
%ADD231R,0.02591X0.00055*%
%ADD232R,0.02535X0.00055*%
%ADD233R,0.02370X0.00055*%
%ADD234R,0.02260X0.00055*%
%ADD235R,0.02150X0.00055*%
%ADD236R,0.01819X0.00055*%
%ADD237R,0.01709X0.00055*%
%ADD238R,0.01598X0.00055*%
%ADD239R,0.01433X0.00055*%
%ADD240R,0.01213X0.00055*%
%ADD241R,0.00992X0.00055*%
%ADD242R,0.00606X0.00055*%
%ADD243R,0.07055X0.00055*%
%ADD244R,0.04189X0.00055*%
%ADD245R,0.04409X0.00055*%
%ADD246R,0.04520X0.00055*%
%ADD247R,0.04740X0.00055*%
%ADD248R,0.04850X0.00055*%
%ADD249R,0.05071X0.00055*%
%ADD250R,0.05346X0.00055*%
%ADD251R,0.05236X0.00055*%
%ADD252R,0.05016X0.00055*%
%ADD253R,0.04906X0.00055*%
%ADD254R,0.04795X0.00055*%
%ADD255R,0.04685X0.00055*%
%ADD256R,0.03969X0.00055*%
%ADD257R,0.02315X0.00055*%
%ADD258R,0.02205X0.00055*%
%ADD259R,0.02094X0.00055*%
%ADD260R,0.01984X0.00055*%
%ADD261R,0.01874X0.00055*%
%ADD262R,0.01764X0.00055*%
%ADD263R,0.01268X0.00055*%
%ADD264R,0.00937X0.00055*%
%ADD265R,0.00717X0.00055*%
%ADD266R,0.00551X0.00055*%
%ADD267R,0.00055X0.00055*%
%ADD268R,0.04244X0.00055*%
%ADD269R,0.03087X0.00055*%
%ADD270R,0.07331X0.00055*%
%ADD271R,0.07661X0.00055*%
%ADD272R,0.03197X0.00055*%
%ADD273R,0.07937X0.00055*%
%ADD274R,0.08268X0.00055*%
%ADD275R,0.08488X0.00055*%
%ADD276R,0.08764X0.00055*%
%ADD277R,0.03362X0.00055*%
%ADD278R,0.09039X0.00055*%
%ADD279R,0.09260X0.00055*%
%ADD280R,0.03472X0.00055*%
%ADD281R,0.09480X0.00055*%
%ADD282R,0.09701X0.00055*%
%ADD283R,0.09866X0.00055*%
%ADD284R,0.10031X0.00055*%
%ADD285R,0.03803X0.00055*%
%ADD286R,0.10252X0.00055*%
%ADD287R,0.10472X0.00055*%
%ADD288R,0.10638X0.00055*%
%ADD289R,0.10858X0.00055*%
%ADD290R,0.17307X0.00055*%
%ADD291R,0.23591X0.00055*%
%ADD292R,0.23480X0.00055*%
%ADD293R,0.23370X0.00055*%
%ADD294R,0.23260X0.00055*%
%ADD295R,0.23150X0.00055*%
%ADD296R,0.23039X0.00055*%
%ADD297R,0.22929X0.00055*%
%ADD298R,0.22819X0.00055*%
%ADD299R,0.22709X0.00055*%
%ADD300R,0.22598X0.00055*%
%ADD301R,0.22488X0.00055*%
%ADD302R,0.22378X0.00055*%
%ADD303R,0.22268X0.00055*%
%ADD304R,0.22157X0.00055*%
%ADD305R,0.22047X0.00055*%
%ADD306R,0.21937X0.00055*%
%ADD307R,0.21827X0.00055*%
%ADD308R,0.21717X0.00055*%
%ADD309R,0.21606X0.00055*%
%ADD310R,0.21496X0.00055*%
%ADD311R,0.21386X0.00055*%
%ADD312R,0.21276X0.00055*%
%ADD313R,0.08654X0.00055*%
%ADD314R,0.08323X0.00055*%
%ADD315R,0.07992X0.00055*%
%ADD316R,0.07772X0.00055*%
%ADD317R,0.07496X0.00055*%
%ADD318R,0.07386X0.00055*%
%ADD319R,0.07276X0.00055*%
%ADD320R,0.07165X0.00055*%
%ADD321R,0.05677X0.00055*%
%ADD322R,0.04575X0.00055*%
%ADD323R,0.04465X0.00055*%
%ADD324R,0.07110X0.00055*%
%ADD325R,0.07551X0.00055*%
%ADD326R,0.07827X0.00055*%
%ADD327R,0.08047X0.00055*%
%ADD328R,0.08102X0.00055*%
%ADD329R,0.08157X0.00055*%
%ADD330R,0.08378X0.00055*%
%ADD331R,0.08213X0.00055*%
%ADD332R,0.07882X0.00055*%
%ADD333R,0.07441X0.00055*%
%ADD334R,0.07220X0.00055*%
%ADD335R,0.13835X0.00055*%
%ADD336R,0.13780X0.00055*%
%ADD337R,0.13724X0.00055*%
%ADD338R,0.13614X0.00055*%
%ADD339R,0.13504X0.00055*%
%ADD340R,0.13394X0.00055*%
%ADD341R,0.13283X0.00055*%
%ADD342R,0.13173X0.00055*%
%ADD343R,0.13063X0.00055*%
%ADD344R,0.12953X0.00055*%
%ADD345R,0.12843X0.00055*%
%ADD346R,0.12732X0.00055*%
%ADD347R,0.12622X0.00055*%
%ADD348R,0.12512X0.00055*%
%ADD349R,0.12402X0.00055*%
%ADD350R,0.12236X0.00055*%
%ADD351R,0.12126X0.00055*%
%ADD352R,0.12016X0.00055*%
%ADD353R,0.11906X0.00055*%
%ADD354R,0.11740X0.00055*%
%ADD355R,0.11575X0.00055*%
%ADD356R,0.11465X0.00055*%
%ADD357R,0.11299X0.00055*%
%ADD358R,0.11134X0.00055*%
%ADD359R,0.11024X0.00055*%
%ADD360R,0.10803X0.00055*%
%ADD361R,0.10693X0.00055*%
%ADD362R,0.10307X0.00055*%
%ADD363R,0.10142X0.00055*%
%ADD364R,0.09921X0.00055*%
%ADD365R,0.09315X0.00055*%
%ADD366R,0.08819X0.00055*%
%ADD367R,0.08598X0.00055*%
D10*
X0001800Y0017548D02*
X0001800Y0383690D01*
X0001803Y0383975D01*
X0001814Y0384261D01*
X0001831Y0384546D01*
X0001855Y0384830D01*
X0001886Y0385114D01*
X0001924Y0385397D01*
X0001969Y0385678D01*
X0002020Y0385959D01*
X0002078Y0386239D01*
X0002143Y0386517D01*
X0002215Y0386793D01*
X0002293Y0387067D01*
X0002378Y0387340D01*
X0002470Y0387610D01*
X0002568Y0387878D01*
X0002672Y0388144D01*
X0002783Y0388407D01*
X0002900Y0388667D01*
X0003023Y0388925D01*
X0003153Y0389179D01*
X0003289Y0389430D01*
X0003430Y0389678D01*
X0003578Y0389922D01*
X0003731Y0390163D01*
X0003891Y0390399D01*
X0004056Y0390632D01*
X0004226Y0390861D01*
X0004402Y0391086D01*
X0004584Y0391306D01*
X0004770Y0391522D01*
X0004962Y0391733D01*
X0005159Y0391940D01*
X0005361Y0392142D01*
X0005568Y0392339D01*
X0005779Y0392531D01*
X0005995Y0392717D01*
X0006215Y0392899D01*
X0006440Y0393075D01*
X0006669Y0393245D01*
X0006902Y0393410D01*
X0007138Y0393570D01*
X0007379Y0393723D01*
X0007623Y0393871D01*
X0007871Y0394012D01*
X0008122Y0394148D01*
X0008376Y0394278D01*
X0008634Y0394401D01*
X0008894Y0394518D01*
X0009157Y0394629D01*
X0009423Y0394733D01*
X0009691Y0394831D01*
X0009961Y0394923D01*
X0010234Y0395008D01*
X0010508Y0395086D01*
X0010784Y0395158D01*
X0011062Y0395223D01*
X0011342Y0395281D01*
X0011623Y0395332D01*
X0011904Y0395377D01*
X0012187Y0395415D01*
X0012471Y0395446D01*
X0012755Y0395470D01*
X0013040Y0395487D01*
X0013326Y0395498D01*
X0013611Y0395501D01*
X0383690Y0395501D01*
X0383975Y0395498D01*
X0384261Y0395487D01*
X0384546Y0395470D01*
X0384830Y0395446D01*
X0385114Y0395415D01*
X0385397Y0395377D01*
X0385678Y0395332D01*
X0385959Y0395281D01*
X0386239Y0395223D01*
X0386517Y0395158D01*
X0386793Y0395086D01*
X0387067Y0395008D01*
X0387340Y0394923D01*
X0387610Y0394831D01*
X0387878Y0394733D01*
X0388144Y0394629D01*
X0388407Y0394518D01*
X0388667Y0394401D01*
X0388925Y0394278D01*
X0389179Y0394148D01*
X0389430Y0394012D01*
X0389678Y0393871D01*
X0389922Y0393723D01*
X0390163Y0393570D01*
X0390399Y0393410D01*
X0390632Y0393245D01*
X0390861Y0393075D01*
X0391086Y0392899D01*
X0391306Y0392717D01*
X0391522Y0392531D01*
X0391733Y0392339D01*
X0391940Y0392142D01*
X0392142Y0391940D01*
X0392339Y0391733D01*
X0392531Y0391522D01*
X0392717Y0391306D01*
X0392899Y0391086D01*
X0393075Y0390861D01*
X0393245Y0390632D01*
X0393410Y0390399D01*
X0393570Y0390163D01*
X0393723Y0389922D01*
X0393871Y0389678D01*
X0394012Y0389430D01*
X0394148Y0389179D01*
X0394278Y0388925D01*
X0394401Y0388667D01*
X0394518Y0388407D01*
X0394629Y0388144D01*
X0394733Y0387878D01*
X0394831Y0387610D01*
X0394923Y0387340D01*
X0395008Y0387067D01*
X0395086Y0386793D01*
X0395158Y0386517D01*
X0395223Y0386239D01*
X0395281Y0385959D01*
X0395332Y0385678D01*
X0395377Y0385397D01*
X0395415Y0385114D01*
X0395446Y0384830D01*
X0395470Y0384546D01*
X0395487Y0384261D01*
X0395498Y0383975D01*
X0395501Y0383690D01*
X0395501Y0017548D01*
X0373454Y0017548D02*
X0373456Y0017706D01*
X0373462Y0017864D01*
X0373472Y0018022D01*
X0373486Y0018180D01*
X0373504Y0018337D01*
X0373525Y0018494D01*
X0373551Y0018650D01*
X0373581Y0018806D01*
X0373614Y0018961D01*
X0373652Y0019114D01*
X0373693Y0019267D01*
X0373738Y0019419D01*
X0373787Y0019570D01*
X0373840Y0019719D01*
X0373896Y0019867D01*
X0373956Y0020013D01*
X0374020Y0020158D01*
X0374088Y0020301D01*
X0374159Y0020443D01*
X0374233Y0020583D01*
X0374311Y0020720D01*
X0374393Y0020856D01*
X0374477Y0020990D01*
X0374566Y0021121D01*
X0374657Y0021250D01*
X0374752Y0021377D01*
X0374849Y0021502D01*
X0374950Y0021624D01*
X0375054Y0021743D01*
X0375161Y0021860D01*
X0375271Y0021974D01*
X0375384Y0022085D01*
X0375499Y0022194D01*
X0375617Y0022299D01*
X0375738Y0022401D01*
X0375861Y0022501D01*
X0375987Y0022597D01*
X0376115Y0022690D01*
X0376245Y0022780D01*
X0376378Y0022866D01*
X0376513Y0022950D01*
X0376649Y0023029D01*
X0376788Y0023106D01*
X0376929Y0023178D01*
X0377071Y0023248D01*
X0377215Y0023313D01*
X0377361Y0023375D01*
X0377508Y0023433D01*
X0377657Y0023488D01*
X0377807Y0023539D01*
X0377958Y0023586D01*
X0378110Y0023629D01*
X0378263Y0023668D01*
X0378418Y0023704D01*
X0378573Y0023735D01*
X0378729Y0023763D01*
X0378885Y0023787D01*
X0379042Y0023807D01*
X0379200Y0023823D01*
X0379357Y0023835D01*
X0379516Y0023843D01*
X0379674Y0023847D01*
X0379832Y0023847D01*
X0379990Y0023843D01*
X0380149Y0023835D01*
X0380306Y0023823D01*
X0380464Y0023807D01*
X0380621Y0023787D01*
X0380777Y0023763D01*
X0380933Y0023735D01*
X0381088Y0023704D01*
X0381243Y0023668D01*
X0381396Y0023629D01*
X0381548Y0023586D01*
X0381699Y0023539D01*
X0381849Y0023488D01*
X0381998Y0023433D01*
X0382145Y0023375D01*
X0382291Y0023313D01*
X0382435Y0023248D01*
X0382577Y0023178D01*
X0382718Y0023106D01*
X0382857Y0023029D01*
X0382993Y0022950D01*
X0383128Y0022866D01*
X0383261Y0022780D01*
X0383391Y0022690D01*
X0383519Y0022597D01*
X0383645Y0022501D01*
X0383768Y0022401D01*
X0383889Y0022299D01*
X0384007Y0022194D01*
X0384122Y0022085D01*
X0384235Y0021974D01*
X0384345Y0021860D01*
X0384452Y0021743D01*
X0384556Y0021624D01*
X0384657Y0021502D01*
X0384754Y0021377D01*
X0384849Y0021250D01*
X0384940Y0021121D01*
X0385029Y0020990D01*
X0385113Y0020856D01*
X0385195Y0020720D01*
X0385273Y0020583D01*
X0385347Y0020443D01*
X0385418Y0020301D01*
X0385486Y0020158D01*
X0385550Y0020013D01*
X0385610Y0019867D01*
X0385666Y0019719D01*
X0385719Y0019570D01*
X0385768Y0019419D01*
X0385813Y0019267D01*
X0385854Y0019114D01*
X0385892Y0018961D01*
X0385925Y0018806D01*
X0385955Y0018650D01*
X0385981Y0018494D01*
X0386002Y0018337D01*
X0386020Y0018180D01*
X0386034Y0018022D01*
X0386044Y0017864D01*
X0386050Y0017706D01*
X0386052Y0017548D01*
X0386050Y0017390D01*
X0386044Y0017232D01*
X0386034Y0017074D01*
X0386020Y0016916D01*
X0386002Y0016759D01*
X0385981Y0016602D01*
X0385955Y0016446D01*
X0385925Y0016290D01*
X0385892Y0016135D01*
X0385854Y0015982D01*
X0385813Y0015829D01*
X0385768Y0015677D01*
X0385719Y0015526D01*
X0385666Y0015377D01*
X0385610Y0015229D01*
X0385550Y0015083D01*
X0385486Y0014938D01*
X0385418Y0014795D01*
X0385347Y0014653D01*
X0385273Y0014513D01*
X0385195Y0014376D01*
X0385113Y0014240D01*
X0385029Y0014106D01*
X0384940Y0013975D01*
X0384849Y0013846D01*
X0384754Y0013719D01*
X0384657Y0013594D01*
X0384556Y0013472D01*
X0384452Y0013353D01*
X0384345Y0013236D01*
X0384235Y0013122D01*
X0384122Y0013011D01*
X0384007Y0012902D01*
X0383889Y0012797D01*
X0383768Y0012695D01*
X0383645Y0012595D01*
X0383519Y0012499D01*
X0383391Y0012406D01*
X0383261Y0012316D01*
X0383128Y0012230D01*
X0382993Y0012146D01*
X0382857Y0012067D01*
X0382718Y0011990D01*
X0382577Y0011918D01*
X0382435Y0011848D01*
X0382291Y0011783D01*
X0382145Y0011721D01*
X0381998Y0011663D01*
X0381849Y0011608D01*
X0381699Y0011557D01*
X0381548Y0011510D01*
X0381396Y0011467D01*
X0381243Y0011428D01*
X0381088Y0011392D01*
X0380933Y0011361D01*
X0380777Y0011333D01*
X0380621Y0011309D01*
X0380464Y0011289D01*
X0380306Y0011273D01*
X0380149Y0011261D01*
X0379990Y0011253D01*
X0379832Y0011249D01*
X0379674Y0011249D01*
X0379516Y0011253D01*
X0379357Y0011261D01*
X0379200Y0011273D01*
X0379042Y0011289D01*
X0378885Y0011309D01*
X0378729Y0011333D01*
X0378573Y0011361D01*
X0378418Y0011392D01*
X0378263Y0011428D01*
X0378110Y0011467D01*
X0377958Y0011510D01*
X0377807Y0011557D01*
X0377657Y0011608D01*
X0377508Y0011663D01*
X0377361Y0011721D01*
X0377215Y0011783D01*
X0377071Y0011848D01*
X0376929Y0011918D01*
X0376788Y0011990D01*
X0376649Y0012067D01*
X0376513Y0012146D01*
X0376378Y0012230D01*
X0376245Y0012316D01*
X0376115Y0012406D01*
X0375987Y0012499D01*
X0375861Y0012595D01*
X0375738Y0012695D01*
X0375617Y0012797D01*
X0375499Y0012902D01*
X0375384Y0013011D01*
X0375271Y0013122D01*
X0375161Y0013236D01*
X0375054Y0013353D01*
X0374950Y0013472D01*
X0374849Y0013594D01*
X0374752Y0013719D01*
X0374657Y0013846D01*
X0374566Y0013975D01*
X0374477Y0014106D01*
X0374393Y0014240D01*
X0374311Y0014376D01*
X0374233Y0014513D01*
X0374159Y0014653D01*
X0374088Y0014795D01*
X0374020Y0014938D01*
X0373956Y0015083D01*
X0373896Y0015229D01*
X0373840Y0015377D01*
X0373787Y0015526D01*
X0373738Y0015677D01*
X0373693Y0015829D01*
X0373652Y0015982D01*
X0373614Y0016135D01*
X0373581Y0016290D01*
X0373551Y0016446D01*
X0373525Y0016602D01*
X0373504Y0016759D01*
X0373486Y0016916D01*
X0373472Y0017074D01*
X0373462Y0017232D01*
X0373456Y0017390D01*
X0373454Y0017548D01*
X0379753Y0001800D02*
X0380134Y0001805D01*
X0380514Y0001818D01*
X0380894Y0001841D01*
X0381273Y0001874D01*
X0381651Y0001915D01*
X0382028Y0001965D01*
X0382404Y0002025D01*
X0382779Y0002093D01*
X0383151Y0002171D01*
X0383522Y0002258D01*
X0383890Y0002353D01*
X0384256Y0002458D01*
X0384619Y0002571D01*
X0384980Y0002693D01*
X0385337Y0002823D01*
X0385691Y0002963D01*
X0386042Y0003110D01*
X0386389Y0003267D01*
X0386732Y0003431D01*
X0387071Y0003604D01*
X0387406Y0003785D01*
X0387737Y0003974D01*
X0388062Y0004171D01*
X0388383Y0004375D01*
X0388699Y0004588D01*
X0389009Y0004808D01*
X0389315Y0005035D01*
X0389614Y0005270D01*
X0389908Y0005512D01*
X0390196Y0005760D01*
X0390478Y0006016D01*
X0390753Y0006279D01*
X0391022Y0006548D01*
X0391285Y0006823D01*
X0391541Y0007105D01*
X0391789Y0007393D01*
X0392031Y0007687D01*
X0392266Y0007986D01*
X0392493Y0008292D01*
X0392713Y0008602D01*
X0392926Y0008918D01*
X0393130Y0009239D01*
X0393327Y0009564D01*
X0393516Y0009895D01*
X0393697Y0010230D01*
X0393870Y0010569D01*
X0394034Y0010912D01*
X0394191Y0011259D01*
X0394338Y0011610D01*
X0394478Y0011964D01*
X0394608Y0012321D01*
X0394730Y0012682D01*
X0394843Y0013045D01*
X0394948Y0013411D01*
X0395043Y0013779D01*
X0395130Y0014150D01*
X0395208Y0014522D01*
X0395276Y0014897D01*
X0395336Y0015273D01*
X0395386Y0015650D01*
X0395427Y0016028D01*
X0395460Y0016407D01*
X0395483Y0016787D01*
X0395496Y0017167D01*
X0395501Y0017548D01*
X0379753Y0001800D02*
X0017548Y0001800D01*
X0011249Y0017548D02*
X0011251Y0017706D01*
X0011257Y0017864D01*
X0011267Y0018022D01*
X0011281Y0018180D01*
X0011299Y0018337D01*
X0011320Y0018494D01*
X0011346Y0018650D01*
X0011376Y0018806D01*
X0011409Y0018961D01*
X0011447Y0019114D01*
X0011488Y0019267D01*
X0011533Y0019419D01*
X0011582Y0019570D01*
X0011635Y0019719D01*
X0011691Y0019867D01*
X0011751Y0020013D01*
X0011815Y0020158D01*
X0011883Y0020301D01*
X0011954Y0020443D01*
X0012028Y0020583D01*
X0012106Y0020720D01*
X0012188Y0020856D01*
X0012272Y0020990D01*
X0012361Y0021121D01*
X0012452Y0021250D01*
X0012547Y0021377D01*
X0012644Y0021502D01*
X0012745Y0021624D01*
X0012849Y0021743D01*
X0012956Y0021860D01*
X0013066Y0021974D01*
X0013179Y0022085D01*
X0013294Y0022194D01*
X0013412Y0022299D01*
X0013533Y0022401D01*
X0013656Y0022501D01*
X0013782Y0022597D01*
X0013910Y0022690D01*
X0014040Y0022780D01*
X0014173Y0022866D01*
X0014308Y0022950D01*
X0014444Y0023029D01*
X0014583Y0023106D01*
X0014724Y0023178D01*
X0014866Y0023248D01*
X0015010Y0023313D01*
X0015156Y0023375D01*
X0015303Y0023433D01*
X0015452Y0023488D01*
X0015602Y0023539D01*
X0015753Y0023586D01*
X0015905Y0023629D01*
X0016058Y0023668D01*
X0016213Y0023704D01*
X0016368Y0023735D01*
X0016524Y0023763D01*
X0016680Y0023787D01*
X0016837Y0023807D01*
X0016995Y0023823D01*
X0017152Y0023835D01*
X0017311Y0023843D01*
X0017469Y0023847D01*
X0017627Y0023847D01*
X0017785Y0023843D01*
X0017944Y0023835D01*
X0018101Y0023823D01*
X0018259Y0023807D01*
X0018416Y0023787D01*
X0018572Y0023763D01*
X0018728Y0023735D01*
X0018883Y0023704D01*
X0019038Y0023668D01*
X0019191Y0023629D01*
X0019343Y0023586D01*
X0019494Y0023539D01*
X0019644Y0023488D01*
X0019793Y0023433D01*
X0019940Y0023375D01*
X0020086Y0023313D01*
X0020230Y0023248D01*
X0020372Y0023178D01*
X0020513Y0023106D01*
X0020652Y0023029D01*
X0020788Y0022950D01*
X0020923Y0022866D01*
X0021056Y0022780D01*
X0021186Y0022690D01*
X0021314Y0022597D01*
X0021440Y0022501D01*
X0021563Y0022401D01*
X0021684Y0022299D01*
X0021802Y0022194D01*
X0021917Y0022085D01*
X0022030Y0021974D01*
X0022140Y0021860D01*
X0022247Y0021743D01*
X0022351Y0021624D01*
X0022452Y0021502D01*
X0022549Y0021377D01*
X0022644Y0021250D01*
X0022735Y0021121D01*
X0022824Y0020990D01*
X0022908Y0020856D01*
X0022990Y0020720D01*
X0023068Y0020583D01*
X0023142Y0020443D01*
X0023213Y0020301D01*
X0023281Y0020158D01*
X0023345Y0020013D01*
X0023405Y0019867D01*
X0023461Y0019719D01*
X0023514Y0019570D01*
X0023563Y0019419D01*
X0023608Y0019267D01*
X0023649Y0019114D01*
X0023687Y0018961D01*
X0023720Y0018806D01*
X0023750Y0018650D01*
X0023776Y0018494D01*
X0023797Y0018337D01*
X0023815Y0018180D01*
X0023829Y0018022D01*
X0023839Y0017864D01*
X0023845Y0017706D01*
X0023847Y0017548D01*
X0023845Y0017390D01*
X0023839Y0017232D01*
X0023829Y0017074D01*
X0023815Y0016916D01*
X0023797Y0016759D01*
X0023776Y0016602D01*
X0023750Y0016446D01*
X0023720Y0016290D01*
X0023687Y0016135D01*
X0023649Y0015982D01*
X0023608Y0015829D01*
X0023563Y0015677D01*
X0023514Y0015526D01*
X0023461Y0015377D01*
X0023405Y0015229D01*
X0023345Y0015083D01*
X0023281Y0014938D01*
X0023213Y0014795D01*
X0023142Y0014653D01*
X0023068Y0014513D01*
X0022990Y0014376D01*
X0022908Y0014240D01*
X0022824Y0014106D01*
X0022735Y0013975D01*
X0022644Y0013846D01*
X0022549Y0013719D01*
X0022452Y0013594D01*
X0022351Y0013472D01*
X0022247Y0013353D01*
X0022140Y0013236D01*
X0022030Y0013122D01*
X0021917Y0013011D01*
X0021802Y0012902D01*
X0021684Y0012797D01*
X0021563Y0012695D01*
X0021440Y0012595D01*
X0021314Y0012499D01*
X0021186Y0012406D01*
X0021056Y0012316D01*
X0020923Y0012230D01*
X0020788Y0012146D01*
X0020652Y0012067D01*
X0020513Y0011990D01*
X0020372Y0011918D01*
X0020230Y0011848D01*
X0020086Y0011783D01*
X0019940Y0011721D01*
X0019793Y0011663D01*
X0019644Y0011608D01*
X0019494Y0011557D01*
X0019343Y0011510D01*
X0019191Y0011467D01*
X0019038Y0011428D01*
X0018883Y0011392D01*
X0018728Y0011361D01*
X0018572Y0011333D01*
X0018416Y0011309D01*
X0018259Y0011289D01*
X0018101Y0011273D01*
X0017944Y0011261D01*
X0017785Y0011253D01*
X0017627Y0011249D01*
X0017469Y0011249D01*
X0017311Y0011253D01*
X0017152Y0011261D01*
X0016995Y0011273D01*
X0016837Y0011289D01*
X0016680Y0011309D01*
X0016524Y0011333D01*
X0016368Y0011361D01*
X0016213Y0011392D01*
X0016058Y0011428D01*
X0015905Y0011467D01*
X0015753Y0011510D01*
X0015602Y0011557D01*
X0015452Y0011608D01*
X0015303Y0011663D01*
X0015156Y0011721D01*
X0015010Y0011783D01*
X0014866Y0011848D01*
X0014724Y0011918D01*
X0014583Y0011990D01*
X0014444Y0012067D01*
X0014308Y0012146D01*
X0014173Y0012230D01*
X0014040Y0012316D01*
X0013910Y0012406D01*
X0013782Y0012499D01*
X0013656Y0012595D01*
X0013533Y0012695D01*
X0013412Y0012797D01*
X0013294Y0012902D01*
X0013179Y0013011D01*
X0013066Y0013122D01*
X0012956Y0013236D01*
X0012849Y0013353D01*
X0012745Y0013472D01*
X0012644Y0013594D01*
X0012547Y0013719D01*
X0012452Y0013846D01*
X0012361Y0013975D01*
X0012272Y0014106D01*
X0012188Y0014240D01*
X0012106Y0014376D01*
X0012028Y0014513D01*
X0011954Y0014653D01*
X0011883Y0014795D01*
X0011815Y0014938D01*
X0011751Y0015083D01*
X0011691Y0015229D01*
X0011635Y0015377D01*
X0011582Y0015526D01*
X0011533Y0015677D01*
X0011488Y0015829D01*
X0011447Y0015982D01*
X0011409Y0016135D01*
X0011376Y0016290D01*
X0011346Y0016446D01*
X0011320Y0016602D01*
X0011299Y0016759D01*
X0011281Y0016916D01*
X0011267Y0017074D01*
X0011257Y0017232D01*
X0011251Y0017390D01*
X0011249Y0017548D01*
X0001800Y0017548D02*
X0001805Y0017167D01*
X0001818Y0016787D01*
X0001841Y0016407D01*
X0001874Y0016028D01*
X0001915Y0015650D01*
X0001965Y0015273D01*
X0002025Y0014897D01*
X0002093Y0014522D01*
X0002171Y0014150D01*
X0002258Y0013779D01*
X0002353Y0013411D01*
X0002458Y0013045D01*
X0002571Y0012682D01*
X0002693Y0012321D01*
X0002823Y0011964D01*
X0002963Y0011610D01*
X0003110Y0011259D01*
X0003267Y0010912D01*
X0003431Y0010569D01*
X0003604Y0010230D01*
X0003785Y0009895D01*
X0003974Y0009564D01*
X0004171Y0009239D01*
X0004375Y0008918D01*
X0004588Y0008602D01*
X0004808Y0008292D01*
X0005035Y0007986D01*
X0005270Y0007687D01*
X0005512Y0007393D01*
X0005760Y0007105D01*
X0006016Y0006823D01*
X0006279Y0006548D01*
X0006548Y0006279D01*
X0006823Y0006016D01*
X0007105Y0005760D01*
X0007393Y0005512D01*
X0007687Y0005270D01*
X0007986Y0005035D01*
X0008292Y0004808D01*
X0008602Y0004588D01*
X0008918Y0004375D01*
X0009239Y0004171D01*
X0009564Y0003974D01*
X0009895Y0003785D01*
X0010230Y0003604D01*
X0010569Y0003431D01*
X0010912Y0003267D01*
X0011259Y0003110D01*
X0011610Y0002963D01*
X0011964Y0002823D01*
X0012321Y0002693D01*
X0012682Y0002571D01*
X0013045Y0002458D01*
X0013411Y0002353D01*
X0013779Y0002258D01*
X0014150Y0002171D01*
X0014522Y0002093D01*
X0014897Y0002025D01*
X0015273Y0001965D01*
X0015650Y0001915D01*
X0016028Y0001874D01*
X0016407Y0001841D01*
X0016787Y0001818D01*
X0017167Y0001805D01*
X0017548Y0001800D01*
X0011249Y0379753D02*
X0011251Y0379911D01*
X0011257Y0380069D01*
X0011267Y0380227D01*
X0011281Y0380385D01*
X0011299Y0380542D01*
X0011320Y0380699D01*
X0011346Y0380855D01*
X0011376Y0381011D01*
X0011409Y0381166D01*
X0011447Y0381319D01*
X0011488Y0381472D01*
X0011533Y0381624D01*
X0011582Y0381775D01*
X0011635Y0381924D01*
X0011691Y0382072D01*
X0011751Y0382218D01*
X0011815Y0382363D01*
X0011883Y0382506D01*
X0011954Y0382648D01*
X0012028Y0382788D01*
X0012106Y0382925D01*
X0012188Y0383061D01*
X0012272Y0383195D01*
X0012361Y0383326D01*
X0012452Y0383455D01*
X0012547Y0383582D01*
X0012644Y0383707D01*
X0012745Y0383829D01*
X0012849Y0383948D01*
X0012956Y0384065D01*
X0013066Y0384179D01*
X0013179Y0384290D01*
X0013294Y0384399D01*
X0013412Y0384504D01*
X0013533Y0384606D01*
X0013656Y0384706D01*
X0013782Y0384802D01*
X0013910Y0384895D01*
X0014040Y0384985D01*
X0014173Y0385071D01*
X0014308Y0385155D01*
X0014444Y0385234D01*
X0014583Y0385311D01*
X0014724Y0385383D01*
X0014866Y0385453D01*
X0015010Y0385518D01*
X0015156Y0385580D01*
X0015303Y0385638D01*
X0015452Y0385693D01*
X0015602Y0385744D01*
X0015753Y0385791D01*
X0015905Y0385834D01*
X0016058Y0385873D01*
X0016213Y0385909D01*
X0016368Y0385940D01*
X0016524Y0385968D01*
X0016680Y0385992D01*
X0016837Y0386012D01*
X0016995Y0386028D01*
X0017152Y0386040D01*
X0017311Y0386048D01*
X0017469Y0386052D01*
X0017627Y0386052D01*
X0017785Y0386048D01*
X0017944Y0386040D01*
X0018101Y0386028D01*
X0018259Y0386012D01*
X0018416Y0385992D01*
X0018572Y0385968D01*
X0018728Y0385940D01*
X0018883Y0385909D01*
X0019038Y0385873D01*
X0019191Y0385834D01*
X0019343Y0385791D01*
X0019494Y0385744D01*
X0019644Y0385693D01*
X0019793Y0385638D01*
X0019940Y0385580D01*
X0020086Y0385518D01*
X0020230Y0385453D01*
X0020372Y0385383D01*
X0020513Y0385311D01*
X0020652Y0385234D01*
X0020788Y0385155D01*
X0020923Y0385071D01*
X0021056Y0384985D01*
X0021186Y0384895D01*
X0021314Y0384802D01*
X0021440Y0384706D01*
X0021563Y0384606D01*
X0021684Y0384504D01*
X0021802Y0384399D01*
X0021917Y0384290D01*
X0022030Y0384179D01*
X0022140Y0384065D01*
X0022247Y0383948D01*
X0022351Y0383829D01*
X0022452Y0383707D01*
X0022549Y0383582D01*
X0022644Y0383455D01*
X0022735Y0383326D01*
X0022824Y0383195D01*
X0022908Y0383061D01*
X0022990Y0382925D01*
X0023068Y0382788D01*
X0023142Y0382648D01*
X0023213Y0382506D01*
X0023281Y0382363D01*
X0023345Y0382218D01*
X0023405Y0382072D01*
X0023461Y0381924D01*
X0023514Y0381775D01*
X0023563Y0381624D01*
X0023608Y0381472D01*
X0023649Y0381319D01*
X0023687Y0381166D01*
X0023720Y0381011D01*
X0023750Y0380855D01*
X0023776Y0380699D01*
X0023797Y0380542D01*
X0023815Y0380385D01*
X0023829Y0380227D01*
X0023839Y0380069D01*
X0023845Y0379911D01*
X0023847Y0379753D01*
X0023845Y0379595D01*
X0023839Y0379437D01*
X0023829Y0379279D01*
X0023815Y0379121D01*
X0023797Y0378964D01*
X0023776Y0378807D01*
X0023750Y0378651D01*
X0023720Y0378495D01*
X0023687Y0378340D01*
X0023649Y0378187D01*
X0023608Y0378034D01*
X0023563Y0377882D01*
X0023514Y0377731D01*
X0023461Y0377582D01*
X0023405Y0377434D01*
X0023345Y0377288D01*
X0023281Y0377143D01*
X0023213Y0377000D01*
X0023142Y0376858D01*
X0023068Y0376718D01*
X0022990Y0376581D01*
X0022908Y0376445D01*
X0022824Y0376311D01*
X0022735Y0376180D01*
X0022644Y0376051D01*
X0022549Y0375924D01*
X0022452Y0375799D01*
X0022351Y0375677D01*
X0022247Y0375558D01*
X0022140Y0375441D01*
X0022030Y0375327D01*
X0021917Y0375216D01*
X0021802Y0375107D01*
X0021684Y0375002D01*
X0021563Y0374900D01*
X0021440Y0374800D01*
X0021314Y0374704D01*
X0021186Y0374611D01*
X0021056Y0374521D01*
X0020923Y0374435D01*
X0020788Y0374351D01*
X0020652Y0374272D01*
X0020513Y0374195D01*
X0020372Y0374123D01*
X0020230Y0374053D01*
X0020086Y0373988D01*
X0019940Y0373926D01*
X0019793Y0373868D01*
X0019644Y0373813D01*
X0019494Y0373762D01*
X0019343Y0373715D01*
X0019191Y0373672D01*
X0019038Y0373633D01*
X0018883Y0373597D01*
X0018728Y0373566D01*
X0018572Y0373538D01*
X0018416Y0373514D01*
X0018259Y0373494D01*
X0018101Y0373478D01*
X0017944Y0373466D01*
X0017785Y0373458D01*
X0017627Y0373454D01*
X0017469Y0373454D01*
X0017311Y0373458D01*
X0017152Y0373466D01*
X0016995Y0373478D01*
X0016837Y0373494D01*
X0016680Y0373514D01*
X0016524Y0373538D01*
X0016368Y0373566D01*
X0016213Y0373597D01*
X0016058Y0373633D01*
X0015905Y0373672D01*
X0015753Y0373715D01*
X0015602Y0373762D01*
X0015452Y0373813D01*
X0015303Y0373868D01*
X0015156Y0373926D01*
X0015010Y0373988D01*
X0014866Y0374053D01*
X0014724Y0374123D01*
X0014583Y0374195D01*
X0014444Y0374272D01*
X0014308Y0374351D01*
X0014173Y0374435D01*
X0014040Y0374521D01*
X0013910Y0374611D01*
X0013782Y0374704D01*
X0013656Y0374800D01*
X0013533Y0374900D01*
X0013412Y0375002D01*
X0013294Y0375107D01*
X0013179Y0375216D01*
X0013066Y0375327D01*
X0012956Y0375441D01*
X0012849Y0375558D01*
X0012745Y0375677D01*
X0012644Y0375799D01*
X0012547Y0375924D01*
X0012452Y0376051D01*
X0012361Y0376180D01*
X0012272Y0376311D01*
X0012188Y0376445D01*
X0012106Y0376581D01*
X0012028Y0376718D01*
X0011954Y0376858D01*
X0011883Y0377000D01*
X0011815Y0377143D01*
X0011751Y0377288D01*
X0011691Y0377434D01*
X0011635Y0377582D01*
X0011582Y0377731D01*
X0011533Y0377882D01*
X0011488Y0378034D01*
X0011447Y0378187D01*
X0011409Y0378340D01*
X0011376Y0378495D01*
X0011346Y0378651D01*
X0011320Y0378807D01*
X0011299Y0378964D01*
X0011281Y0379121D01*
X0011267Y0379279D01*
X0011257Y0379437D01*
X0011251Y0379595D01*
X0011249Y0379753D01*
X0373454Y0379753D02*
X0373456Y0379911D01*
X0373462Y0380069D01*
X0373472Y0380227D01*
X0373486Y0380385D01*
X0373504Y0380542D01*
X0373525Y0380699D01*
X0373551Y0380855D01*
X0373581Y0381011D01*
X0373614Y0381166D01*
X0373652Y0381319D01*
X0373693Y0381472D01*
X0373738Y0381624D01*
X0373787Y0381775D01*
X0373840Y0381924D01*
X0373896Y0382072D01*
X0373956Y0382218D01*
X0374020Y0382363D01*
X0374088Y0382506D01*
X0374159Y0382648D01*
X0374233Y0382788D01*
X0374311Y0382925D01*
X0374393Y0383061D01*
X0374477Y0383195D01*
X0374566Y0383326D01*
X0374657Y0383455D01*
X0374752Y0383582D01*
X0374849Y0383707D01*
X0374950Y0383829D01*
X0375054Y0383948D01*
X0375161Y0384065D01*
X0375271Y0384179D01*
X0375384Y0384290D01*
X0375499Y0384399D01*
X0375617Y0384504D01*
X0375738Y0384606D01*
X0375861Y0384706D01*
X0375987Y0384802D01*
X0376115Y0384895D01*
X0376245Y0384985D01*
X0376378Y0385071D01*
X0376513Y0385155D01*
X0376649Y0385234D01*
X0376788Y0385311D01*
X0376929Y0385383D01*
X0377071Y0385453D01*
X0377215Y0385518D01*
X0377361Y0385580D01*
X0377508Y0385638D01*
X0377657Y0385693D01*
X0377807Y0385744D01*
X0377958Y0385791D01*
X0378110Y0385834D01*
X0378263Y0385873D01*
X0378418Y0385909D01*
X0378573Y0385940D01*
X0378729Y0385968D01*
X0378885Y0385992D01*
X0379042Y0386012D01*
X0379200Y0386028D01*
X0379357Y0386040D01*
X0379516Y0386048D01*
X0379674Y0386052D01*
X0379832Y0386052D01*
X0379990Y0386048D01*
X0380149Y0386040D01*
X0380306Y0386028D01*
X0380464Y0386012D01*
X0380621Y0385992D01*
X0380777Y0385968D01*
X0380933Y0385940D01*
X0381088Y0385909D01*
X0381243Y0385873D01*
X0381396Y0385834D01*
X0381548Y0385791D01*
X0381699Y0385744D01*
X0381849Y0385693D01*
X0381998Y0385638D01*
X0382145Y0385580D01*
X0382291Y0385518D01*
X0382435Y0385453D01*
X0382577Y0385383D01*
X0382718Y0385311D01*
X0382857Y0385234D01*
X0382993Y0385155D01*
X0383128Y0385071D01*
X0383261Y0384985D01*
X0383391Y0384895D01*
X0383519Y0384802D01*
X0383645Y0384706D01*
X0383768Y0384606D01*
X0383889Y0384504D01*
X0384007Y0384399D01*
X0384122Y0384290D01*
X0384235Y0384179D01*
X0384345Y0384065D01*
X0384452Y0383948D01*
X0384556Y0383829D01*
X0384657Y0383707D01*
X0384754Y0383582D01*
X0384849Y0383455D01*
X0384940Y0383326D01*
X0385029Y0383195D01*
X0385113Y0383061D01*
X0385195Y0382925D01*
X0385273Y0382788D01*
X0385347Y0382648D01*
X0385418Y0382506D01*
X0385486Y0382363D01*
X0385550Y0382218D01*
X0385610Y0382072D01*
X0385666Y0381924D01*
X0385719Y0381775D01*
X0385768Y0381624D01*
X0385813Y0381472D01*
X0385854Y0381319D01*
X0385892Y0381166D01*
X0385925Y0381011D01*
X0385955Y0380855D01*
X0385981Y0380699D01*
X0386002Y0380542D01*
X0386020Y0380385D01*
X0386034Y0380227D01*
X0386044Y0380069D01*
X0386050Y0379911D01*
X0386052Y0379753D01*
X0386050Y0379595D01*
X0386044Y0379437D01*
X0386034Y0379279D01*
X0386020Y0379121D01*
X0386002Y0378964D01*
X0385981Y0378807D01*
X0385955Y0378651D01*
X0385925Y0378495D01*
X0385892Y0378340D01*
X0385854Y0378187D01*
X0385813Y0378034D01*
X0385768Y0377882D01*
X0385719Y0377731D01*
X0385666Y0377582D01*
X0385610Y0377434D01*
X0385550Y0377288D01*
X0385486Y0377143D01*
X0385418Y0377000D01*
X0385347Y0376858D01*
X0385273Y0376718D01*
X0385195Y0376581D01*
X0385113Y0376445D01*
X0385029Y0376311D01*
X0384940Y0376180D01*
X0384849Y0376051D01*
X0384754Y0375924D01*
X0384657Y0375799D01*
X0384556Y0375677D01*
X0384452Y0375558D01*
X0384345Y0375441D01*
X0384235Y0375327D01*
X0384122Y0375216D01*
X0384007Y0375107D01*
X0383889Y0375002D01*
X0383768Y0374900D01*
X0383645Y0374800D01*
X0383519Y0374704D01*
X0383391Y0374611D01*
X0383261Y0374521D01*
X0383128Y0374435D01*
X0382993Y0374351D01*
X0382857Y0374272D01*
X0382718Y0374195D01*
X0382577Y0374123D01*
X0382435Y0374053D01*
X0382291Y0373988D01*
X0382145Y0373926D01*
X0381998Y0373868D01*
X0381849Y0373813D01*
X0381699Y0373762D01*
X0381548Y0373715D01*
X0381396Y0373672D01*
X0381243Y0373633D01*
X0381088Y0373597D01*
X0380933Y0373566D01*
X0380777Y0373538D01*
X0380621Y0373514D01*
X0380464Y0373494D01*
X0380306Y0373478D01*
X0380149Y0373466D01*
X0379990Y0373458D01*
X0379832Y0373454D01*
X0379674Y0373454D01*
X0379516Y0373458D01*
X0379357Y0373466D01*
X0379200Y0373478D01*
X0379042Y0373494D01*
X0378885Y0373514D01*
X0378729Y0373538D01*
X0378573Y0373566D01*
X0378418Y0373597D01*
X0378263Y0373633D01*
X0378110Y0373672D01*
X0377958Y0373715D01*
X0377807Y0373762D01*
X0377657Y0373813D01*
X0377508Y0373868D01*
X0377361Y0373926D01*
X0377215Y0373988D01*
X0377071Y0374053D01*
X0376929Y0374123D01*
X0376788Y0374195D01*
X0376649Y0374272D01*
X0376513Y0374351D01*
X0376378Y0374435D01*
X0376245Y0374521D01*
X0376115Y0374611D01*
X0375987Y0374704D01*
X0375861Y0374800D01*
X0375738Y0374900D01*
X0375617Y0375002D01*
X0375499Y0375107D01*
X0375384Y0375216D01*
X0375271Y0375327D01*
X0375161Y0375441D01*
X0375054Y0375558D01*
X0374950Y0375677D01*
X0374849Y0375799D01*
X0374752Y0375924D01*
X0374657Y0376051D01*
X0374566Y0376180D01*
X0374477Y0376311D01*
X0374393Y0376445D01*
X0374311Y0376581D01*
X0374233Y0376718D01*
X0374159Y0376858D01*
X0374088Y0377000D01*
X0374020Y0377143D01*
X0373956Y0377288D01*
X0373896Y0377434D01*
X0373840Y0377582D01*
X0373787Y0377731D01*
X0373738Y0377882D01*
X0373693Y0378034D01*
X0373652Y0378187D01*
X0373614Y0378340D01*
X0373581Y0378495D01*
X0373551Y0378651D01*
X0373525Y0378807D01*
X0373504Y0378964D01*
X0373486Y0379121D01*
X0373472Y0379279D01*
X0373462Y0379437D01*
X0373456Y0379595D01*
X0373454Y0379753D01*
D11*
X0369630Y0375107D02*
X0368563Y0376175D01*
X0369630Y0375107D02*
X0369630Y0372972D01*
X0368563Y0371904D01*
X0364293Y0371904D01*
X0363225Y0372972D01*
X0363225Y0375107D01*
X0364293Y0376175D01*
X0364293Y0369729D02*
X0368563Y0369729D01*
X0369630Y0368662D01*
X0369630Y0365459D01*
X0363225Y0365459D01*
X0363225Y0368662D01*
X0364293Y0369729D01*
X0363225Y0363284D02*
X0367495Y0363284D01*
X0369630Y0361149D01*
X0367495Y0359013D01*
X0363225Y0359013D01*
X0366428Y0359013D02*
X0366428Y0363284D01*
X0364293Y0350393D02*
X0368563Y0350393D01*
X0369630Y0349325D01*
X0369630Y0346122D01*
X0363225Y0346122D01*
X0363225Y0349325D01*
X0364293Y0350393D01*
X0363225Y0343947D02*
X0363225Y0339677D01*
X0369630Y0339677D01*
X0369630Y0343947D01*
X0366428Y0341812D02*
X0366428Y0339677D01*
X0369630Y0337502D02*
X0369630Y0333231D01*
X0363225Y0333231D01*
X0363225Y0337502D01*
X0366428Y0335367D02*
X0366428Y0333231D01*
X0366428Y0331056D02*
X0365360Y0329989D01*
X0365360Y0326786D01*
X0363225Y0326786D02*
X0369630Y0326786D01*
X0369630Y0329989D01*
X0368563Y0331056D01*
X0366428Y0331056D01*
X0365360Y0324611D02*
X0364293Y0324611D01*
X0363225Y0323543D01*
X0363225Y0321408D01*
X0364293Y0320340D01*
X0366428Y0321408D02*
X0366428Y0323543D01*
X0365360Y0324611D01*
X0368563Y0324611D02*
X0369630Y0323543D01*
X0369630Y0321408D01*
X0368563Y0320340D01*
X0367495Y0320340D01*
X0366428Y0321408D01*
X0363225Y0311720D02*
X0369630Y0311720D01*
X0369630Y0307449D02*
X0363225Y0307449D01*
X0365360Y0309585D01*
X0363225Y0311720D01*
X0364293Y0305274D02*
X0368563Y0305274D01*
X0369630Y0304207D01*
X0369630Y0302071D01*
X0368563Y0301004D01*
X0364293Y0301004D01*
X0363225Y0302071D01*
X0363225Y0304207D01*
X0364293Y0305274D01*
X0363225Y0298829D02*
X0363225Y0294558D01*
X0369630Y0294558D01*
X0342688Y0325225D02*
X0338418Y0325225D01*
X0337350Y0326293D01*
X0337350Y0328428D01*
X0338418Y0329495D01*
X0340553Y0329495D01*
X0340553Y0327360D01*
X0342688Y0325225D02*
X0343755Y0326293D01*
X0343755Y0328428D01*
X0342688Y0329495D01*
X0343755Y0331670D02*
X0337350Y0335941D01*
X0343755Y0335941D01*
X0343755Y0338116D02*
X0343755Y0341319D01*
X0342688Y0342386D01*
X0338418Y0342386D01*
X0337350Y0341319D01*
X0337350Y0338116D01*
X0343755Y0338116D01*
X0343755Y0331670D02*
X0337350Y0331670D01*
X0333255Y0331670D02*
X0333255Y0334873D01*
X0332188Y0335941D01*
X0327918Y0335941D01*
X0326850Y0334873D01*
X0326850Y0331670D01*
X0333255Y0331670D01*
X0332188Y0329495D02*
X0333255Y0328428D01*
X0333255Y0326293D01*
X0332188Y0325225D01*
X0331120Y0325225D01*
X0330053Y0326293D01*
X0330053Y0328428D01*
X0328985Y0329495D01*
X0327918Y0329495D01*
X0326850Y0328428D01*
X0326850Y0326293D01*
X0327918Y0325225D01*
X0322755Y0326293D02*
X0321688Y0325225D01*
X0320620Y0325225D01*
X0319553Y0326293D01*
X0319553Y0328428D01*
X0318485Y0329495D01*
X0317418Y0329495D01*
X0316350Y0328428D01*
X0316350Y0326293D01*
X0317418Y0325225D01*
X0312255Y0325225D02*
X0307985Y0325225D01*
X0305850Y0327360D01*
X0307985Y0329495D01*
X0312255Y0329495D01*
X0311188Y0331670D02*
X0306918Y0331670D01*
X0305850Y0332738D01*
X0305850Y0334873D01*
X0306918Y0335941D01*
X0306918Y0338116D02*
X0305850Y0339184D01*
X0305850Y0341319D01*
X0306918Y0342386D01*
X0311188Y0342386D02*
X0312255Y0341319D01*
X0312255Y0339184D01*
X0311188Y0338116D01*
X0306918Y0338116D01*
X0311188Y0335941D02*
X0312255Y0334873D01*
X0312255Y0332738D01*
X0311188Y0331670D01*
X0316350Y0331670D02*
X0316350Y0334873D01*
X0317418Y0335941D01*
X0321688Y0335941D01*
X0322755Y0334873D01*
X0322755Y0331670D01*
X0316350Y0331670D01*
X0321688Y0329495D02*
X0322755Y0328428D01*
X0322755Y0326293D01*
X0321688Y0338116D02*
X0317418Y0338116D01*
X0316350Y0339184D01*
X0316350Y0341319D01*
X0317418Y0342386D01*
X0318485Y0344561D02*
X0322755Y0348832D01*
X0322755Y0344561D02*
X0316350Y0344561D01*
X0319553Y0345629D02*
X0316350Y0348832D01*
X0321688Y0342386D02*
X0322755Y0341319D01*
X0322755Y0339184D01*
X0321688Y0338116D01*
X0326850Y0338116D02*
X0326850Y0340251D01*
X0326850Y0339184D02*
X0333255Y0339184D01*
X0333255Y0340251D02*
X0333255Y0338116D01*
X0332188Y0342413D02*
X0327918Y0342413D01*
X0326850Y0343481D01*
X0326850Y0345616D01*
X0327918Y0346683D01*
X0332188Y0346683D01*
X0333255Y0345616D01*
X0333255Y0343481D01*
X0332188Y0342413D01*
X0333255Y0355304D02*
X0326850Y0355304D01*
X0322755Y0357452D02*
X0316350Y0357452D01*
X0316350Y0366046D02*
X0322755Y0366046D01*
X0322755Y0369249D01*
X0321688Y0370317D01*
X0319553Y0370317D01*
X0318485Y0369249D01*
X0318485Y0366046D01*
X0318485Y0368182D02*
X0316350Y0370317D01*
X0316350Y0372492D02*
X0322755Y0376762D01*
X0322755Y0372492D02*
X0316350Y0376762D01*
X0326850Y0374614D02*
X0333255Y0370343D01*
X0333255Y0368168D02*
X0333255Y0363898D01*
X0333255Y0366033D02*
X0326850Y0366033D01*
X0326850Y0370343D02*
X0333255Y0374614D01*
X0359475Y0189925D02*
X0361610Y0187790D01*
X0361610Y0188857D02*
X0361610Y0185654D01*
X0359475Y0185654D02*
X0365880Y0185654D01*
X0365880Y0188857D01*
X0364813Y0189925D01*
X0362678Y0189925D01*
X0361610Y0188857D01*
X0359475Y0183479D02*
X0359475Y0179209D01*
X0365880Y0179209D01*
X0365880Y0183479D01*
X0362678Y0181344D02*
X0362678Y0179209D01*
X0360543Y0177034D02*
X0364813Y0177034D01*
X0365880Y0175966D01*
X0365880Y0172763D01*
X0359475Y0172763D01*
X0359475Y0175966D01*
X0360543Y0177034D01*
X0360543Y0170588D02*
X0364813Y0170588D01*
X0365880Y0169521D01*
X0365880Y0167386D01*
X0364813Y0166318D01*
X0360543Y0166318D01*
X0359475Y0167386D01*
X0359475Y0169521D01*
X0360543Y0170588D01*
X0360543Y0164143D02*
X0359475Y0163075D01*
X0359475Y0160940D01*
X0360543Y0159872D01*
X0364813Y0159872D01*
X0365880Y0160940D01*
X0365880Y0163075D01*
X0364813Y0164143D01*
X0365880Y0157697D02*
X0359475Y0157697D01*
X0365880Y0153427D01*
X0359475Y0153427D01*
X0359475Y0151252D02*
X0359475Y0146981D01*
X0365880Y0146981D01*
X0365880Y0151252D01*
X0362678Y0149117D02*
X0362678Y0146981D01*
X0362053Y0117425D02*
X0360985Y0116357D01*
X0360985Y0113154D01*
X0358850Y0113154D02*
X0365255Y0113154D01*
X0365255Y0116357D01*
X0364188Y0117425D01*
X0362053Y0117425D01*
X0360985Y0115290D02*
X0358850Y0117425D01*
X0358850Y0110979D02*
X0358850Y0106709D01*
X0365255Y0106709D01*
X0365255Y0110979D01*
X0362053Y0108844D02*
X0362053Y0106709D01*
X0365255Y0104534D02*
X0365255Y0100263D01*
X0365255Y0102399D02*
X0358850Y0102399D01*
X0358850Y0095953D02*
X0365255Y0095953D01*
X0365255Y0093818D02*
X0365255Y0098088D01*
X0365255Y0091656D02*
X0365255Y0089521D01*
X0365255Y0090588D02*
X0358850Y0090588D01*
X0358850Y0089521D02*
X0358850Y0091656D01*
X0358850Y0087346D02*
X0365255Y0087346D01*
X0363120Y0085211D01*
X0365255Y0083075D01*
X0358850Y0083075D01*
X0359918Y0080900D02*
X0358850Y0079833D01*
X0358850Y0077697D01*
X0359918Y0076630D01*
X0362053Y0077697D02*
X0362053Y0079833D01*
X0360985Y0080900D01*
X0359918Y0080900D01*
X0362053Y0077697D02*
X0363120Y0076630D01*
X0364188Y0076630D01*
X0365255Y0077697D01*
X0365255Y0079833D01*
X0364188Y0080900D01*
X0365255Y0074455D02*
X0358850Y0074455D01*
X0365255Y0070184D01*
X0358850Y0070184D01*
X0358850Y0068009D02*
X0363120Y0068009D01*
X0365255Y0065874D01*
X0363120Y0063739D01*
X0358850Y0063739D01*
X0358850Y0061564D02*
X0360985Y0059429D01*
X0360985Y0060496D02*
X0360985Y0057293D01*
X0358850Y0057293D02*
X0365255Y0057293D01*
X0365255Y0060496D01*
X0364188Y0061564D01*
X0362053Y0061564D01*
X0360985Y0060496D01*
X0362053Y0063739D02*
X0362053Y0068009D01*
X0365255Y0055118D02*
X0365255Y0050848D01*
X0365255Y0052983D02*
X0358850Y0052983D01*
X0358850Y0042227D02*
X0360985Y0040092D01*
X0360985Y0041160D02*
X0360985Y0037957D01*
X0358850Y0037957D02*
X0365255Y0037957D01*
X0365255Y0041160D01*
X0364188Y0042227D01*
X0362053Y0042227D01*
X0360985Y0041160D01*
X0358850Y0035795D02*
X0358850Y0033660D01*
X0358850Y0034727D02*
X0365255Y0034727D01*
X0365255Y0033660D02*
X0365255Y0035795D01*
X0235875Y0046475D02*
X0235875Y0052880D01*
X0233740Y0050745D01*
X0231605Y0052880D01*
X0231605Y0046475D01*
X0229430Y0047543D02*
X0228362Y0046475D01*
X0226227Y0046475D01*
X0225159Y0047543D01*
X0225159Y0051813D01*
X0226227Y0052880D01*
X0228362Y0052880D01*
X0229430Y0051813D01*
X0229430Y0047543D01*
X0222984Y0052880D02*
X0218714Y0052880D01*
X0220849Y0052880D02*
X0220849Y0046475D01*
X0216539Y0047543D02*
X0215471Y0046475D01*
X0213336Y0046475D01*
X0212268Y0047543D01*
X0212268Y0051813D01*
X0213336Y0052880D01*
X0215471Y0052880D01*
X0216539Y0051813D01*
X0216539Y0047543D01*
X0210093Y0048610D02*
X0206890Y0048610D01*
X0205823Y0049678D01*
X0205823Y0051813D01*
X0206890Y0052880D01*
X0210093Y0052880D01*
X0210093Y0046475D01*
X0207958Y0048610D02*
X0205823Y0046475D01*
X0034630Y0240261D02*
X0028225Y0240261D01*
X0031428Y0240261D02*
X0031428Y0244532D01*
X0034630Y0244532D02*
X0028225Y0244532D01*
X0028225Y0246707D02*
X0028225Y0248842D01*
X0028225Y0247774D02*
X0034630Y0247774D01*
X0034630Y0246707D02*
X0034630Y0248842D01*
X0033563Y0251004D02*
X0029293Y0251004D01*
X0028225Y0252071D01*
X0028225Y0254207D01*
X0029293Y0255274D01*
X0031428Y0255274D01*
X0031428Y0253139D01*
X0033563Y0251004D02*
X0034630Y0252071D01*
X0034630Y0254207D01*
X0033563Y0255274D01*
X0034630Y0257449D02*
X0028225Y0257449D01*
X0031428Y0257449D02*
X0031428Y0261720D01*
X0034630Y0261720D02*
X0028225Y0261720D01*
X0029293Y0270340D02*
X0028225Y0271408D01*
X0028225Y0273543D01*
X0029293Y0274611D01*
X0030360Y0274611D01*
X0031428Y0273543D01*
X0031428Y0271408D01*
X0032495Y0270340D01*
X0033563Y0270340D01*
X0034630Y0271408D01*
X0034630Y0273543D01*
X0033563Y0274611D01*
X0034630Y0276786D02*
X0034630Y0279989D01*
X0033563Y0281056D01*
X0031428Y0281056D01*
X0030360Y0279989D01*
X0030360Y0276786D01*
X0028225Y0276786D02*
X0034630Y0276786D01*
X0034630Y0283231D02*
X0028225Y0283231D01*
X0028225Y0287502D01*
X0028225Y0289677D02*
X0028225Y0293947D01*
X0028225Y0296122D02*
X0028225Y0299325D01*
X0029293Y0300393D01*
X0033563Y0300393D01*
X0034630Y0299325D01*
X0034630Y0296122D01*
X0028225Y0296122D01*
X0031428Y0291812D02*
X0031428Y0289677D01*
X0034630Y0289677D02*
X0028225Y0289677D01*
X0031428Y0285367D02*
X0031428Y0283231D01*
X0034630Y0283231D02*
X0034630Y0287502D01*
X0034630Y0289677D02*
X0034630Y0293947D01*
X0046475Y0289170D02*
X0046475Y0287035D01*
X0047543Y0285967D01*
X0049678Y0287035D02*
X0049678Y0289170D01*
X0048610Y0290238D01*
X0047543Y0290238D01*
X0046475Y0289170D01*
X0049678Y0287035D02*
X0050745Y0285967D01*
X0051813Y0285967D01*
X0052880Y0287035D01*
X0052880Y0289170D01*
X0051813Y0290238D01*
X0052880Y0283806D02*
X0052880Y0281670D01*
X0052880Y0282738D02*
X0046475Y0282738D01*
X0046475Y0281670D02*
X0046475Y0283806D01*
X0046475Y0279495D02*
X0052880Y0279495D01*
X0050745Y0277360D01*
X0052880Y0275225D01*
X0046475Y0275225D01*
X0060178Y0275225D02*
X0060178Y0279495D01*
X0060178Y0281670D02*
X0060178Y0285941D01*
X0060178Y0288116D02*
X0060178Y0292386D01*
X0060178Y0294561D02*
X0060178Y0298832D01*
X0060178Y0301007D02*
X0060178Y0305277D01*
X0060178Y0307452D02*
X0060178Y0311723D01*
X0060178Y0313898D02*
X0060178Y0318168D01*
X0060178Y0320343D02*
X0060178Y0324614D01*
X0060178Y0326789D02*
X0060178Y0331059D01*
X0067475Y0326762D02*
X0070678Y0323560D01*
X0069610Y0322492D02*
X0073880Y0326762D01*
X0073880Y0322492D02*
X0067475Y0322492D01*
X0068543Y0320317D02*
X0067475Y0319249D01*
X0067475Y0317114D01*
X0068543Y0316046D01*
X0072813Y0316046D01*
X0073880Y0317114D01*
X0073880Y0319249D01*
X0072813Y0320317D01*
X0072813Y0313871D02*
X0073880Y0312804D01*
X0073880Y0310669D01*
X0072813Y0309601D01*
X0071745Y0309601D01*
X0070678Y0310669D01*
X0070678Y0312804D01*
X0069610Y0313871D01*
X0068543Y0313871D01*
X0067475Y0312804D01*
X0067475Y0310669D01*
X0068543Y0309601D01*
X0067475Y0301007D02*
X0073880Y0301007D01*
X0072813Y0292386D02*
X0073880Y0291319D01*
X0073880Y0289184D01*
X0072813Y0288116D01*
X0068543Y0288116D01*
X0067475Y0289184D01*
X0067475Y0291319D01*
X0068543Y0292386D01*
X0068543Y0285941D02*
X0067475Y0284873D01*
X0067475Y0282738D01*
X0068543Y0281670D01*
X0072813Y0281670D01*
X0073880Y0282738D01*
X0073880Y0284873D01*
X0072813Y0285941D01*
X0073880Y0279495D02*
X0069610Y0279495D01*
X0067475Y0277360D01*
X0069610Y0275225D01*
X0073880Y0275225D01*
X0096975Y0280287D02*
X0099110Y0282422D01*
X0103380Y0282422D01*
X0102313Y0284597D02*
X0103380Y0285664D01*
X0103380Y0287800D01*
X0102313Y0288867D01*
X0102313Y0291042D02*
X0098043Y0291042D01*
X0096975Y0292110D01*
X0096975Y0294245D01*
X0098043Y0295313D01*
X0102313Y0295313D02*
X0103380Y0294245D01*
X0103380Y0292110D01*
X0102313Y0291042D01*
X0098043Y0288867D02*
X0096975Y0287800D01*
X0096975Y0285664D01*
X0098043Y0284597D01*
X0102313Y0284597D01*
X0103380Y0278151D02*
X0099110Y0278151D01*
X0096975Y0280287D01*
X0096975Y0303933D02*
X0103380Y0303933D01*
X0103380Y0312527D02*
X0103380Y0316798D01*
X0103380Y0314662D02*
X0096975Y0314662D01*
X0096975Y0318973D02*
X0103380Y0323243D01*
X0103380Y0318973D02*
X0096975Y0323243D01*
X0096975Y0331864D02*
X0103380Y0331864D01*
X0103380Y0340458D02*
X0096975Y0340458D01*
X0099110Y0340458D02*
X0099110Y0343661D01*
X0100178Y0344728D01*
X0102313Y0344728D01*
X0103380Y0343661D01*
X0103380Y0340458D01*
X0099110Y0342593D02*
X0096975Y0344728D01*
X0096975Y0346903D02*
X0103380Y0351174D01*
X0103380Y0346903D02*
X0096975Y0351174D01*
X0096975Y0359794D02*
X0103380Y0359794D01*
X0102313Y0368388D02*
X0098043Y0368388D01*
X0096975Y0369456D01*
X0096975Y0371591D01*
X0098043Y0372659D01*
X0100178Y0372659D01*
X0100178Y0370523D01*
X0102313Y0368388D02*
X0103380Y0369456D01*
X0103380Y0371591D01*
X0102313Y0372659D01*
X0103380Y0374834D02*
X0096975Y0374834D01*
X0096975Y0379104D02*
X0103380Y0379104D01*
X0103380Y0381279D02*
X0103380Y0384482D01*
X0102313Y0385550D01*
X0098043Y0385550D01*
X0096975Y0384482D01*
X0096975Y0381279D01*
X0103380Y0381279D01*
X0103380Y0374834D02*
X0096975Y0379104D01*
X0073880Y0360071D02*
X0073880Y0357936D01*
X0072813Y0356868D01*
X0071745Y0356868D01*
X0070678Y0357936D01*
X0070678Y0360071D01*
X0069610Y0361138D01*
X0068543Y0361138D01*
X0067475Y0360071D01*
X0067475Y0357936D01*
X0068543Y0356868D01*
X0068543Y0354693D02*
X0067475Y0353625D01*
X0067475Y0351490D01*
X0068543Y0350422D01*
X0070678Y0351490D02*
X0070678Y0353625D01*
X0069610Y0354693D01*
X0068543Y0354693D01*
X0070678Y0351490D02*
X0071745Y0350422D01*
X0072813Y0350422D01*
X0073880Y0351490D01*
X0073880Y0353625D01*
X0072813Y0354693D01*
X0073880Y0360071D02*
X0072813Y0361138D01*
X0073880Y0348247D02*
X0067475Y0348247D01*
X0073880Y0343977D01*
X0067475Y0343977D01*
X0067475Y0335383D02*
X0073880Y0335383D01*
X0052880Y0333234D02*
X0046475Y0333234D01*
X0047543Y0324614D02*
X0046475Y0323546D01*
X0046475Y0321411D01*
X0047543Y0320343D01*
X0047543Y0318168D02*
X0051813Y0318168D01*
X0052880Y0317101D01*
X0052880Y0314966D01*
X0051813Y0313898D01*
X0047543Y0313898D01*
X0046475Y0314966D01*
X0046475Y0317101D01*
X0047543Y0318168D01*
X0050745Y0320343D02*
X0049678Y0321411D01*
X0049678Y0323546D01*
X0048610Y0324614D01*
X0047543Y0324614D01*
X0050745Y0320343D02*
X0051813Y0320343D01*
X0052880Y0321411D01*
X0052880Y0323546D01*
X0051813Y0324614D01*
X0052880Y0311723D02*
X0046475Y0311723D01*
X0046475Y0307452D02*
X0052880Y0307452D01*
X0050745Y0309588D01*
X0052880Y0311723D01*
X0052880Y0298858D02*
X0046475Y0298858D01*
X0034630Y0311148D02*
X0032495Y0313284D01*
X0028225Y0313284D01*
X0028225Y0315459D02*
X0028225Y0318662D01*
X0029293Y0319729D01*
X0033563Y0319729D01*
X0034630Y0318662D01*
X0034630Y0315459D01*
X0028225Y0315459D01*
X0031428Y0313284D02*
X0031428Y0309013D01*
X0032495Y0309013D02*
X0028225Y0309013D01*
X0032495Y0309013D02*
X0034630Y0311148D01*
X0033563Y0321904D02*
X0029293Y0321904D01*
X0028225Y0322972D01*
X0028225Y0325107D01*
X0029293Y0326175D01*
X0033563Y0326175D02*
X0034630Y0325107D01*
X0034630Y0322972D01*
X0033563Y0321904D01*
X0047543Y0341828D02*
X0046475Y0342896D01*
X0046475Y0345031D01*
X0047543Y0346099D01*
X0049678Y0346099D01*
X0049678Y0343964D01*
X0051813Y0346099D02*
X0052880Y0345031D01*
X0052880Y0342896D01*
X0051813Y0341828D01*
X0047543Y0341828D01*
X0046475Y0348274D02*
X0052880Y0348274D01*
X0046475Y0352544D01*
X0052880Y0352544D01*
X0052880Y0354719D02*
X0052880Y0357922D01*
X0051813Y0358990D01*
X0047543Y0358990D01*
X0046475Y0357922D01*
X0046475Y0354719D01*
X0052880Y0354719D01*
X0050120Y0379475D02*
X0051188Y0380543D01*
X0050120Y0379475D02*
X0047985Y0379475D01*
X0046918Y0380543D01*
X0046918Y0381610D01*
X0047985Y0382678D01*
X0050120Y0382678D01*
X0051188Y0383745D01*
X0051188Y0384813D01*
X0050120Y0385880D01*
X0047985Y0385880D01*
X0046918Y0384813D01*
X0044743Y0385880D02*
X0041540Y0385880D01*
X0040472Y0384813D01*
X0040472Y0382678D01*
X0041540Y0381610D01*
X0044743Y0381610D01*
X0044743Y0379475D02*
X0044743Y0385880D01*
X0038297Y0385880D02*
X0036162Y0385880D01*
X0037229Y0385880D02*
X0037229Y0379475D01*
X0036162Y0379475D02*
X0038297Y0379475D01*
D12*
X0240194Y0133182D02*
X0240194Y0125275D01*
X0236240Y0125275D01*
X0234923Y0126593D01*
X0234923Y0129228D01*
X0236240Y0130546D01*
X0240194Y0130546D01*
X0242841Y0129228D02*
X0242841Y0126593D01*
X0244159Y0125275D01*
X0246795Y0125275D01*
X0248112Y0126593D01*
X0248112Y0129228D01*
X0246795Y0130546D01*
X0244159Y0130546D01*
X0242841Y0129228D01*
X0250760Y0129228D02*
X0250760Y0126593D01*
X0252078Y0125275D01*
X0254713Y0125275D01*
X0256031Y0126593D01*
X0256031Y0129228D01*
X0254713Y0130546D01*
X0252078Y0130546D01*
X0250760Y0129228D01*
X0258679Y0126593D02*
X0259997Y0125275D01*
X0262632Y0125275D01*
X0263950Y0126593D01*
X0263950Y0131864D01*
X0262632Y0133182D01*
X0259997Y0133182D01*
X0258679Y0131864D01*
X0232275Y0129228D02*
X0232275Y0126593D01*
X0230957Y0125275D01*
X0228322Y0125275D01*
X0227004Y0126593D01*
X0227004Y0129228D01*
X0228322Y0130546D01*
X0230957Y0130546D01*
X0232275Y0129228D01*
X0224356Y0129228D02*
X0224356Y0126593D01*
X0223038Y0125275D01*
X0219085Y0125275D01*
X0219085Y0130546D02*
X0223038Y0130546D01*
X0224356Y0129228D01*
D13*
X0243618Y0134925D03*
D14*
X0243618Y0135059D03*
X0243618Y0166156D03*
D15*
X0243618Y0166022D03*
X0248289Y0164154D03*
X0248690Y0154544D03*
X0248289Y0137061D03*
X0243618Y0135192D03*
D16*
X0243618Y0135326D03*
X0243618Y0165889D03*
D17*
X0243618Y0165756D03*
X0243618Y0135459D03*
D18*
X0243618Y0135593D03*
X0243618Y0165622D03*
D19*
X0243618Y0165489D03*
X0243618Y0135726D03*
D20*
X0243618Y0135859D03*
D21*
X0243618Y0135993D03*
D22*
X0243618Y0136126D03*
X0243618Y0165088D03*
D23*
X0243618Y0164955D03*
X0243618Y0136260D03*
D24*
X0243618Y0136393D03*
D25*
X0243618Y0136527D03*
D26*
X0243618Y0136660D03*
X0243618Y0164554D03*
D27*
X0243618Y0164421D03*
X0243618Y0136794D03*
D28*
X0243618Y0136927D03*
X0243618Y0164287D03*
D29*
X0238947Y0164154D03*
X0238947Y0137061D03*
D30*
X0248756Y0137194D03*
X0248623Y0154811D03*
X0248756Y0164020D03*
D31*
X0238480Y0164020D03*
X0238480Y0137194D03*
D32*
X0249223Y0137328D03*
X0249223Y0163887D03*
D33*
X0248690Y0154945D03*
X0238013Y0163887D03*
X0238013Y0137328D03*
D34*
X0237679Y0137461D03*
X0249557Y0137461D03*
X0249557Y0163754D03*
X0237679Y0163754D03*
D35*
X0237278Y0163620D03*
X0249957Y0163620D03*
X0249957Y0137594D03*
X0237278Y0137594D03*
D36*
X0237011Y0137728D03*
X0250224Y0137728D03*
X0250224Y0163487D03*
X0237011Y0163487D03*
D37*
X0250492Y0163353D03*
X0250758Y0163220D03*
X0250758Y0137995D03*
X0250492Y0137861D03*
D38*
X0236744Y0137861D03*
X0236478Y0137995D03*
X0236478Y0163220D03*
X0236744Y0163353D03*
D39*
X0251025Y0163086D03*
X0251025Y0138128D03*
D40*
X0236211Y0138128D03*
X0236211Y0163086D03*
D41*
X0235744Y0162819D03*
X0251225Y0162953D03*
X0251225Y0138262D03*
X0235744Y0138395D03*
D42*
X0236010Y0138262D03*
X0251492Y0138395D03*
X0251492Y0162819D03*
X0236010Y0162953D03*
D43*
X0235544Y0162686D03*
X0251693Y0162686D03*
X0251693Y0138529D03*
X0235544Y0138529D03*
D44*
X0235343Y0138662D03*
X0251893Y0138662D03*
X0251893Y0162552D03*
X0235343Y0162552D03*
D45*
X0235143Y0162419D03*
X0252093Y0162419D03*
X0252093Y0138796D03*
X0235143Y0138796D03*
D46*
X0252293Y0138929D03*
X0252293Y0162285D03*
D47*
X0234943Y0162285D03*
X0234943Y0138929D03*
D48*
X0252493Y0139063D03*
X0252493Y0162152D03*
D49*
X0234743Y0162152D03*
X0234743Y0139063D03*
D50*
X0234543Y0139196D03*
X0234409Y0139330D03*
X0252694Y0139196D03*
X0251226Y0147471D03*
X0252694Y0162019D03*
X0234543Y0162019D03*
X0234409Y0161885D03*
D51*
X0248690Y0155612D03*
X0252827Y0161885D03*
X0252827Y0139330D03*
D52*
X0253027Y0139463D03*
X0253161Y0161618D03*
X0253027Y0161752D03*
D53*
X0234209Y0161752D03*
X0234075Y0161618D03*
X0234209Y0139463D03*
D54*
X0253161Y0139596D03*
D55*
X0234075Y0139596D03*
D56*
X0233875Y0139730D03*
X0253361Y0139730D03*
D57*
X0253494Y0139863D03*
X0251359Y0153610D03*
X0253494Y0161351D03*
X0253361Y0161485D03*
X0233875Y0161485D03*
X0233742Y0161351D03*
X0233742Y0139863D03*
D58*
X0233541Y0139997D03*
X0233408Y0140130D03*
X0253694Y0139997D03*
X0253694Y0161218D03*
X0233541Y0161218D03*
X0233408Y0161084D03*
X0233274Y0160951D03*
D59*
X0233141Y0160817D03*
X0251559Y0153477D03*
X0251426Y0147604D03*
X0253828Y0140130D03*
X0254095Y0160817D03*
X0253828Y0161084D03*
D60*
X0253961Y0140264D03*
D61*
X0233274Y0140264D03*
D62*
X0233141Y0140397D03*
X0254095Y0140397D03*
D63*
X0254295Y0140531D03*
X0254295Y0160684D03*
D64*
X0251626Y0147738D03*
X0232941Y0140531D03*
X0232941Y0160684D03*
D65*
X0251693Y0153343D03*
X0254362Y0160550D03*
X0254362Y0140664D03*
D66*
X0254629Y0140931D03*
X0251826Y0147871D03*
X0254629Y0160283D03*
X0232874Y0160550D03*
X0232740Y0160417D03*
X0232607Y0160283D03*
X0232473Y0160150D03*
X0232473Y0141065D03*
X0232607Y0140931D03*
X0232740Y0140798D03*
X0232874Y0140664D03*
D67*
X0254495Y0140798D03*
X0254762Y0141065D03*
X0254762Y0160150D03*
X0254495Y0160417D03*
D68*
X0254829Y0160017D03*
X0255096Y0159750D03*
X0255363Y0159349D03*
X0255763Y0158815D03*
X0251893Y0153210D03*
X0248689Y0155746D03*
X0255763Y0142399D03*
X0255363Y0141865D03*
X0255096Y0141465D03*
X0254829Y0141198D03*
X0232407Y0141198D03*
X0232140Y0141465D03*
X0232007Y0141598D03*
X0232007Y0141732D03*
X0231873Y0141865D03*
X0231740Y0141999D03*
X0231473Y0142399D03*
X0231473Y0158815D03*
X0231740Y0159216D03*
X0231873Y0159349D03*
X0232007Y0159483D03*
X0232007Y0159616D03*
X0232140Y0159750D03*
X0232407Y0160017D03*
D69*
X0254962Y0159883D03*
X0255496Y0159216D03*
X0255496Y0141999D03*
X0254962Y0141331D03*
D70*
X0255229Y0141598D03*
X0255229Y0141732D03*
X0255229Y0159483D03*
X0255229Y0159616D03*
X0232273Y0159883D03*
X0232273Y0141331D03*
D71*
X0255563Y0142132D03*
X0255563Y0159082D03*
D72*
X0255830Y0158682D03*
X0255964Y0158548D03*
X0255964Y0158415D03*
X0256097Y0158281D03*
X0256230Y0158014D03*
X0251959Y0148005D03*
X0256230Y0143200D03*
X0255964Y0142666D03*
X0255830Y0142533D03*
X0231673Y0142132D03*
X0231540Y0142266D03*
X0231406Y0142533D03*
X0231273Y0142666D03*
X0231006Y0143200D03*
X0231006Y0158014D03*
X0231139Y0158281D03*
X0231273Y0158415D03*
X0231273Y0158548D03*
X0231406Y0158682D03*
X0231540Y0158949D03*
X0231673Y0159082D03*
D73*
X0252093Y0153076D03*
X0252093Y0148138D03*
X0255696Y0142266D03*
X0255696Y0158949D03*
D74*
X0255964Y0142799D03*
X0231273Y0142799D03*
D75*
X0231139Y0142933D03*
X0256097Y0142933D03*
D76*
X0256163Y0143067D03*
X0256297Y0143333D03*
X0256431Y0143467D03*
X0256431Y0143600D03*
X0256564Y0143734D03*
X0256564Y0143867D03*
X0257098Y0144935D03*
X0257098Y0156280D03*
X0256564Y0157347D03*
X0256564Y0157481D03*
X0256431Y0157614D03*
X0256431Y0157748D03*
X0230806Y0157748D03*
X0230806Y0157614D03*
X0230672Y0157481D03*
X0230672Y0157347D03*
X0230405Y0156947D03*
X0230405Y0156813D03*
X0230271Y0156680D03*
X0230271Y0156546D03*
X0230138Y0156280D03*
X0230004Y0156013D03*
X0230004Y0145202D03*
X0230138Y0144935D03*
X0230271Y0144668D03*
X0230271Y0144535D03*
X0230672Y0143867D03*
X0230672Y0143734D03*
X0230806Y0143600D03*
X0230806Y0143467D03*
X0230939Y0143333D03*
X0231072Y0143067D03*
D77*
X0230538Y0144001D03*
X0230538Y0144134D03*
X0230538Y0157080D03*
X0230538Y0157214D03*
X0252160Y0152943D03*
X0257231Y0156013D03*
X0256831Y0156813D03*
X0256831Y0156947D03*
X0256697Y0157080D03*
X0256697Y0157214D03*
X0257231Y0145202D03*
X0256697Y0144134D03*
X0256697Y0144001D03*
D78*
X0256831Y0144268D03*
D79*
X0256297Y0157881D03*
X0230939Y0157881D03*
X0230405Y0144268D03*
D80*
X0256831Y0144401D03*
D81*
X0256163Y0158148D03*
X0231072Y0158148D03*
X0230405Y0144401D03*
D82*
X0256964Y0144535D03*
X0256964Y0144668D03*
X0256964Y0156546D03*
X0256964Y0156680D03*
D83*
X0257031Y0156413D03*
X0257165Y0156146D03*
X0257298Y0155879D03*
X0257298Y0155746D03*
X0257432Y0155612D03*
X0257432Y0155479D03*
X0257699Y0154678D03*
X0252360Y0152676D03*
X0252360Y0148539D03*
X0252360Y0148405D03*
X0257699Y0146537D03*
X0257565Y0146136D03*
X0257432Y0145602D03*
X0257298Y0145469D03*
X0257298Y0145335D03*
X0257165Y0145069D03*
X0257031Y0144802D03*
X0230205Y0144802D03*
X0230071Y0145069D03*
X0229938Y0145335D03*
X0229938Y0145469D03*
X0229804Y0145602D03*
X0229671Y0146136D03*
X0229804Y0155479D03*
X0229804Y0155612D03*
X0229938Y0155746D03*
X0229938Y0155879D03*
X0230071Y0156146D03*
X0230205Y0156413D03*
D84*
X0248690Y0145335D03*
D85*
X0248690Y0145469D03*
D86*
X0248690Y0145602D03*
D87*
X0257432Y0145736D03*
X0257565Y0155078D03*
X0229671Y0155078D03*
X0229804Y0145736D03*
D88*
X0248690Y0145736D03*
D89*
X0252494Y0152409D03*
X0257432Y0155345D03*
X0257432Y0145869D03*
X0229804Y0145869D03*
X0229804Y0155345D03*
D90*
X0248690Y0145869D03*
D91*
X0257498Y0146003D03*
X0257899Y0147070D03*
X0257899Y0147471D03*
X0257899Y0153744D03*
X0257899Y0153877D03*
X0257899Y0154011D03*
X0257899Y0154144D03*
X0257498Y0155211D03*
X0229604Y0154945D03*
X0229604Y0154811D03*
X0229471Y0154544D03*
X0229471Y0154411D03*
X0229471Y0154278D03*
X0229471Y0146670D03*
X0229604Y0146403D03*
X0229604Y0146270D03*
D92*
X0248690Y0146003D03*
D93*
X0252427Y0148672D03*
X0252560Y0148806D03*
X0252560Y0148939D03*
X0252694Y0149206D03*
X0252694Y0151875D03*
X0252694Y0152009D03*
X0252560Y0152275D03*
X0252427Y0152543D03*
X0257765Y0154278D03*
X0257765Y0154411D03*
X0257765Y0154544D03*
X0258032Y0153477D03*
X0258032Y0153343D03*
X0258032Y0153210D03*
X0258032Y0148005D03*
X0258032Y0147871D03*
X0258032Y0147738D03*
X0257765Y0146937D03*
X0257765Y0146804D03*
X0257765Y0146670D03*
X0229737Y0146003D03*
X0229737Y0155211D03*
D94*
X0248623Y0146136D03*
D95*
X0252827Y0149606D03*
X0258166Y0148672D03*
X0258166Y0148539D03*
X0257632Y0146403D03*
X0257632Y0146270D03*
X0258166Y0152543D03*
X0258166Y0152676D03*
X0257632Y0154811D03*
X0257632Y0154945D03*
D96*
X0248690Y0146270D03*
D97*
X0248690Y0146403D03*
D98*
X0248690Y0146537D03*
X0248690Y0154678D03*
D99*
X0229537Y0154678D03*
X0229537Y0146537D03*
D100*
X0248623Y0146670D03*
D101*
X0240348Y0146804D03*
D102*
X0240415Y0146937D03*
D103*
X0240415Y0147070D03*
X0240415Y0154144D03*
D104*
X0257899Y0147204D03*
D105*
X0240481Y0147204D03*
D106*
X0257899Y0147337D03*
D107*
X0250892Y0147337D03*
D108*
X0238346Y0147337D03*
D109*
X0238079Y0147471D03*
D110*
X0252627Y0149072D03*
X0252760Y0149339D03*
X0252760Y0149473D03*
X0252760Y0151608D03*
X0252760Y0151742D03*
X0258099Y0152809D03*
X0258099Y0152943D03*
X0258099Y0153076D03*
X0257966Y0153610D03*
X0258232Y0152275D03*
X0258232Y0152009D03*
X0258232Y0151875D03*
X0258232Y0151742D03*
X0258232Y0149473D03*
X0258232Y0149339D03*
X0258232Y0149206D03*
X0258232Y0149072D03*
X0258232Y0148939D03*
X0258232Y0148806D03*
X0258099Y0148405D03*
X0258099Y0148272D03*
X0258099Y0148138D03*
X0257966Y0147604D03*
D111*
X0237879Y0147604D03*
X0237745Y0153477D03*
D112*
X0237679Y0147738D03*
D113*
X0237545Y0147871D03*
X0237545Y0153343D03*
D114*
X0237412Y0148005D03*
D115*
X0237278Y0148138D03*
X0237278Y0152943D03*
D116*
X0252226Y0152809D03*
X0252226Y0148272D03*
D117*
X0237212Y0148272D03*
D118*
X0237145Y0148405D03*
X0237145Y0152809D03*
D119*
X0237011Y0152543D03*
X0237011Y0148672D03*
X0237011Y0148539D03*
D120*
X0258299Y0149606D03*
X0258299Y0149740D03*
X0258299Y0149873D03*
X0258299Y0150007D03*
X0258299Y0150140D03*
X0258299Y0150274D03*
X0258299Y0150407D03*
X0258299Y0150541D03*
X0258299Y0150674D03*
X0258299Y0150807D03*
X0258299Y0150941D03*
X0258299Y0151074D03*
X0258299Y0151208D03*
X0258299Y0151341D03*
X0258299Y0151475D03*
X0258299Y0151608D03*
D121*
X0252894Y0151475D03*
X0252894Y0151341D03*
X0252894Y0151208D03*
X0252894Y0150007D03*
X0252894Y0149873D03*
X0252894Y0149740D03*
D122*
X0252960Y0150140D03*
X0252960Y0150274D03*
X0252960Y0150407D03*
X0252960Y0150674D03*
X0252960Y0150807D03*
X0252960Y0150941D03*
X0252960Y0151074D03*
D123*
X0253027Y0150541D03*
D124*
X0252627Y0152142D03*
X0258232Y0152142D03*
D125*
X0236945Y0152275D03*
D126*
X0258232Y0152409D03*
D127*
X0236945Y0152409D03*
D128*
X0237078Y0152676D03*
D129*
X0237345Y0153076D03*
D130*
X0237479Y0153210D03*
D131*
X0237945Y0153610D03*
D132*
X0251092Y0153744D03*
D133*
X0238146Y0153744D03*
D134*
X0240548Y0153877D03*
D135*
X0240481Y0154011D03*
D136*
X0248689Y0154278D03*
D137*
X0248690Y0154411D03*
D138*
X0248690Y0155078D03*
D139*
X0248690Y0155211D03*
D140*
X0248623Y0155345D03*
D141*
X0248690Y0155479D03*
X0243618Y0166289D03*
D142*
X0253961Y0160951D03*
D143*
X0243618Y0164688D03*
D144*
X0243618Y0164821D03*
D145*
X0243618Y0165222D03*
D146*
X0243618Y0165355D03*
D147*
X0175705Y0128068D03*
D148*
X0175815Y0128123D03*
D149*
X0175815Y0128178D03*
D150*
X0175842Y0128233D03*
D151*
X0175815Y0128288D03*
D152*
X0175842Y0128343D03*
D153*
X0175842Y0128398D03*
D154*
X0175815Y0128454D03*
D155*
X0175815Y0128509D03*
D156*
X0175815Y0128564D03*
D157*
X0175842Y0128619D03*
D158*
X0175815Y0128674D03*
D159*
X0175815Y0128729D03*
D160*
X0175842Y0128784D03*
D161*
X0175815Y0128839D03*
D162*
X0175842Y0128894D03*
X0175842Y0128950D03*
D163*
X0175870Y0129005D03*
D164*
X0175897Y0129060D03*
X0175897Y0129115D03*
D165*
X0175870Y0129170D03*
X0175870Y0129225D03*
X0175870Y0129280D03*
X0175870Y0129335D03*
X0175870Y0129391D03*
X0175870Y0129446D03*
X0175870Y0129501D03*
X0175870Y0129556D03*
X0175870Y0129611D03*
X0175870Y0129666D03*
X0175870Y0129721D03*
X0175870Y0129776D03*
X0175870Y0129831D03*
X0175870Y0129887D03*
X0175870Y0129942D03*
X0175870Y0129997D03*
X0175870Y0130052D03*
X0175870Y0130107D03*
X0175870Y0130162D03*
X0175870Y0130217D03*
X0175870Y0130272D03*
X0175870Y0130328D03*
X0175870Y0130383D03*
X0175870Y0130438D03*
X0175870Y0130493D03*
X0175870Y0130548D03*
X0175870Y0130603D03*
X0175870Y0130658D03*
X0175870Y0130713D03*
X0175870Y0130769D03*
D166*
X0175815Y0133249D03*
X0175815Y0133304D03*
X0175815Y0133359D03*
X0182870Y0133359D03*
X0182870Y0133304D03*
X0182870Y0133249D03*
X0182870Y0133414D03*
X0182870Y0133469D03*
X0182870Y0133524D03*
X0182870Y0133580D03*
X0182870Y0133635D03*
X0182870Y0133690D03*
X0182870Y0133745D03*
X0182870Y0133800D03*
X0182870Y0133855D03*
X0182870Y0133910D03*
X0182870Y0133965D03*
X0182870Y0134020D03*
X0182870Y0134076D03*
X0182870Y0134131D03*
X0182870Y0134186D03*
X0182870Y0134241D03*
X0182870Y0134296D03*
X0182870Y0134351D03*
X0182870Y0134406D03*
X0182870Y0134461D03*
X0182870Y0134517D03*
X0182870Y0134572D03*
X0182870Y0134627D03*
X0182870Y0134682D03*
X0182870Y0134737D03*
X0182870Y0131650D03*
X0182870Y0131595D03*
X0182870Y0131540D03*
X0182870Y0131485D03*
X0182870Y0131430D03*
X0182870Y0131375D03*
X0182870Y0131320D03*
X0182870Y0131265D03*
X0182870Y0131209D03*
X0182870Y0131154D03*
X0182870Y0131099D03*
X0182870Y0131044D03*
X0182870Y0130989D03*
X0182870Y0130934D03*
X0182870Y0130879D03*
X0182870Y0130824D03*
X0182870Y0137934D03*
X0182870Y0137989D03*
X0182870Y0138044D03*
X0182870Y0138099D03*
X0182870Y0138154D03*
X0182870Y0138209D03*
X0182870Y0138265D03*
X0182870Y0138320D03*
X0182870Y0138375D03*
X0182870Y0138430D03*
X0182870Y0138485D03*
X0182870Y0138540D03*
X0182870Y0138595D03*
X0182870Y0138650D03*
X0182870Y0138706D03*
X0182870Y0138761D03*
X0182870Y0138816D03*
X0182870Y0138871D03*
X0182870Y0138926D03*
X0182870Y0138981D03*
X0182870Y0139036D03*
X0182870Y0139091D03*
X0182870Y0139146D03*
X0182870Y0140690D03*
X0182870Y0140745D03*
X0182870Y0140800D03*
X0182870Y0140855D03*
X0182870Y0140910D03*
X0182870Y0140965D03*
X0182870Y0141020D03*
X0182870Y0141076D03*
X0182870Y0141131D03*
X0182870Y0141186D03*
X0182870Y0141241D03*
X0182870Y0141296D03*
X0182870Y0141351D03*
X0182870Y0141406D03*
X0182870Y0141461D03*
X0182870Y0141517D03*
X0182870Y0141572D03*
X0182870Y0141627D03*
X0182870Y0141682D03*
X0182870Y0141737D03*
X0182870Y0141792D03*
X0182870Y0141847D03*
X0182870Y0141902D03*
X0182870Y0141957D03*
X0182870Y0142013D03*
X0182870Y0142068D03*
X0182925Y0143501D03*
X0182925Y0143556D03*
X0182925Y0143611D03*
X0182925Y0143666D03*
X0182925Y0143721D03*
X0182925Y0143776D03*
X0182925Y0143831D03*
X0187114Y0142123D03*
X0187059Y0137879D03*
X0187004Y0148572D03*
X0187004Y0148627D03*
X0187004Y0148682D03*
X0187004Y0148737D03*
X0186949Y0148792D03*
X0186949Y0148847D03*
X0182649Y0158879D03*
X0182594Y0159044D03*
X0169145Y0159320D03*
X0169090Y0159154D03*
X0169090Y0159099D03*
X0169035Y0158989D03*
X0169035Y0158934D03*
X0169035Y0158879D03*
X0168980Y0158824D03*
X0168980Y0158769D03*
X0164736Y0148902D03*
X0164681Y0148737D03*
X0164681Y0148682D03*
X0164626Y0148296D03*
X0164626Y0148241D03*
X0164626Y0148186D03*
X0164571Y0145761D03*
X0164571Y0145706D03*
X0164571Y0145650D03*
X0164571Y0145595D03*
X0164571Y0145540D03*
X0164571Y0145485D03*
X0164571Y0145430D03*
X0164571Y0145375D03*
X0164571Y0145320D03*
X0164571Y0145265D03*
X0164571Y0145209D03*
X0164571Y0145154D03*
X0164571Y0145099D03*
X0164571Y0145044D03*
X0164571Y0144989D03*
X0164571Y0144934D03*
X0164571Y0144879D03*
X0164571Y0144824D03*
X0164571Y0144769D03*
X0164571Y0144713D03*
X0164571Y0144658D03*
X0164571Y0144603D03*
X0164571Y0144548D03*
X0164571Y0144493D03*
X0164571Y0144438D03*
X0164571Y0144383D03*
X0164571Y0144328D03*
X0164571Y0144272D03*
X0164571Y0144217D03*
X0164571Y0144162D03*
X0164571Y0144107D03*
X0164571Y0144052D03*
X0164571Y0143997D03*
X0164571Y0143942D03*
X0164571Y0143887D03*
X0164571Y0143831D03*
X0164571Y0143776D03*
X0164571Y0143721D03*
X0164571Y0143666D03*
X0164571Y0143611D03*
X0164571Y0143556D03*
X0164571Y0143501D03*
X0164571Y0142123D03*
X0164571Y0142068D03*
X0164571Y0142013D03*
X0164571Y0141957D03*
X0164571Y0141902D03*
X0164571Y0141847D03*
X0164571Y0141792D03*
X0164571Y0141737D03*
X0164571Y0141682D03*
X0164571Y0141627D03*
X0164571Y0141572D03*
X0164571Y0141517D03*
X0164571Y0141461D03*
X0164571Y0141406D03*
X0164571Y0141351D03*
X0164571Y0141296D03*
X0164571Y0141241D03*
X0164571Y0141186D03*
X0164571Y0141131D03*
X0164571Y0141076D03*
X0164571Y0141020D03*
X0164571Y0140965D03*
X0164571Y0140910D03*
X0164571Y0140855D03*
X0164571Y0140800D03*
X0164571Y0140745D03*
X0164571Y0140690D03*
X0164571Y0139257D03*
X0164571Y0139202D03*
X0164571Y0139146D03*
X0164571Y0139091D03*
X0164571Y0139036D03*
X0164571Y0138981D03*
X0164571Y0138926D03*
X0164571Y0138871D03*
X0164571Y0138816D03*
X0164571Y0138761D03*
X0164571Y0138706D03*
X0164571Y0138650D03*
X0164571Y0138595D03*
X0164571Y0138540D03*
X0164571Y0138485D03*
X0164571Y0138430D03*
X0164571Y0138375D03*
X0164571Y0138320D03*
X0164571Y0138265D03*
X0164571Y0138209D03*
X0164571Y0138154D03*
X0164571Y0138099D03*
X0168760Y0135068D03*
D167*
X0168787Y0135013D03*
X0168787Y0134957D03*
X0168787Y0134902D03*
X0168787Y0134847D03*
X0168787Y0134792D03*
X0168787Y0134737D03*
X0168787Y0134682D03*
X0168787Y0134627D03*
X0168787Y0134572D03*
X0168787Y0134517D03*
X0168787Y0134461D03*
X0168787Y0134406D03*
X0168787Y0134351D03*
X0168787Y0134296D03*
X0168787Y0134241D03*
X0168787Y0134186D03*
X0168787Y0134131D03*
X0168787Y0134076D03*
X0168787Y0134020D03*
X0168787Y0133965D03*
X0168787Y0133910D03*
X0168787Y0133855D03*
X0168787Y0133800D03*
X0168787Y0133745D03*
X0168787Y0133690D03*
X0168787Y0133635D03*
X0168787Y0133580D03*
X0168787Y0133524D03*
X0168787Y0133469D03*
X0168787Y0133414D03*
X0168787Y0133359D03*
X0168787Y0133304D03*
X0168787Y0133249D03*
X0168842Y0131650D03*
X0168787Y0137879D03*
X0168787Y0137934D03*
X0168787Y0137989D03*
X0168787Y0138044D03*
X0168787Y0138099D03*
X0168787Y0138154D03*
X0168787Y0138209D03*
X0168787Y0138265D03*
X0168787Y0138320D03*
X0168787Y0138375D03*
X0168787Y0138430D03*
X0168787Y0138485D03*
X0168787Y0138540D03*
X0168787Y0138595D03*
X0168787Y0138650D03*
X0168787Y0138706D03*
X0168787Y0138761D03*
X0168787Y0138816D03*
X0168787Y0138871D03*
X0168787Y0138926D03*
X0168787Y0138981D03*
X0168787Y0139036D03*
X0168787Y0139091D03*
X0168787Y0139146D03*
X0168787Y0139202D03*
X0168787Y0139257D03*
X0168787Y0140690D03*
X0168787Y0140745D03*
X0168787Y0140800D03*
X0168787Y0140855D03*
X0168787Y0140910D03*
X0168787Y0140965D03*
X0168787Y0141020D03*
X0168787Y0141076D03*
X0168787Y0141131D03*
X0168787Y0141186D03*
X0168787Y0141241D03*
X0168787Y0141296D03*
X0168787Y0141351D03*
X0168787Y0141406D03*
X0168787Y0141461D03*
X0168787Y0141517D03*
X0168787Y0141572D03*
X0168787Y0141627D03*
X0168787Y0141682D03*
X0168787Y0141737D03*
X0168787Y0141792D03*
X0168787Y0141847D03*
X0168787Y0141902D03*
X0168787Y0141957D03*
X0168787Y0142013D03*
X0168787Y0142068D03*
X0168787Y0142123D03*
X0168787Y0143501D03*
X0168787Y0143556D03*
X0168787Y0143611D03*
X0168787Y0143666D03*
X0168787Y0143721D03*
X0168787Y0143776D03*
X0168787Y0143831D03*
X0168787Y0143887D03*
X0168787Y0143942D03*
X0168787Y0143997D03*
X0168787Y0144052D03*
X0168787Y0144107D03*
X0168787Y0144162D03*
X0168787Y0144217D03*
X0168787Y0144272D03*
X0168787Y0144328D03*
X0168787Y0144383D03*
X0168787Y0144438D03*
X0168787Y0144493D03*
X0168787Y0144548D03*
X0168787Y0144603D03*
X0168787Y0144658D03*
X0168787Y0144713D03*
X0168787Y0144769D03*
X0168787Y0144824D03*
X0168787Y0144879D03*
X0168787Y0144934D03*
X0168787Y0144989D03*
X0168787Y0145044D03*
X0168787Y0145099D03*
X0168787Y0145154D03*
X0168787Y0145209D03*
X0168787Y0145265D03*
X0168787Y0145320D03*
X0168787Y0145375D03*
X0168787Y0145430D03*
X0168787Y0145485D03*
X0168787Y0145540D03*
X0168787Y0145595D03*
X0168787Y0145650D03*
X0168787Y0145706D03*
X0168787Y0145761D03*
X0168787Y0145816D03*
X0168787Y0145871D03*
X0168787Y0145926D03*
X0168787Y0145981D03*
X0164598Y0145981D03*
X0164598Y0145926D03*
X0164598Y0145871D03*
X0164598Y0145816D03*
X0164598Y0146036D03*
X0164598Y0146091D03*
X0164598Y0146146D03*
X0164598Y0146202D03*
X0164598Y0146257D03*
X0164598Y0146312D03*
X0164598Y0146367D03*
X0164598Y0146422D03*
X0164598Y0146477D03*
X0164598Y0146532D03*
X0164598Y0146587D03*
X0164598Y0146643D03*
X0164598Y0146698D03*
X0164598Y0146753D03*
X0164598Y0146808D03*
X0164598Y0146863D03*
X0164598Y0146918D03*
X0164598Y0146973D03*
X0164598Y0147028D03*
X0164598Y0147083D03*
X0164598Y0147139D03*
X0164598Y0147194D03*
X0164598Y0147249D03*
X0164598Y0147304D03*
X0164598Y0147359D03*
X0164598Y0147414D03*
X0164598Y0147469D03*
X0164598Y0147524D03*
X0164598Y0147580D03*
X0164598Y0147635D03*
X0164598Y0147690D03*
X0164598Y0147745D03*
X0164598Y0147800D03*
X0164598Y0147855D03*
X0164598Y0147910D03*
X0164598Y0147965D03*
X0164598Y0148020D03*
X0164598Y0148076D03*
X0164598Y0148131D03*
X0164653Y0148351D03*
X0164653Y0148406D03*
X0164653Y0148461D03*
X0164653Y0148517D03*
X0164653Y0148572D03*
X0164653Y0148627D03*
X0164598Y0138044D03*
X0164598Y0137989D03*
X0164598Y0137934D03*
X0164598Y0137879D03*
X0175842Y0137603D03*
X0175842Y0137548D03*
X0175842Y0137493D03*
X0175842Y0137438D03*
X0175842Y0137383D03*
X0175842Y0137328D03*
X0175842Y0137272D03*
X0175842Y0137217D03*
X0175842Y0137162D03*
X0175842Y0137107D03*
X0175842Y0137052D03*
X0175842Y0136997D03*
X0175842Y0136942D03*
X0175842Y0136887D03*
X0175842Y0136831D03*
X0175842Y0136776D03*
X0175842Y0136721D03*
X0175842Y0136666D03*
X0175842Y0136611D03*
X0175842Y0136556D03*
X0175842Y0136501D03*
X0175842Y0136446D03*
X0175842Y0136391D03*
X0175842Y0136335D03*
X0175842Y0136280D03*
X0175842Y0136225D03*
X0175842Y0136170D03*
X0175842Y0136115D03*
X0175842Y0136060D03*
X0175842Y0136005D03*
X0175842Y0135950D03*
X0175842Y0135894D03*
X0175842Y0135839D03*
X0175842Y0135784D03*
X0175842Y0135729D03*
X0175842Y0135674D03*
X0175842Y0135619D03*
X0175842Y0135564D03*
X0175842Y0135509D03*
X0175842Y0135454D03*
X0175842Y0135398D03*
X0175842Y0135343D03*
X0175842Y0135288D03*
X0175842Y0135233D03*
X0175842Y0135178D03*
X0175842Y0135123D03*
X0175842Y0135068D03*
X0175842Y0135013D03*
X0175842Y0134957D03*
X0175842Y0134902D03*
X0175842Y0134847D03*
X0175842Y0134792D03*
X0175842Y0134737D03*
X0175842Y0134682D03*
X0175842Y0134627D03*
X0175842Y0134572D03*
X0175842Y0134517D03*
X0175842Y0134461D03*
X0175842Y0134406D03*
X0175842Y0134351D03*
X0175842Y0134296D03*
X0175842Y0134241D03*
X0175842Y0134186D03*
X0175842Y0134131D03*
X0175842Y0134076D03*
X0175842Y0134020D03*
X0175842Y0133965D03*
X0175842Y0133910D03*
X0175842Y0133855D03*
X0175842Y0133800D03*
X0175842Y0133745D03*
X0175842Y0133690D03*
X0175842Y0133635D03*
X0175842Y0133580D03*
X0175842Y0133524D03*
X0175842Y0133469D03*
X0175842Y0133414D03*
X0175842Y0131650D03*
X0175842Y0131595D03*
X0175842Y0131540D03*
X0175842Y0131485D03*
X0175842Y0131430D03*
X0175842Y0131375D03*
X0175842Y0131320D03*
X0175842Y0131265D03*
X0175842Y0131209D03*
X0175842Y0131154D03*
X0175842Y0131099D03*
X0175842Y0131044D03*
X0175842Y0130989D03*
X0175842Y0130934D03*
X0175842Y0130879D03*
X0175842Y0130824D03*
X0187086Y0137934D03*
X0187086Y0137989D03*
X0187142Y0140690D03*
X0187142Y0140745D03*
X0187142Y0140800D03*
X0187142Y0140855D03*
X0187142Y0140910D03*
X0187142Y0140965D03*
X0187142Y0141020D03*
X0187142Y0141076D03*
X0187142Y0141131D03*
X0187142Y0141186D03*
X0187142Y0141241D03*
X0187142Y0141296D03*
X0187142Y0141351D03*
X0187142Y0141406D03*
X0187142Y0141461D03*
X0187142Y0141517D03*
X0187142Y0141572D03*
X0187142Y0141627D03*
X0187142Y0141682D03*
X0187142Y0141737D03*
X0187142Y0141792D03*
X0187142Y0141847D03*
X0187142Y0141902D03*
X0187142Y0141957D03*
X0187142Y0142013D03*
X0187142Y0142068D03*
X0187142Y0143501D03*
X0187142Y0143556D03*
X0187142Y0143611D03*
X0187142Y0143666D03*
X0187142Y0143721D03*
X0187142Y0143776D03*
X0187142Y0143831D03*
X0187142Y0143887D03*
X0187142Y0143942D03*
X0187142Y0143997D03*
X0187142Y0144052D03*
X0187142Y0144107D03*
X0187142Y0144162D03*
X0187142Y0144217D03*
X0187142Y0144272D03*
X0187142Y0144328D03*
X0187142Y0144383D03*
X0187142Y0144438D03*
X0187142Y0144493D03*
X0187142Y0144548D03*
X0187142Y0144603D03*
X0187142Y0144658D03*
X0187142Y0144713D03*
X0187142Y0144769D03*
X0187142Y0144824D03*
X0187142Y0144879D03*
X0187142Y0144934D03*
X0187142Y0144989D03*
X0187142Y0145044D03*
X0187142Y0145099D03*
X0187142Y0145154D03*
X0187142Y0145209D03*
X0187142Y0145265D03*
X0187142Y0145320D03*
X0187142Y0145375D03*
X0187142Y0145430D03*
X0187142Y0145485D03*
X0187142Y0145540D03*
X0187142Y0145595D03*
X0187142Y0145650D03*
X0187142Y0145706D03*
X0187142Y0145761D03*
X0187142Y0145816D03*
X0187142Y0145871D03*
X0187142Y0145926D03*
X0187142Y0145981D03*
X0187086Y0146312D03*
X0187086Y0146367D03*
X0187086Y0146422D03*
X0187086Y0146477D03*
X0187086Y0146532D03*
X0187086Y0146587D03*
X0187086Y0146643D03*
X0187086Y0146698D03*
X0187086Y0146753D03*
X0187086Y0146808D03*
X0187086Y0146863D03*
X0187086Y0146918D03*
X0187086Y0146973D03*
X0187086Y0147028D03*
X0187086Y0147083D03*
X0187086Y0147139D03*
X0187086Y0147194D03*
X0187086Y0147249D03*
X0187086Y0147304D03*
X0187086Y0147359D03*
X0187086Y0147414D03*
X0187086Y0147469D03*
X0187086Y0147524D03*
X0187086Y0147580D03*
X0187086Y0147635D03*
X0187086Y0147690D03*
X0187086Y0147745D03*
X0187086Y0147800D03*
X0187086Y0147855D03*
X0187086Y0147910D03*
X0187086Y0147965D03*
X0187086Y0148020D03*
X0187086Y0148076D03*
X0187086Y0148131D03*
X0187031Y0148241D03*
X0187031Y0148296D03*
X0187031Y0148351D03*
X0187031Y0148406D03*
X0187031Y0148461D03*
X0187031Y0148517D03*
X0182897Y0146422D03*
X0182897Y0146367D03*
X0182897Y0146312D03*
X0182897Y0146257D03*
X0182897Y0146202D03*
X0182897Y0146146D03*
X0182897Y0146091D03*
X0182897Y0146036D03*
X0182897Y0145981D03*
X0182897Y0145926D03*
X0182897Y0145871D03*
X0182897Y0145816D03*
X0182897Y0145761D03*
X0182897Y0145706D03*
X0182897Y0145650D03*
X0182897Y0145595D03*
X0182897Y0145540D03*
X0182897Y0145485D03*
X0182897Y0145430D03*
X0182897Y0145375D03*
X0182897Y0145320D03*
X0182897Y0145265D03*
X0182897Y0145209D03*
X0182897Y0145154D03*
X0182897Y0145099D03*
X0182897Y0145044D03*
X0182897Y0144989D03*
X0182897Y0144934D03*
X0182897Y0144879D03*
X0182897Y0144824D03*
X0182897Y0144769D03*
X0182897Y0144713D03*
X0182897Y0144658D03*
X0182897Y0144603D03*
X0182897Y0144548D03*
X0182897Y0144493D03*
X0182897Y0144438D03*
X0182897Y0144383D03*
X0182897Y0144328D03*
X0182897Y0144272D03*
X0182897Y0144217D03*
X0182897Y0144162D03*
X0182897Y0144107D03*
X0182897Y0144052D03*
X0182897Y0143997D03*
X0182897Y0143942D03*
X0182897Y0143887D03*
X0175842Y0164556D03*
D168*
X0187059Y0148186D03*
X0187114Y0146257D03*
X0187114Y0146202D03*
X0187114Y0146146D03*
X0187114Y0146091D03*
X0187114Y0146036D03*
X0182870Y0146477D03*
X0182870Y0146532D03*
X0182870Y0146587D03*
X0182870Y0146643D03*
X0187114Y0139257D03*
X0187114Y0139202D03*
X0187114Y0139146D03*
X0187114Y0139091D03*
X0187114Y0139036D03*
X0187114Y0138981D03*
X0187114Y0138926D03*
X0187114Y0138871D03*
X0187114Y0138816D03*
X0187114Y0138761D03*
X0187114Y0138706D03*
X0187114Y0138650D03*
X0187114Y0138595D03*
X0187114Y0138540D03*
X0187114Y0138485D03*
X0187114Y0138430D03*
X0187114Y0138375D03*
X0187114Y0138320D03*
X0187114Y0138265D03*
X0187114Y0138209D03*
X0187114Y0138154D03*
X0187114Y0138099D03*
X0187114Y0138044D03*
X0175815Y0137934D03*
X0175815Y0137879D03*
X0175815Y0137824D03*
X0175815Y0137769D03*
X0175815Y0137713D03*
X0175815Y0137658D03*
X0168815Y0131595D03*
X0168815Y0131540D03*
X0168815Y0131485D03*
X0168815Y0131430D03*
X0168815Y0131375D03*
X0168815Y0131320D03*
X0168815Y0131265D03*
X0168815Y0131209D03*
X0168815Y0131154D03*
X0168815Y0131099D03*
X0168815Y0131044D03*
X0168815Y0130989D03*
X0168815Y0130934D03*
X0168815Y0130879D03*
X0168815Y0130824D03*
D169*
X0172315Y0133414D03*
X0179370Y0133414D03*
X0182897Y0134792D03*
X0182897Y0134847D03*
X0182897Y0134902D03*
X0182897Y0134957D03*
X0182897Y0135013D03*
X0182897Y0135068D03*
X0182842Y0131706D03*
X0182897Y0139202D03*
X0182897Y0139257D03*
X0182897Y0142123D03*
X0186921Y0148902D03*
X0186921Y0148957D03*
X0186866Y0149068D03*
X0182732Y0158658D03*
X0182732Y0158713D03*
X0182677Y0158769D03*
X0182677Y0158824D03*
X0182622Y0158934D03*
X0182622Y0158989D03*
X0182567Y0159099D03*
X0182567Y0159154D03*
X0182567Y0159209D03*
X0182512Y0159265D03*
X0182512Y0159320D03*
X0182456Y0159430D03*
X0175842Y0160202D03*
X0169283Y0159650D03*
X0169228Y0159540D03*
X0169228Y0159485D03*
X0169173Y0159430D03*
X0169173Y0159375D03*
X0169118Y0159265D03*
X0169118Y0159209D03*
X0169063Y0159044D03*
X0168953Y0158713D03*
X0164764Y0149013D03*
X0164764Y0148957D03*
X0164708Y0148847D03*
X0164708Y0148792D03*
D170*
X0164901Y0149343D03*
X0164956Y0149454D03*
X0165012Y0149509D03*
X0168815Y0158548D03*
X0169476Y0160036D03*
X0169476Y0160091D03*
X0169531Y0160146D03*
X0182153Y0160091D03*
X0182208Y0160036D03*
X0182208Y0159981D03*
X0182264Y0159926D03*
X0186673Y0149509D03*
X0186728Y0149398D03*
X0182760Y0131761D03*
X0175815Y0131706D03*
X0168925Y0131761D03*
D171*
X0168870Y0131706D03*
X0164791Y0149068D03*
X0164791Y0149123D03*
X0164846Y0149178D03*
X0168870Y0158603D03*
X0168925Y0158658D03*
X0169256Y0159595D03*
X0169311Y0159706D03*
X0169311Y0159761D03*
X0169366Y0159816D03*
X0182374Y0159650D03*
X0182429Y0159540D03*
X0182429Y0159485D03*
X0182484Y0159375D03*
X0186783Y0149288D03*
X0186838Y0149178D03*
X0186838Y0149123D03*
X0186894Y0149013D03*
D172*
X0186370Y0149950D03*
X0186315Y0150005D03*
X0183063Y0158272D03*
X0183008Y0158328D03*
X0169834Y0160587D03*
X0168622Y0158272D03*
X0172315Y0133359D03*
X0169063Y0131871D03*
X0175842Y0131761D03*
D173*
X0182705Y0131816D03*
X0168980Y0131816D03*
X0165122Y0149729D03*
X0165177Y0149784D03*
X0169642Y0160312D03*
X0182043Y0160257D03*
X0182098Y0160202D03*
X0182925Y0158438D03*
X0186508Y0149784D03*
X0186563Y0149729D03*
D174*
X0186094Y0150225D03*
X0183173Y0158052D03*
X0181630Y0160808D03*
X0181575Y0160863D03*
X0170110Y0160918D03*
X0170055Y0160863D03*
X0168512Y0158052D03*
X0175842Y0146257D03*
X0175842Y0131816D03*
X0182512Y0131981D03*
D175*
X0182649Y0131871D03*
X0179342Y0133359D03*
X0165232Y0149894D03*
X0165287Y0149950D03*
X0168649Y0158328D03*
X0168705Y0158383D03*
X0169752Y0160477D03*
X0169807Y0160532D03*
X0175870Y0160146D03*
X0181878Y0160532D03*
X0181933Y0160477D03*
D176*
X0181409Y0161028D03*
X0181354Y0161083D03*
X0183338Y0157721D03*
X0170275Y0161083D03*
X0168346Y0157721D03*
X0168346Y0157666D03*
X0165701Y0150335D03*
X0175842Y0131871D03*
D177*
X0182567Y0131926D03*
X0169118Y0131926D03*
X0165425Y0150115D03*
X0168567Y0158162D03*
X0169945Y0160753D03*
X0181685Y0160753D03*
X0181740Y0160698D03*
X0183118Y0158162D03*
D178*
X0183504Y0157115D03*
X0183504Y0157060D03*
X0183504Y0157005D03*
X0183504Y0156950D03*
X0181079Y0161304D03*
X0168181Y0157115D03*
X0168181Y0157060D03*
X0172315Y0133249D03*
X0169449Y0132146D03*
X0175842Y0131926D03*
X0182236Y0132146D03*
D179*
X0182126Y0132202D03*
X0175842Y0131981D03*
X0168016Y0135123D03*
X0168181Y0155241D03*
X0168181Y0155296D03*
X0168181Y0155351D03*
X0183504Y0155351D03*
X0183504Y0155296D03*
X0183504Y0155241D03*
X0183504Y0155406D03*
X0183504Y0155461D03*
D180*
X0183201Y0157997D03*
X0181547Y0160918D03*
X0175870Y0160091D03*
X0168484Y0157997D03*
X0165563Y0150225D03*
X0175815Y0149288D03*
X0169201Y0131981D03*
D181*
X0169256Y0132036D03*
X0182429Y0132036D03*
X0183311Y0157776D03*
X0183256Y0157831D03*
X0168429Y0157887D03*
X0168374Y0157776D03*
D182*
X0168291Y0154469D03*
X0168291Y0154414D03*
X0171047Y0161580D03*
X0180582Y0161580D03*
X0183338Y0154414D03*
X0183338Y0154359D03*
X0185378Y0150556D03*
X0175842Y0142454D03*
X0175842Y0132036D03*
D183*
X0182346Y0132091D03*
X0165811Y0150391D03*
X0168291Y0157501D03*
X0168291Y0157556D03*
X0183394Y0157556D03*
X0183394Y0157501D03*
D184*
X0183173Y0153863D03*
X0183173Y0153808D03*
X0175787Y0164391D03*
X0168456Y0153863D03*
X0168456Y0153808D03*
X0175842Y0142619D03*
X0175842Y0132091D03*
X0183945Y0135178D03*
X0167685Y0135178D03*
D185*
X0169366Y0132091D03*
X0165894Y0150446D03*
X0168264Y0157391D03*
X0168264Y0157446D03*
X0170413Y0161194D03*
X0175870Y0160036D03*
X0181216Y0161194D03*
X0183421Y0157446D03*
X0185791Y0150446D03*
D186*
X0182953Y0153312D03*
X0175842Y0145485D03*
X0175842Y0145430D03*
X0175842Y0143005D03*
X0175842Y0142950D03*
X0175842Y0132146D03*
X0167464Y0135343D03*
X0168677Y0153312D03*
D187*
X0168953Y0152871D03*
X0175787Y0164280D03*
X0182677Y0152871D03*
X0167189Y0135674D03*
X0175842Y0132202D03*
D188*
X0169586Y0132202D03*
X0168153Y0155186D03*
X0170854Y0161469D03*
X0175815Y0164446D03*
X0180831Y0161469D03*
X0183476Y0155186D03*
X0183476Y0155131D03*
X0183476Y0155076D03*
D189*
X0175842Y0133194D03*
X0175842Y0133139D03*
X0175842Y0133083D03*
X0175842Y0133028D03*
X0175842Y0132973D03*
X0175842Y0132918D03*
X0175842Y0132863D03*
X0175842Y0132808D03*
X0175842Y0132753D03*
X0175842Y0132698D03*
X0175842Y0132643D03*
X0175842Y0132587D03*
X0175842Y0132532D03*
X0175842Y0132477D03*
X0175842Y0132422D03*
X0175842Y0132367D03*
X0175842Y0132312D03*
X0175842Y0132257D03*
D190*
X0179342Y0133249D03*
X0175815Y0142233D03*
X0168208Y0157170D03*
X0168208Y0157225D03*
X0170579Y0161304D03*
X0183476Y0157225D03*
X0183476Y0157170D03*
D191*
X0183228Y0157887D03*
X0183228Y0157942D03*
X0181464Y0160973D03*
X0175842Y0164501D03*
X0170220Y0161028D03*
X0170165Y0160973D03*
X0168456Y0157942D03*
X0168401Y0157831D03*
X0165645Y0150280D03*
X0175732Y0142178D03*
X0172315Y0133304D03*
X0179370Y0133304D03*
X0186039Y0150280D03*
X0185984Y0150335D03*
D192*
X0182897Y0147028D03*
X0179370Y0133469D03*
X0168787Y0147028D03*
D193*
X0168815Y0146973D03*
X0175815Y0138540D03*
X0175815Y0138485D03*
X0172342Y0133469D03*
X0182870Y0146973D03*
D194*
X0175815Y0138871D03*
X0179342Y0133524D03*
D195*
X0175815Y0138816D03*
X0172342Y0133524D03*
D196*
X0179342Y0133580D03*
X0182870Y0147635D03*
D197*
X0172342Y0133580D03*
D198*
X0183531Y0135123D03*
X0185681Y0150501D03*
X0183531Y0156564D03*
X0183531Y0156619D03*
X0183531Y0156674D03*
X0183531Y0156729D03*
X0183531Y0156784D03*
X0183531Y0156839D03*
X0183531Y0156894D03*
X0180996Y0161359D03*
X0175870Y0159981D03*
X0168153Y0157005D03*
X0168153Y0156950D03*
X0166004Y0150501D03*
D199*
X0168567Y0153532D03*
X0175842Y0142784D03*
X0175842Y0142729D03*
X0184055Y0135233D03*
X0183063Y0153532D03*
D200*
X0183090Y0153587D03*
X0180279Y0161690D03*
X0175870Y0159761D03*
X0168539Y0153643D03*
X0168539Y0153587D03*
X0175815Y0145706D03*
X0167602Y0135233D03*
D201*
X0167519Y0135288D03*
X0175842Y0142839D03*
X0175842Y0142894D03*
X0175842Y0145595D03*
X0183008Y0153422D03*
X0168622Y0153422D03*
X0184110Y0135288D03*
D202*
X0184193Y0135343D03*
X0175815Y0143060D03*
X0175815Y0143115D03*
X0175815Y0145375D03*
X0182925Y0153257D03*
X0171571Y0161745D03*
X0168705Y0153257D03*
D203*
X0168760Y0153146D03*
X0175870Y0159650D03*
X0182870Y0153146D03*
X0175815Y0143666D03*
X0175815Y0143611D03*
X0175815Y0143556D03*
X0175815Y0143501D03*
X0175815Y0143446D03*
X0184248Y0135398D03*
D204*
X0175842Y0143170D03*
X0175842Y0143225D03*
X0175842Y0143280D03*
X0175842Y0143335D03*
X0175842Y0143391D03*
X0175842Y0144989D03*
X0175842Y0145044D03*
X0175842Y0145099D03*
X0175842Y0145154D03*
X0175842Y0145209D03*
X0175842Y0145265D03*
X0175842Y0145320D03*
X0182897Y0153202D03*
X0180031Y0161745D03*
X0175787Y0164335D03*
X0168732Y0153202D03*
X0167409Y0135398D03*
D205*
X0167354Y0135454D03*
X0175842Y0143721D03*
X0175842Y0143776D03*
X0175842Y0143831D03*
X0175842Y0143887D03*
X0175842Y0143942D03*
X0175842Y0143997D03*
X0175842Y0144052D03*
X0175842Y0144107D03*
X0175842Y0144162D03*
X0175842Y0144217D03*
X0175842Y0144272D03*
X0175842Y0144328D03*
X0175842Y0144383D03*
X0175842Y0144438D03*
X0175842Y0144493D03*
X0175842Y0144548D03*
X0175842Y0144603D03*
X0175842Y0144658D03*
X0175842Y0144713D03*
X0175842Y0144769D03*
X0175842Y0144824D03*
X0175842Y0144879D03*
X0175842Y0144934D03*
X0168787Y0153091D03*
X0184275Y0135454D03*
D206*
X0184331Y0135509D03*
X0167299Y0135509D03*
X0168842Y0153036D03*
X0182787Y0153036D03*
D207*
X0175787Y0149509D03*
X0168897Y0152926D03*
X0167244Y0135619D03*
X0184386Y0135564D03*
D208*
X0167271Y0135564D03*
X0168870Y0152981D03*
X0182760Y0152981D03*
D209*
X0182705Y0152926D03*
X0175870Y0159540D03*
X0184413Y0135619D03*
D210*
X0184468Y0135674D03*
X0184634Y0150611D03*
X0168980Y0152816D03*
X0167161Y0135729D03*
D211*
X0167134Y0135784D03*
X0184496Y0135729D03*
X0182622Y0152816D03*
X0175897Y0159485D03*
D212*
X0182594Y0152761D03*
X0169035Y0152761D03*
X0167106Y0135839D03*
X0184523Y0135784D03*
D213*
X0184551Y0135839D03*
D214*
X0184606Y0135894D03*
X0167023Y0136005D03*
X0169118Y0152650D03*
D215*
X0169090Y0152706D03*
X0175980Y0154855D03*
X0175815Y0149564D03*
X0182539Y0152706D03*
X0175870Y0159430D03*
X0167051Y0135950D03*
X0167051Y0135894D03*
D216*
X0166996Y0136060D03*
X0184634Y0136005D03*
X0184634Y0135950D03*
X0182484Y0152650D03*
X0175870Y0159375D03*
D217*
X0175787Y0164225D03*
X0169173Y0152595D03*
X0166968Y0136115D03*
X0184661Y0136060D03*
D218*
X0184689Y0136115D03*
X0182429Y0152595D03*
X0166941Y0136225D03*
X0166941Y0136170D03*
D219*
X0166913Y0136280D03*
X0169228Y0152540D03*
X0175897Y0159320D03*
X0184716Y0136170D03*
D220*
X0184744Y0136225D03*
X0184744Y0136280D03*
X0182374Y0152540D03*
X0166886Y0136391D03*
X0166886Y0136335D03*
D221*
X0166858Y0136446D03*
X0166858Y0136501D03*
X0184771Y0136391D03*
X0184771Y0136335D03*
D222*
X0184799Y0136446D03*
X0184799Y0136501D03*
X0175815Y0149619D03*
X0175870Y0159265D03*
X0166831Y0136611D03*
X0166831Y0136556D03*
D223*
X0166803Y0136666D03*
X0166803Y0136721D03*
X0169283Y0152485D03*
X0175842Y0154910D03*
X0184827Y0136611D03*
X0184827Y0136556D03*
D224*
X0184854Y0136666D03*
X0184854Y0136721D03*
X0182374Y0152485D03*
X0175870Y0159209D03*
X0175815Y0164170D03*
X0166775Y0136887D03*
X0166775Y0136831D03*
X0166775Y0136776D03*
D225*
X0166748Y0136942D03*
X0166748Y0136997D03*
X0166748Y0137052D03*
X0184882Y0136887D03*
X0184882Y0136831D03*
X0184882Y0136776D03*
D226*
X0184909Y0136942D03*
X0184909Y0136997D03*
X0184909Y0137052D03*
X0166720Y0137107D03*
X0166720Y0137162D03*
X0166720Y0137217D03*
X0166720Y0137272D03*
X0175870Y0159154D03*
D227*
X0175842Y0154965D03*
X0169283Y0152430D03*
X0166693Y0137824D03*
X0166693Y0137769D03*
X0166693Y0137713D03*
X0166693Y0137658D03*
X0166693Y0137603D03*
X0166693Y0137548D03*
X0166693Y0137493D03*
X0166693Y0137438D03*
X0166693Y0137383D03*
X0166693Y0137328D03*
X0184937Y0137328D03*
X0184937Y0137383D03*
X0184937Y0137438D03*
X0184937Y0137493D03*
X0184937Y0137548D03*
X0184937Y0137272D03*
X0184937Y0137217D03*
X0184937Y0137162D03*
X0184937Y0137107D03*
D228*
X0184964Y0137603D03*
X0184964Y0137658D03*
X0184964Y0137713D03*
X0184964Y0137769D03*
X0184964Y0137824D03*
X0184964Y0139312D03*
X0184964Y0139367D03*
X0184964Y0139422D03*
X0184964Y0139477D03*
X0184964Y0139532D03*
X0184964Y0139587D03*
X0184964Y0139643D03*
X0185019Y0143060D03*
X0185019Y0143115D03*
X0185019Y0143170D03*
X0185019Y0143225D03*
X0185019Y0143280D03*
X0185019Y0143335D03*
X0185019Y0143391D03*
X0185019Y0143446D03*
X0182319Y0152430D03*
X0175815Y0149674D03*
X0175870Y0159099D03*
X0166665Y0143446D03*
X0166665Y0143391D03*
X0166665Y0143335D03*
X0166665Y0143280D03*
X0166665Y0143225D03*
X0166665Y0143170D03*
X0166665Y0143115D03*
X0166665Y0143060D03*
X0166665Y0143005D03*
X0166665Y0142950D03*
X0166665Y0142894D03*
X0166665Y0142839D03*
X0166665Y0142784D03*
X0166665Y0142729D03*
X0166665Y0142674D03*
X0166665Y0142619D03*
X0166665Y0142564D03*
X0166665Y0142509D03*
X0166665Y0142454D03*
X0166665Y0142398D03*
X0166665Y0142343D03*
X0166665Y0142288D03*
X0166665Y0142233D03*
X0166665Y0142178D03*
X0166665Y0140635D03*
X0166665Y0140580D03*
X0166665Y0140524D03*
X0166665Y0140469D03*
X0166665Y0140414D03*
X0166665Y0140359D03*
X0166665Y0140304D03*
X0166665Y0140249D03*
X0166665Y0140194D03*
X0166665Y0140139D03*
X0166665Y0140083D03*
X0166665Y0140028D03*
X0166665Y0139973D03*
X0166665Y0139918D03*
X0166665Y0139863D03*
X0166665Y0139808D03*
X0166665Y0139753D03*
X0166665Y0139698D03*
X0166665Y0139643D03*
X0166665Y0139587D03*
X0166665Y0139532D03*
X0166665Y0139477D03*
X0166665Y0139422D03*
X0166665Y0139367D03*
X0166665Y0139312D03*
D229*
X0164874Y0149233D03*
X0164874Y0149288D03*
X0164929Y0149398D03*
X0169394Y0159871D03*
X0169394Y0159926D03*
X0169449Y0159981D03*
X0182291Y0159871D03*
X0182291Y0159816D03*
X0182346Y0159761D03*
X0182346Y0159706D03*
X0182401Y0159595D03*
X0182787Y0158603D03*
X0182842Y0158548D03*
X0186701Y0149454D03*
X0186756Y0149343D03*
X0186811Y0149233D03*
X0182953Y0137879D03*
D230*
X0175842Y0137989D03*
X0175842Y0138044D03*
X0175842Y0138099D03*
X0175842Y0138154D03*
X0175842Y0138209D03*
X0175842Y0138265D03*
X0175842Y0138320D03*
X0168787Y0146036D03*
X0168787Y0146091D03*
X0168787Y0146146D03*
X0168787Y0146202D03*
X0168787Y0146257D03*
X0168787Y0146312D03*
X0168787Y0146367D03*
X0168787Y0146422D03*
X0168787Y0146477D03*
X0168787Y0146532D03*
X0168787Y0146587D03*
X0168787Y0146643D03*
X0168787Y0146698D03*
X0182897Y0146698D03*
X0182897Y0146753D03*
X0182897Y0146808D03*
D231*
X0182870Y0146863D03*
X0175815Y0138375D03*
X0168760Y0146753D03*
D232*
X0168787Y0146808D03*
X0168787Y0146863D03*
X0168787Y0146918D03*
X0175842Y0138430D03*
X0182897Y0146918D03*
D233*
X0175815Y0138650D03*
X0175815Y0138595D03*
X0168815Y0147083D03*
X0175870Y0160257D03*
D234*
X0175815Y0149233D03*
X0168815Y0147139D03*
X0175815Y0138706D03*
X0182870Y0147139D03*
D235*
X0175815Y0138761D03*
D236*
X0175815Y0138926D03*
X0175815Y0146312D03*
D237*
X0175815Y0138981D03*
X0175925Y0160312D03*
D238*
X0182870Y0147469D03*
X0175815Y0139036D03*
X0168760Y0147469D03*
D239*
X0168787Y0147524D03*
X0175787Y0139091D03*
X0182897Y0147524D03*
D240*
X0175787Y0139146D03*
X0168787Y0147580D03*
D241*
X0175787Y0139202D03*
D242*
X0175815Y0139257D03*
D243*
X0184992Y0139698D03*
X0184992Y0139753D03*
X0184992Y0139808D03*
X0184992Y0139863D03*
X0184992Y0139918D03*
X0184992Y0139973D03*
X0184992Y0140028D03*
X0184992Y0140083D03*
X0184992Y0140139D03*
X0184992Y0140194D03*
X0184992Y0140249D03*
X0184992Y0140304D03*
X0184992Y0140359D03*
X0184992Y0140414D03*
X0184992Y0140469D03*
X0184992Y0140524D03*
X0184992Y0140580D03*
X0184992Y0140635D03*
X0184992Y0142178D03*
X0184992Y0142233D03*
X0184992Y0142288D03*
X0184992Y0142343D03*
X0184992Y0142398D03*
X0184992Y0142454D03*
X0184992Y0142509D03*
X0184992Y0142564D03*
X0184992Y0142619D03*
X0184992Y0142674D03*
X0184992Y0142729D03*
X0184992Y0142784D03*
X0184992Y0142839D03*
X0184992Y0142894D03*
X0184992Y0142950D03*
X0184992Y0143005D03*
D244*
X0175842Y0142288D03*
X0175842Y0146146D03*
X0168126Y0155847D03*
X0168126Y0155902D03*
X0168126Y0155957D03*
X0168126Y0156013D03*
X0168126Y0156068D03*
X0168126Y0156123D03*
X0168126Y0156178D03*
X0168126Y0156233D03*
X0168126Y0156288D03*
X0168126Y0156343D03*
X0168126Y0156398D03*
X0168126Y0156454D03*
X0168126Y0156509D03*
X0168126Y0156564D03*
X0168126Y0156619D03*
X0168126Y0156674D03*
X0168126Y0156729D03*
X0168126Y0156784D03*
X0168126Y0156839D03*
X0168126Y0156894D03*
X0170661Y0161359D03*
X0183559Y0156509D03*
X0183559Y0156454D03*
X0183559Y0156398D03*
X0183559Y0156343D03*
X0183559Y0156288D03*
X0183559Y0156233D03*
X0183559Y0156178D03*
X0183559Y0156123D03*
X0183559Y0156068D03*
D245*
X0183449Y0155020D03*
X0183449Y0154965D03*
X0183449Y0154910D03*
X0175842Y0146091D03*
X0175842Y0142343D03*
X0166197Y0150556D03*
X0168181Y0155020D03*
X0168181Y0155076D03*
X0168181Y0155131D03*
D246*
X0168236Y0154800D03*
X0168236Y0154745D03*
X0168236Y0154690D03*
X0170937Y0161524D03*
X0180693Y0161524D03*
X0183394Y0154690D03*
X0183394Y0154635D03*
X0183394Y0154580D03*
X0175842Y0146036D03*
X0175842Y0142398D03*
D247*
X0175842Y0142509D03*
X0183283Y0154139D03*
X0183283Y0154194D03*
X0168346Y0154194D03*
X0168346Y0154249D03*
D248*
X0168401Y0154028D03*
X0168401Y0153973D03*
X0175842Y0142564D03*
X0183228Y0153973D03*
X0183228Y0154028D03*
X0180472Y0161635D03*
D249*
X0183118Y0153698D03*
X0183118Y0153643D03*
X0175842Y0145761D03*
X0175842Y0142674D03*
X0168512Y0153698D03*
D250*
X0168649Y0153367D03*
X0175815Y0149454D03*
X0175815Y0145540D03*
X0182980Y0153367D03*
X0175870Y0159706D03*
D251*
X0183035Y0153477D03*
X0175815Y0145650D03*
X0168594Y0153477D03*
D252*
X0168484Y0153753D03*
X0171350Y0161690D03*
X0183145Y0153753D03*
X0175815Y0145816D03*
D253*
X0175815Y0145871D03*
X0175815Y0149398D03*
X0183201Y0153918D03*
X0175870Y0159816D03*
X0168429Y0153918D03*
D254*
X0168374Y0154083D03*
X0168374Y0154139D03*
X0171185Y0161635D03*
X0183256Y0154083D03*
X0175815Y0145926D03*
D255*
X0175815Y0145981D03*
X0183311Y0154249D03*
X0183311Y0154304D03*
X0175870Y0159871D03*
X0168319Y0154359D03*
X0168319Y0154304D03*
D256*
X0168236Y0157280D03*
X0168236Y0157335D03*
X0170496Y0161249D03*
X0181134Y0161249D03*
X0183449Y0157391D03*
X0183449Y0157335D03*
X0183449Y0157280D03*
X0175842Y0146202D03*
D257*
X0182897Y0147083D03*
D258*
X0182897Y0147194D03*
X0168787Y0147194D03*
D259*
X0168787Y0147249D03*
X0182897Y0147249D03*
D260*
X0182897Y0147304D03*
X0168787Y0147304D03*
D261*
X0168787Y0147359D03*
X0182897Y0147359D03*
D262*
X0182897Y0147414D03*
X0168787Y0147414D03*
D263*
X0182870Y0147580D03*
X0175815Y0164611D03*
D264*
X0168760Y0147635D03*
D265*
X0182870Y0147690D03*
D266*
X0168787Y0147690D03*
D267*
X0182870Y0147745D03*
D268*
X0175815Y0149343D03*
X0168153Y0155406D03*
X0168153Y0155461D03*
X0168153Y0155517D03*
X0168153Y0155572D03*
X0168153Y0155627D03*
X0168153Y0155682D03*
X0168153Y0155737D03*
X0168153Y0155792D03*
X0170744Y0161414D03*
X0180886Y0161414D03*
X0183531Y0156013D03*
X0183531Y0155957D03*
X0183531Y0155902D03*
X0183531Y0155847D03*
X0183531Y0155792D03*
X0183531Y0155737D03*
X0183531Y0155682D03*
X0183531Y0155627D03*
X0183531Y0155572D03*
X0183531Y0155517D03*
D269*
X0182897Y0158493D03*
X0182126Y0160146D03*
X0186590Y0149674D03*
X0186590Y0149619D03*
X0186645Y0149564D03*
X0168787Y0158493D03*
X0169559Y0160202D03*
X0169614Y0160257D03*
X0165094Y0149674D03*
X0165039Y0149619D03*
X0165039Y0149564D03*
D270*
X0175815Y0149729D03*
X0175870Y0158934D03*
D271*
X0175870Y0158713D03*
X0175870Y0155241D03*
X0175815Y0149784D03*
X0169421Y0152265D03*
D272*
X0165205Y0149839D03*
X0168732Y0158438D03*
X0169669Y0160367D03*
X0169724Y0160422D03*
X0181960Y0160422D03*
X0182016Y0160367D03*
X0182016Y0160312D03*
X0182953Y0158383D03*
X0186425Y0149894D03*
X0186480Y0149839D03*
D273*
X0175787Y0149839D03*
X0175842Y0155406D03*
X0175842Y0158493D03*
X0169504Y0152209D03*
D274*
X0169559Y0152154D03*
X0175787Y0149894D03*
X0175842Y0155682D03*
X0175842Y0155737D03*
X0175842Y0155792D03*
X0175842Y0155847D03*
X0175842Y0157887D03*
X0175842Y0157942D03*
X0175842Y0157997D03*
X0175842Y0158052D03*
X0175842Y0158107D03*
D275*
X0175787Y0149950D03*
D276*
X0175815Y0150005D03*
D277*
X0186232Y0150115D03*
X0186287Y0150060D03*
X0183090Y0158217D03*
X0181823Y0160587D03*
X0181768Y0160643D03*
X0169917Y0160698D03*
X0169862Y0160643D03*
X0168594Y0158217D03*
X0165397Y0150060D03*
X0165342Y0150005D03*
D278*
X0175787Y0150060D03*
X0181850Y0152044D03*
X0175787Y0163729D03*
D279*
X0169945Y0152044D03*
X0175787Y0150115D03*
D280*
X0186177Y0150170D03*
X0183145Y0158107D03*
X0170027Y0160808D03*
X0168539Y0158107D03*
X0165508Y0150170D03*
D281*
X0175787Y0150170D03*
X0175787Y0163619D03*
D282*
X0175787Y0163564D03*
X0175787Y0150225D03*
D283*
X0175815Y0150280D03*
D284*
X0175787Y0150335D03*
D285*
X0185901Y0150391D03*
X0183366Y0157611D03*
X0183366Y0157666D03*
X0181271Y0161139D03*
X0170358Y0161139D03*
X0168319Y0157611D03*
D286*
X0175787Y0150391D03*
D287*
X0175787Y0150446D03*
X0175787Y0163343D03*
D288*
X0175760Y0150501D03*
D289*
X0175760Y0150556D03*
D290*
X0172645Y0150611D03*
D291*
X0175842Y0150666D03*
D292*
X0175842Y0150721D03*
X0175842Y0150776D03*
D293*
X0175842Y0150831D03*
D294*
X0175842Y0150887D03*
D295*
X0175842Y0150942D03*
X0175842Y0150997D03*
D296*
X0175842Y0151052D03*
D297*
X0175842Y0151107D03*
D298*
X0175842Y0151162D03*
X0175842Y0151217D03*
D299*
X0175842Y0151272D03*
D300*
X0175842Y0151328D03*
D301*
X0175842Y0151383D03*
D302*
X0175842Y0151438D03*
D303*
X0175842Y0151493D03*
D304*
X0175842Y0151548D03*
D305*
X0175842Y0151603D03*
D306*
X0175842Y0151658D03*
D307*
X0175842Y0151713D03*
D308*
X0175842Y0151769D03*
D309*
X0175842Y0151824D03*
D310*
X0175842Y0151879D03*
D311*
X0175842Y0151934D03*
D312*
X0175842Y0151989D03*
D313*
X0181988Y0152099D03*
X0169697Y0152099D03*
D314*
X0175815Y0155902D03*
X0175815Y0155957D03*
X0175815Y0156013D03*
X0175815Y0156068D03*
X0175815Y0156123D03*
X0175815Y0156178D03*
X0175815Y0156233D03*
X0175815Y0156288D03*
X0175815Y0157776D03*
X0175815Y0157831D03*
X0182098Y0152154D03*
X0175815Y0163894D03*
D315*
X0175870Y0158438D03*
X0182153Y0152209D03*
D316*
X0182208Y0152265D03*
X0175870Y0155296D03*
X0175870Y0158658D03*
X0175815Y0164005D03*
D317*
X0182236Y0152320D03*
D318*
X0175842Y0155131D03*
X0169394Y0152320D03*
D319*
X0175842Y0155076D03*
X0182291Y0152375D03*
D320*
X0169338Y0152375D03*
D321*
X0175870Y0159595D03*
X0182815Y0153091D03*
D322*
X0183366Y0154469D03*
X0183366Y0154524D03*
X0168264Y0154524D03*
X0168264Y0154580D03*
X0168264Y0154635D03*
D323*
X0168208Y0154855D03*
X0168208Y0154910D03*
X0168208Y0154965D03*
X0175870Y0159926D03*
X0183421Y0154855D03*
X0183421Y0154800D03*
X0183421Y0154745D03*
D324*
X0175815Y0155020D03*
X0175870Y0159044D03*
X0175815Y0164115D03*
D325*
X0175870Y0158824D03*
X0175870Y0158769D03*
X0175870Y0155186D03*
D326*
X0175842Y0155351D03*
X0175842Y0158603D03*
D327*
X0175842Y0158383D03*
X0175842Y0155461D03*
X0175787Y0163950D03*
D328*
X0175870Y0158328D03*
X0175870Y0155517D03*
D329*
X0175842Y0155572D03*
X0175842Y0155627D03*
X0175842Y0158217D03*
X0175842Y0158272D03*
D330*
X0175842Y0157721D03*
X0175842Y0157666D03*
X0175842Y0157611D03*
X0175842Y0157556D03*
X0175842Y0157501D03*
X0175842Y0157446D03*
X0175842Y0157391D03*
X0175842Y0157335D03*
X0175842Y0157280D03*
X0175842Y0157225D03*
X0175842Y0157170D03*
X0175842Y0157115D03*
X0175842Y0157060D03*
X0175842Y0157005D03*
X0175842Y0156950D03*
X0175842Y0156894D03*
X0175842Y0156839D03*
X0175842Y0156784D03*
X0175842Y0156729D03*
X0175842Y0156674D03*
X0175842Y0156619D03*
X0175842Y0156564D03*
X0175842Y0156509D03*
X0175842Y0156454D03*
X0175842Y0156398D03*
X0175842Y0156343D03*
D331*
X0175815Y0158162D03*
D332*
X0175870Y0158548D03*
D333*
X0175870Y0158879D03*
X0175815Y0164060D03*
D334*
X0175870Y0158989D03*
D335*
X0175815Y0161800D03*
D336*
X0175842Y0161855D03*
D337*
X0175815Y0161910D03*
D338*
X0175815Y0161965D03*
D339*
X0175815Y0162020D03*
D340*
X0175815Y0162076D03*
D341*
X0175815Y0162131D03*
X0175815Y0162186D03*
D342*
X0175815Y0162241D03*
D343*
X0175815Y0162296D03*
D344*
X0175815Y0162351D03*
D345*
X0175815Y0162406D03*
D346*
X0175815Y0162461D03*
D347*
X0175815Y0162517D03*
D348*
X0175815Y0162572D03*
D349*
X0175815Y0162627D03*
D350*
X0175787Y0162682D03*
D351*
X0175787Y0162737D03*
D352*
X0175787Y0162792D03*
D353*
X0175787Y0162847D03*
D354*
X0175815Y0162902D03*
D355*
X0175787Y0162957D03*
D356*
X0175787Y0163013D03*
D357*
X0175815Y0163068D03*
D358*
X0175787Y0163123D03*
D359*
X0175787Y0163178D03*
D360*
X0175787Y0163233D03*
D361*
X0175787Y0163288D03*
D362*
X0175815Y0163398D03*
D363*
X0175787Y0163454D03*
D364*
X0175787Y0163509D03*
D365*
X0175815Y0163674D03*
D366*
X0175787Y0163784D03*
D367*
X0175787Y0163839D03*
M02*
