%
M48
M72
T01C0.0120
T02C0.0157
T03C0.0197
T04C0.0236
T05C0.0354
T06C0.0400
T07C0.0472
T08C0.1260
%
T01
X1055Y1055
X1755Y755
X2505Y1055
X2805Y1755
X2455Y2405
X1755Y2755
X1055Y2455
X755Y1805
X1755Y36975
X1055Y37275
X755Y38025
X1055Y38675
X1755Y38975
X2455Y38625
X2805Y37975
X2505Y37275
X36975Y38025
X37275Y38675
X37975Y38975
X38675Y38625
X39025Y37975
X38725Y37275
X37975Y36975
X37275Y37275
X37975Y2755
X37275Y2455
X36975Y1805
X37275Y1055
X37975Y755
X38725Y1055
X39025Y1755
X38675Y2405
T02
X33930Y13493
X33930Y14118
X34493Y14180
X34868Y14680
X31493Y13993
X30868Y13993
X30118Y13993
X28618Y14868
X27243Y14868
X26805Y16430
X27368Y16618
X28368Y16680
X28805Y16493
X29368Y16430
X28055Y17680
X27243Y18743
X26743Y19618
X26243Y20243
X25243Y19805
X24680Y19118
X24118Y18743
X25368Y18243
X24055Y16368
X23368Y16555
X22868Y16555
X21993Y16555
X21493Y16493
X20743Y17680
X19930Y19055
X18493Y19555
X17930Y17680
X17930Y16555
X18493Y16680
X19118Y16430
X18368Y14930
X16305Y16993
X16305Y17493
X15555Y17118
X16180Y22743
X17555Y25493
X18180Y25805
X18680Y24618
X19868Y23243
X21618Y23180
X23680Y23055
X24680Y23618
X23680Y20555
X22555Y19743
X21930Y19993
X22430Y18243
X22868Y17680
X25368Y15493
X25430Y13368
X25368Y11180
X23243Y14930
X22305Y14868
X28118Y20243
X28618Y21368
X30055Y19993
X30243Y20868
X30680Y21680
X31368Y20993
X31368Y20368
X32555Y19368
X33368Y18430
X31618Y17680
X30680Y18555
X33368Y21680
X32618Y22680
X32180Y23118
X31618Y23493
X30743Y24618
X29680Y24055
X29430Y23618
X29305Y22680
X31618Y22305
X32805Y25993
X35368Y25680
X35368Y26680
X35368Y27618
X35368Y28680
X35368Y29680
X35368Y30680
X35368Y31680
X35930Y32930
X32618Y30868
X32493Y29430
X30743Y29993
X30305Y30680
X29930Y31180
X29555Y29993
X29930Y28305
X30180Y27618
X29680Y27118
X29180Y26680
X28743Y27305
X28493Y27993
X29930Y26055
X25493Y26805
X25118Y30055
X24680Y33180
X24680Y34680
X23930Y36243
X22930Y34680
X21930Y34430
X19493Y32743
X19243Y31430
X19930Y31368
X18743Y30430
X17243Y30930
X18805Y28805
X16743Y26680
X13243Y26180
X11243Y22680
X9868Y24618
X8805Y25555
X8680Y22680
X6368Y22680
X4680Y22680
X4680Y23680
X4680Y24680
X4680Y25680
X4680Y26680
X4680Y27680
X4680Y28680
X4680Y29680
X4680Y30680
X4680Y31680
X4680Y32680
X4680Y33680
X4680Y34680
X4680Y35680
X7618Y36680
X9930Y36618
X9993Y35368
X9993Y34305
X9430Y33243
X7805Y32868
X9993Y31305
X11743Y31305
X12305Y33680
X11743Y34430
X12930Y35118
X12993Y36680
X12680Y38243
X9930Y38243
X16680Y35180
X16618Y33680
X19993Y37618
X21305Y37180
X21118Y30118
X21180Y27555
X29180Y34368
X29493Y33993
X29868Y33618
X30305Y33243
X29493Y32743
X29305Y35055
X29930Y36055
X30430Y35430
X31680Y35618
X32618Y35305
X29493Y36993
X35368Y24618
X35368Y23618
X35368Y22680
X35368Y21680
X35368Y20680
T03
X33180Y38180
X33180Y38680
X32680Y38680
X32680Y38180
X32180Y38180
X32180Y38680
X31680Y38680
X31680Y38180
T04
X13430Y20243
X9993Y17930
X6993Y17930
X6868Y16430
X6180Y16430
X4680Y14930
X4680Y13743
X3618Y17305
X4180Y20305
X3555Y20930
X2993Y21493
X14180Y11180
X15055Y11180
X16930Y11180
X16930Y11930
X18430Y11930
X18430Y11180
X21930Y11180
X21930Y11930
X23430Y11930
X23430Y11180
X27430Y11180
X27430Y11930
X28930Y11930
X28930Y11180
X34993Y16430
X36430Y16430
X15493Y15430
X15118Y15055
X14743Y14680
X5868Y7180
X4743Y7180
X3618Y7180
T05
X14680Y21180
X14680Y22180
X14680Y23180
X14680Y24180
X14680Y25180
X14680Y26180
X14680Y27180
X14680Y28180
X14680Y29180
X14680Y30180
X14680Y31180
X14680Y32180
X14680Y33180
X14680Y34180
X14680Y35180
X14680Y36180
X14680Y37180
X14680Y38180
X15680Y38180
X15680Y37180
X15680Y36180
X15680Y35180
X15680Y34180
X15680Y33180
X15680Y32180
X15680Y31180
X15680Y30180
X15680Y29180
X15680Y28180
X15680Y27180
X15680Y26180
X15680Y25180
X15680Y24180
X15680Y23180
X15680Y22180
X15680Y21180
X16680Y21180
X16680Y22180
X17680Y22180
X17680Y21180
X18680Y21180
X18680Y22180
X19680Y22180
X19680Y21180
X20680Y21180
X20680Y22180
X21680Y22180
X21680Y21180
X22680Y21180
X22680Y22180
X23680Y22180
X23680Y21180
X24680Y21180
X24680Y22180
X25680Y22180
X25680Y21180
X26680Y21180
X26680Y22180
X27680Y22180
X27680Y21180
X27680Y23180
X27680Y24180
X26680Y24180
X26680Y23180
X26680Y25180
X26680Y26180
X27680Y26180
X27680Y25180
X27680Y27180
X27680Y28180
X26680Y28180
X26680Y27180
X26680Y29180
X26680Y30180
X27680Y30180
X27680Y29180
X27680Y31180
X27680Y32180
X26680Y32180
X26680Y31180
X26680Y33180
X27680Y33180
X27680Y34180
X27680Y35180
X26680Y35180
X26680Y34180
X26680Y36180
X26680Y37180
X27680Y37180
X27680Y36180
X27680Y38180
X26680Y38180
X8979Y29180
X6381Y29180
T06
X2180Y28680
X2180Y29680
X2180Y30680
X2180Y31680
X2180Y32680
X2180Y33680
X2180Y34680
X2180Y35680
X1180Y35680
X1180Y34680
X1180Y33680
X1180Y32680
X1180Y31680
X1180Y30680
X1180Y29680
X1180Y28680
X1180Y27680
X1180Y26680
X1180Y25680
X1180Y24680
X1180Y23680
X1180Y22680
X2180Y22680
X2180Y23680
X2180Y24680
X2180Y25680
X2180Y26680
X2180Y27680
X8680Y35180
X8680Y36180
X8680Y37180
X8680Y38180
X6680Y38180
X5680Y38180
X5680Y37180
X5680Y36180
X6680Y36180
X6680Y37180
X37680Y35930
X37680Y34930
X37680Y33930
X37680Y32930
X38680Y32930
X38680Y33930
X38680Y34930
X38680Y35930
X38680Y31680
X38680Y30680
X38680Y29680
X38680Y28680
X38680Y27680
X38680Y26680
X38680Y25680
X38680Y24680
X38680Y23680
X38680Y22680
X38680Y21680
X38680Y20680
X37680Y20680
X37680Y21680
X37680Y22680
X37680Y23680
X37680Y24680
X37680Y25680
X37680Y26680
X37680Y27680
X37680Y28680
X37680Y29680
X37680Y30680
X37680Y31680
X37680Y19180
X37680Y18180
X37680Y17180
X37680Y16180
X37680Y15180
X37680Y14180
X37680Y13180
X37680Y12180
X38680Y12180
X38680Y13180
X38680Y14180
X38680Y15180
X38680Y16180
X38680Y17180
X38680Y18180
X38680Y19180
X38680Y10680
X38680Y9680
X38680Y8680
X38680Y7680
X38680Y6680
X38680Y5680
X38680Y4680
X38680Y3680
X37680Y3680
X37680Y4680
X37680Y5680
X37680Y6680
X37680Y7680
X37680Y8680
X37680Y9680
X37680Y10680
T07
X33334Y8086
X31365Y8086
X29397Y8086
X27428Y8086
X25460Y8086
X23491Y8086
X21523Y8086
X19554Y8086
X17586Y8086
X15617Y8086
X13649Y8086
X11680Y8086
X11680Y2180
X13649Y2180
X15617Y2180
X17586Y2180
X19554Y2180
X21523Y2180
X23491Y2180
X25460Y2180
X27428Y2180
X29397Y2180
X31365Y2180
X33334Y2180
T08
X37975Y1755
X1755Y1755
X1755Y37975
X37975Y37975
M30
