G75*
%MOIN*%
%OFA0B0*%
%FSLAX25Y25*%
%IPPOS*%
%LPD*%
%AMOC8*
5,1,8,0,0,1.08239X$1,22.5*
%
%ADD10R,0.06299X0.11811*%
%ADD11R,0.13780X0.06299*%
%ADD12R,0.11811X0.06299*%
%ADD13R,0.05000X0.04500*%
%ADD14R,0.09449X0.07087*%
%ADD15R,0.04800X0.08800*%
%ADD16R,0.14173X0.08661*%
%ADD17R,0.08800X0.04800*%
%ADD18R,0.08661X0.14173*%
%ADD19R,0.08000X0.02600*%
%ADD20R,0.04724X0.04724*%
%ADD21R,0.02400X0.03500*%
%ADD22R,0.03543X0.02756*%
%ADD23R,0.04500X0.05000*%
%ADD24R,0.02500X0.05000*%
%ADD25R,0.01575X0.05906*%
%ADD26R,0.02362X0.02362*%
%ADD27R,0.05118X0.06102*%
D10*
X0031000Y0129839D03*
X0031000Y0147161D03*
X0058500Y0147161D03*
X0058500Y0129839D03*
D11*
X0115370Y0181000D03*
X0136630Y0181000D03*
X0091630Y0211000D03*
X0070370Y0211000D03*
X0041630Y0211000D03*
X0020370Y0211000D03*
D12*
X0112339Y0111000D03*
X0129661Y0111000D03*
D13*
X0088500Y0233500D03*
X0088500Y0241000D03*
X0088500Y0252250D03*
X0088500Y0259750D03*
X0066000Y0241000D03*
X0066000Y0233500D03*
D14*
X0063500Y0108972D03*
X0063500Y0093028D03*
X0081000Y0093028D03*
X0081000Y0108972D03*
X0016000Y0108972D03*
X0016000Y0093028D03*
D15*
X0071900Y0163800D03*
X0081000Y0163800D03*
X0090100Y0163800D03*
D16*
X0081000Y0188201D03*
D17*
X0113800Y0155100D03*
X0113800Y0146000D03*
X0113800Y0136900D03*
X0025050Y0166900D03*
X0025050Y0176000D03*
X0025050Y0185100D03*
D18*
X0049451Y0176000D03*
X0138201Y0146000D03*
D19*
X0313900Y0245375D03*
X0313900Y0250375D03*
X0313900Y0255375D03*
X0313900Y0260375D03*
X0313900Y0265375D03*
X0313900Y0270375D03*
X0313900Y0275375D03*
X0313900Y0280375D03*
X0313900Y0302250D03*
X0313900Y0307250D03*
X0313900Y0312250D03*
X0313900Y0317250D03*
X0313900Y0322250D03*
X0313900Y0327250D03*
X0313900Y0332250D03*
X0313900Y0337250D03*
X0338100Y0337250D03*
X0338100Y0332250D03*
X0338100Y0327250D03*
X0338100Y0322250D03*
X0338100Y0317250D03*
X0338100Y0312250D03*
X0338100Y0307250D03*
X0338100Y0302250D03*
X0338100Y0280375D03*
X0338100Y0275375D03*
X0338100Y0270375D03*
X0338100Y0265375D03*
X0338100Y0260375D03*
X0338100Y0255375D03*
X0338100Y0250375D03*
X0338100Y0245375D03*
D20*
X0115134Y0361000D03*
X0106866Y0361000D03*
X0106866Y0381625D03*
X0115134Y0381625D03*
D21*
X0038950Y0376000D03*
X0033050Y0376000D03*
X0033050Y0366000D03*
X0038950Y0366000D03*
X0038950Y0356000D03*
X0033050Y0356000D03*
X0033050Y0346000D03*
X0038950Y0346000D03*
X0038950Y0336000D03*
X0033050Y0336000D03*
X0033050Y0326000D03*
X0038950Y0326000D03*
X0038950Y0316000D03*
X0033050Y0316000D03*
X0033050Y0306000D03*
X0038950Y0306000D03*
X0038950Y0296000D03*
X0033050Y0296000D03*
X0033050Y0286000D03*
X0038950Y0286000D03*
X0038950Y0276000D03*
X0033050Y0276000D03*
X0033050Y0266000D03*
X0038950Y0266000D03*
X0038950Y0256000D03*
X0033050Y0256000D03*
X0033050Y0246000D03*
X0038950Y0246000D03*
X0358050Y0241000D03*
X0363950Y0241000D03*
X0363950Y0231000D03*
X0358050Y0231000D03*
X0358050Y0251000D03*
X0363950Y0251000D03*
X0363950Y0261000D03*
X0358050Y0261000D03*
X0358050Y0271000D03*
X0363950Y0271000D03*
X0363950Y0281000D03*
X0358050Y0281000D03*
X0358050Y0291000D03*
X0363950Y0291000D03*
X0363950Y0301000D03*
X0358050Y0301000D03*
X0358050Y0311000D03*
X0363950Y0311000D03*
X0363950Y0321000D03*
X0358050Y0321000D03*
X0358050Y0331000D03*
X0363950Y0331000D03*
X0363950Y0341000D03*
X0358050Y0341000D03*
D22*
X0316000Y0359691D03*
X0316000Y0364809D03*
X0086000Y0337309D03*
X0086000Y0332191D03*
X0066000Y0340316D03*
X0066000Y0345434D03*
D23*
X0182250Y0296000D03*
X0189750Y0296000D03*
X0189750Y0271000D03*
X0182250Y0271000D03*
X0237250Y0267250D03*
X0244750Y0267250D03*
X0244125Y0292250D03*
X0236625Y0292250D03*
X0352250Y0116000D03*
X0359750Y0116000D03*
D24*
X0026000Y0041000D03*
X0061000Y0046000D03*
D25*
X0161925Y0126728D03*
X0164484Y0126728D03*
X0167043Y0126728D03*
X0169602Y0126728D03*
X0172161Y0126728D03*
X0174720Y0126728D03*
X0177280Y0126728D03*
X0179839Y0126728D03*
X0182398Y0126728D03*
X0184957Y0126728D03*
X0187516Y0126728D03*
X0190075Y0126728D03*
X0211925Y0126728D03*
X0214484Y0126728D03*
X0217043Y0126728D03*
X0219602Y0126728D03*
X0222161Y0126728D03*
X0224720Y0126728D03*
X0227280Y0126728D03*
X0229839Y0126728D03*
X0232398Y0126728D03*
X0234957Y0126728D03*
X0237516Y0126728D03*
X0240075Y0126728D03*
X0266925Y0126728D03*
X0269484Y0126728D03*
X0272043Y0126728D03*
X0274602Y0126728D03*
X0277161Y0126728D03*
X0279720Y0126728D03*
X0282280Y0126728D03*
X0284839Y0126728D03*
X0287398Y0126728D03*
X0289957Y0126728D03*
X0292516Y0126728D03*
X0295075Y0126728D03*
X0295075Y0155272D03*
X0292516Y0155272D03*
X0289957Y0155272D03*
X0287398Y0155272D03*
X0284839Y0155272D03*
X0282280Y0155272D03*
X0279720Y0155272D03*
X0277161Y0155272D03*
X0274602Y0155272D03*
X0272043Y0155272D03*
X0269484Y0155272D03*
X0266925Y0155272D03*
X0240075Y0155272D03*
X0237516Y0155272D03*
X0234957Y0155272D03*
X0232398Y0155272D03*
X0229839Y0155272D03*
X0227280Y0155272D03*
X0224720Y0155272D03*
X0222161Y0155272D03*
X0219602Y0155272D03*
X0217043Y0155272D03*
X0214484Y0155272D03*
X0211925Y0155272D03*
X0190075Y0155272D03*
X0187516Y0155272D03*
X0184957Y0155272D03*
X0182398Y0155272D03*
X0179839Y0155272D03*
X0177280Y0155272D03*
X0174720Y0155272D03*
X0172161Y0155272D03*
X0169602Y0155272D03*
X0167043Y0155272D03*
X0164484Y0155272D03*
X0161925Y0155272D03*
D26*
X0069740Y0252260D03*
X0062260Y0252260D03*
X0066000Y0259740D03*
X0207260Y0271000D03*
X0214740Y0267260D03*
X0214740Y0274740D03*
X0214740Y0292260D03*
X0214740Y0299740D03*
X0207260Y0296000D03*
D27*
X0123608Y0312225D03*
X0105892Y0312225D03*
X0105892Y0343525D03*
X0123608Y0343525D03*
X0300267Y0216025D03*
X0317983Y0216025D03*
X0331517Y0216025D03*
X0349233Y0216025D03*
X0349233Y0184725D03*
X0331517Y0184725D03*
X0317983Y0184725D03*
X0300267Y0184725D03*
M02*
