G75*
%MOIN*%
%OFA0B0*%
%FSLAX25Y25*%
%IPPOS*%
%LPD*%
%AMOC8*
5,1,8,0,0,1.08239X$1,22.5*
%
%ADD10C,0.06400*%
%ADD11C,0.04000*%
%ADD12R,0.04000X0.04000*%
%ADD13R,0.10800X0.10800*%
%ADD14C,0.08400*%
%ADD15OC8,0.06800*%
%ADD16C,0.06800*%
D10*
X0146000Y0211000D03*
X0146000Y0221000D03*
X0146000Y0231000D03*
X0146000Y0241000D03*
X0146000Y0251000D03*
X0146000Y0261000D03*
X0146000Y0271000D03*
X0146000Y0281000D03*
X0146000Y0291000D03*
X0146000Y0301000D03*
X0146000Y0311000D03*
X0146000Y0321000D03*
X0146000Y0331000D03*
X0146000Y0341000D03*
X0146000Y0351000D03*
X0146000Y0361000D03*
X0146000Y0371000D03*
X0146000Y0381000D03*
X0156000Y0381000D03*
X0156000Y0371000D03*
X0156000Y0361000D03*
X0156000Y0351000D03*
X0156000Y0341000D03*
X0156000Y0331000D03*
X0156000Y0321000D03*
X0156000Y0311000D03*
X0156000Y0301000D03*
X0156000Y0291000D03*
X0156000Y0281000D03*
X0156000Y0271000D03*
X0156000Y0261000D03*
X0156000Y0251000D03*
X0156000Y0241000D03*
X0156000Y0231000D03*
X0156000Y0221000D03*
X0156000Y0211000D03*
X0166000Y0211000D03*
X0166000Y0221000D03*
X0176000Y0221000D03*
X0176000Y0211000D03*
X0186000Y0211000D03*
X0186000Y0221000D03*
X0196000Y0221000D03*
X0196000Y0211000D03*
X0206000Y0211000D03*
X0206000Y0221000D03*
X0216000Y0221000D03*
X0216000Y0211000D03*
X0226000Y0211000D03*
X0226000Y0221000D03*
X0236000Y0221000D03*
X0236000Y0211000D03*
X0246000Y0211000D03*
X0246000Y0221000D03*
X0256000Y0221000D03*
X0256000Y0211000D03*
X0266000Y0211000D03*
X0266000Y0221000D03*
X0276000Y0221000D03*
X0276000Y0211000D03*
X0276000Y0231000D03*
X0276000Y0241000D03*
X0266000Y0241000D03*
X0266000Y0231000D03*
X0266000Y0251000D03*
X0266000Y0261000D03*
X0276000Y0261000D03*
X0276000Y0251000D03*
X0276000Y0271000D03*
X0276000Y0281000D03*
X0266000Y0281000D03*
X0266000Y0271000D03*
X0266000Y0291000D03*
X0276000Y0291000D03*
X0276000Y0301000D03*
X0276000Y0311000D03*
X0266000Y0311000D03*
X0266000Y0301000D03*
X0266000Y0321000D03*
X0266000Y0331000D03*
X0276000Y0331000D03*
X0276000Y0321000D03*
X0276000Y0341000D03*
X0276000Y0351000D03*
X0266000Y0351000D03*
X0266000Y0341000D03*
X0266000Y0361000D03*
X0266000Y0371000D03*
X0276000Y0371000D03*
X0276000Y0361000D03*
X0276000Y0381000D03*
X0266000Y0381000D03*
X0088992Y0291000D03*
X0063008Y0291000D03*
D11*
X0316000Y0381000D03*
X0316000Y0386000D03*
X0321000Y0386000D03*
X0321000Y0381000D03*
X0326000Y0381000D03*
X0326000Y0386000D03*
D12*
X0331000Y0386000D03*
X0331000Y0381000D03*
D13*
X0116000Y0080055D03*
D14*
X0116000Y0024800D02*
X0116000Y0017200D01*
X0135685Y0017200D02*
X0135685Y0024800D01*
X0155370Y0024800D02*
X0155370Y0017200D01*
X0175055Y0017200D02*
X0175055Y0024800D01*
X0194740Y0024800D02*
X0194740Y0017200D01*
X0214425Y0017200D02*
X0214425Y0024800D01*
X0234110Y0024800D02*
X0234110Y0017200D01*
X0253795Y0017200D02*
X0253795Y0024800D01*
X0273480Y0024800D02*
X0273480Y0017200D01*
X0293165Y0017200D02*
X0293165Y0024800D01*
X0312850Y0024800D02*
X0312850Y0017200D01*
X0332535Y0017200D02*
X0332535Y0024800D01*
X0332535Y0076255D02*
X0332535Y0083855D01*
X0312850Y0083855D02*
X0312850Y0076255D01*
X0293165Y0076255D02*
X0293165Y0083855D01*
X0273480Y0083855D02*
X0273480Y0076255D01*
X0253795Y0076255D02*
X0253795Y0083855D01*
X0234110Y0083855D02*
X0234110Y0076255D01*
X0214425Y0076255D02*
X0214425Y0083855D01*
X0194740Y0083855D02*
X0194740Y0076255D01*
X0175055Y0076255D02*
X0175055Y0083855D01*
X0155370Y0083855D02*
X0155370Y0076255D01*
X0135685Y0076255D02*
X0135685Y0083855D01*
D15*
X0021000Y0246000D03*
X0021000Y0256000D03*
X0021000Y0266000D03*
X0021000Y0276000D03*
X0021000Y0286000D03*
X0021000Y0296000D03*
X0021000Y0306000D03*
X0021000Y0316000D03*
X0021000Y0326000D03*
X0021000Y0336000D03*
X0021000Y0346000D03*
X0021000Y0356000D03*
X0021000Y0366000D03*
X0021000Y0376000D03*
X0011000Y0376000D03*
X0011000Y0366000D03*
X0011000Y0356000D03*
X0011000Y0346000D03*
X0011000Y0336000D03*
X0011000Y0326000D03*
X0011000Y0316000D03*
X0011000Y0306000D03*
X0011000Y0296000D03*
X0011000Y0286000D03*
X0011000Y0276000D03*
X0011000Y0266000D03*
X0011000Y0256000D03*
X0011000Y0246000D03*
X0056000Y0361000D03*
X0056000Y0371000D03*
X0066000Y0371000D03*
X0066000Y0361000D03*
X0066000Y0381000D03*
X0056000Y0381000D03*
X0376000Y0376000D03*
X0376000Y0366000D03*
X0386000Y0366000D03*
X0386000Y0376000D03*
X0386000Y0386000D03*
X0376000Y0386000D03*
X0376000Y0356000D03*
X0386000Y0356000D03*
X0386000Y0341000D03*
X0376000Y0341000D03*
X0376000Y0331000D03*
X0376000Y0321000D03*
X0386000Y0321000D03*
X0386000Y0331000D03*
X0386000Y0311000D03*
X0386000Y0301000D03*
X0376000Y0301000D03*
X0376000Y0311000D03*
X0376000Y0291000D03*
X0386000Y0291000D03*
X0386000Y0281000D03*
X0386000Y0271000D03*
X0376000Y0271000D03*
X0376000Y0281000D03*
X0376000Y0261000D03*
X0376000Y0251000D03*
X0386000Y0251000D03*
X0386000Y0261000D03*
X0386000Y0241000D03*
X0386000Y0231000D03*
X0376000Y0231000D03*
X0376000Y0241000D03*
X0376000Y0206000D03*
X0386000Y0206000D03*
X0386000Y0196000D03*
X0376000Y0196000D03*
X0376000Y0186000D03*
X0376000Y0176000D03*
X0386000Y0176000D03*
X0386000Y0186000D03*
X0386000Y0161000D03*
X0386000Y0151000D03*
X0376000Y0151000D03*
X0376000Y0161000D03*
X0376000Y0141000D03*
X0376000Y0131000D03*
X0386000Y0131000D03*
X0386000Y0141000D03*
X0386000Y0116000D03*
X0376000Y0116000D03*
X0376000Y0106000D03*
X0376000Y0096000D03*
X0386000Y0096000D03*
X0386000Y0106000D03*
X0386000Y0086000D03*
X0386000Y0076000D03*
X0376000Y0076000D03*
X0376000Y0086000D03*
X0376000Y0066000D03*
X0376000Y0056000D03*
X0386000Y0056000D03*
X0386000Y0066000D03*
X0386000Y0046000D03*
X0376000Y0046000D03*
D16*
X0089000Y0351000D02*
X0083000Y0351000D01*
X0083000Y0361000D02*
X0089000Y0361000D01*
X0089000Y0371000D02*
X0083000Y0371000D01*
X0083000Y0381000D02*
X0089000Y0381000D01*
M02*
