%
M48
M72
T01C0.0157
T02C0.0197
T03C0.0236
T04C0.0354
T05C0.0400
T06C0.0472
%
T01
X16225Y16913
X16225Y17413
X15475Y17038
X17850Y16475
X18413Y16600
X19038Y16350
X18288Y14850
X17850Y17975
X18413Y19475
X19850Y19100
X20663Y17975
X21413Y16413
X21913Y16475
X22788Y16475
X23288Y16475
X23975Y16288
X25288Y17475
X24038Y18850
X24600Y19163
X25163Y19725
X26163Y20163
X26663Y19538
X27163Y18850
X27600Y17975
X27288Y16538
X26725Y16350
X28288Y16600
X28725Y16413
X29288Y16350
X28538Y14788
X27163Y14788
X30413Y13913
X31038Y13913
X31663Y13913
X32038Y16225
X31288Y16288
X32663Y16288
X33288Y16288
X33788Y18413
X33288Y19288
X34288Y19475
X34288Y21600
X33788Y21600
X32413Y22413
X31663Y22975
X30663Y24538
X29600Y23975
X29350Y23538
X29225Y22163
X28538Y21288
X28038Y20163
X29975Y19913
X30163Y20788
X30600Y21600
X31288Y20913
X31288Y20288
X30600Y18475
X35288Y23100
X35288Y24100
X35288Y24975
X35288Y26038
X35288Y27038
X35288Y28100
X35288Y29100
X35288Y30038
X35288Y31100
X35288Y32100
X35288Y33100
X35288Y34100
X33725Y34538
X31600Y35413
X30225Y35288
X29975Y36225
X30100Y37288
X30913Y37288
X29100Y34288
X29413Y33913
X29788Y33538
X30225Y33163
X29413Y32663
X29850Y31100
X30225Y30600
X30663Y29913
X29475Y29913
X29850Y28225
X30100Y27538
X29600Y27038
X29100Y26600
X28663Y27225
X28413Y27913
X25413Y26725
X25038Y29225
X24600Y33100
X24600Y34600
X22850Y34600
X21788Y34413
X21975Y37100
X19975Y37475
X18225Y38725
X17600Y37913
X16600Y35100
X16538Y33600
X17163Y30850
X18225Y30413
X19163Y31350
X19850Y31600
X21100Y29975
X21100Y27475
X18600Y25475
X16850Y27100
X17538Y28913
X13163Y26100
X11163Y22600
X8600Y22600
X7725Y24413
X6288Y22600
X4600Y24600
X4600Y25725
X4600Y26600
X4600Y27600
X4600Y28600
X4600Y29600
X4600Y30600
X4600Y31600
X4600Y32538
X4600Y33538
X4600Y34600
X4600Y35600
X4600Y36475
X4600Y37600
X7538Y36600
X9850Y38163
X9913Y36475
X9913Y35288
X9913Y34225
X9288Y32913
X7725Y32788
X9913Y31225
X11663Y31225
X12225Y33538
X11663Y34350
X12850Y35038
X12913Y36600
X9538Y26038
X16100Y22663
X19788Y23163
X21975Y22975
X23975Y22913
X24600Y23538
X23600Y20475
X22475Y19663
X21663Y19725
X22788Y17975
X22350Y17475
X22225Y14788
X23163Y14850
X32725Y25913
X32413Y29350
X32600Y31350
X36850Y21350
T02
X33100Y38100
X33100Y38600
X32600Y38600
X32600Y38100
X32100Y38100
X32100Y38600
X31600Y38600
X31600Y38100
T03
X2600Y6600
X2600Y7413
X2600Y8225
X4600Y14725
X4600Y15725
X6038Y17600
X6725Y17600
X6850Y19100
X4100Y21913
X3475Y22538
X2913Y23100
X3475Y18475
X10100Y19100
X11850Y20163
X15413Y15350
X15038Y14975
X14663Y14600
X16850Y11850
X16850Y11100
X18350Y11100
X18350Y11850
X14975Y11100
X14100Y11100
X21850Y11100
X21850Y11850
X23350Y11850
X23350Y11100
X27350Y11100
X27350Y11850
X28850Y11850
X28850Y11100
X33975Y13913
X33975Y16975
X34913Y17600
X36350Y18600
T04
X27600Y21100
X27600Y22100
X26600Y22100
X26600Y21100
X25600Y21100
X25600Y22100
X24600Y22100
X24600Y21100
X23600Y21100
X23600Y22100
X22600Y22100
X22600Y21100
X21600Y21100
X21600Y22100
X20600Y22100
X20600Y21100
X19600Y21100
X19600Y22100
X18600Y22100
X18600Y21100
X17600Y21100
X17600Y22100
X16600Y22100
X16600Y21100
X15600Y21100
X15600Y22100
X15600Y23100
X15600Y24100
X15600Y25100
X15600Y26100
X15600Y27100
X15600Y28100
X15600Y29100
X15600Y30100
X15600Y31100
X15600Y32100
X15600Y33100
X15600Y34100
X15600Y35100
X15600Y36100
X15600Y37100
X15600Y38100
X14600Y38100
X14600Y37100
X14600Y36100
X14600Y35100
X14600Y34100
X14600Y33100
X14600Y32100
X14600Y31100
X14600Y30100
X14600Y29100
X14600Y28100
X14600Y27100
X14600Y26100
X14600Y25100
X14600Y24100
X14600Y23100
X14600Y22100
X14600Y21100
X8899Y29100
X6301Y29100
X26600Y29100
X27600Y29100
X27600Y28100
X27600Y27100
X26600Y27100
X26600Y28100
X26600Y26100
X26600Y25100
X27600Y25100
X27600Y26100
X27600Y24100
X27600Y23100
X26600Y23100
X26600Y24100
X26600Y30100
X26600Y31100
X27600Y31100
X27600Y30100
X27600Y32100
X27600Y33100
X26600Y33100
X26600Y32100
X26600Y34100
X26600Y35100
X27600Y35100
X27600Y34100
X27600Y36100
X27600Y37100
X26600Y37100
X26600Y36100
X26600Y38100
X27600Y38100
T05
X37600Y37600
X37600Y36600
X38600Y36600
X38600Y37600
X38600Y38600
X37600Y38600
X37600Y35600
X38600Y35600
X38600Y34100
X37600Y34100
X37600Y33100
X37600Y32100
X38600Y32100
X38600Y33100
X38600Y31100
X38600Y30100
X37600Y30100
X37600Y31100
X37600Y29100
X38600Y29100
X38600Y28100
X38600Y27100
X37600Y27100
X37600Y28100
X37600Y26100
X37600Y25100
X38600Y25100
X38600Y26100
X38600Y24100
X38600Y23100
X37600Y23100
X37600Y24100
X37600Y20600
X38600Y20600
X38600Y19600
X37600Y19600
X37600Y18600
X37600Y17600
X38600Y17600
X38600Y18600
X38600Y16100
X38600Y15100
X37600Y15100
X37600Y16100
X37600Y14100
X37600Y13100
X38600Y13100
X38600Y14100
X38600Y11600
X37600Y11600
X37600Y10600
X37600Y9600
X38600Y9600
X38600Y10600
X38600Y8600
X38600Y7600
X37600Y7600
X37600Y8600
X37600Y6600
X37600Y5600
X38600Y5600
X38600Y6600
X38600Y4600
X37600Y4600
X8600Y35100
X8600Y36100
X8600Y37100
X8600Y38100
X6600Y38100
X5600Y38100
X5600Y37100
X5600Y36100
X6600Y36100
X6600Y37100
X2100Y36600
X2100Y37600
X1100Y37600
X1100Y36600
X1100Y35600
X1100Y34600
X1100Y33600
X1100Y32600
X1100Y31600
X1100Y30600
X1100Y29600
X1100Y28600
X1100Y27600
X1100Y26600
X1100Y25600
X1100Y24600
X2100Y24600
X2100Y25600
X2100Y26600
X2100Y27600
X2100Y28600
X2100Y29600
X2100Y30600
X2100Y31600
X2100Y32600
X2100Y33600
X2100Y34600
X2100Y35600
T06
X11600Y8006
X13569Y8006
X15537Y8006
X17506Y8006
X19474Y8006
X21443Y8006
X23411Y8006
X25380Y8006
X27348Y8006
X29317Y8006
X31285Y8006
X33254Y8006
X33254Y2100
X31285Y2100
X29317Y2100
X27348Y2100
X25380Y2100
X23411Y2100
X21443Y2100
X19474Y2100
X17506Y2100
X15537Y2100
X13569Y2100
X11600Y2100
M30
