G75*
%MOIN*%
%OFA0B0*%
%FSLAX25Y25*%
%IPPOS*%
%LPD*%
%AMOC8*
5,1,8,0,0,1.08239X$1,22.5*
%
%ADD10C,0.05600*%
%ADD11R,0.06299X0.11811*%
%ADD12R,0.13780X0.06299*%
%ADD13R,0.11811X0.06299*%
%ADD14R,0.05000X0.04500*%
%ADD15R,0.09449X0.07087*%
%ADD16R,0.04800X0.08800*%
%ADD17R,0.14173X0.08661*%
%ADD18R,0.08800X0.04800*%
%ADD19R,0.08661X0.14173*%
%ADD20R,0.08000X0.02600*%
%ADD21C,0.03200*%
%ADD22R,0.03200X0.03200*%
%ADD23R,0.10000X0.10000*%
%ADD24C,0.07600*%
%ADD25OC8,0.06000*%
%ADD26C,0.06000*%
%ADD27R,0.04724X0.04724*%
%ADD28R,0.02400X0.03500*%
%ADD29R,0.03543X0.02756*%
%ADD30R,0.04500X0.05000*%
%ADD31C,0.00500*%
%ADD32R,0.02500X0.05000*%
%ADD33R,0.01575X0.05906*%
%ADD34R,0.02362X0.02362*%
%ADD35R,0.05118X0.06102*%
%ADD36C,0.04200*%
%ADD37C,0.06600*%
%ADD38C,0.03200*%
%ADD39C,0.00800*%
%ADD40C,0.01600*%
%ADD41C,0.00600*%
%ADD42C,0.04000*%
%ADD43C,0.05000*%
%ADD44C,0.03543*%
D10*
X0146000Y0211000D03*
X0146000Y0221000D03*
X0146000Y0231000D03*
X0146000Y0241000D03*
X0146000Y0251000D03*
X0146000Y0261000D03*
X0146000Y0271000D03*
X0146000Y0281000D03*
X0146000Y0291000D03*
X0146000Y0301000D03*
X0146000Y0311000D03*
X0146000Y0321000D03*
X0146000Y0331000D03*
X0146000Y0341000D03*
X0146000Y0351000D03*
X0146000Y0361000D03*
X0146000Y0371000D03*
X0146000Y0381000D03*
X0156000Y0381000D03*
X0156000Y0371000D03*
X0156000Y0361000D03*
X0156000Y0351000D03*
X0156000Y0341000D03*
X0156000Y0331000D03*
X0156000Y0321000D03*
X0156000Y0311000D03*
X0156000Y0301000D03*
X0156000Y0291000D03*
X0156000Y0281000D03*
X0156000Y0271000D03*
X0156000Y0261000D03*
X0156000Y0251000D03*
X0156000Y0241000D03*
X0156000Y0231000D03*
X0156000Y0221000D03*
X0156000Y0211000D03*
X0166000Y0211000D03*
X0166000Y0221000D03*
X0176000Y0221000D03*
X0176000Y0211000D03*
X0186000Y0211000D03*
X0186000Y0221000D03*
X0196000Y0221000D03*
X0196000Y0211000D03*
X0206000Y0211000D03*
X0206000Y0221000D03*
X0216000Y0221000D03*
X0216000Y0211000D03*
X0226000Y0211000D03*
X0226000Y0221000D03*
X0236000Y0221000D03*
X0236000Y0211000D03*
X0246000Y0211000D03*
X0246000Y0221000D03*
X0256000Y0221000D03*
X0256000Y0211000D03*
X0266000Y0211000D03*
X0266000Y0221000D03*
X0276000Y0221000D03*
X0276000Y0211000D03*
X0276000Y0231000D03*
X0276000Y0241000D03*
X0266000Y0241000D03*
X0266000Y0231000D03*
X0266000Y0251000D03*
X0266000Y0261000D03*
X0276000Y0261000D03*
X0276000Y0251000D03*
X0276000Y0271000D03*
X0276000Y0281000D03*
X0266000Y0281000D03*
X0266000Y0271000D03*
X0266000Y0291000D03*
X0276000Y0291000D03*
X0276000Y0301000D03*
X0276000Y0311000D03*
X0266000Y0311000D03*
X0266000Y0301000D03*
X0266000Y0321000D03*
X0266000Y0331000D03*
X0276000Y0331000D03*
X0276000Y0321000D03*
X0276000Y0341000D03*
X0276000Y0351000D03*
X0266000Y0351000D03*
X0266000Y0341000D03*
X0266000Y0361000D03*
X0266000Y0371000D03*
X0276000Y0371000D03*
X0276000Y0361000D03*
X0276000Y0381000D03*
X0266000Y0381000D03*
X0088992Y0291000D03*
X0063008Y0291000D03*
D11*
X0058500Y0147161D03*
X0058500Y0129839D03*
X0031000Y0129839D03*
X0031000Y0147161D03*
D12*
X0020370Y0211000D03*
X0041630Y0211000D03*
X0070370Y0211000D03*
X0091630Y0211000D03*
X0115370Y0181000D03*
X0136630Y0181000D03*
D13*
X0129661Y0111000D03*
X0112339Y0111000D03*
D14*
X0088500Y0233500D03*
X0088500Y0241000D03*
X0088500Y0252250D03*
X0088500Y0259750D03*
X0066000Y0241000D03*
X0066000Y0233500D03*
D15*
X0063500Y0108972D03*
X0063500Y0093028D03*
X0081000Y0093028D03*
X0081000Y0108972D03*
X0016000Y0108972D03*
X0016000Y0093028D03*
D16*
X0071900Y0163800D03*
X0081000Y0163800D03*
X0090100Y0163800D03*
D17*
X0081000Y0188201D03*
D18*
X0113800Y0155100D03*
X0113800Y0146000D03*
X0113800Y0136900D03*
X0025050Y0166900D03*
X0025050Y0176000D03*
X0025050Y0185100D03*
D19*
X0049451Y0176000D03*
X0138201Y0146000D03*
D20*
X0313900Y0245375D03*
X0313900Y0250375D03*
X0313900Y0255375D03*
X0313900Y0260375D03*
X0313900Y0265375D03*
X0313900Y0270375D03*
X0313900Y0275375D03*
X0313900Y0280375D03*
X0313900Y0302250D03*
X0313900Y0307250D03*
X0313900Y0312250D03*
X0313900Y0317250D03*
X0313900Y0322250D03*
X0313900Y0327250D03*
X0313900Y0332250D03*
X0313900Y0337250D03*
X0338100Y0337250D03*
X0338100Y0332250D03*
X0338100Y0327250D03*
X0338100Y0322250D03*
X0338100Y0317250D03*
X0338100Y0312250D03*
X0338100Y0307250D03*
X0338100Y0302250D03*
X0338100Y0280375D03*
X0338100Y0275375D03*
X0338100Y0270375D03*
X0338100Y0265375D03*
X0338100Y0260375D03*
X0338100Y0255375D03*
X0338100Y0250375D03*
X0338100Y0245375D03*
D21*
X0352875Y0241000D03*
X0352875Y0231000D03*
X0342875Y0216000D03*
X0337875Y0216000D03*
X0324125Y0224125D03*
X0316625Y0229750D03*
X0306625Y0245375D03*
X0296000Y0239750D03*
X0293500Y0235375D03*
X0292250Y0221625D03*
X0285375Y0212875D03*
X0280375Y0201625D03*
X0266625Y0195375D03*
X0261625Y0201625D03*
X0251625Y0197250D03*
X0246000Y0191625D03*
X0240375Y0188500D03*
X0227875Y0179750D03*
X0223500Y0174750D03*
X0219125Y0164750D03*
X0214125Y0164125D03*
X0227875Y0164750D03*
X0232875Y0164750D03*
X0239750Y0162875D03*
X0252875Y0174750D03*
X0267250Y0163500D03*
X0272875Y0165375D03*
X0282875Y0166000D03*
X0287250Y0164125D03*
X0292875Y0163500D03*
X0285375Y0147875D03*
X0271625Y0147875D03*
X0276000Y0179750D03*
X0271625Y0188500D03*
X0299750Y0199125D03*
X0301625Y0207875D03*
X0306000Y0216000D03*
X0312875Y0209125D03*
X0312875Y0202875D03*
X0306000Y0184750D03*
X0312875Y0162875D03*
X0320375Y0162250D03*
X0326625Y0162875D03*
X0332875Y0162875D03*
X0337875Y0184125D03*
X0332875Y0192875D03*
X0342875Y0194750D03*
X0368500Y0213500D03*
X0352875Y0249750D03*
X0352875Y0260375D03*
X0352875Y0270375D03*
X0352875Y0281000D03*
X0352875Y0291000D03*
X0352875Y0300375D03*
X0352875Y0311000D03*
X0352875Y0321000D03*
X0352875Y0331000D03*
X0352875Y0341000D03*
X0337250Y0345375D03*
X0316000Y0354125D03*
X0302250Y0352875D03*
X0299750Y0362250D03*
X0301000Y0372875D03*
X0309125Y0372875D03*
X0316000Y0381000D03*
X0316000Y0386000D03*
X0321000Y0386000D03*
X0321000Y0381000D03*
X0326000Y0381000D03*
X0326000Y0386000D03*
X0291000Y0342875D03*
X0294125Y0339125D03*
X0297875Y0335375D03*
X0302250Y0331625D03*
X0294125Y0326625D03*
X0298500Y0311000D03*
X0302250Y0306000D03*
X0306625Y0299125D03*
X0294750Y0299125D03*
X0298500Y0282250D03*
X0301000Y0275375D03*
X0296000Y0270375D03*
X0291000Y0266000D03*
X0286625Y0272250D03*
X0284125Y0279125D03*
X0254125Y0267250D03*
X0250375Y0292250D03*
X0246000Y0331000D03*
X0246000Y0346000D03*
X0228500Y0346000D03*
X0217875Y0344125D03*
X0219750Y0371000D03*
X0199750Y0374750D03*
X0182250Y0387250D03*
X0176000Y0379125D03*
X0166000Y0351000D03*
X0165375Y0336000D03*
X0171625Y0308500D03*
X0182250Y0304125D03*
X0191625Y0313500D03*
X0198500Y0316000D03*
X0211000Y0299750D03*
X0211000Y0274750D03*
X0186000Y0254750D03*
X0168500Y0271000D03*
X0175375Y0289125D03*
X0131625Y0261000D03*
X0111625Y0226000D03*
X0086000Y0226000D03*
X0077250Y0244125D03*
X0062875Y0226000D03*
X0046000Y0246000D03*
X0046000Y0257250D03*
X0046000Y0266000D03*
X0046000Y0276000D03*
X0046000Y0286000D03*
X0046000Y0296000D03*
X0046000Y0306000D03*
X0046000Y0316000D03*
X0046000Y0325375D03*
X0046000Y0335375D03*
X0046000Y0346000D03*
X0046000Y0356000D03*
X0046000Y0364750D03*
X0046000Y0376000D03*
X0075375Y0366000D03*
X0098500Y0381625D03*
X0099125Y0364750D03*
X0099125Y0352875D03*
X0099125Y0342250D03*
X0092875Y0329125D03*
X0077250Y0327875D03*
X0099125Y0312250D03*
X0116625Y0312250D03*
X0122250Y0335375D03*
X0116625Y0343500D03*
X0128500Y0350375D03*
X0129125Y0366000D03*
X0095375Y0260375D03*
X0161000Y0226625D03*
X0184125Y0194750D03*
X0198500Y0191000D03*
X0206625Y0179750D03*
X0216625Y0197250D03*
X0224750Y0196625D03*
X0236000Y0204750D03*
X0239750Y0229125D03*
X0246000Y0235375D03*
X0219750Y0229750D03*
X0197875Y0231625D03*
X0178500Y0179750D03*
X0184125Y0166000D03*
X0178500Y0164750D03*
X0190375Y0163500D03*
X0182875Y0148500D03*
X0162250Y0169125D03*
X0162250Y0174125D03*
X0154750Y0170375D03*
X0222250Y0147875D03*
X0231625Y0148500D03*
X0304125Y0139125D03*
X0310375Y0139125D03*
X0316625Y0139125D03*
X0327250Y0259125D03*
X0324125Y0293500D03*
X0326000Y0313500D03*
D22*
X0331000Y0381000D03*
X0331000Y0386000D03*
D23*
X0116000Y0080055D03*
D24*
X0135685Y0076255D02*
X0135685Y0083855D01*
X0155370Y0083855D02*
X0155370Y0076255D01*
X0175055Y0076255D02*
X0175055Y0083855D01*
X0194740Y0083855D02*
X0194740Y0076255D01*
X0214425Y0076255D02*
X0214425Y0083855D01*
X0234110Y0083855D02*
X0234110Y0076255D01*
X0253795Y0076255D02*
X0253795Y0083855D01*
X0273480Y0083855D02*
X0273480Y0076255D01*
X0293165Y0076255D02*
X0293165Y0083855D01*
X0312850Y0083855D02*
X0312850Y0076255D01*
X0332535Y0076255D02*
X0332535Y0083855D01*
X0332535Y0024800D02*
X0332535Y0017200D01*
X0312850Y0017200D02*
X0312850Y0024800D01*
X0293165Y0024800D02*
X0293165Y0017200D01*
X0273480Y0017200D02*
X0273480Y0024800D01*
X0253795Y0024800D02*
X0253795Y0017200D01*
X0234110Y0017200D02*
X0234110Y0024800D01*
X0214425Y0024800D02*
X0214425Y0017200D01*
X0194740Y0017200D02*
X0194740Y0024800D01*
X0175055Y0024800D02*
X0175055Y0017200D01*
X0155370Y0017200D02*
X0155370Y0024800D01*
X0135685Y0024800D02*
X0135685Y0017200D01*
X0116000Y0017200D02*
X0116000Y0024800D01*
D25*
X0021000Y0246000D03*
X0021000Y0256000D03*
X0021000Y0266000D03*
X0021000Y0276000D03*
X0021000Y0286000D03*
X0021000Y0296000D03*
X0021000Y0306000D03*
X0021000Y0316000D03*
X0021000Y0326000D03*
X0021000Y0336000D03*
X0021000Y0346000D03*
X0021000Y0356000D03*
X0021000Y0366000D03*
X0021000Y0376000D03*
X0011000Y0376000D03*
X0011000Y0366000D03*
X0011000Y0356000D03*
X0011000Y0346000D03*
X0011000Y0336000D03*
X0011000Y0326000D03*
X0011000Y0316000D03*
X0011000Y0306000D03*
X0011000Y0296000D03*
X0011000Y0286000D03*
X0011000Y0276000D03*
X0011000Y0266000D03*
X0011000Y0256000D03*
X0011000Y0246000D03*
X0056000Y0361000D03*
X0056000Y0371000D03*
X0066000Y0371000D03*
X0066000Y0361000D03*
X0066000Y0381000D03*
X0056000Y0381000D03*
X0376000Y0376000D03*
X0376000Y0366000D03*
X0386000Y0366000D03*
X0386000Y0376000D03*
X0386000Y0386000D03*
X0376000Y0386000D03*
X0376000Y0356000D03*
X0386000Y0356000D03*
X0386000Y0341000D03*
X0376000Y0341000D03*
X0376000Y0331000D03*
X0376000Y0321000D03*
X0386000Y0321000D03*
X0386000Y0331000D03*
X0386000Y0311000D03*
X0386000Y0301000D03*
X0376000Y0301000D03*
X0376000Y0311000D03*
X0376000Y0291000D03*
X0386000Y0291000D03*
X0386000Y0281000D03*
X0386000Y0271000D03*
X0376000Y0271000D03*
X0376000Y0281000D03*
X0376000Y0261000D03*
X0376000Y0251000D03*
X0386000Y0251000D03*
X0386000Y0261000D03*
X0386000Y0241000D03*
X0386000Y0231000D03*
X0376000Y0231000D03*
X0376000Y0241000D03*
X0376000Y0206000D03*
X0386000Y0206000D03*
X0386000Y0196000D03*
X0376000Y0196000D03*
X0376000Y0186000D03*
X0376000Y0176000D03*
X0386000Y0176000D03*
X0386000Y0186000D03*
X0386000Y0161000D03*
X0386000Y0151000D03*
X0376000Y0151000D03*
X0376000Y0161000D03*
X0376000Y0141000D03*
X0376000Y0131000D03*
X0386000Y0131000D03*
X0386000Y0141000D03*
X0386000Y0116000D03*
X0376000Y0116000D03*
X0376000Y0106000D03*
X0376000Y0096000D03*
X0386000Y0096000D03*
X0386000Y0106000D03*
X0386000Y0086000D03*
X0386000Y0076000D03*
X0376000Y0076000D03*
X0376000Y0086000D03*
X0376000Y0066000D03*
X0376000Y0056000D03*
X0386000Y0056000D03*
X0386000Y0066000D03*
X0386000Y0046000D03*
X0376000Y0046000D03*
D26*
X0089000Y0351000D02*
X0083000Y0351000D01*
X0083000Y0361000D02*
X0089000Y0361000D01*
X0089000Y0371000D02*
X0083000Y0371000D01*
X0083000Y0381000D02*
X0089000Y0381000D01*
D27*
X0106866Y0381625D03*
X0115134Y0381625D03*
X0115134Y0361000D03*
X0106866Y0361000D03*
D28*
X0038950Y0356000D03*
X0033050Y0356000D03*
X0033050Y0346000D03*
X0038950Y0346000D03*
X0038950Y0336000D03*
X0033050Y0336000D03*
X0033050Y0326000D03*
X0038950Y0326000D03*
X0038950Y0316000D03*
X0033050Y0316000D03*
X0033050Y0306000D03*
X0038950Y0306000D03*
X0038950Y0296000D03*
X0033050Y0296000D03*
X0033050Y0286000D03*
X0038950Y0286000D03*
X0038950Y0276000D03*
X0033050Y0276000D03*
X0033050Y0266000D03*
X0038950Y0266000D03*
X0038950Y0256000D03*
X0033050Y0256000D03*
X0033050Y0246000D03*
X0038950Y0246000D03*
X0038950Y0366000D03*
X0033050Y0366000D03*
X0033050Y0376000D03*
X0038950Y0376000D03*
X0358050Y0341000D03*
X0363950Y0341000D03*
X0363950Y0331000D03*
X0358050Y0331000D03*
X0358050Y0321000D03*
X0363950Y0321000D03*
X0363950Y0311000D03*
X0358050Y0311000D03*
X0358050Y0301000D03*
X0363950Y0301000D03*
X0363950Y0291000D03*
X0358050Y0291000D03*
X0358050Y0281000D03*
X0363950Y0281000D03*
X0363950Y0271000D03*
X0358050Y0271000D03*
X0358050Y0261000D03*
X0363950Y0261000D03*
X0363950Y0251000D03*
X0358050Y0251000D03*
X0358050Y0241000D03*
X0363950Y0241000D03*
X0363950Y0231000D03*
X0358050Y0231000D03*
D29*
X0316000Y0359691D03*
X0316000Y0364809D03*
X0086000Y0337309D03*
X0086000Y0332191D03*
X0066000Y0340316D03*
X0066000Y0345434D03*
D30*
X0182250Y0296000D03*
X0189750Y0296000D03*
X0189750Y0271000D03*
X0182250Y0271000D03*
X0237250Y0267250D03*
X0244750Y0267250D03*
X0244125Y0292250D03*
X0236625Y0292250D03*
X0352250Y0116000D03*
X0359750Y0116000D03*
D31*
X0033067Y0013961D02*
X0013933Y0013961D01*
X0013443Y0014451D02*
X0014451Y0013443D01*
X0015594Y0012587D01*
X0016846Y0011904D01*
X0018183Y0011405D01*
X0019577Y0011102D01*
X0021000Y0011000D01*
X0026000Y0011000D01*
X0027423Y0011102D01*
X0028817Y0011405D01*
X0030154Y0011904D01*
X0031406Y0012587D01*
X0032549Y0013443D01*
X0033557Y0014451D01*
X0034413Y0015594D01*
X0035096Y0016846D01*
X0035595Y0018183D01*
X0035898Y0019577D01*
X0036000Y0021000D01*
X0036000Y0061000D01*
X0011000Y0061000D01*
X0011000Y0021000D01*
X0011102Y0019577D01*
X0011405Y0018183D01*
X0011904Y0016846D01*
X0012587Y0015594D01*
X0013443Y0014451D01*
X0013436Y0014460D02*
X0033564Y0014460D01*
X0033937Y0014958D02*
X0013063Y0014958D01*
X0012690Y0015457D02*
X0034310Y0015457D01*
X0034610Y0015955D02*
X0012390Y0015955D01*
X0012118Y0016454D02*
X0034882Y0016454D01*
X0035136Y0016952D02*
X0011864Y0016952D01*
X0011678Y0017451D02*
X0035322Y0017451D01*
X0035508Y0017949D02*
X0011492Y0017949D01*
X0011347Y0018448D02*
X0035653Y0018448D01*
X0035761Y0018946D02*
X0011239Y0018946D01*
X0011130Y0019445D02*
X0035870Y0019445D01*
X0035924Y0019943D02*
X0011076Y0019943D01*
X0011040Y0020442D02*
X0035960Y0020442D01*
X0035996Y0020940D02*
X0011004Y0020940D01*
X0011000Y0021439D02*
X0036000Y0021439D01*
X0036000Y0021937D02*
X0011000Y0021937D01*
X0011000Y0022436D02*
X0036000Y0022436D01*
X0036000Y0022934D02*
X0011000Y0022934D01*
X0011000Y0023433D02*
X0036000Y0023433D01*
X0036000Y0023932D02*
X0011000Y0023932D01*
X0011000Y0024430D02*
X0036000Y0024430D01*
X0036000Y0024929D02*
X0011000Y0024929D01*
X0011000Y0025427D02*
X0036000Y0025427D01*
X0036000Y0025926D02*
X0011000Y0025926D01*
X0011000Y0026424D02*
X0036000Y0026424D01*
X0036000Y0026923D02*
X0011000Y0026923D01*
X0011000Y0027421D02*
X0036000Y0027421D01*
X0036000Y0027920D02*
X0011000Y0027920D01*
X0011000Y0028418D02*
X0036000Y0028418D01*
X0036000Y0028917D02*
X0011000Y0028917D01*
X0011000Y0029415D02*
X0036000Y0029415D01*
X0036000Y0029914D02*
X0011000Y0029914D01*
X0011000Y0030412D02*
X0036000Y0030412D01*
X0036000Y0030911D02*
X0011000Y0030911D01*
X0011000Y0031409D02*
X0036000Y0031409D01*
X0036000Y0031908D02*
X0011000Y0031908D01*
X0011000Y0032406D02*
X0036000Y0032406D01*
X0036000Y0032905D02*
X0011000Y0032905D01*
X0011000Y0033403D02*
X0036000Y0033403D01*
X0036000Y0033902D02*
X0011000Y0033902D01*
X0011000Y0034400D02*
X0036000Y0034400D01*
X0036000Y0034899D02*
X0011000Y0034899D01*
X0011000Y0035397D02*
X0036000Y0035397D01*
X0036000Y0035896D02*
X0011000Y0035896D01*
X0011000Y0036394D02*
X0036000Y0036394D01*
X0036000Y0036893D02*
X0011000Y0036893D01*
X0011000Y0037391D02*
X0036000Y0037391D01*
X0036000Y0037890D02*
X0011000Y0037890D01*
X0011000Y0038388D02*
X0036000Y0038388D01*
X0036000Y0038887D02*
X0011000Y0038887D01*
X0011000Y0039385D02*
X0036000Y0039385D01*
X0036000Y0039884D02*
X0011000Y0039884D01*
X0011000Y0040382D02*
X0036000Y0040382D01*
X0036000Y0040881D02*
X0011000Y0040881D01*
X0011000Y0041379D02*
X0036000Y0041379D01*
X0036000Y0041878D02*
X0011000Y0041878D01*
X0011000Y0042376D02*
X0036000Y0042376D01*
X0036000Y0042875D02*
X0011000Y0042875D01*
X0011000Y0043373D02*
X0036000Y0043373D01*
X0036000Y0043872D02*
X0011000Y0043872D01*
X0011000Y0044370D02*
X0036000Y0044370D01*
X0036000Y0044869D02*
X0011000Y0044869D01*
X0011000Y0045368D02*
X0036000Y0045368D01*
X0036000Y0045866D02*
X0011000Y0045866D01*
X0011000Y0046365D02*
X0036000Y0046365D01*
X0036000Y0046863D02*
X0011000Y0046863D01*
X0011000Y0047362D02*
X0036000Y0047362D01*
X0036000Y0047860D02*
X0011000Y0047860D01*
X0011000Y0048359D02*
X0036000Y0048359D01*
X0036000Y0048857D02*
X0011000Y0048857D01*
X0011000Y0049356D02*
X0036000Y0049356D01*
X0036000Y0049854D02*
X0011000Y0049854D01*
X0011000Y0050353D02*
X0036000Y0050353D01*
X0036000Y0050851D02*
X0011000Y0050851D01*
X0011000Y0051350D02*
X0036000Y0051350D01*
X0036000Y0051848D02*
X0011000Y0051848D01*
X0011000Y0052347D02*
X0036000Y0052347D01*
X0036000Y0052845D02*
X0011000Y0052845D01*
X0011000Y0053344D02*
X0036000Y0053344D01*
X0036000Y0053842D02*
X0011000Y0053842D01*
X0011000Y0054341D02*
X0036000Y0054341D01*
X0036000Y0054839D02*
X0011000Y0054839D01*
X0011000Y0055338D02*
X0036000Y0055338D01*
X0036000Y0055836D02*
X0011000Y0055836D01*
X0011000Y0056335D02*
X0036000Y0056335D01*
X0036000Y0056833D02*
X0011000Y0056833D01*
X0011000Y0057332D02*
X0036000Y0057332D01*
X0036000Y0057830D02*
X0011000Y0057830D01*
X0011000Y0058329D02*
X0036000Y0058329D01*
X0036000Y0058827D02*
X0011000Y0058827D01*
X0011000Y0059326D02*
X0036000Y0059326D01*
X0036000Y0059824D02*
X0011000Y0059824D01*
X0011000Y0060323D02*
X0036000Y0060323D01*
X0036000Y0060821D02*
X0011000Y0060821D01*
X0046000Y0060821D02*
X0071000Y0060821D01*
X0071000Y0061000D02*
X0071000Y0021000D01*
X0070898Y0019577D01*
X0070595Y0018183D01*
X0070096Y0016846D01*
X0069413Y0015594D01*
X0068557Y0014451D01*
X0067549Y0013443D01*
X0066406Y0012587D01*
X0065154Y0011904D01*
X0063817Y0011405D01*
X0062423Y0011102D01*
X0061000Y0011000D01*
X0056000Y0011000D01*
X0054577Y0011102D01*
X0053183Y0011405D01*
X0051846Y0011904D01*
X0050594Y0012587D01*
X0049451Y0013443D01*
X0048443Y0014451D01*
X0047587Y0015594D01*
X0046904Y0016846D01*
X0046405Y0018183D01*
X0046102Y0019577D01*
X0046000Y0021000D01*
X0046000Y0061000D01*
X0071000Y0061000D01*
X0071000Y0060323D02*
X0046000Y0060323D01*
X0046000Y0059824D02*
X0071000Y0059824D01*
X0071000Y0059326D02*
X0046000Y0059326D01*
X0046000Y0058827D02*
X0071000Y0058827D01*
X0071000Y0058329D02*
X0046000Y0058329D01*
X0046000Y0057830D02*
X0071000Y0057830D01*
X0071000Y0057332D02*
X0046000Y0057332D01*
X0046000Y0056833D02*
X0071000Y0056833D01*
X0071000Y0056335D02*
X0046000Y0056335D01*
X0046000Y0055836D02*
X0071000Y0055836D01*
X0071000Y0055338D02*
X0046000Y0055338D01*
X0046000Y0054839D02*
X0071000Y0054839D01*
X0071000Y0054341D02*
X0046000Y0054341D01*
X0046000Y0053842D02*
X0071000Y0053842D01*
X0071000Y0053344D02*
X0046000Y0053344D01*
X0046000Y0052845D02*
X0071000Y0052845D01*
X0071000Y0052347D02*
X0046000Y0052347D01*
X0046000Y0051848D02*
X0071000Y0051848D01*
X0071000Y0051350D02*
X0046000Y0051350D01*
X0046000Y0050851D02*
X0071000Y0050851D01*
X0071000Y0050353D02*
X0046000Y0050353D01*
X0046000Y0049854D02*
X0071000Y0049854D01*
X0071000Y0049356D02*
X0046000Y0049356D01*
X0046000Y0048857D02*
X0071000Y0048857D01*
X0071000Y0048359D02*
X0046000Y0048359D01*
X0046000Y0047860D02*
X0071000Y0047860D01*
X0071000Y0047362D02*
X0046000Y0047362D01*
X0046000Y0046863D02*
X0071000Y0046863D01*
X0071000Y0046365D02*
X0046000Y0046365D01*
X0046000Y0045866D02*
X0071000Y0045866D01*
X0071000Y0045368D02*
X0046000Y0045368D01*
X0046000Y0044869D02*
X0071000Y0044869D01*
X0071000Y0044370D02*
X0046000Y0044370D01*
X0046000Y0043872D02*
X0071000Y0043872D01*
X0071000Y0043373D02*
X0046000Y0043373D01*
X0046000Y0042875D02*
X0071000Y0042875D01*
X0071000Y0042376D02*
X0046000Y0042376D01*
X0046000Y0041878D02*
X0071000Y0041878D01*
X0071000Y0041379D02*
X0046000Y0041379D01*
X0046000Y0040881D02*
X0071000Y0040881D01*
X0071000Y0040382D02*
X0046000Y0040382D01*
X0046000Y0039884D02*
X0071000Y0039884D01*
X0071000Y0039385D02*
X0046000Y0039385D01*
X0046000Y0038887D02*
X0071000Y0038887D01*
X0071000Y0038388D02*
X0046000Y0038388D01*
X0046000Y0037890D02*
X0071000Y0037890D01*
X0071000Y0037391D02*
X0046000Y0037391D01*
X0046000Y0036893D02*
X0071000Y0036893D01*
X0071000Y0036394D02*
X0046000Y0036394D01*
X0046000Y0035896D02*
X0071000Y0035896D01*
X0071000Y0035397D02*
X0046000Y0035397D01*
X0046000Y0034899D02*
X0071000Y0034899D01*
X0071000Y0034400D02*
X0046000Y0034400D01*
X0046000Y0033902D02*
X0071000Y0033902D01*
X0071000Y0033403D02*
X0046000Y0033403D01*
X0046000Y0032905D02*
X0071000Y0032905D01*
X0071000Y0032406D02*
X0046000Y0032406D01*
X0046000Y0031908D02*
X0071000Y0031908D01*
X0071000Y0031409D02*
X0046000Y0031409D01*
X0046000Y0030911D02*
X0071000Y0030911D01*
X0071000Y0030412D02*
X0046000Y0030412D01*
X0046000Y0029914D02*
X0071000Y0029914D01*
X0071000Y0029415D02*
X0046000Y0029415D01*
X0046000Y0028917D02*
X0071000Y0028917D01*
X0071000Y0028418D02*
X0046000Y0028418D01*
X0046000Y0027920D02*
X0071000Y0027920D01*
X0071000Y0027421D02*
X0046000Y0027421D01*
X0046000Y0026923D02*
X0071000Y0026923D01*
X0071000Y0026424D02*
X0046000Y0026424D01*
X0046000Y0025926D02*
X0071000Y0025926D01*
X0071000Y0025427D02*
X0046000Y0025427D01*
X0046000Y0024929D02*
X0071000Y0024929D01*
X0071000Y0024430D02*
X0046000Y0024430D01*
X0046000Y0023932D02*
X0071000Y0023932D01*
X0071000Y0023433D02*
X0046000Y0023433D01*
X0046000Y0022934D02*
X0071000Y0022934D01*
X0071000Y0022436D02*
X0046000Y0022436D01*
X0046000Y0021937D02*
X0071000Y0021937D01*
X0071000Y0021439D02*
X0046000Y0021439D01*
X0046004Y0020940D02*
X0070996Y0020940D01*
X0070960Y0020442D02*
X0046040Y0020442D01*
X0046076Y0019943D02*
X0070924Y0019943D01*
X0070870Y0019445D02*
X0046130Y0019445D01*
X0046239Y0018946D02*
X0070761Y0018946D01*
X0070653Y0018448D02*
X0046347Y0018448D01*
X0046492Y0017949D02*
X0070508Y0017949D01*
X0070322Y0017451D02*
X0046678Y0017451D01*
X0046864Y0016952D02*
X0070136Y0016952D01*
X0069882Y0016454D02*
X0047118Y0016454D01*
X0047390Y0015955D02*
X0069610Y0015955D01*
X0069310Y0015457D02*
X0047690Y0015457D01*
X0048063Y0014958D02*
X0068937Y0014958D01*
X0068564Y0014460D02*
X0048436Y0014460D01*
X0048933Y0013961D02*
X0068067Y0013961D01*
X0067569Y0013463D02*
X0049431Y0013463D01*
X0050090Y0012964D02*
X0066910Y0012964D01*
X0066184Y0012466D02*
X0050816Y0012466D01*
X0051729Y0011967D02*
X0065271Y0011967D01*
X0063988Y0011469D02*
X0053012Y0011469D01*
X0032569Y0013463D02*
X0014431Y0013463D01*
X0015090Y0012964D02*
X0031910Y0012964D01*
X0031184Y0012466D02*
X0015816Y0012466D01*
X0016729Y0011967D02*
X0030271Y0011967D01*
X0028988Y0011469D02*
X0018012Y0011469D01*
D32*
X0026000Y0041000D03*
X0061000Y0046000D03*
D33*
X0161925Y0126728D03*
X0164484Y0126728D03*
X0167043Y0126728D03*
X0169602Y0126728D03*
X0172161Y0126728D03*
X0174720Y0126728D03*
X0177280Y0126728D03*
X0179839Y0126728D03*
X0182398Y0126728D03*
X0184957Y0126728D03*
X0187516Y0126728D03*
X0190075Y0126728D03*
X0211925Y0126728D03*
X0214484Y0126728D03*
X0217043Y0126728D03*
X0219602Y0126728D03*
X0222161Y0126728D03*
X0224720Y0126728D03*
X0227280Y0126728D03*
X0229839Y0126728D03*
X0232398Y0126728D03*
X0234957Y0126728D03*
X0237516Y0126728D03*
X0240075Y0126728D03*
X0266925Y0126728D03*
X0269484Y0126728D03*
X0272043Y0126728D03*
X0274602Y0126728D03*
X0277161Y0126728D03*
X0279720Y0126728D03*
X0282280Y0126728D03*
X0284839Y0126728D03*
X0287398Y0126728D03*
X0289957Y0126728D03*
X0292516Y0126728D03*
X0295075Y0126728D03*
X0295075Y0155272D03*
X0292516Y0155272D03*
X0289957Y0155272D03*
X0287398Y0155272D03*
X0284839Y0155272D03*
X0282280Y0155272D03*
X0279720Y0155272D03*
X0277161Y0155272D03*
X0274602Y0155272D03*
X0272043Y0155272D03*
X0269484Y0155272D03*
X0266925Y0155272D03*
X0240075Y0155272D03*
X0237516Y0155272D03*
X0234957Y0155272D03*
X0232398Y0155272D03*
X0229839Y0155272D03*
X0227280Y0155272D03*
X0224720Y0155272D03*
X0222161Y0155272D03*
X0219602Y0155272D03*
X0217043Y0155272D03*
X0214484Y0155272D03*
X0211925Y0155272D03*
X0190075Y0155272D03*
X0187516Y0155272D03*
X0184957Y0155272D03*
X0182398Y0155272D03*
X0179839Y0155272D03*
X0177280Y0155272D03*
X0174720Y0155272D03*
X0172161Y0155272D03*
X0169602Y0155272D03*
X0167043Y0155272D03*
X0164484Y0155272D03*
X0161925Y0155272D03*
D34*
X0069740Y0252260D03*
X0062260Y0252260D03*
X0066000Y0259740D03*
X0207260Y0271000D03*
X0214740Y0267260D03*
X0214740Y0274740D03*
X0214740Y0292260D03*
X0214740Y0299740D03*
X0207260Y0296000D03*
D35*
X0123608Y0312225D03*
X0105892Y0312225D03*
X0105892Y0343525D03*
X0123608Y0343525D03*
X0300267Y0216025D03*
X0317983Y0216025D03*
X0331517Y0216025D03*
X0349233Y0216025D03*
X0349233Y0184725D03*
X0331517Y0184725D03*
X0317983Y0184725D03*
X0300267Y0184725D03*
D36*
X0339750Y0169750D03*
X0349125Y0176000D03*
X0363500Y0186000D03*
X0339750Y0139125D03*
X0288500Y0118500D03*
X0288500Y0111000D03*
X0273500Y0111000D03*
X0273500Y0118500D03*
X0233500Y0118500D03*
X0233500Y0111000D03*
X0218500Y0111000D03*
X0218500Y0118500D03*
X0183500Y0118500D03*
X0183500Y0111000D03*
X0168500Y0111000D03*
X0168500Y0118500D03*
X0149750Y0111000D03*
X0141000Y0111000D03*
X0146625Y0146000D03*
X0150375Y0149750D03*
X0154125Y0153500D03*
X0118500Y0201625D03*
X0101000Y0191000D03*
X0068500Y0191000D03*
X0067250Y0176000D03*
X0060375Y0176000D03*
X0046000Y0157250D03*
X0046000Y0147250D03*
X0034750Y0184750D03*
X0026000Y0082250D03*
X0026000Y0074125D03*
X0026000Y0066000D03*
D37*
X0026000Y0082250D01*
X0029750Y0093028D02*
X0016000Y0093028D01*
X0029750Y0093028D02*
X0031000Y0094278D01*
X0031000Y0129839D01*
X0058500Y0129839D01*
X0063500Y0111000D02*
X0090100Y0137600D01*
X0090100Y0163800D01*
X0071900Y0163800D02*
X0071900Y0160561D01*
X0058500Y0147161D01*
X0048500Y0147161D01*
X0031000Y0147161D01*
X0016000Y0157850D02*
X0016000Y0108972D01*
X0029750Y0093028D02*
X0036000Y0093028D01*
X0063500Y0093028D01*
X0061000Y0090528D01*
X0061000Y0046000D01*
X0026000Y0041000D02*
X0026000Y0066000D01*
X0063500Y0093028D02*
X0081000Y0093028D01*
X0094366Y0093028D01*
X0112339Y0111000D01*
X0112339Y0112339D01*
X0126000Y0126000D01*
X0141000Y0126000D01*
X0156000Y0141000D01*
X0162250Y0141000D01*
X0191000Y0141000D01*
X0212250Y0141000D01*
X0241000Y0141000D01*
X0267250Y0141000D01*
X0289750Y0141000D01*
X0295075Y0146950D01*
X0295075Y0155272D01*
X0240075Y0155272D02*
X0240075Y0141925D01*
X0190075Y0141925D02*
X0190075Y0155272D01*
X0149750Y0111000D02*
X0141000Y0111000D01*
X0129661Y0111000D01*
X0113800Y0136900D02*
X0085872Y0108972D01*
X0081000Y0108972D01*
X0063500Y0108972D02*
X0063500Y0111000D01*
X0046000Y0147250D02*
X0046000Y0157250D01*
X0021625Y0164750D02*
X0016000Y0159125D01*
D38*
X0025050Y0176000D02*
X0049451Y0176000D01*
X0049451Y0203179D01*
X0041630Y0211000D01*
X0041000Y0211630D01*
X0041000Y0219125D01*
X0034750Y0225375D01*
X0029125Y0231000D01*
X0020370Y0211000D02*
X0025050Y0206320D01*
X0025050Y0185100D01*
X0025400Y0184750D01*
X0034750Y0184750D01*
X0049451Y0176000D02*
X0067250Y0176000D01*
X0068500Y0191000D02*
X0068500Y0209130D01*
X0070370Y0211000D01*
X0062875Y0226000D02*
X0086000Y0226000D01*
X0091630Y0226000D01*
X0091630Y0211000D01*
X0096000Y0211000D01*
X0114750Y0192250D01*
X0151000Y0192250D01*
X0173500Y0169750D01*
X0173500Y0153500D01*
X0173500Y0169750D02*
X0223500Y0169750D01*
X0223500Y0153500D01*
X0223500Y0169750D02*
X0279125Y0169750D01*
X0278500Y0169125D01*
X0278500Y0153500D01*
X0279125Y0169750D02*
X0339750Y0169750D01*
X0354750Y0169750D01*
X0361000Y0176000D01*
X0376000Y0176000D01*
X0386000Y0176000D01*
X0386000Y0161000D02*
X0376000Y0161000D01*
X0353500Y0176000D02*
X0363500Y0186000D01*
X0353500Y0176000D02*
X0349125Y0176000D01*
X0316625Y0176000D01*
X0279750Y0176000D01*
X0276000Y0179750D01*
X0227875Y0179750D01*
X0206625Y0179750D01*
X0178500Y0179750D01*
X0173500Y0179750D01*
X0151625Y0201625D01*
X0118500Y0201625D01*
X0101000Y0191000D02*
X0111000Y0181000D01*
X0115370Y0181000D01*
X0113800Y0179430D01*
X0113800Y0155100D01*
X0113800Y0146000D02*
X0138201Y0146000D01*
X0146625Y0146000D01*
X0150375Y0149750D01*
X0154125Y0153500D01*
X0136630Y0147571D02*
X0136630Y0181000D01*
X0091630Y0198831D02*
X0091630Y0211000D01*
X0091630Y0198831D02*
X0081000Y0188201D01*
X0081000Y0163800D01*
X0048500Y0147161D02*
X0048411Y0147250D01*
X0046000Y0147250D01*
X0116000Y0087250D02*
X0116000Y0080055D01*
X0116000Y0087250D02*
X0131000Y0102250D01*
X0157250Y0102250D01*
X0163500Y0108500D01*
X0163500Y0127875D01*
X0163500Y0128904D01*
X0168500Y0128500D02*
X0168500Y0126625D01*
X0168500Y0118500D01*
X0168500Y0111000D01*
X0173500Y0107250D02*
X0161000Y0094750D01*
X0146000Y0094750D01*
X0135685Y0084435D01*
X0135685Y0080055D01*
X0155370Y0080055D02*
X0178500Y0103185D01*
X0178500Y0128500D01*
X0178500Y0128633D01*
X0183500Y0128500D02*
X0183500Y0126625D01*
X0183500Y0118500D01*
X0183500Y0111000D01*
X0188500Y0103500D02*
X0175055Y0090055D01*
X0175055Y0080055D01*
X0194740Y0080055D02*
X0194740Y0084740D01*
X0213500Y0103500D01*
X0213500Y0128500D01*
X0213500Y0129494D01*
X0218500Y0128500D02*
X0218500Y0118500D01*
X0218500Y0111000D01*
X0223500Y0103500D02*
X0214425Y0094425D01*
X0214425Y0080055D01*
X0234110Y0080055D02*
X0234110Y0097890D01*
X0228500Y0103500D01*
X0228500Y0129140D01*
X0223500Y0129199D02*
X0223500Y0128500D01*
X0223500Y0103500D01*
X0233500Y0111000D02*
X0233500Y0118500D01*
X0233500Y0128500D01*
X0239125Y0129125D02*
X0239125Y0107250D01*
X0253795Y0092580D01*
X0253795Y0080055D01*
X0268500Y0084750D02*
X0273480Y0079770D01*
X0273480Y0080055D01*
X0268500Y0084750D02*
X0268500Y0128904D01*
X0273500Y0128500D02*
X0273500Y0126625D01*
X0273500Y0118500D01*
X0273500Y0111000D01*
X0283500Y0108500D02*
X0311945Y0080055D01*
X0312850Y0080055D01*
X0332250Y0080341D02*
X0332535Y0080055D01*
X0332250Y0080341D02*
X0332250Y0083500D01*
X0294125Y0121625D01*
X0294125Y0128904D01*
X0288500Y0128500D02*
X0288500Y0118500D01*
X0288500Y0111000D01*
X0283500Y0108500D02*
X0283500Y0128515D01*
X0278500Y0128515D02*
X0278500Y0094750D01*
X0293165Y0080085D01*
X0293165Y0080055D01*
X0339750Y0116000D02*
X0316625Y0139125D01*
X0310375Y0139125D01*
X0304125Y0139125D01*
X0339750Y0139125D02*
X0356625Y0131000D01*
X0376000Y0131000D01*
X0386000Y0131000D01*
X0386000Y0116000D02*
X0386000Y0106000D01*
X0386000Y0096000D01*
X0386000Y0086000D01*
X0386000Y0076000D01*
X0386000Y0066000D01*
X0386000Y0056000D01*
X0386000Y0046000D01*
X0376000Y0046000D02*
X0376000Y0056000D01*
X0376000Y0066000D01*
X0376000Y0076000D01*
X0376000Y0086000D01*
X0376000Y0096000D01*
X0376000Y0106000D01*
X0376000Y0116000D01*
X0359750Y0116000D01*
X0352250Y0116000D02*
X0339750Y0116000D01*
X0376000Y0206000D02*
X0386000Y0206000D01*
X0239125Y0129553D02*
X0239125Y0129125D01*
X0188500Y0128904D02*
X0188500Y0103500D01*
X0173500Y0107250D02*
X0173500Y0128500D01*
X0173500Y0129140D01*
X0111625Y0226000D02*
X0091630Y0226000D01*
X0086000Y0337309D02*
X0086000Y0351000D01*
X0066000Y0345434D02*
X0066000Y0361000D01*
X0056000Y0381000D02*
X0064125Y0389125D01*
X0076625Y0389125D01*
X0084750Y0381000D01*
X0086000Y0381000D01*
D39*
X0172161Y0155272D02*
X0174720Y0155272D01*
X0173500Y0154051D01*
X0173500Y0153500D01*
X0211925Y0126925D02*
X0213500Y0128500D01*
X0214484Y0126728D02*
X0211925Y0126728D01*
X0211925Y0126925D01*
X0217043Y0127043D02*
X0218500Y0128500D01*
X0218500Y0127831D01*
X0219602Y0126728D01*
X0217043Y0126728D02*
X0217043Y0127043D01*
X0222161Y0127161D02*
X0223500Y0128500D01*
X0222161Y0127161D02*
X0222161Y0126728D01*
X0224720Y0126728D01*
X0227280Y0126728D02*
X0229839Y0126728D01*
X0232398Y0126728D02*
X0232398Y0127398D01*
X0233500Y0128500D01*
X0233500Y0128185D01*
X0234957Y0126728D01*
X0237516Y0126728D02*
X0240075Y0126728D01*
X0240075Y0128175D01*
X0239125Y0129125D01*
X0228500Y0129140D02*
X0227280Y0127919D01*
X0227280Y0126728D01*
X0223500Y0153500D02*
X0223500Y0154051D01*
X0224720Y0155272D01*
X0223500Y0153500D02*
X0222161Y0154839D01*
X0222161Y0155272D01*
X0266925Y0126728D02*
X0269484Y0126728D01*
X0268500Y0127713D01*
X0268500Y0128904D01*
X0272043Y0126728D02*
X0274602Y0126728D01*
X0273603Y0126728D01*
X0273500Y0126625D01*
X0277161Y0126728D02*
X0278500Y0128067D01*
X0278500Y0128515D01*
X0279720Y0127294D01*
X0279720Y0126728D01*
X0282280Y0126728D02*
X0283500Y0127949D01*
X0283500Y0128515D01*
X0282280Y0126728D02*
X0284839Y0126728D01*
X0287398Y0126728D02*
X0288500Y0127831D01*
X0288500Y0128500D01*
X0287398Y0126728D02*
X0289957Y0126728D01*
X0292516Y0126728D02*
X0295075Y0126728D01*
X0294125Y0127678D01*
X0294125Y0128904D01*
X0278500Y0153500D02*
X0278500Y0154051D01*
X0279720Y0155272D01*
X0277161Y0155272D01*
D40*
X0274602Y0155272D02*
X0274602Y0163648D01*
X0272875Y0165375D01*
X0269484Y0161266D02*
X0267250Y0163500D01*
X0269484Y0161266D02*
X0269484Y0155272D01*
X0266925Y0155272D02*
X0266925Y0141325D01*
X0267250Y0141000D01*
X0271625Y0147875D02*
X0272043Y0148293D01*
X0272043Y0155272D01*
X0282280Y0155272D02*
X0282280Y0165405D01*
X0282875Y0166000D01*
X0284839Y0161714D02*
X0287250Y0164125D01*
X0284839Y0161714D02*
X0284839Y0155272D01*
X0287398Y0155272D02*
X0287398Y0149898D01*
X0285375Y0147875D01*
X0289957Y0155272D02*
X0289957Y0160582D01*
X0292875Y0163500D01*
X0239750Y0162875D02*
X0237250Y0162875D01*
X0234957Y0160582D01*
X0234957Y0155272D01*
X0232398Y0155272D02*
X0232398Y0164273D01*
X0232875Y0164750D01*
X0227875Y0164750D02*
X0227280Y0164155D01*
X0227280Y0155272D01*
X0229839Y0155272D02*
X0229839Y0150286D01*
X0231625Y0148500D01*
X0222250Y0147875D02*
X0221625Y0147250D01*
X0216625Y0147250D01*
X0214484Y0149391D01*
X0214484Y0155272D01*
X0211925Y0155272D02*
X0211925Y0141325D01*
X0212250Y0141000D01*
X0217043Y0155272D02*
X0217043Y0161207D01*
X0214125Y0164125D01*
X0219125Y0164750D02*
X0219602Y0164273D01*
X0219602Y0155272D01*
X0190375Y0163500D02*
X0186625Y0163500D01*
X0182398Y0159273D01*
X0182398Y0155272D01*
X0184957Y0155272D02*
X0184957Y0150582D01*
X0182875Y0148500D01*
X0179839Y0155272D02*
X0179839Y0161714D01*
X0184125Y0166000D01*
X0178500Y0164750D02*
X0177280Y0163530D01*
X0177280Y0155272D01*
X0169602Y0155272D02*
X0169602Y0166773D01*
X0162250Y0174125D01*
X0162250Y0169125D02*
X0167043Y0164332D01*
X0167043Y0155272D01*
X0164484Y0155272D02*
X0164484Y0160641D01*
X0154750Y0170375D01*
X0161925Y0155272D02*
X0161925Y0141325D01*
X0162250Y0141000D01*
X0163500Y0127875D02*
X0163500Y0127713D01*
X0164484Y0126728D01*
X0161925Y0126728D01*
X0167043Y0126728D02*
X0169602Y0126728D01*
X0169499Y0126625D01*
X0168500Y0126625D01*
X0172161Y0126728D02*
X0174720Y0126728D01*
X0173500Y0127949D01*
X0173500Y0128500D01*
X0182398Y0126728D02*
X0182501Y0126625D01*
X0183500Y0126625D01*
X0182398Y0126728D02*
X0184957Y0126728D01*
X0183500Y0128500D02*
X0183500Y0129125D01*
X0187516Y0127919D02*
X0187516Y0126728D01*
X0190075Y0126728D01*
X0188500Y0128904D02*
X0187516Y0127919D01*
X0138201Y0146000D02*
X0136630Y0147571D01*
X0151625Y0201625D02*
X0151625Y0206625D01*
X0156000Y0211000D01*
X0151000Y0226000D02*
X0111625Y0226000D01*
X0151000Y0226000D02*
X0156000Y0231000D01*
X0174750Y0231000D01*
X0187875Y0244125D01*
X0244125Y0244125D01*
X0257250Y0231000D01*
X0266000Y0231000D01*
X0276000Y0231000D01*
X0294125Y0231000D01*
X0301000Y0224125D01*
X0324125Y0224125D01*
X0324125Y0234125D02*
X0314750Y0234125D01*
X0306625Y0242250D01*
X0306625Y0245375D01*
X0313900Y0245375D01*
X0324125Y0234125D02*
X0336625Y0222250D01*
X0359750Y0222250D01*
X0368500Y0213500D01*
X0363950Y0231000D02*
X0376000Y0231000D01*
X0376000Y0241000D02*
X0363950Y0241000D01*
X0358050Y0241000D02*
X0352875Y0241000D01*
X0352875Y0231000D02*
X0358050Y0231000D01*
X0352875Y0249750D02*
X0354125Y0251000D01*
X0358050Y0251000D01*
X0363950Y0251000D02*
X0376000Y0251000D01*
X0376000Y0261000D02*
X0363950Y0261000D01*
X0358050Y0261000D02*
X0353500Y0261000D01*
X0352875Y0260375D01*
X0352875Y0270375D02*
X0353500Y0271000D01*
X0358050Y0271000D01*
X0363950Y0271000D02*
X0376000Y0271000D01*
X0376000Y0281000D02*
X0363950Y0281000D01*
X0358050Y0281000D02*
X0352875Y0281000D01*
X0352250Y0280375D01*
X0338100Y0280375D01*
X0338100Y0275375D01*
X0338100Y0270375D01*
X0352875Y0291000D02*
X0358050Y0291000D01*
X0363950Y0291000D02*
X0376000Y0291000D01*
X0376000Y0301000D02*
X0363950Y0301000D01*
X0358050Y0301000D02*
X0354750Y0301000D01*
X0352875Y0300375D01*
X0352875Y0311000D02*
X0358050Y0311000D01*
X0363950Y0311000D02*
X0376000Y0311000D01*
X0376000Y0321000D02*
X0363950Y0321000D01*
X0358050Y0321000D02*
X0352875Y0321000D01*
X0352875Y0331000D02*
X0358050Y0331000D01*
X0363950Y0331000D02*
X0376000Y0331000D01*
X0376000Y0341000D02*
X0363950Y0341000D01*
X0358050Y0341000D02*
X0352875Y0341000D01*
X0352250Y0340375D01*
X0350375Y0340375D01*
X0342250Y0332250D01*
X0338100Y0332250D01*
X0338100Y0327250D01*
X0338100Y0332250D02*
X0338100Y0337250D01*
X0316000Y0354125D02*
X0316000Y0359691D01*
X0316000Y0364809D02*
X0316000Y0381000D01*
X0316000Y0386000D01*
X0313900Y0302250D02*
X0309750Y0302250D01*
X0306625Y0299125D01*
X0086000Y0332191D02*
X0081566Y0332191D01*
X0077250Y0327875D01*
X0066000Y0339125D01*
X0066000Y0340316D01*
X0046000Y0335375D02*
X0038950Y0336000D01*
X0033050Y0336000D02*
X0021000Y0336000D01*
X0021000Y0326000D02*
X0033050Y0326000D01*
X0038950Y0326000D02*
X0044750Y0326000D01*
X0046000Y0325375D01*
X0046000Y0316000D02*
X0038950Y0316000D01*
X0033050Y0316000D02*
X0021000Y0316000D01*
X0021000Y0306000D02*
X0033050Y0306000D01*
X0038950Y0306000D02*
X0046000Y0306000D01*
X0046000Y0296000D02*
X0038950Y0296000D01*
X0033050Y0296000D02*
X0021000Y0296000D01*
X0021000Y0286000D02*
X0033050Y0286000D01*
X0038950Y0286000D02*
X0046000Y0286000D01*
X0046000Y0276000D02*
X0038950Y0276000D01*
X0033050Y0276000D02*
X0021000Y0276000D01*
X0021000Y0266000D02*
X0033050Y0266000D01*
X0038950Y0266000D02*
X0046000Y0266000D01*
X0046000Y0257250D02*
X0044750Y0256000D01*
X0038950Y0256000D01*
X0033050Y0256000D02*
X0021000Y0256000D01*
X0021000Y0246000D02*
X0033050Y0246000D01*
X0038950Y0246000D02*
X0046000Y0246000D01*
X0025050Y0166900D02*
X0021625Y0164750D01*
X0016000Y0159125D02*
X0016000Y0157850D01*
X0021000Y0346000D02*
X0033050Y0346000D01*
X0038950Y0346000D02*
X0046000Y0346000D01*
X0046000Y0356000D02*
X0038950Y0356000D01*
X0033050Y0356000D02*
X0021000Y0356000D01*
X0021000Y0366000D02*
X0033050Y0366000D01*
X0038950Y0366000D02*
X0044750Y0366000D01*
X0046000Y0364750D01*
X0046000Y0376000D02*
X0038950Y0376000D01*
X0033050Y0376000D02*
X0021000Y0376000D01*
D41*
X0026625Y0370375D01*
X0046000Y0370375D01*
X0050375Y0366000D01*
X0059125Y0366000D01*
X0061625Y0363500D01*
X0061625Y0334125D01*
X0078500Y0317250D01*
X0084750Y0317250D01*
X0093500Y0326000D01*
X0129750Y0326000D01*
X0139750Y0336000D01*
X0151000Y0336000D01*
X0156000Y0331000D01*
X0151000Y0326000D02*
X0142250Y0326000D01*
X0139750Y0323500D01*
X0096000Y0323500D01*
X0085375Y0312875D01*
X0077875Y0312875D01*
X0059125Y0331625D01*
X0059125Y0338500D01*
X0054125Y0343500D01*
X0054125Y0348500D01*
X0052250Y0350375D01*
X0052250Y0357250D01*
X0048500Y0361000D01*
X0026000Y0361000D01*
X0021000Y0366000D01*
X0021000Y0356000D02*
X0026000Y0351000D01*
X0047875Y0351000D01*
X0051000Y0347875D01*
X0051000Y0343500D01*
X0056625Y0337875D01*
X0056625Y0329750D01*
X0076625Y0309750D01*
X0087250Y0309750D01*
X0098500Y0321000D01*
X0146000Y0321000D01*
X0141625Y0316000D02*
X0128500Y0302875D01*
X0104125Y0302875D01*
X0100375Y0306625D01*
X0074750Y0306625D01*
X0054125Y0327250D01*
X0054125Y0334750D01*
X0047875Y0341000D01*
X0026000Y0341000D01*
X0021000Y0346000D01*
X0021000Y0336000D02*
X0026000Y0331000D01*
X0044750Y0331000D01*
X0051000Y0325375D01*
X0051000Y0320375D01*
X0067250Y0304125D01*
X0099125Y0304125D01*
X0104125Y0299125D01*
X0131000Y0299125D01*
X0142875Y0311000D01*
X0146000Y0311000D01*
X0142250Y0306000D02*
X0132250Y0296000D01*
X0103500Y0296000D01*
X0098500Y0301000D01*
X0066625Y0301000D01*
X0046625Y0321000D01*
X0026000Y0321000D01*
X0021000Y0326000D01*
X0021000Y0316000D02*
X0026000Y0311000D01*
X0049125Y0311000D01*
X0061625Y0298500D01*
X0097250Y0298500D01*
X0102875Y0292875D01*
X0132875Y0292875D01*
X0139125Y0299125D01*
X0144125Y0299125D01*
X0146000Y0301000D01*
X0142250Y0306000D02*
X0151000Y0306000D01*
X0156000Y0301000D01*
X0151000Y0296000D02*
X0139750Y0296000D01*
X0134125Y0290375D01*
X0102250Y0290375D01*
X0096625Y0296000D01*
X0053500Y0296000D01*
X0049125Y0300375D01*
X0026625Y0300375D01*
X0021000Y0306000D01*
X0021000Y0296000D02*
X0026000Y0291000D01*
X0046625Y0291000D01*
X0059750Y0277875D01*
X0132875Y0277875D01*
X0146000Y0291000D01*
X0151000Y0296000D02*
X0156000Y0291000D01*
X0156000Y0281000D02*
X0151000Y0276000D01*
X0141625Y0276000D01*
X0138500Y0272875D01*
X0059125Y0272875D01*
X0057250Y0271000D01*
X0026000Y0271000D01*
X0021000Y0276000D01*
X0025375Y0281625D02*
X0021000Y0286000D01*
X0025375Y0281625D02*
X0048500Y0281625D01*
X0054750Y0275375D01*
X0136625Y0275375D01*
X0142250Y0281000D01*
X0146000Y0281000D01*
X0146000Y0271000D02*
X0145375Y0270375D01*
X0059750Y0270375D01*
X0050375Y0261000D01*
X0026000Y0261000D01*
X0021000Y0266000D01*
X0021000Y0256000D02*
X0026000Y0251000D01*
X0048500Y0251000D01*
X0052250Y0254750D01*
X0052250Y0259125D01*
X0061000Y0267875D01*
X0101000Y0267875D01*
X0107875Y0261000D01*
X0131625Y0261000D01*
X0146000Y0261000D02*
X0151000Y0266000D01*
X0160375Y0266000D01*
X0162875Y0268500D01*
X0162875Y0272875D01*
X0169125Y0279125D01*
X0253500Y0279125D01*
X0260375Y0286000D01*
X0321625Y0286000D01*
X0327875Y0291625D01*
X0327875Y0309125D01*
X0331625Y0312250D01*
X0338100Y0312250D01*
X0338100Y0307250D02*
X0342250Y0307250D01*
X0351000Y0316000D01*
X0371000Y0316000D01*
X0376000Y0321000D01*
X0370375Y0325375D02*
X0376000Y0331000D01*
X0370375Y0335375D02*
X0376000Y0341000D01*
X0370375Y0335375D02*
X0351625Y0335375D01*
X0347875Y0331625D01*
X0347875Y0324750D01*
X0345375Y0322250D01*
X0338100Y0322250D01*
X0338100Y0317250D02*
X0343500Y0317250D01*
X0351625Y0325375D01*
X0370375Y0325375D01*
X0376000Y0311000D02*
X0371000Y0306000D01*
X0351625Y0306000D01*
X0347875Y0302250D01*
X0338100Y0302250D01*
X0351000Y0296000D02*
X0344125Y0289125D01*
X0329750Y0289125D01*
X0322875Y0282250D01*
X0322875Y0269125D01*
X0319125Y0265375D01*
X0313900Y0265375D01*
X0313900Y0270375D02*
X0296000Y0270375D01*
X0291000Y0266000D02*
X0271000Y0266000D01*
X0266000Y0261000D01*
X0266000Y0251000D02*
X0271000Y0246000D01*
X0280375Y0246000D01*
X0282875Y0243500D01*
X0299750Y0243500D01*
X0313500Y0229750D01*
X0316625Y0229750D01*
X0323500Y0242250D02*
X0340375Y0225375D01*
X0370375Y0225375D01*
X0376000Y0231000D01*
X0371000Y0236000D02*
X0376000Y0241000D01*
X0371000Y0236000D02*
X0333500Y0236000D01*
X0326625Y0242875D01*
X0326625Y0251000D01*
X0322250Y0255375D01*
X0313900Y0255375D01*
X0313900Y0250375D02*
X0319750Y0250375D01*
X0323500Y0246625D01*
X0323500Y0242250D01*
X0331000Y0255375D02*
X0327250Y0259125D01*
X0331000Y0255375D02*
X0338100Y0255375D01*
X0338100Y0250375D02*
X0346625Y0250375D01*
X0352250Y0256000D01*
X0371000Y0256000D01*
X0376000Y0261000D01*
X0370375Y0265375D02*
X0376000Y0271000D01*
X0371000Y0276000D02*
X0376000Y0281000D01*
X0371000Y0286000D02*
X0376000Y0291000D01*
X0371000Y0286000D02*
X0330375Y0286000D01*
X0325375Y0281000D01*
X0325375Y0267250D01*
X0318500Y0260375D01*
X0313900Y0260375D01*
X0313900Y0275375D02*
X0301000Y0275375D01*
X0300375Y0280375D02*
X0313900Y0280375D01*
X0300375Y0280375D02*
X0298500Y0282250D01*
X0286625Y0272250D02*
X0285375Y0271000D01*
X0276000Y0271000D01*
X0271000Y0276000D02*
X0281000Y0276000D01*
X0284125Y0279125D01*
X0271000Y0276000D02*
X0266000Y0281000D01*
X0254125Y0267250D02*
X0244750Y0267250D01*
X0237250Y0267250D02*
X0237240Y0267260D01*
X0214740Y0267260D01*
X0214740Y0274740D02*
X0211010Y0274740D01*
X0211000Y0274750D01*
X0207260Y0271000D02*
X0189750Y0271000D01*
X0182250Y0271000D02*
X0168500Y0271000D01*
X0167250Y0282250D02*
X0156000Y0271000D01*
X0167250Y0282250D02*
X0246625Y0282250D01*
X0259750Y0295375D01*
X0322250Y0295375D01*
X0324125Y0293500D01*
X0319750Y0307250D02*
X0313900Y0307250D01*
X0313900Y0312250D02*
X0319125Y0312250D01*
X0329125Y0322250D01*
X0329125Y0342250D01*
X0337250Y0350375D01*
X0338500Y0350375D01*
X0346000Y0357875D01*
X0354125Y0357875D01*
X0362250Y0366000D01*
X0376000Y0366000D01*
X0376000Y0376000D02*
X0363500Y0376000D01*
X0347875Y0360375D01*
X0344125Y0360375D01*
X0326625Y0342875D01*
X0326625Y0324750D01*
X0319125Y0317250D01*
X0313900Y0317250D01*
X0313900Y0322250D02*
X0320375Y0322250D01*
X0323500Y0325375D01*
X0323500Y0342875D01*
X0365375Y0384750D01*
X0374750Y0384750D01*
X0376000Y0386000D01*
X0376000Y0356000D02*
X0347875Y0356000D01*
X0337250Y0345375D01*
X0328500Y0351000D02*
X0328500Y0383500D01*
X0326000Y0386000D01*
X0323500Y0383500D02*
X0323500Y0352250D01*
X0317875Y0346625D01*
X0294750Y0346625D01*
X0291000Y0342875D01*
X0287875Y0346000D01*
X0261000Y0346000D01*
X0256000Y0351000D01*
X0166000Y0351000D01*
X0174750Y0361000D02*
X0156000Y0361000D01*
X0161625Y0366000D02*
X0166625Y0371000D01*
X0219750Y0371000D01*
X0207875Y0376000D02*
X0297875Y0376000D01*
X0301000Y0372875D01*
X0306000Y0376000D02*
X0309125Y0372875D01*
X0306000Y0376000D02*
X0306000Y0381625D01*
X0300375Y0387875D01*
X0189750Y0387875D01*
X0184750Y0382875D01*
X0172250Y0382875D01*
X0170375Y0381000D01*
X0156000Y0381000D01*
X0161625Y0366000D02*
X0136000Y0366000D01*
X0124750Y0354750D01*
X0103500Y0354750D01*
X0092250Y0366000D01*
X0075375Y0366000D01*
X0068500Y0366000D02*
X0059125Y0366000D01*
X0066000Y0371000D02*
X0071000Y0376000D01*
X0198500Y0376000D01*
X0199750Y0374750D01*
X0204125Y0379750D02*
X0194125Y0379750D01*
X0193500Y0379125D01*
X0176000Y0379125D01*
X0182250Y0387250D02*
X0120759Y0387250D01*
X0119509Y0386000D01*
X0119004Y0385496D01*
X0115134Y0381625D01*
X0106866Y0381625D02*
X0098500Y0381625D01*
X0099125Y0364750D02*
X0102875Y0361000D01*
X0106866Y0361000D01*
X0115134Y0361000D02*
X0120759Y0366000D01*
X0129125Y0366000D01*
X0128500Y0350375D02*
X0101000Y0350375D01*
X0099125Y0352250D01*
X0099125Y0352875D01*
X0095375Y0355375D02*
X0095375Y0337875D01*
X0100375Y0332875D01*
X0119750Y0332875D01*
X0122250Y0335375D01*
X0121625Y0329125D02*
X0092875Y0329125D01*
X0099125Y0342250D02*
X0100400Y0343525D01*
X0105892Y0343525D01*
X0116625Y0343500D02*
X0117275Y0343525D01*
X0123608Y0343525D01*
X0121625Y0329125D02*
X0138500Y0346000D01*
X0216000Y0346000D01*
X0217875Y0344125D01*
X0228500Y0346000D02*
X0246000Y0346000D01*
X0244750Y0336625D02*
X0237250Y0329125D01*
X0172250Y0328500D01*
X0165375Y0336000D01*
X0151000Y0326000D02*
X0156000Y0321000D01*
X0151000Y0316000D02*
X0141625Y0316000D01*
X0151000Y0316000D02*
X0156000Y0311000D01*
X0171625Y0308500D02*
X0174125Y0311000D01*
X0202250Y0311000D01*
X0204750Y0313500D01*
X0254125Y0313500D01*
X0256625Y0316000D01*
X0271000Y0316000D01*
X0276000Y0321000D01*
X0271000Y0326000D02*
X0257875Y0326000D01*
X0250375Y0318500D01*
X0205375Y0318500D01*
X0202875Y0321000D01*
X0199125Y0321000D01*
X0191625Y0313500D01*
X0198500Y0316000D02*
X0252250Y0316000D01*
X0257250Y0321000D01*
X0266000Y0321000D01*
X0271000Y0326000D02*
X0276000Y0331000D01*
X0266000Y0331000D02*
X0246000Y0331000D01*
X0244750Y0336625D02*
X0291000Y0336000D01*
X0294125Y0339125D01*
X0298500Y0343500D01*
X0321000Y0343500D01*
X0328500Y0351000D01*
X0313900Y0337250D02*
X0299750Y0337250D01*
X0297875Y0335375D01*
X0302250Y0331625D02*
X0302875Y0332250D01*
X0313900Y0332250D01*
X0313900Y0327250D02*
X0313275Y0326625D01*
X0294125Y0326625D01*
X0298500Y0311000D02*
X0276000Y0311000D01*
X0269750Y0306000D02*
X0302250Y0306000D01*
X0294750Y0299125D02*
X0277875Y0299125D01*
X0276000Y0301000D01*
X0269750Y0306000D02*
X0266000Y0302250D01*
X0266000Y0301000D01*
X0266000Y0311000D02*
X0208500Y0311000D01*
X0205375Y0307875D01*
X0179750Y0307875D01*
X0175375Y0303500D01*
X0175375Y0289125D01*
X0182250Y0296000D02*
X0182250Y0304125D01*
X0189750Y0296000D02*
X0207260Y0296000D01*
X0211010Y0299740D02*
X0211000Y0299750D01*
X0211010Y0299740D02*
X0214740Y0299740D01*
X0214740Y0292260D02*
X0236615Y0292260D01*
X0236625Y0292250D01*
X0244125Y0292250D02*
X0250375Y0292250D01*
X0246625Y0250375D02*
X0259750Y0237250D01*
X0283500Y0237250D01*
X0287250Y0241000D01*
X0294750Y0241000D01*
X0296000Y0239750D01*
X0293500Y0235375D02*
X0257250Y0235375D01*
X0245375Y0247250D01*
X0184750Y0247250D01*
X0172250Y0235375D01*
X0151625Y0235375D01*
X0146000Y0241000D01*
X0156000Y0241000D02*
X0171625Y0241000D01*
X0181625Y0250375D01*
X0246625Y0250375D01*
X0241000Y0240375D02*
X0246000Y0235375D01*
X0241000Y0240375D02*
X0192250Y0240375D01*
X0178500Y0226625D01*
X0161000Y0226625D01*
X0169125Y0246000D02*
X0131000Y0246000D01*
X0126000Y0241000D01*
X0088500Y0241000D01*
X0088500Y0233500D02*
X0066000Y0233500D01*
X0066000Y0241000D02*
X0062260Y0244740D01*
X0062260Y0252260D01*
X0069740Y0252260D02*
X0069740Y0251635D01*
X0077250Y0244125D01*
X0082250Y0252250D02*
X0088500Y0252250D01*
X0082250Y0252250D02*
X0074760Y0259740D01*
X0066000Y0259740D01*
X0062250Y0266000D02*
X0054750Y0258500D01*
X0054750Y0247250D01*
X0048500Y0240375D01*
X0026625Y0240375D01*
X0021000Y0246000D01*
X0062250Y0266000D02*
X0099125Y0266000D01*
X0109125Y0256000D01*
X0151000Y0256000D01*
X0156000Y0251000D01*
X0169125Y0246000D02*
X0179125Y0254750D01*
X0186000Y0254750D01*
X0197875Y0231625D02*
X0191625Y0225375D01*
X0191625Y0202250D01*
X0184125Y0194750D01*
X0198500Y0191000D02*
X0199125Y0191625D01*
X0246000Y0191625D01*
X0243500Y0194750D02*
X0248500Y0194750D01*
X0251625Y0191625D01*
X0268500Y0191625D01*
X0269750Y0192875D01*
X0332875Y0192875D01*
X0331517Y0184725D02*
X0332117Y0184125D01*
X0337875Y0184125D01*
X0331517Y0184725D02*
X0317983Y0184725D01*
X0317983Y0177358D01*
X0316625Y0176000D01*
X0312875Y0162875D02*
X0329750Y0146000D01*
X0357250Y0146000D01*
X0362250Y0141000D01*
X0376000Y0141000D01*
X0381000Y0146000D02*
X0362875Y0146000D01*
X0360375Y0148500D01*
X0334125Y0148500D01*
X0320375Y0162250D01*
X0326625Y0162875D02*
X0338500Y0151000D01*
X0376000Y0151000D01*
X0381000Y0156000D02*
X0339750Y0156000D01*
X0332875Y0162875D01*
X0349233Y0184725D02*
X0349233Y0188392D01*
X0342875Y0194750D01*
X0358500Y0199125D02*
X0299750Y0199125D01*
X0303500Y0206000D02*
X0361625Y0206000D01*
X0371625Y0196000D01*
X0376000Y0196000D01*
X0371625Y0191000D02*
X0381000Y0191000D01*
X0386000Y0186000D01*
X0376000Y0186000D02*
X0371625Y0186000D01*
X0358500Y0199125D01*
X0359750Y0202875D02*
X0312875Y0202875D01*
X0312875Y0209125D02*
X0362250Y0209125D01*
X0371000Y0201000D01*
X0382250Y0201000D01*
X0386000Y0197250D01*
X0386000Y0196000D01*
X0371625Y0191000D02*
X0359750Y0202875D01*
X0349233Y0216025D02*
X0342900Y0216025D01*
X0342875Y0216000D01*
X0337875Y0216000D02*
X0337850Y0216025D01*
X0331517Y0216025D01*
X0331600Y0216025D01*
X0331625Y0216000D01*
X0331517Y0216025D02*
X0317983Y0216025D01*
X0306000Y0216000D02*
X0305975Y0216025D01*
X0300267Y0216025D01*
X0301625Y0207875D02*
X0303500Y0206000D01*
X0292250Y0221625D02*
X0287875Y0226000D01*
X0248500Y0226000D01*
X0237875Y0237875D01*
X0212875Y0237875D01*
X0196000Y0221000D01*
X0196000Y0211000D02*
X0213500Y0193500D01*
X0242250Y0193500D01*
X0243500Y0194750D01*
X0245375Y0199750D02*
X0247875Y0202250D01*
X0254125Y0202250D01*
X0258500Y0195375D01*
X0266625Y0195375D01*
X0261625Y0201625D02*
X0280375Y0201625D01*
X0285375Y0212875D02*
X0282250Y0216000D01*
X0241000Y0216000D01*
X0236000Y0221000D01*
X0231000Y0216000D02*
X0231000Y0203500D01*
X0234750Y0199750D01*
X0245375Y0199750D01*
X0251625Y0197250D02*
X0225375Y0197250D01*
X0224750Y0196625D01*
X0216625Y0197250D02*
X0216625Y0199750D01*
X0211000Y0205375D01*
X0211000Y0230375D01*
X0215375Y0234750D01*
X0234125Y0234750D01*
X0239750Y0229125D01*
X0231000Y0216000D02*
X0226000Y0221000D01*
X0221000Y0216000D02*
X0221000Y0228500D01*
X0219750Y0229750D01*
X0221000Y0216000D02*
X0216000Y0211000D01*
X0236000Y0204750D02*
X0237250Y0206000D01*
X0252875Y0206000D01*
X0256000Y0209125D01*
X0256000Y0211000D01*
X0240375Y0188500D02*
X0271625Y0188500D01*
X0252875Y0174750D02*
X0223500Y0174750D01*
X0237516Y0155272D02*
X0240075Y0155272D01*
X0190075Y0155272D02*
X0187516Y0155272D01*
X0178500Y0128500D02*
X0177280Y0127280D01*
X0177280Y0126728D01*
X0178500Y0128500D02*
X0179839Y0127161D01*
X0179839Y0126728D01*
X0292516Y0155272D02*
X0295075Y0155272D01*
X0300267Y0184725D02*
X0305975Y0184725D01*
X0306000Y0184750D01*
X0338100Y0245375D02*
X0370375Y0245375D01*
X0376000Y0251000D01*
X0370375Y0265375D02*
X0351000Y0265375D01*
X0346000Y0260375D01*
X0338100Y0260375D01*
X0338100Y0265375D02*
X0342250Y0265375D01*
X0352875Y0276000D01*
X0371000Y0276000D01*
X0371000Y0296000D02*
X0351000Y0296000D01*
X0371000Y0296000D02*
X0371312Y0296313D01*
X0376000Y0301000D01*
X0326000Y0313500D02*
X0319750Y0307250D01*
X0302250Y0352875D02*
X0299125Y0356000D01*
X0151000Y0356000D01*
X0146000Y0351000D01*
X0174750Y0361000D02*
X0180375Y0366625D01*
X0297875Y0366625D01*
X0299750Y0364750D01*
X0299750Y0362250D01*
X0321000Y0386000D02*
X0323500Y0383500D01*
X0207875Y0376000D02*
X0204125Y0379750D01*
X0123608Y0312225D02*
X0117275Y0312225D01*
X0116625Y0312250D01*
X0105892Y0312225D02*
X0099150Y0312225D01*
X0099125Y0312250D01*
X0095375Y0355375D02*
X0089750Y0361000D01*
X0086000Y0361000D01*
X0088992Y0260242D02*
X0095242Y0260242D01*
X0095375Y0260375D01*
X0088992Y0260242D02*
X0088500Y0259750D01*
X0381000Y0156000D02*
X0386000Y0151000D01*
X0381000Y0146000D02*
X0386000Y0141000D01*
D42*
X0036000Y0093028D02*
X0034661Y0094366D01*
D43*
X0190075Y0141925D02*
X0191000Y0141000D01*
X0240075Y0141925D02*
X0241000Y0141000D01*
D44*
X0041000Y0219125D03*
X0034750Y0225375D03*
X0029125Y0231000D03*
M02*
