G75*
%MOIN*%
%OFA0B0*%
%FSLAX25Y25*%
%IPPOS*%
%LPD*%
%AMOC8*
5,1,8,0,0,1.08239X$1,22.5*
%
%ADD10C,0.00000*%
%ADD11C,0.00600*%
%ADD12C,0.00500*%
%ADD13C,0.00800*%
%ADD14C,0.00400*%
%ADD15R,0.09646X0.02657*%
%ADD16C,0.00200*%
%ADD17R,0.01181X0.00591*%
%ADD18R,0.01181X0.01181*%
%ADD19C,0.01000*%
D10*
X0001000Y0012811D02*
X0001000Y0382890D01*
X0001003Y0383175D01*
X0001014Y0383461D01*
X0001031Y0383746D01*
X0001055Y0384030D01*
X0001086Y0384314D01*
X0001124Y0384597D01*
X0001169Y0384878D01*
X0001220Y0385159D01*
X0001278Y0385439D01*
X0001343Y0385717D01*
X0001415Y0385993D01*
X0001493Y0386267D01*
X0001578Y0386540D01*
X0001670Y0386810D01*
X0001768Y0387078D01*
X0001872Y0387344D01*
X0001983Y0387607D01*
X0002100Y0387867D01*
X0002223Y0388125D01*
X0002353Y0388379D01*
X0002489Y0388630D01*
X0002630Y0388878D01*
X0002778Y0389122D01*
X0002931Y0389363D01*
X0003091Y0389599D01*
X0003256Y0389832D01*
X0003426Y0390061D01*
X0003602Y0390286D01*
X0003784Y0390506D01*
X0003970Y0390722D01*
X0004162Y0390933D01*
X0004359Y0391140D01*
X0004561Y0391342D01*
X0004768Y0391539D01*
X0004979Y0391731D01*
X0005195Y0391917D01*
X0005415Y0392099D01*
X0005640Y0392275D01*
X0005869Y0392445D01*
X0006102Y0392610D01*
X0006338Y0392770D01*
X0006579Y0392923D01*
X0006823Y0393071D01*
X0007071Y0393212D01*
X0007322Y0393348D01*
X0007576Y0393478D01*
X0007834Y0393601D01*
X0008094Y0393718D01*
X0008357Y0393829D01*
X0008623Y0393933D01*
X0008891Y0394031D01*
X0009161Y0394123D01*
X0009434Y0394208D01*
X0009708Y0394286D01*
X0009984Y0394358D01*
X0010262Y0394423D01*
X0010542Y0394481D01*
X0010823Y0394532D01*
X0011104Y0394577D01*
X0011387Y0394615D01*
X0011671Y0394646D01*
X0011955Y0394670D01*
X0012240Y0394687D01*
X0012526Y0394698D01*
X0012811Y0394701D01*
X0382890Y0394701D01*
X0383175Y0394698D01*
X0383461Y0394687D01*
X0383746Y0394670D01*
X0384030Y0394646D01*
X0384314Y0394615D01*
X0384597Y0394577D01*
X0384878Y0394532D01*
X0385159Y0394481D01*
X0385439Y0394423D01*
X0385717Y0394358D01*
X0385993Y0394286D01*
X0386267Y0394208D01*
X0386540Y0394123D01*
X0386810Y0394031D01*
X0387078Y0393933D01*
X0387344Y0393829D01*
X0387607Y0393718D01*
X0387867Y0393601D01*
X0388125Y0393478D01*
X0388379Y0393348D01*
X0388630Y0393212D01*
X0388878Y0393071D01*
X0389122Y0392923D01*
X0389363Y0392770D01*
X0389599Y0392610D01*
X0389832Y0392445D01*
X0390061Y0392275D01*
X0390286Y0392099D01*
X0390506Y0391917D01*
X0390722Y0391731D01*
X0390933Y0391539D01*
X0391140Y0391342D01*
X0391342Y0391140D01*
X0391539Y0390933D01*
X0391731Y0390722D01*
X0391917Y0390506D01*
X0392099Y0390286D01*
X0392275Y0390061D01*
X0392445Y0389832D01*
X0392610Y0389599D01*
X0392770Y0389363D01*
X0392923Y0389122D01*
X0393071Y0388878D01*
X0393212Y0388630D01*
X0393348Y0388379D01*
X0393478Y0388125D01*
X0393601Y0387867D01*
X0393718Y0387607D01*
X0393829Y0387344D01*
X0393933Y0387078D01*
X0394031Y0386810D01*
X0394123Y0386540D01*
X0394208Y0386267D01*
X0394286Y0385993D01*
X0394358Y0385717D01*
X0394423Y0385439D01*
X0394481Y0385159D01*
X0394532Y0384878D01*
X0394577Y0384597D01*
X0394615Y0384314D01*
X0394646Y0384030D01*
X0394670Y0383746D01*
X0394687Y0383461D01*
X0394698Y0383175D01*
X0394701Y0382890D01*
X0394701Y0012811D01*
X0394698Y0012526D01*
X0394687Y0012240D01*
X0394670Y0011955D01*
X0394646Y0011671D01*
X0394615Y0011387D01*
X0394577Y0011104D01*
X0394532Y0010823D01*
X0394481Y0010542D01*
X0394423Y0010262D01*
X0394358Y0009984D01*
X0394286Y0009708D01*
X0394208Y0009434D01*
X0394123Y0009161D01*
X0394031Y0008891D01*
X0393933Y0008623D01*
X0393829Y0008357D01*
X0393718Y0008094D01*
X0393601Y0007834D01*
X0393478Y0007576D01*
X0393348Y0007322D01*
X0393212Y0007071D01*
X0393071Y0006823D01*
X0392923Y0006579D01*
X0392770Y0006338D01*
X0392610Y0006102D01*
X0392445Y0005869D01*
X0392275Y0005640D01*
X0392099Y0005415D01*
X0391917Y0005195D01*
X0391731Y0004979D01*
X0391539Y0004768D01*
X0391342Y0004561D01*
X0391140Y0004359D01*
X0390933Y0004162D01*
X0390722Y0003970D01*
X0390506Y0003784D01*
X0390286Y0003602D01*
X0390061Y0003426D01*
X0389832Y0003256D01*
X0389599Y0003091D01*
X0389363Y0002931D01*
X0389122Y0002778D01*
X0388878Y0002630D01*
X0388630Y0002489D01*
X0388379Y0002353D01*
X0388125Y0002223D01*
X0387867Y0002100D01*
X0387607Y0001983D01*
X0387344Y0001872D01*
X0387078Y0001768D01*
X0386810Y0001670D01*
X0386540Y0001578D01*
X0386267Y0001493D01*
X0385993Y0001415D01*
X0385717Y0001343D01*
X0385439Y0001278D01*
X0385159Y0001220D01*
X0384878Y0001169D01*
X0384597Y0001124D01*
X0384314Y0001086D01*
X0384030Y0001055D01*
X0383746Y0001031D01*
X0383461Y0001014D01*
X0383175Y0001003D01*
X0382890Y0001000D01*
X0012811Y0001000D01*
X0012526Y0001003D01*
X0012240Y0001014D01*
X0011955Y0001031D01*
X0011671Y0001055D01*
X0011387Y0001086D01*
X0011104Y0001124D01*
X0010823Y0001169D01*
X0010542Y0001220D01*
X0010262Y0001278D01*
X0009984Y0001343D01*
X0009708Y0001415D01*
X0009434Y0001493D01*
X0009161Y0001578D01*
X0008891Y0001670D01*
X0008623Y0001768D01*
X0008357Y0001872D01*
X0008094Y0001983D01*
X0007834Y0002100D01*
X0007576Y0002223D01*
X0007322Y0002353D01*
X0007071Y0002489D01*
X0006823Y0002630D01*
X0006579Y0002778D01*
X0006338Y0002931D01*
X0006102Y0003091D01*
X0005869Y0003256D01*
X0005640Y0003426D01*
X0005415Y0003602D01*
X0005195Y0003784D01*
X0004979Y0003970D01*
X0004768Y0004162D01*
X0004561Y0004359D01*
X0004359Y0004561D01*
X0004162Y0004768D01*
X0003970Y0004979D01*
X0003784Y0005195D01*
X0003602Y0005415D01*
X0003426Y0005640D01*
X0003256Y0005869D01*
X0003091Y0006102D01*
X0002931Y0006338D01*
X0002778Y0006579D01*
X0002630Y0006823D01*
X0002489Y0007071D01*
X0002353Y0007322D01*
X0002223Y0007576D01*
X0002100Y0007834D01*
X0001983Y0008094D01*
X0001872Y0008357D01*
X0001768Y0008623D01*
X0001670Y0008891D01*
X0001578Y0009161D01*
X0001493Y0009434D01*
X0001415Y0009708D01*
X0001343Y0009984D01*
X0001278Y0010262D01*
X0001220Y0010542D01*
X0001169Y0010823D01*
X0001124Y0011104D01*
X0001086Y0011387D01*
X0001055Y0011671D01*
X0001031Y0011955D01*
X0001014Y0012240D01*
X0001003Y0012526D01*
X0001000Y0012811D01*
D11*
X0009997Y0013871D02*
X0009997Y0008934D01*
X0072528Y0011402D02*
X0077466Y0011402D01*
X0074997Y0008934D02*
X0074997Y0013871D01*
X0193800Y0095675D02*
X0193800Y0102080D01*
X0195935Y0099945D01*
X0198070Y0102080D01*
X0198070Y0095675D01*
X0200245Y0096743D02*
X0201313Y0095675D01*
X0203448Y0095675D01*
X0204516Y0096743D01*
X0204516Y0101013D01*
X0203448Y0102080D01*
X0201313Y0102080D01*
X0200245Y0101013D01*
X0200245Y0096743D01*
X0206691Y0102080D02*
X0210961Y0102080D01*
X0208826Y0102080D02*
X0208826Y0095675D01*
X0213136Y0096743D02*
X0213136Y0101013D01*
X0214204Y0102080D01*
X0216339Y0102080D01*
X0217407Y0101013D01*
X0217407Y0096743D01*
X0216339Y0095675D01*
X0214204Y0095675D01*
X0213136Y0096743D01*
X0219582Y0097810D02*
X0222785Y0097810D01*
X0223852Y0098878D01*
X0223852Y0101013D01*
X0222785Y0102080D01*
X0219582Y0102080D01*
X0219582Y0095675D01*
X0221717Y0097810D02*
X0223852Y0095675D01*
X0371000Y0093500D02*
X0371000Y0098500D01*
X0373500Y0101000D01*
X0388500Y0101000D01*
X0391000Y0098500D01*
X0391000Y0093500D01*
X0388500Y0091000D01*
X0373500Y0091000D01*
X0371000Y0088500D01*
X0371000Y0083500D01*
X0373500Y0081000D01*
X0388500Y0081000D01*
X0391000Y0078500D01*
X0391000Y0073500D01*
X0388500Y0071000D01*
X0373500Y0071000D01*
X0371000Y0068500D01*
X0371000Y0063500D01*
X0373500Y0061000D01*
X0388500Y0061000D01*
X0391000Y0058500D01*
X0391000Y0053500D01*
X0388500Y0051000D01*
X0391000Y0048500D01*
X0391000Y0043500D01*
X0388500Y0041000D01*
X0373500Y0041000D01*
X0371000Y0043500D01*
X0371000Y0048500D01*
X0373500Y0051000D01*
X0388500Y0051000D01*
X0388500Y0061000D02*
X0391000Y0063500D01*
X0391000Y0068500D01*
X0388500Y0071000D01*
X0388500Y0081000D02*
X0391000Y0083500D01*
X0391000Y0088500D01*
X0388500Y0091000D01*
X0388500Y0101000D02*
X0391000Y0103500D01*
X0391000Y0108500D01*
X0388500Y0111000D01*
X0373500Y0111000D01*
X0371000Y0108500D01*
X0371000Y0103500D01*
X0373500Y0101000D01*
X0371000Y0093500D02*
X0373500Y0091000D01*
X0373500Y0081000D02*
X0371000Y0078500D01*
X0371000Y0073500D01*
X0373500Y0071000D01*
X0373500Y0061000D02*
X0371000Y0058500D01*
X0371000Y0053500D01*
X0373500Y0051000D01*
X0373500Y0111000D02*
X0371000Y0113500D01*
X0371000Y0118500D01*
X0373500Y0121000D01*
X0388500Y0121000D01*
X0391000Y0118500D01*
X0391000Y0113500D01*
X0388500Y0111000D01*
X0388500Y0126000D02*
X0373500Y0126000D01*
X0371000Y0128500D01*
X0371000Y0133500D01*
X0373500Y0136000D01*
X0388500Y0136000D01*
X0391000Y0138500D01*
X0391000Y0143500D01*
X0388500Y0146000D01*
X0373500Y0146000D01*
X0371000Y0148500D01*
X0371000Y0153500D01*
X0373500Y0156000D01*
X0371000Y0158500D01*
X0371000Y0163500D01*
X0373500Y0166000D01*
X0388500Y0166000D01*
X0391000Y0163500D01*
X0391000Y0158500D01*
X0388500Y0156000D01*
X0373500Y0156000D01*
X0373500Y0146000D02*
X0371000Y0143500D01*
X0371000Y0138500D01*
X0373500Y0136000D01*
X0388500Y0136000D02*
X0391000Y0133500D01*
X0391000Y0128500D01*
X0388500Y0126000D01*
X0388500Y0146000D02*
X0391000Y0148500D01*
X0391000Y0153500D01*
X0388500Y0156000D01*
X0388500Y0171000D02*
X0373500Y0171000D01*
X0371000Y0173500D01*
X0371000Y0178500D01*
X0373500Y0181000D01*
X0388500Y0181000D01*
X0391000Y0183500D01*
X0391000Y0188500D01*
X0388500Y0191000D01*
X0373500Y0191000D01*
X0371000Y0193500D01*
X0371000Y0198500D01*
X0373500Y0201000D01*
X0371000Y0203500D01*
X0371000Y0208500D01*
X0373500Y0211000D01*
X0388500Y0211000D01*
X0391000Y0208500D01*
X0391000Y0203500D01*
X0388500Y0201000D01*
X0373500Y0201000D01*
X0373500Y0191000D02*
X0371000Y0188500D01*
X0371000Y0183500D01*
X0373500Y0181000D01*
X0388500Y0181000D02*
X0391000Y0178500D01*
X0391000Y0173500D01*
X0388500Y0171000D01*
X0388500Y0191000D02*
X0391000Y0193500D01*
X0391000Y0198500D01*
X0388500Y0201000D01*
X0388500Y0226000D02*
X0373500Y0226000D01*
X0371000Y0228500D01*
X0371000Y0233500D01*
X0373500Y0236000D01*
X0388500Y0236000D01*
X0391000Y0238500D01*
X0391000Y0243500D01*
X0388500Y0246000D01*
X0373500Y0246000D01*
X0371000Y0248500D01*
X0371000Y0253500D01*
X0373500Y0256000D01*
X0388500Y0256000D01*
X0391000Y0258500D01*
X0391000Y0263500D01*
X0388500Y0266000D01*
X0373500Y0266000D01*
X0371000Y0268500D01*
X0371000Y0273500D01*
X0373500Y0276000D01*
X0388500Y0276000D01*
X0391000Y0278500D01*
X0391000Y0283500D01*
X0388500Y0286000D01*
X0373500Y0286000D01*
X0371000Y0288500D01*
X0371000Y0293500D01*
X0373500Y0296000D01*
X0388500Y0296000D01*
X0391000Y0293500D01*
X0391000Y0288500D01*
X0388500Y0286000D01*
X0388500Y0296000D02*
X0391000Y0298500D01*
X0391000Y0303500D01*
X0388500Y0306000D01*
X0373500Y0306000D01*
X0371000Y0308500D01*
X0371000Y0313500D01*
X0373500Y0316000D01*
X0388500Y0316000D01*
X0391000Y0313500D01*
X0391000Y0308500D01*
X0388500Y0306000D01*
X0388500Y0316000D02*
X0391000Y0318500D01*
X0391000Y0323500D01*
X0388500Y0326000D01*
X0373500Y0326000D01*
X0371000Y0328500D01*
X0371000Y0333500D01*
X0373500Y0336000D01*
X0371000Y0338500D01*
X0371000Y0343500D01*
X0373500Y0346000D01*
X0388500Y0346000D01*
X0391000Y0343500D01*
X0391000Y0338500D01*
X0388500Y0336000D01*
X0373500Y0336000D01*
X0373500Y0326000D02*
X0371000Y0323500D01*
X0371000Y0318500D01*
X0373500Y0316000D01*
X0373500Y0306000D02*
X0371000Y0303500D01*
X0371000Y0298500D01*
X0373500Y0296000D01*
X0373500Y0286000D02*
X0371000Y0283500D01*
X0371000Y0278500D01*
X0373500Y0276000D01*
X0373500Y0266000D02*
X0371000Y0263500D01*
X0371000Y0258500D01*
X0373500Y0256000D01*
X0373500Y0246000D02*
X0371000Y0243500D01*
X0371000Y0238500D01*
X0373500Y0236000D01*
X0388500Y0236000D02*
X0391000Y0233500D01*
X0391000Y0228500D01*
X0388500Y0226000D01*
X0388500Y0246000D02*
X0391000Y0248500D01*
X0391000Y0253500D01*
X0388500Y0256000D01*
X0388500Y0266000D02*
X0391000Y0268500D01*
X0391000Y0273500D01*
X0388500Y0276000D01*
X0388500Y0326000D02*
X0391000Y0328500D01*
X0391000Y0333500D01*
X0388500Y0336000D01*
X0388500Y0351000D02*
X0373500Y0351000D01*
X0371000Y0353500D01*
X0371000Y0358500D01*
X0373500Y0361000D01*
X0388500Y0361000D01*
X0391000Y0358500D01*
X0391000Y0353500D01*
X0388500Y0351000D01*
X0388500Y0361000D02*
X0391000Y0363500D01*
X0391000Y0368500D01*
X0388500Y0371000D01*
X0373500Y0371000D01*
X0371000Y0368500D01*
X0371000Y0363500D01*
X0373500Y0361000D01*
X0373500Y0371000D02*
X0371000Y0373500D01*
X0371000Y0378500D01*
X0373500Y0381000D01*
X0388500Y0381000D01*
X0391000Y0378500D01*
X0391000Y0373500D01*
X0388500Y0371000D01*
X0388500Y0381000D02*
X0391000Y0383500D01*
X0391000Y0388500D01*
X0388500Y0391000D01*
X0373500Y0391000D01*
X0371000Y0388500D01*
X0371000Y0383500D01*
X0373500Y0381000D01*
X0332200Y0339750D02*
X0319800Y0339750D01*
X0319724Y0339748D01*
X0319648Y0339742D01*
X0319573Y0339733D01*
X0319498Y0339719D01*
X0319424Y0339702D01*
X0319351Y0339681D01*
X0319279Y0339657D01*
X0319208Y0339628D01*
X0319139Y0339597D01*
X0319072Y0339562D01*
X0319007Y0339523D01*
X0318943Y0339481D01*
X0318882Y0339436D01*
X0318823Y0339388D01*
X0318767Y0339337D01*
X0318713Y0339283D01*
X0318662Y0339227D01*
X0318614Y0339168D01*
X0318569Y0339107D01*
X0318527Y0339043D01*
X0318488Y0338978D01*
X0318453Y0338911D01*
X0318422Y0338842D01*
X0318393Y0338771D01*
X0318369Y0338699D01*
X0318348Y0338626D01*
X0318331Y0338552D01*
X0318317Y0338477D01*
X0318308Y0338402D01*
X0318302Y0338326D01*
X0318300Y0338250D01*
X0318300Y0301250D01*
X0318302Y0301174D01*
X0318308Y0301098D01*
X0318317Y0301023D01*
X0318331Y0300948D01*
X0318348Y0300874D01*
X0318369Y0300801D01*
X0318393Y0300729D01*
X0318422Y0300658D01*
X0318453Y0300589D01*
X0318488Y0300522D01*
X0318527Y0300457D01*
X0318569Y0300393D01*
X0318614Y0300332D01*
X0318662Y0300273D01*
X0318713Y0300217D01*
X0318767Y0300163D01*
X0318823Y0300112D01*
X0318882Y0300064D01*
X0318943Y0300019D01*
X0319007Y0299977D01*
X0319072Y0299938D01*
X0319139Y0299903D01*
X0319208Y0299872D01*
X0319279Y0299843D01*
X0319351Y0299819D01*
X0319424Y0299798D01*
X0319498Y0299781D01*
X0319573Y0299767D01*
X0319648Y0299758D01*
X0319724Y0299752D01*
X0319800Y0299750D01*
X0324000Y0299750D01*
X0328000Y0299750D01*
X0332200Y0299750D01*
X0332276Y0299752D01*
X0332352Y0299758D01*
X0332427Y0299767D01*
X0332502Y0299781D01*
X0332576Y0299798D01*
X0332649Y0299819D01*
X0332721Y0299843D01*
X0332792Y0299872D01*
X0332861Y0299903D01*
X0332928Y0299938D01*
X0332993Y0299977D01*
X0333057Y0300019D01*
X0333118Y0300064D01*
X0333177Y0300112D01*
X0333233Y0300163D01*
X0333287Y0300217D01*
X0333338Y0300273D01*
X0333386Y0300332D01*
X0333431Y0300393D01*
X0333473Y0300457D01*
X0333512Y0300522D01*
X0333547Y0300589D01*
X0333578Y0300658D01*
X0333607Y0300729D01*
X0333631Y0300801D01*
X0333652Y0300874D01*
X0333669Y0300948D01*
X0333683Y0301023D01*
X0333692Y0301098D01*
X0333698Y0301174D01*
X0333700Y0301250D01*
X0333700Y0338250D01*
X0333698Y0338326D01*
X0333692Y0338402D01*
X0333683Y0338477D01*
X0333669Y0338552D01*
X0333652Y0338626D01*
X0333631Y0338699D01*
X0333607Y0338771D01*
X0333578Y0338842D01*
X0333547Y0338911D01*
X0333512Y0338978D01*
X0333473Y0339043D01*
X0333431Y0339107D01*
X0333386Y0339168D01*
X0333338Y0339227D01*
X0333287Y0339283D01*
X0333233Y0339337D01*
X0333177Y0339388D01*
X0333118Y0339436D01*
X0333057Y0339481D01*
X0332993Y0339523D01*
X0332928Y0339562D01*
X0332861Y0339597D01*
X0332792Y0339628D01*
X0332721Y0339657D01*
X0332649Y0339681D01*
X0332576Y0339702D01*
X0332502Y0339719D01*
X0332427Y0339733D01*
X0332352Y0339742D01*
X0332276Y0339748D01*
X0332200Y0339750D01*
X0328000Y0299750D02*
X0327998Y0299838D01*
X0327992Y0299927D01*
X0327982Y0300015D01*
X0327969Y0300102D01*
X0327951Y0300189D01*
X0327930Y0300275D01*
X0327905Y0300360D01*
X0327876Y0300443D01*
X0327843Y0300526D01*
X0327807Y0300606D01*
X0327768Y0300685D01*
X0327725Y0300763D01*
X0327678Y0300838D01*
X0327628Y0300911D01*
X0327575Y0300982D01*
X0327519Y0301051D01*
X0327460Y0301117D01*
X0327398Y0301180D01*
X0327334Y0301240D01*
X0327267Y0301298D01*
X0327197Y0301352D01*
X0327125Y0301404D01*
X0327051Y0301452D01*
X0326974Y0301497D01*
X0326896Y0301538D01*
X0326816Y0301576D01*
X0326735Y0301610D01*
X0326652Y0301641D01*
X0326567Y0301668D01*
X0326482Y0301691D01*
X0326396Y0301710D01*
X0326308Y0301726D01*
X0326221Y0301738D01*
X0326133Y0301746D01*
X0326044Y0301750D01*
X0325956Y0301750D01*
X0325867Y0301746D01*
X0325779Y0301738D01*
X0325692Y0301726D01*
X0325604Y0301710D01*
X0325518Y0301691D01*
X0325433Y0301668D01*
X0325348Y0301641D01*
X0325265Y0301610D01*
X0325184Y0301576D01*
X0325104Y0301538D01*
X0325026Y0301497D01*
X0324949Y0301452D01*
X0324875Y0301404D01*
X0324803Y0301352D01*
X0324733Y0301298D01*
X0324666Y0301240D01*
X0324602Y0301180D01*
X0324540Y0301117D01*
X0324481Y0301051D01*
X0324425Y0300982D01*
X0324372Y0300911D01*
X0324322Y0300838D01*
X0324275Y0300763D01*
X0324232Y0300685D01*
X0324193Y0300606D01*
X0324157Y0300526D01*
X0324124Y0300443D01*
X0324095Y0300360D01*
X0324070Y0300275D01*
X0324049Y0300189D01*
X0324031Y0300102D01*
X0324018Y0300015D01*
X0324008Y0299927D01*
X0324002Y0299838D01*
X0324000Y0299750D01*
X0319800Y0282875D02*
X0332200Y0282875D01*
X0332276Y0282873D01*
X0332352Y0282867D01*
X0332427Y0282858D01*
X0332502Y0282844D01*
X0332576Y0282827D01*
X0332649Y0282806D01*
X0332721Y0282782D01*
X0332792Y0282753D01*
X0332861Y0282722D01*
X0332928Y0282687D01*
X0332993Y0282648D01*
X0333057Y0282606D01*
X0333118Y0282561D01*
X0333177Y0282513D01*
X0333233Y0282462D01*
X0333287Y0282408D01*
X0333338Y0282352D01*
X0333386Y0282293D01*
X0333431Y0282232D01*
X0333473Y0282168D01*
X0333512Y0282103D01*
X0333547Y0282036D01*
X0333578Y0281967D01*
X0333607Y0281896D01*
X0333631Y0281824D01*
X0333652Y0281751D01*
X0333669Y0281677D01*
X0333683Y0281602D01*
X0333692Y0281527D01*
X0333698Y0281451D01*
X0333700Y0281375D01*
X0333700Y0244375D01*
X0333698Y0244299D01*
X0333692Y0244223D01*
X0333683Y0244148D01*
X0333669Y0244073D01*
X0333652Y0243999D01*
X0333631Y0243926D01*
X0333607Y0243854D01*
X0333578Y0243783D01*
X0333547Y0243714D01*
X0333512Y0243647D01*
X0333473Y0243582D01*
X0333431Y0243518D01*
X0333386Y0243457D01*
X0333338Y0243398D01*
X0333287Y0243342D01*
X0333233Y0243288D01*
X0333177Y0243237D01*
X0333118Y0243189D01*
X0333057Y0243144D01*
X0332993Y0243102D01*
X0332928Y0243063D01*
X0332861Y0243028D01*
X0332792Y0242997D01*
X0332721Y0242968D01*
X0332649Y0242944D01*
X0332576Y0242923D01*
X0332502Y0242906D01*
X0332427Y0242892D01*
X0332352Y0242883D01*
X0332276Y0242877D01*
X0332200Y0242875D01*
X0328000Y0242875D01*
X0324000Y0242875D01*
X0319800Y0242875D01*
X0319724Y0242877D01*
X0319648Y0242883D01*
X0319573Y0242892D01*
X0319498Y0242906D01*
X0319424Y0242923D01*
X0319351Y0242944D01*
X0319279Y0242968D01*
X0319208Y0242997D01*
X0319139Y0243028D01*
X0319072Y0243063D01*
X0319007Y0243102D01*
X0318943Y0243144D01*
X0318882Y0243189D01*
X0318823Y0243237D01*
X0318767Y0243288D01*
X0318713Y0243342D01*
X0318662Y0243398D01*
X0318614Y0243457D01*
X0318569Y0243518D01*
X0318527Y0243582D01*
X0318488Y0243647D01*
X0318453Y0243714D01*
X0318422Y0243783D01*
X0318393Y0243854D01*
X0318369Y0243926D01*
X0318348Y0243999D01*
X0318331Y0244073D01*
X0318317Y0244148D01*
X0318308Y0244223D01*
X0318302Y0244299D01*
X0318300Y0244375D01*
X0318300Y0281375D01*
X0318302Y0281451D01*
X0318308Y0281527D01*
X0318317Y0281602D01*
X0318331Y0281677D01*
X0318348Y0281751D01*
X0318369Y0281824D01*
X0318393Y0281896D01*
X0318422Y0281967D01*
X0318453Y0282036D01*
X0318488Y0282103D01*
X0318527Y0282168D01*
X0318569Y0282232D01*
X0318614Y0282293D01*
X0318662Y0282352D01*
X0318713Y0282408D01*
X0318767Y0282462D01*
X0318823Y0282513D01*
X0318882Y0282561D01*
X0318943Y0282606D01*
X0319007Y0282648D01*
X0319072Y0282687D01*
X0319139Y0282722D01*
X0319208Y0282753D01*
X0319279Y0282782D01*
X0319351Y0282806D01*
X0319424Y0282827D01*
X0319498Y0282844D01*
X0319573Y0282858D01*
X0319648Y0282867D01*
X0319724Y0282873D01*
X0319800Y0282875D01*
X0324000Y0242875D02*
X0324002Y0242963D01*
X0324008Y0243052D01*
X0324018Y0243140D01*
X0324031Y0243227D01*
X0324049Y0243314D01*
X0324070Y0243400D01*
X0324095Y0243485D01*
X0324124Y0243568D01*
X0324157Y0243651D01*
X0324193Y0243731D01*
X0324232Y0243810D01*
X0324275Y0243888D01*
X0324322Y0243963D01*
X0324372Y0244036D01*
X0324425Y0244107D01*
X0324481Y0244176D01*
X0324540Y0244242D01*
X0324602Y0244305D01*
X0324666Y0244365D01*
X0324733Y0244423D01*
X0324803Y0244477D01*
X0324875Y0244529D01*
X0324949Y0244577D01*
X0325026Y0244622D01*
X0325104Y0244663D01*
X0325184Y0244701D01*
X0325265Y0244735D01*
X0325348Y0244766D01*
X0325433Y0244793D01*
X0325518Y0244816D01*
X0325604Y0244835D01*
X0325692Y0244851D01*
X0325779Y0244863D01*
X0325867Y0244871D01*
X0325956Y0244875D01*
X0326044Y0244875D01*
X0326133Y0244871D01*
X0326221Y0244863D01*
X0326308Y0244851D01*
X0326396Y0244835D01*
X0326482Y0244816D01*
X0326567Y0244793D01*
X0326652Y0244766D01*
X0326735Y0244735D01*
X0326816Y0244701D01*
X0326896Y0244663D01*
X0326974Y0244622D01*
X0327051Y0244577D01*
X0327125Y0244529D01*
X0327197Y0244477D01*
X0327267Y0244423D01*
X0327334Y0244365D01*
X0327398Y0244305D01*
X0327460Y0244242D01*
X0327519Y0244176D01*
X0327575Y0244107D01*
X0327628Y0244036D01*
X0327678Y0243963D01*
X0327725Y0243888D01*
X0327768Y0243810D01*
X0327807Y0243731D01*
X0327843Y0243651D01*
X0327876Y0243568D01*
X0327905Y0243485D01*
X0327930Y0243400D01*
X0327951Y0243314D01*
X0327969Y0243227D01*
X0327982Y0243140D01*
X0327992Y0243052D01*
X0327998Y0242963D01*
X0328000Y0242875D01*
X0091000Y0348500D02*
X0088500Y0346000D01*
X0083500Y0346000D01*
X0081000Y0348500D01*
X0081000Y0353500D01*
X0083500Y0356000D01*
X0081000Y0358500D01*
X0081000Y0363500D01*
X0083500Y0366000D01*
X0088500Y0366000D01*
X0091000Y0363500D01*
X0091000Y0358500D01*
X0088500Y0356000D01*
X0091000Y0353500D01*
X0091000Y0348500D01*
X0088500Y0356000D02*
X0083500Y0356000D01*
X0083500Y0366000D02*
X0081000Y0368500D01*
X0081000Y0373500D01*
X0083500Y0376000D01*
X0081000Y0378500D01*
X0081000Y0383500D01*
X0083500Y0386000D01*
X0088500Y0386000D01*
X0091000Y0383500D01*
X0091000Y0378500D01*
X0088500Y0376000D01*
X0091000Y0373500D01*
X0091000Y0368500D01*
X0088500Y0366000D01*
X0088500Y0376000D02*
X0083500Y0376000D01*
X0071000Y0373500D02*
X0071000Y0368500D01*
X0068500Y0366000D01*
X0053500Y0366000D01*
X0051000Y0368500D01*
X0051000Y0373500D01*
X0053500Y0376000D01*
X0051000Y0378500D01*
X0051000Y0383500D01*
X0053500Y0386000D01*
X0068500Y0386000D01*
X0071000Y0383500D01*
X0071000Y0378500D01*
X0068500Y0376000D01*
X0053500Y0376000D01*
X0053500Y0366000D02*
X0051000Y0363500D01*
X0051000Y0358500D01*
X0053500Y0356000D01*
X0068500Y0356000D01*
X0071000Y0358500D01*
X0071000Y0363500D01*
X0068500Y0366000D01*
X0071000Y0373500D02*
X0068500Y0376000D01*
X0046326Y0385050D02*
X0044191Y0385050D01*
X0045259Y0385050D02*
X0045259Y0391455D01*
X0046326Y0391455D02*
X0044191Y0391455D01*
X0042016Y0390388D02*
X0042016Y0388253D01*
X0040948Y0387185D01*
X0037745Y0387185D01*
X0037745Y0385050D02*
X0037745Y0391455D01*
X0040948Y0391455D01*
X0042016Y0390388D01*
X0035570Y0390388D02*
X0034503Y0391455D01*
X0032368Y0391455D01*
X0031300Y0390388D01*
X0031300Y0389320D01*
X0032368Y0388253D01*
X0034503Y0388253D01*
X0035570Y0387185D01*
X0035570Y0386118D01*
X0034503Y0385050D01*
X0032368Y0385050D01*
X0031300Y0386118D01*
X0026000Y0378500D02*
X0026000Y0373500D01*
X0023500Y0371000D01*
X0008500Y0371000D01*
X0006000Y0368500D01*
X0006000Y0363500D01*
X0008500Y0361000D01*
X0023500Y0361000D01*
X0026000Y0358500D01*
X0026000Y0353500D01*
X0023500Y0351000D01*
X0008500Y0351000D01*
X0006000Y0348500D01*
X0006000Y0343500D01*
X0008500Y0341000D01*
X0023500Y0341000D01*
X0026000Y0338500D01*
X0026000Y0333500D01*
X0023500Y0331000D01*
X0008500Y0331000D01*
X0006000Y0328500D01*
X0006000Y0323500D01*
X0008500Y0321000D01*
X0023500Y0321000D01*
X0026000Y0318500D01*
X0026000Y0313500D01*
X0023500Y0311000D01*
X0008500Y0311000D01*
X0006000Y0313500D01*
X0006000Y0318500D01*
X0008500Y0321000D01*
X0008500Y0331000D02*
X0006000Y0333500D01*
X0006000Y0338500D01*
X0008500Y0341000D01*
X0008500Y0351000D02*
X0006000Y0353500D01*
X0006000Y0358500D01*
X0008500Y0361000D01*
X0008500Y0371000D02*
X0006000Y0373500D01*
X0006000Y0378500D01*
X0008500Y0381000D01*
X0023500Y0381000D01*
X0026000Y0378500D01*
X0023500Y0371000D02*
X0026000Y0368500D01*
X0026000Y0363500D01*
X0023500Y0361000D01*
X0023500Y0351000D02*
X0026000Y0348500D01*
X0026000Y0343500D01*
X0023500Y0341000D01*
X0023500Y0331000D02*
X0026000Y0328500D01*
X0026000Y0323500D01*
X0023500Y0321000D01*
X0023500Y0311000D02*
X0026000Y0308500D01*
X0026000Y0303500D01*
X0023500Y0301000D01*
X0008500Y0301000D01*
X0006000Y0303500D01*
X0006000Y0308500D01*
X0008500Y0311000D01*
X0008500Y0301000D02*
X0006000Y0298500D01*
X0006000Y0293500D01*
X0008500Y0291000D01*
X0023500Y0291000D01*
X0026000Y0288500D01*
X0026000Y0283500D01*
X0023500Y0281000D01*
X0008500Y0281000D01*
X0006000Y0283500D01*
X0006000Y0288500D01*
X0008500Y0291000D01*
X0008500Y0281000D02*
X0006000Y0278500D01*
X0006000Y0273500D01*
X0008500Y0271000D01*
X0023500Y0271000D01*
X0026000Y0268500D01*
X0026000Y0263500D01*
X0023500Y0261000D01*
X0008500Y0261000D01*
X0006000Y0263500D01*
X0006000Y0268500D01*
X0008500Y0271000D01*
X0008500Y0261000D02*
X0006000Y0258500D01*
X0006000Y0253500D01*
X0008500Y0251000D01*
X0006000Y0248500D01*
X0006000Y0243500D01*
X0008500Y0241000D01*
X0023500Y0241000D01*
X0026000Y0243500D01*
X0026000Y0248500D01*
X0023500Y0251000D01*
X0008500Y0251000D01*
X0023500Y0251000D02*
X0026000Y0253500D01*
X0026000Y0258500D01*
X0023500Y0261000D01*
X0023500Y0271000D02*
X0026000Y0273500D01*
X0026000Y0278500D01*
X0023500Y0281000D01*
X0023500Y0291000D02*
X0026000Y0293500D01*
X0026000Y0298500D01*
X0023500Y0301000D01*
D12*
X0033000Y0297500D02*
X0033000Y0294500D01*
X0039000Y0294500D01*
X0039000Y0297500D01*
X0033000Y0297500D01*
X0033000Y0304500D02*
X0039000Y0304500D01*
X0039000Y0307500D01*
X0033000Y0307500D01*
X0033000Y0304500D01*
X0033000Y0314500D02*
X0039000Y0314500D01*
X0039000Y0317500D01*
X0033000Y0317500D01*
X0033000Y0314500D01*
X0033000Y0324500D02*
X0039000Y0324500D01*
X0039000Y0327500D01*
X0033000Y0327500D01*
X0033000Y0324500D01*
X0033000Y0334500D02*
X0039000Y0334500D01*
X0039000Y0337500D01*
X0033000Y0337500D01*
X0033000Y0334500D01*
X0033000Y0344500D02*
X0039000Y0344500D01*
X0039000Y0347500D01*
X0033000Y0347500D01*
X0033000Y0344500D01*
X0033000Y0354500D02*
X0039000Y0354500D01*
X0039000Y0357500D01*
X0033000Y0357500D01*
X0033000Y0354500D01*
X0033000Y0364500D02*
X0039000Y0364500D01*
X0039000Y0367500D01*
X0033000Y0367500D01*
X0033000Y0364500D01*
X0033000Y0374500D02*
X0039000Y0374500D01*
X0039000Y0377500D01*
X0033000Y0377500D01*
X0033000Y0374500D01*
X0019649Y0385000D02*
X0016646Y0385000D01*
X0018147Y0385000D02*
X0018147Y0389504D01*
X0016646Y0388003D01*
X0015045Y0388753D02*
X0015045Y0387252D01*
X0014294Y0386501D01*
X0012042Y0386501D01*
X0012042Y0385000D02*
X0012042Y0389504D01*
X0014294Y0389504D01*
X0015045Y0388753D01*
X0010441Y0389504D02*
X0008939Y0389504D01*
X0009690Y0389504D02*
X0009690Y0385751D01*
X0008939Y0385000D01*
X0008189Y0385000D01*
X0007438Y0385751D01*
X0050625Y0349501D02*
X0051376Y0348750D01*
X0052126Y0348750D01*
X0052877Y0349501D01*
X0052877Y0353254D01*
X0052126Y0353254D02*
X0053628Y0353254D01*
X0055229Y0353254D02*
X0057481Y0353254D01*
X0058231Y0352503D01*
X0058231Y0351002D01*
X0057481Y0350251D01*
X0055229Y0350251D01*
X0055229Y0348750D02*
X0055229Y0353254D01*
X0059833Y0351002D02*
X0062835Y0351002D01*
X0062085Y0353254D02*
X0059833Y0351002D01*
X0062085Y0348750D02*
X0062085Y0353254D01*
X0087113Y0342301D02*
X0087864Y0341550D01*
X0088614Y0341550D01*
X0089365Y0342301D01*
X0089365Y0346054D01*
X0088614Y0346054D02*
X0090116Y0346054D01*
X0091717Y0346054D02*
X0091717Y0341550D01*
X0091717Y0343051D02*
X0093969Y0343051D01*
X0094720Y0343802D01*
X0094720Y0345303D01*
X0093969Y0346054D01*
X0091717Y0346054D01*
X0096321Y0345303D02*
X0096321Y0344553D01*
X0097072Y0343802D01*
X0098573Y0343802D01*
X0099324Y0343051D01*
X0099324Y0342301D01*
X0098573Y0341550D01*
X0097072Y0341550D01*
X0096321Y0342301D01*
X0096321Y0343051D01*
X0097072Y0343802D01*
X0098573Y0343802D02*
X0099324Y0344553D01*
X0099324Y0345303D01*
X0098573Y0346054D01*
X0097072Y0346054D01*
X0096321Y0345303D01*
X0134031Y0392654D02*
X0287969Y0392654D01*
X0287969Y0199346D01*
X0134031Y0199346D01*
X0134031Y0392654D01*
X0166000Y0381000D02*
X0166000Y0366000D01*
X0186000Y0366000D01*
X0186000Y0381000D01*
X0166000Y0381000D01*
X0166000Y0356000D02*
X0166000Y0346000D01*
X0191000Y0346000D01*
X0191000Y0356000D01*
X0166000Y0356000D01*
X0211000Y0341000D02*
X0166000Y0296000D01*
X0211000Y0251000D01*
X0256000Y0296000D01*
X0211000Y0341000D01*
X0221000Y0371000D02*
X0221000Y0391000D01*
X0221000Y0371000D02*
X0246000Y0371000D01*
X0246000Y0391000D01*
X0311000Y0391000D02*
X0311000Y0381000D01*
X0311002Y0380860D01*
X0311008Y0380720D01*
X0311018Y0380580D01*
X0311031Y0380440D01*
X0311049Y0380301D01*
X0311071Y0380162D01*
X0311096Y0380025D01*
X0311125Y0379887D01*
X0311158Y0379751D01*
X0311195Y0379616D01*
X0311236Y0379482D01*
X0311281Y0379349D01*
X0311329Y0379217D01*
X0311381Y0379087D01*
X0311436Y0378958D01*
X0311495Y0378831D01*
X0311558Y0378705D01*
X0311624Y0378581D01*
X0311693Y0378460D01*
X0311766Y0378340D01*
X0311843Y0378222D01*
X0311922Y0378107D01*
X0312005Y0377993D01*
X0312091Y0377883D01*
X0312180Y0377774D01*
X0312272Y0377668D01*
X0312367Y0377565D01*
X0312464Y0377464D01*
X0312565Y0377367D01*
X0312668Y0377272D01*
X0312774Y0377180D01*
X0312883Y0377091D01*
X0312993Y0377005D01*
X0313107Y0376922D01*
X0313222Y0376843D01*
X0313340Y0376766D01*
X0313460Y0376693D01*
X0313581Y0376624D01*
X0313705Y0376558D01*
X0313831Y0376495D01*
X0313958Y0376436D01*
X0314087Y0376381D01*
X0314217Y0376329D01*
X0314349Y0376281D01*
X0314482Y0376236D01*
X0314616Y0376195D01*
X0314751Y0376158D01*
X0314887Y0376125D01*
X0315025Y0376096D01*
X0315162Y0376071D01*
X0315301Y0376049D01*
X0315440Y0376031D01*
X0315580Y0376018D01*
X0315720Y0376008D01*
X0315860Y0376002D01*
X0316000Y0376000D01*
X0331000Y0376000D01*
X0331140Y0376002D01*
X0331280Y0376008D01*
X0331420Y0376018D01*
X0331560Y0376031D01*
X0331699Y0376049D01*
X0331838Y0376071D01*
X0331975Y0376096D01*
X0332113Y0376125D01*
X0332249Y0376158D01*
X0332384Y0376195D01*
X0332518Y0376236D01*
X0332651Y0376281D01*
X0332783Y0376329D01*
X0332913Y0376381D01*
X0333042Y0376436D01*
X0333169Y0376495D01*
X0333295Y0376558D01*
X0333419Y0376624D01*
X0333540Y0376693D01*
X0333660Y0376766D01*
X0333778Y0376843D01*
X0333893Y0376922D01*
X0334007Y0377005D01*
X0334117Y0377091D01*
X0334226Y0377180D01*
X0334332Y0377272D01*
X0334435Y0377367D01*
X0334536Y0377464D01*
X0334633Y0377565D01*
X0334728Y0377668D01*
X0334820Y0377774D01*
X0334909Y0377883D01*
X0334995Y0377993D01*
X0335078Y0378107D01*
X0335157Y0378222D01*
X0335234Y0378340D01*
X0335307Y0378460D01*
X0335376Y0378581D01*
X0335442Y0378705D01*
X0335505Y0378831D01*
X0335564Y0378958D01*
X0335619Y0379087D01*
X0335671Y0379217D01*
X0335719Y0379349D01*
X0335764Y0379482D01*
X0335805Y0379616D01*
X0335842Y0379751D01*
X0335875Y0379887D01*
X0335904Y0380025D01*
X0335929Y0380162D01*
X0335951Y0380301D01*
X0335969Y0380440D01*
X0335982Y0380580D01*
X0335992Y0380720D01*
X0335998Y0380860D01*
X0336000Y0381000D01*
X0336000Y0391000D01*
X0356250Y0385751D02*
X0357001Y0385000D01*
X0357751Y0385000D01*
X0358502Y0385751D01*
X0358502Y0389504D01*
X0357751Y0389504D02*
X0359253Y0389504D01*
X0360854Y0389504D02*
X0360854Y0385000D01*
X0360854Y0386501D02*
X0363106Y0386501D01*
X0363856Y0387252D01*
X0363856Y0388753D01*
X0363106Y0389504D01*
X0360854Y0389504D01*
X0365458Y0388753D02*
X0366208Y0389504D01*
X0367710Y0389504D01*
X0368460Y0388753D01*
X0368460Y0388003D01*
X0367710Y0387252D01*
X0368460Y0386501D01*
X0368460Y0385751D01*
X0367710Y0385000D01*
X0366208Y0385000D01*
X0365458Y0385751D01*
X0366959Y0387252D02*
X0367710Y0387252D01*
X0364000Y0342500D02*
X0358000Y0342500D01*
X0358000Y0339500D01*
X0364000Y0339500D01*
X0364000Y0342500D01*
X0364000Y0332500D02*
X0358000Y0332500D01*
X0358000Y0329500D01*
X0364000Y0329500D01*
X0364000Y0332500D01*
X0364000Y0322500D02*
X0358000Y0322500D01*
X0358000Y0319500D01*
X0364000Y0319500D01*
X0364000Y0322500D01*
X0364000Y0312500D02*
X0358000Y0312500D01*
X0358000Y0309500D01*
X0364000Y0309500D01*
X0364000Y0312500D01*
X0364000Y0302500D02*
X0358000Y0302500D01*
X0358000Y0299500D01*
X0364000Y0299500D01*
X0364000Y0302500D01*
X0364000Y0292500D02*
X0358000Y0292500D01*
X0358000Y0289500D01*
X0364000Y0289500D01*
X0364000Y0292500D01*
X0364000Y0282500D02*
X0358000Y0282500D01*
X0358000Y0279500D01*
X0364000Y0279500D01*
X0364000Y0282500D01*
X0364000Y0272500D02*
X0358000Y0272500D01*
X0358000Y0269500D01*
X0364000Y0269500D01*
X0364000Y0272500D01*
X0364000Y0262500D02*
X0358000Y0262500D01*
X0358000Y0259500D01*
X0364000Y0259500D01*
X0364000Y0262500D01*
X0364000Y0252500D02*
X0358000Y0252500D01*
X0358000Y0249500D01*
X0364000Y0249500D01*
X0364000Y0252500D01*
X0364000Y0242500D02*
X0358000Y0242500D01*
X0358000Y0239500D01*
X0364000Y0239500D01*
X0364000Y0242500D01*
X0364000Y0232500D02*
X0358000Y0232500D01*
X0358000Y0229500D01*
X0364000Y0229500D01*
X0364000Y0232500D01*
X0364272Y0224504D02*
X0363521Y0223753D01*
X0364272Y0224504D02*
X0365773Y0224504D01*
X0366524Y0223753D01*
X0366524Y0223003D01*
X0363521Y0220000D01*
X0366524Y0220000D01*
X0361920Y0222252D02*
X0361169Y0221501D01*
X0358917Y0221501D01*
X0358917Y0220000D02*
X0358917Y0224504D01*
X0361169Y0224504D01*
X0361920Y0223753D01*
X0361920Y0222252D01*
X0357316Y0224504D02*
X0355814Y0224504D01*
X0356565Y0224504D02*
X0356565Y0220751D01*
X0355814Y0220000D01*
X0355064Y0220000D01*
X0354313Y0220751D01*
X0328773Y0233500D02*
X0328773Y0238004D01*
X0326521Y0235752D01*
X0329524Y0235752D01*
X0324920Y0237253D02*
X0324169Y0238004D01*
X0322668Y0238004D01*
X0321917Y0237253D01*
X0321917Y0234251D01*
X0322668Y0233500D01*
X0324169Y0233500D01*
X0324920Y0234251D01*
X0320349Y0233500D02*
X0318848Y0233500D01*
X0319598Y0233500D02*
X0319598Y0238004D01*
X0318848Y0238004D02*
X0320349Y0238004D01*
X0319724Y0289750D02*
X0318223Y0289750D01*
X0318973Y0289750D02*
X0318973Y0294254D01*
X0318223Y0294254D02*
X0319724Y0294254D01*
X0321292Y0293503D02*
X0321292Y0290501D01*
X0322043Y0289750D01*
X0323544Y0289750D01*
X0324295Y0290501D01*
X0325896Y0290501D02*
X0326647Y0289750D01*
X0328148Y0289750D01*
X0328899Y0290501D01*
X0328899Y0292002D01*
X0328148Y0292753D01*
X0327397Y0292753D01*
X0325896Y0292002D01*
X0325896Y0294254D01*
X0328899Y0294254D01*
X0324295Y0293503D02*
X0323544Y0294254D01*
X0322043Y0294254D01*
X0321292Y0293503D01*
X0244375Y0294750D02*
X0244375Y0289750D01*
X0236375Y0289750D01*
X0236375Y0294750D01*
X0244375Y0294750D01*
X0245000Y0269750D02*
X0237000Y0269750D01*
X0237000Y0264750D01*
X0245000Y0264750D01*
X0245000Y0269750D01*
X0214346Y0264504D02*
X0207654Y0264504D01*
X0207654Y0277496D01*
X0214346Y0277496D01*
X0214346Y0264504D01*
X0190000Y0268500D02*
X0182000Y0268500D01*
X0182000Y0273500D01*
X0190000Y0273500D01*
X0190000Y0268500D01*
X0207654Y0289504D02*
X0214346Y0289504D01*
X0214346Y0302496D01*
X0207654Y0302496D01*
X0207654Y0289504D01*
X0190000Y0293500D02*
X0182000Y0293500D01*
X0182000Y0298500D01*
X0190000Y0298500D01*
X0190000Y0293500D01*
X0091000Y0260000D02*
X0091000Y0252000D01*
X0086000Y0252000D01*
X0086000Y0260000D01*
X0091000Y0260000D01*
X0072496Y0259346D02*
X0072496Y0252654D01*
X0059504Y0252654D01*
X0059504Y0259346D01*
X0072496Y0259346D01*
X0068500Y0241250D02*
X0063500Y0241250D01*
X0063500Y0233250D01*
X0068500Y0233250D01*
X0068500Y0241250D01*
X0086000Y0241250D02*
X0086000Y0233250D01*
X0091000Y0233250D01*
X0091000Y0241250D01*
X0086000Y0241250D01*
X0039000Y0244500D02*
X0033000Y0244500D01*
X0033000Y0247500D01*
X0039000Y0247500D01*
X0039000Y0244500D01*
X0039000Y0254500D02*
X0033000Y0254500D01*
X0033000Y0257500D01*
X0039000Y0257500D01*
X0039000Y0254500D01*
X0039000Y0264500D02*
X0033000Y0264500D01*
X0033000Y0267500D01*
X0039000Y0267500D01*
X0039000Y0264500D01*
X0039000Y0274500D02*
X0033000Y0274500D01*
X0033000Y0277500D01*
X0039000Y0277500D01*
X0039000Y0274500D01*
X0039000Y0284500D02*
X0033000Y0284500D01*
X0033000Y0287500D01*
X0039000Y0287500D01*
X0039000Y0284500D01*
X0045000Y0292000D02*
X0049000Y0292000D01*
X0047000Y0294000D02*
X0047000Y0290000D01*
X0052378Y0291000D02*
X0052385Y0291580D01*
X0052406Y0292159D01*
X0052442Y0292738D01*
X0052492Y0293315D01*
X0052556Y0293892D01*
X0052634Y0294466D01*
X0052726Y0295038D01*
X0052832Y0295608D01*
X0052952Y0296176D01*
X0053086Y0296740D01*
X0053234Y0297300D01*
X0053395Y0297857D01*
X0053570Y0298410D01*
X0053759Y0298958D01*
X0053961Y0299501D01*
X0054176Y0300040D01*
X0054405Y0300573D01*
X0054646Y0301100D01*
X0054900Y0301621D01*
X0055167Y0302135D01*
X0055447Y0302643D01*
X0055739Y0303144D01*
X0056043Y0303638D01*
X0056359Y0304124D01*
X0056687Y0304602D01*
X0057027Y0305072D01*
X0057378Y0305533D01*
X0057740Y0305986D01*
X0058113Y0306429D01*
X0058497Y0306864D01*
X0058892Y0307288D01*
X0059297Y0307703D01*
X0059712Y0308108D01*
X0060136Y0308503D01*
X0060571Y0308887D01*
X0061014Y0309260D01*
X0061467Y0309622D01*
X0061928Y0309973D01*
X0062398Y0310313D01*
X0062876Y0310641D01*
X0063362Y0310957D01*
X0063856Y0311261D01*
X0064357Y0311553D01*
X0064865Y0311833D01*
X0065379Y0312100D01*
X0065900Y0312354D01*
X0066427Y0312595D01*
X0066960Y0312824D01*
X0067499Y0313039D01*
X0068042Y0313241D01*
X0068590Y0313430D01*
X0069143Y0313605D01*
X0069700Y0313766D01*
X0070260Y0313914D01*
X0070824Y0314048D01*
X0071392Y0314168D01*
X0071962Y0314274D01*
X0072534Y0314366D01*
X0073108Y0314444D01*
X0073685Y0314508D01*
X0074262Y0314558D01*
X0074841Y0314594D01*
X0075420Y0314615D01*
X0076000Y0314622D01*
X0076580Y0314615D01*
X0077159Y0314594D01*
X0077738Y0314558D01*
X0078315Y0314508D01*
X0078892Y0314444D01*
X0079466Y0314366D01*
X0080038Y0314274D01*
X0080608Y0314168D01*
X0081176Y0314048D01*
X0081740Y0313914D01*
X0082300Y0313766D01*
X0082857Y0313605D01*
X0083410Y0313430D01*
X0083958Y0313241D01*
X0084501Y0313039D01*
X0085040Y0312824D01*
X0085573Y0312595D01*
X0086100Y0312354D01*
X0086621Y0312100D01*
X0087135Y0311833D01*
X0087643Y0311553D01*
X0088144Y0311261D01*
X0088638Y0310957D01*
X0089124Y0310641D01*
X0089602Y0310313D01*
X0090072Y0309973D01*
X0090533Y0309622D01*
X0090986Y0309260D01*
X0091429Y0308887D01*
X0091864Y0308503D01*
X0092288Y0308108D01*
X0092703Y0307703D01*
X0093108Y0307288D01*
X0093503Y0306864D01*
X0093887Y0306429D01*
X0094260Y0305986D01*
X0094622Y0305533D01*
X0094973Y0305072D01*
X0095313Y0304602D01*
X0095641Y0304124D01*
X0095957Y0303638D01*
X0096261Y0303144D01*
X0096553Y0302643D01*
X0096833Y0302135D01*
X0097100Y0301621D01*
X0097354Y0301100D01*
X0097595Y0300573D01*
X0097824Y0300040D01*
X0098039Y0299501D01*
X0098241Y0298958D01*
X0098430Y0298410D01*
X0098605Y0297857D01*
X0098766Y0297300D01*
X0098914Y0296740D01*
X0099048Y0296176D01*
X0099168Y0295608D01*
X0099274Y0295038D01*
X0099366Y0294466D01*
X0099444Y0293892D01*
X0099508Y0293315D01*
X0099558Y0292738D01*
X0099594Y0292159D01*
X0099615Y0291580D01*
X0099622Y0291000D01*
X0099615Y0290420D01*
X0099594Y0289841D01*
X0099558Y0289262D01*
X0099508Y0288685D01*
X0099444Y0288108D01*
X0099366Y0287534D01*
X0099274Y0286962D01*
X0099168Y0286392D01*
X0099048Y0285824D01*
X0098914Y0285260D01*
X0098766Y0284700D01*
X0098605Y0284143D01*
X0098430Y0283590D01*
X0098241Y0283042D01*
X0098039Y0282499D01*
X0097824Y0281960D01*
X0097595Y0281427D01*
X0097354Y0280900D01*
X0097100Y0280379D01*
X0096833Y0279865D01*
X0096553Y0279357D01*
X0096261Y0278856D01*
X0095957Y0278362D01*
X0095641Y0277876D01*
X0095313Y0277398D01*
X0094973Y0276928D01*
X0094622Y0276467D01*
X0094260Y0276014D01*
X0093887Y0275571D01*
X0093503Y0275136D01*
X0093108Y0274712D01*
X0092703Y0274297D01*
X0092288Y0273892D01*
X0091864Y0273497D01*
X0091429Y0273113D01*
X0090986Y0272740D01*
X0090533Y0272378D01*
X0090072Y0272027D01*
X0089602Y0271687D01*
X0089124Y0271359D01*
X0088638Y0271043D01*
X0088144Y0270739D01*
X0087643Y0270447D01*
X0087135Y0270167D01*
X0086621Y0269900D01*
X0086100Y0269646D01*
X0085573Y0269405D01*
X0085040Y0269176D01*
X0084501Y0268961D01*
X0083958Y0268759D01*
X0083410Y0268570D01*
X0082857Y0268395D01*
X0082300Y0268234D01*
X0081740Y0268086D01*
X0081176Y0267952D01*
X0080608Y0267832D01*
X0080038Y0267726D01*
X0079466Y0267634D01*
X0078892Y0267556D01*
X0078315Y0267492D01*
X0077738Y0267442D01*
X0077159Y0267406D01*
X0076580Y0267385D01*
X0076000Y0267378D01*
X0075420Y0267385D01*
X0074841Y0267406D01*
X0074262Y0267442D01*
X0073685Y0267492D01*
X0073108Y0267556D01*
X0072534Y0267634D01*
X0071962Y0267726D01*
X0071392Y0267832D01*
X0070824Y0267952D01*
X0070260Y0268086D01*
X0069700Y0268234D01*
X0069143Y0268395D01*
X0068590Y0268570D01*
X0068042Y0268759D01*
X0067499Y0268961D01*
X0066960Y0269176D01*
X0066427Y0269405D01*
X0065900Y0269646D01*
X0065379Y0269900D01*
X0064865Y0270167D01*
X0064357Y0270447D01*
X0063856Y0270739D01*
X0063362Y0271043D01*
X0062876Y0271359D01*
X0062398Y0271687D01*
X0061928Y0272027D01*
X0061467Y0272378D01*
X0061014Y0272740D01*
X0060571Y0273113D01*
X0060136Y0273497D01*
X0059712Y0273892D01*
X0059297Y0274297D01*
X0058892Y0274712D01*
X0058497Y0275136D01*
X0058113Y0275571D01*
X0057740Y0276014D01*
X0057378Y0276467D01*
X0057027Y0276928D01*
X0056687Y0277398D01*
X0056359Y0277876D01*
X0056043Y0278362D01*
X0055739Y0278856D01*
X0055447Y0279357D01*
X0055167Y0279865D01*
X0054900Y0280379D01*
X0054646Y0280900D01*
X0054405Y0281427D01*
X0054176Y0281960D01*
X0053961Y0282499D01*
X0053759Y0283042D01*
X0053570Y0283590D01*
X0053395Y0284143D01*
X0053234Y0284700D01*
X0053086Y0285260D01*
X0052952Y0285824D01*
X0052832Y0286392D01*
X0052726Y0286962D01*
X0052634Y0287534D01*
X0052556Y0288108D01*
X0052492Y0288685D01*
X0052442Y0289262D01*
X0052406Y0289841D01*
X0052385Y0290420D01*
X0052378Y0291000D01*
X0154194Y0120020D02*
X0154194Y0116262D01*
X0154946Y0115510D01*
X0156449Y0115510D01*
X0157200Y0116262D01*
X0157200Y0120020D01*
X0158803Y0118517D02*
X0160306Y0120020D01*
X0160306Y0115510D01*
X0158803Y0115510D02*
X0161810Y0115510D01*
X0165213Y0087929D02*
X0145528Y0087929D01*
X0145528Y0002102D01*
X0165213Y0002102D01*
X0165213Y0087929D01*
X0184898Y0087929D01*
X0184898Y0002102D01*
X0204583Y0002102D01*
X0204583Y0087929D01*
X0184898Y0087929D01*
X0204583Y0087929D02*
X0224268Y0087929D01*
X0224268Y0002102D01*
X0243953Y0002102D01*
X0243953Y0087929D01*
X0224268Y0087929D01*
X0243953Y0087929D02*
X0263638Y0087929D01*
X0263638Y0002102D01*
X0283323Y0002102D01*
X0283323Y0087929D01*
X0263638Y0087929D01*
X0283323Y0087929D02*
X0303008Y0087929D01*
X0303008Y0002102D01*
X0322693Y0002102D01*
X0322693Y0087929D01*
X0303008Y0087929D01*
X0322693Y0087929D02*
X0343953Y0087929D01*
X0343953Y0002102D01*
X0322693Y0002102D01*
X0303008Y0002102D02*
X0283323Y0002102D01*
X0263638Y0002102D02*
X0243953Y0002102D01*
X0224268Y0002102D02*
X0204583Y0002102D01*
X0184898Y0002102D02*
X0165213Y0002102D01*
X0145528Y0002102D02*
X0125843Y0002102D01*
X0125843Y0087929D01*
X0107732Y0087929D01*
X0103402Y0087929D01*
X0103402Y0002102D01*
X0107732Y0002102D01*
X0107732Y0087929D01*
X0125843Y0087929D02*
X0145528Y0087929D01*
X0207838Y0117110D02*
X0208589Y0116359D01*
X0210092Y0116359D01*
X0210844Y0117110D01*
X0210844Y0120868D01*
X0212447Y0120868D02*
X0212447Y0118614D01*
X0213950Y0119365D01*
X0214702Y0119365D01*
X0215453Y0118614D01*
X0215453Y0117110D01*
X0214702Y0116359D01*
X0213198Y0116359D01*
X0212447Y0117110D01*
X0212447Y0120868D02*
X0215453Y0120868D01*
X0207838Y0120868D02*
X0207838Y0117110D01*
X0264088Y0118368D02*
X0264088Y0114610D01*
X0264839Y0113859D01*
X0266342Y0113859D01*
X0267094Y0114610D01*
X0267094Y0118368D01*
X0268697Y0116114D02*
X0270952Y0116114D01*
X0271703Y0115362D01*
X0271703Y0114610D01*
X0270952Y0113859D01*
X0269448Y0113859D01*
X0268697Y0114610D01*
X0268697Y0116114D01*
X0270200Y0117617D01*
X0271703Y0118368D01*
X0352000Y0118500D02*
X0352000Y0113500D01*
X0360000Y0113500D01*
X0360000Y0118500D01*
X0352000Y0118500D01*
X0357751Y0107629D02*
X0359253Y0107629D01*
X0358502Y0107629D02*
X0358502Y0103876D01*
X0357751Y0103125D01*
X0357001Y0103125D01*
X0356250Y0103876D01*
X0360854Y0104626D02*
X0363106Y0104626D01*
X0363856Y0105377D01*
X0363856Y0106878D01*
X0363106Y0107629D01*
X0360854Y0107629D01*
X0360854Y0103125D01*
X0365458Y0103125D02*
X0365458Y0103876D01*
X0368460Y0106878D01*
X0368460Y0107629D01*
X0365458Y0107629D01*
X0364958Y0162500D02*
X0364208Y0163251D01*
X0364958Y0162500D02*
X0366460Y0162500D01*
X0367210Y0163251D01*
X0367210Y0164752D01*
X0366460Y0165503D01*
X0365709Y0165503D01*
X0364208Y0164752D01*
X0364208Y0167004D01*
X0367210Y0167004D01*
X0365835Y0170000D02*
X0366585Y0170751D01*
X0366585Y0171501D01*
X0365835Y0172252D01*
X0363583Y0172252D01*
X0363583Y0170751D01*
X0364333Y0170000D01*
X0365835Y0170000D01*
X0363583Y0172252D02*
X0365084Y0173753D01*
X0366585Y0174504D01*
X0361981Y0173753D02*
X0361981Y0172252D01*
X0361231Y0171501D01*
X0358979Y0171501D01*
X0358979Y0170000D02*
X0358979Y0174504D01*
X0361231Y0174504D01*
X0361981Y0173753D01*
X0357378Y0174504D02*
X0355876Y0174504D01*
X0356627Y0174504D02*
X0356627Y0170751D01*
X0355876Y0170000D01*
X0355126Y0170000D01*
X0354375Y0170751D01*
X0356501Y0167004D02*
X0358003Y0167004D01*
X0357252Y0167004D02*
X0357252Y0163251D01*
X0356501Y0162500D01*
X0355751Y0162500D01*
X0355000Y0163251D01*
X0359604Y0164001D02*
X0361856Y0164001D01*
X0362606Y0164752D01*
X0362606Y0166253D01*
X0361856Y0167004D01*
X0359604Y0167004D01*
X0359604Y0162500D01*
X0125843Y0002102D02*
X0107732Y0002102D01*
D13*
X0086118Y0096965D02*
X0086118Y0105075D01*
X0075882Y0105075D02*
X0075882Y0096965D01*
X0068618Y0096965D02*
X0068618Y0105075D01*
X0058382Y0105075D02*
X0058382Y0096965D01*
X0054169Y0128067D02*
X0051610Y0128067D01*
X0048067Y0131610D01*
X0048067Y0148933D01*
X0054169Y0148933D01*
X0062831Y0148933D02*
X0068933Y0148933D01*
X0068933Y0131610D01*
X0065390Y0128067D01*
X0062831Y0128067D01*
X0062240Y0129839D02*
X0062451Y0129933D01*
X0062659Y0130032D01*
X0062866Y0130137D01*
X0063069Y0130246D01*
X0063270Y0130361D01*
X0063468Y0130480D01*
X0063663Y0130604D01*
X0063854Y0130733D01*
X0064043Y0130866D01*
X0064228Y0131004D01*
X0064410Y0131147D01*
X0064588Y0131294D01*
X0064763Y0131445D01*
X0064934Y0131600D01*
X0065101Y0131760D01*
X0065264Y0131923D01*
X0065423Y0132091D01*
X0065578Y0132262D01*
X0065728Y0132438D01*
X0065875Y0132616D01*
X0066016Y0132799D01*
X0066154Y0132985D01*
X0066286Y0133174D01*
X0066415Y0133366D01*
X0066538Y0133561D01*
X0066656Y0133759D01*
X0066770Y0133961D01*
X0066879Y0134164D01*
X0066982Y0134371D01*
X0067081Y0134580D01*
X0067174Y0134791D01*
X0067263Y0135005D01*
X0067346Y0135220D01*
X0067423Y0135438D01*
X0067495Y0135657D01*
X0067562Y0135878D01*
X0067624Y0136101D01*
X0067680Y0136325D01*
X0067730Y0136551D01*
X0067775Y0136777D01*
X0067815Y0137005D01*
X0067849Y0137233D01*
X0067877Y0137463D01*
X0067899Y0137692D01*
X0067916Y0137923D01*
X0067928Y0138154D01*
X0067933Y0138384D01*
X0067933Y0138616D01*
X0067928Y0138846D01*
X0067916Y0139077D01*
X0067899Y0139308D01*
X0067877Y0139537D01*
X0067849Y0139767D01*
X0067815Y0139995D01*
X0067775Y0140223D01*
X0067730Y0140449D01*
X0067680Y0140675D01*
X0067624Y0140899D01*
X0067562Y0141122D01*
X0067495Y0141343D01*
X0067423Y0141562D01*
X0067346Y0141780D01*
X0067263Y0141995D01*
X0067174Y0142209D01*
X0067081Y0142420D01*
X0066982Y0142629D01*
X0066879Y0142836D01*
X0066770Y0143039D01*
X0066656Y0143241D01*
X0066538Y0143439D01*
X0066415Y0143634D01*
X0066286Y0143826D01*
X0066154Y0144015D01*
X0066016Y0144201D01*
X0065875Y0144384D01*
X0065728Y0144562D01*
X0065578Y0144738D01*
X0065423Y0144909D01*
X0065264Y0145077D01*
X0065101Y0145240D01*
X0064934Y0145400D01*
X0064763Y0145555D01*
X0064588Y0145706D01*
X0064410Y0145853D01*
X0064228Y0145996D01*
X0064043Y0146134D01*
X0063854Y0146267D01*
X0063663Y0146396D01*
X0063468Y0146520D01*
X0063270Y0146639D01*
X0063069Y0146754D01*
X0062866Y0146863D01*
X0062659Y0146968D01*
X0062451Y0147067D01*
X0062240Y0147161D01*
X0054760Y0147161D02*
X0054549Y0147067D01*
X0054341Y0146968D01*
X0054134Y0146863D01*
X0053931Y0146754D01*
X0053730Y0146639D01*
X0053532Y0146520D01*
X0053337Y0146396D01*
X0053146Y0146267D01*
X0052957Y0146134D01*
X0052772Y0145996D01*
X0052590Y0145853D01*
X0052412Y0145706D01*
X0052237Y0145555D01*
X0052066Y0145400D01*
X0051899Y0145240D01*
X0051736Y0145077D01*
X0051577Y0144909D01*
X0051422Y0144738D01*
X0051272Y0144562D01*
X0051125Y0144384D01*
X0050984Y0144201D01*
X0050846Y0144015D01*
X0050714Y0143826D01*
X0050585Y0143634D01*
X0050462Y0143439D01*
X0050344Y0143241D01*
X0050230Y0143039D01*
X0050121Y0142836D01*
X0050018Y0142629D01*
X0049919Y0142420D01*
X0049826Y0142209D01*
X0049737Y0141995D01*
X0049654Y0141780D01*
X0049577Y0141562D01*
X0049505Y0141343D01*
X0049438Y0141122D01*
X0049376Y0140899D01*
X0049320Y0140675D01*
X0049270Y0140449D01*
X0049225Y0140223D01*
X0049185Y0139995D01*
X0049151Y0139767D01*
X0049123Y0139537D01*
X0049101Y0139308D01*
X0049084Y0139077D01*
X0049072Y0138846D01*
X0049067Y0138616D01*
X0049067Y0138384D01*
X0049072Y0138154D01*
X0049084Y0137923D01*
X0049101Y0137692D01*
X0049123Y0137463D01*
X0049151Y0137233D01*
X0049185Y0137005D01*
X0049225Y0136777D01*
X0049270Y0136551D01*
X0049320Y0136325D01*
X0049376Y0136101D01*
X0049438Y0135878D01*
X0049505Y0135657D01*
X0049577Y0135438D01*
X0049654Y0135220D01*
X0049737Y0135005D01*
X0049826Y0134791D01*
X0049919Y0134580D01*
X0050018Y0134371D01*
X0050121Y0134164D01*
X0050230Y0133961D01*
X0050344Y0133759D01*
X0050462Y0133561D01*
X0050585Y0133366D01*
X0050714Y0133174D01*
X0050846Y0132985D01*
X0050984Y0132799D01*
X0051125Y0132616D01*
X0051272Y0132438D01*
X0051422Y0132262D01*
X0051577Y0132091D01*
X0051736Y0131923D01*
X0051899Y0131760D01*
X0052066Y0131600D01*
X0052237Y0131445D01*
X0052412Y0131294D01*
X0052590Y0131147D01*
X0052772Y0131004D01*
X0052957Y0130866D01*
X0053146Y0130733D01*
X0053337Y0130604D01*
X0053532Y0130480D01*
X0053730Y0130361D01*
X0053931Y0130246D01*
X0054134Y0130137D01*
X0054341Y0130032D01*
X0054549Y0129933D01*
X0054760Y0129839D01*
X0041433Y0131610D02*
X0037890Y0128067D01*
X0035331Y0128067D01*
X0041433Y0131610D02*
X0041433Y0148933D01*
X0035331Y0148933D01*
X0026669Y0148933D02*
X0020567Y0148933D01*
X0020567Y0131610D01*
X0024110Y0128067D01*
X0026669Y0128067D01*
X0034740Y0129839D02*
X0034951Y0129933D01*
X0035159Y0130032D01*
X0035366Y0130137D01*
X0035569Y0130246D01*
X0035770Y0130361D01*
X0035968Y0130480D01*
X0036163Y0130604D01*
X0036354Y0130733D01*
X0036543Y0130866D01*
X0036728Y0131004D01*
X0036910Y0131147D01*
X0037088Y0131294D01*
X0037263Y0131445D01*
X0037434Y0131600D01*
X0037601Y0131760D01*
X0037764Y0131923D01*
X0037923Y0132091D01*
X0038078Y0132262D01*
X0038228Y0132438D01*
X0038375Y0132616D01*
X0038516Y0132799D01*
X0038654Y0132985D01*
X0038786Y0133174D01*
X0038915Y0133366D01*
X0039038Y0133561D01*
X0039156Y0133759D01*
X0039270Y0133961D01*
X0039379Y0134164D01*
X0039482Y0134371D01*
X0039581Y0134580D01*
X0039674Y0134791D01*
X0039763Y0135005D01*
X0039846Y0135220D01*
X0039923Y0135438D01*
X0039995Y0135657D01*
X0040062Y0135878D01*
X0040124Y0136101D01*
X0040180Y0136325D01*
X0040230Y0136551D01*
X0040275Y0136777D01*
X0040315Y0137005D01*
X0040349Y0137233D01*
X0040377Y0137463D01*
X0040399Y0137692D01*
X0040416Y0137923D01*
X0040428Y0138154D01*
X0040433Y0138384D01*
X0040433Y0138616D01*
X0040428Y0138846D01*
X0040416Y0139077D01*
X0040399Y0139308D01*
X0040377Y0139537D01*
X0040349Y0139767D01*
X0040315Y0139995D01*
X0040275Y0140223D01*
X0040230Y0140449D01*
X0040180Y0140675D01*
X0040124Y0140899D01*
X0040062Y0141122D01*
X0039995Y0141343D01*
X0039923Y0141562D01*
X0039846Y0141780D01*
X0039763Y0141995D01*
X0039674Y0142209D01*
X0039581Y0142420D01*
X0039482Y0142629D01*
X0039379Y0142836D01*
X0039270Y0143039D01*
X0039156Y0143241D01*
X0039038Y0143439D01*
X0038915Y0143634D01*
X0038786Y0143826D01*
X0038654Y0144015D01*
X0038516Y0144201D01*
X0038375Y0144384D01*
X0038228Y0144562D01*
X0038078Y0144738D01*
X0037923Y0144909D01*
X0037764Y0145077D01*
X0037601Y0145240D01*
X0037434Y0145400D01*
X0037263Y0145555D01*
X0037088Y0145706D01*
X0036910Y0145853D01*
X0036728Y0145996D01*
X0036543Y0146134D01*
X0036354Y0146267D01*
X0036163Y0146396D01*
X0035968Y0146520D01*
X0035770Y0146639D01*
X0035569Y0146754D01*
X0035366Y0146863D01*
X0035159Y0146968D01*
X0034951Y0147067D01*
X0034740Y0147161D01*
X0027260Y0147161D02*
X0027049Y0147067D01*
X0026841Y0146968D01*
X0026634Y0146863D01*
X0026431Y0146754D01*
X0026230Y0146639D01*
X0026032Y0146520D01*
X0025837Y0146396D01*
X0025646Y0146267D01*
X0025457Y0146134D01*
X0025272Y0145996D01*
X0025090Y0145853D01*
X0024912Y0145706D01*
X0024737Y0145555D01*
X0024566Y0145400D01*
X0024399Y0145240D01*
X0024236Y0145077D01*
X0024077Y0144909D01*
X0023922Y0144738D01*
X0023772Y0144562D01*
X0023625Y0144384D01*
X0023484Y0144201D01*
X0023346Y0144015D01*
X0023214Y0143826D01*
X0023085Y0143634D01*
X0022962Y0143439D01*
X0022844Y0143241D01*
X0022730Y0143039D01*
X0022621Y0142836D01*
X0022518Y0142629D01*
X0022419Y0142420D01*
X0022326Y0142209D01*
X0022237Y0141995D01*
X0022154Y0141780D01*
X0022077Y0141562D01*
X0022005Y0141343D01*
X0021938Y0141122D01*
X0021876Y0140899D01*
X0021820Y0140675D01*
X0021770Y0140449D01*
X0021725Y0140223D01*
X0021685Y0139995D01*
X0021651Y0139767D01*
X0021623Y0139537D01*
X0021601Y0139308D01*
X0021584Y0139077D01*
X0021572Y0138846D01*
X0021567Y0138616D01*
X0021567Y0138384D01*
X0021572Y0138154D01*
X0021584Y0137923D01*
X0021601Y0137692D01*
X0021623Y0137463D01*
X0021651Y0137233D01*
X0021685Y0137005D01*
X0021725Y0136777D01*
X0021770Y0136551D01*
X0021820Y0136325D01*
X0021876Y0136101D01*
X0021938Y0135878D01*
X0022005Y0135657D01*
X0022077Y0135438D01*
X0022154Y0135220D01*
X0022237Y0135005D01*
X0022326Y0134791D01*
X0022419Y0134580D01*
X0022518Y0134371D01*
X0022621Y0134164D01*
X0022730Y0133961D01*
X0022844Y0133759D01*
X0022962Y0133561D01*
X0023085Y0133366D01*
X0023214Y0133174D01*
X0023346Y0132985D01*
X0023484Y0132799D01*
X0023625Y0132616D01*
X0023772Y0132438D01*
X0023922Y0132262D01*
X0024077Y0132091D01*
X0024236Y0131923D01*
X0024399Y0131760D01*
X0024566Y0131600D01*
X0024737Y0131445D01*
X0024912Y0131294D01*
X0025090Y0131147D01*
X0025272Y0131004D01*
X0025457Y0130866D01*
X0025646Y0130733D01*
X0025837Y0130604D01*
X0026032Y0130480D01*
X0026230Y0130361D01*
X0026431Y0130246D01*
X0026634Y0130137D01*
X0026841Y0130032D01*
X0027049Y0129933D01*
X0027260Y0129839D01*
X0021118Y0105075D02*
X0021118Y0096965D01*
X0010882Y0096965D02*
X0010882Y0105075D01*
X0030250Y0163100D02*
X0030250Y0188900D01*
X0044250Y0188900D01*
X0044250Y0163100D01*
X0030250Y0163100D01*
X0040449Y0198008D02*
X0018008Y0198008D01*
X0018008Y0206669D01*
X0018008Y0215331D02*
X0018008Y0223992D01*
X0040449Y0223992D01*
X0043992Y0220449D01*
X0043992Y0215331D01*
X0043992Y0206669D02*
X0043992Y0201551D01*
X0040449Y0198008D01*
X0042614Y0207260D02*
X0042520Y0206979D01*
X0042418Y0206700D01*
X0042310Y0206424D01*
X0042195Y0206151D01*
X0042074Y0205880D01*
X0041946Y0205613D01*
X0041811Y0205348D01*
X0041670Y0205087D01*
X0041523Y0204830D01*
X0041370Y0204576D01*
X0041210Y0204326D01*
X0041045Y0204080D01*
X0040873Y0203838D01*
X0040696Y0203601D01*
X0040513Y0203367D01*
X0040324Y0203139D01*
X0040129Y0202914D01*
X0039930Y0202695D01*
X0039725Y0202481D01*
X0039515Y0202272D01*
X0039300Y0202068D01*
X0039079Y0201869D01*
X0038855Y0201675D01*
X0038625Y0201488D01*
X0038391Y0201305D01*
X0038153Y0201129D01*
X0037910Y0200958D01*
X0037664Y0200794D01*
X0037413Y0200635D01*
X0037159Y0200483D01*
X0036900Y0200337D01*
X0036639Y0200197D01*
X0036374Y0200063D01*
X0036106Y0199936D01*
X0035835Y0199816D01*
X0035561Y0199702D01*
X0035285Y0199595D01*
X0035005Y0199495D01*
X0034724Y0199402D01*
X0034440Y0199315D01*
X0034155Y0199236D01*
X0033867Y0199163D01*
X0033578Y0199097D01*
X0033287Y0199039D01*
X0032995Y0198988D01*
X0032702Y0198943D01*
X0032408Y0198906D01*
X0032113Y0198876D01*
X0031817Y0198853D01*
X0031521Y0198838D01*
X0031224Y0198830D01*
X0030928Y0198828D01*
X0030631Y0198835D01*
X0030335Y0198848D01*
X0030039Y0198868D01*
X0029744Y0198896D01*
X0029450Y0198931D01*
X0029156Y0198973D01*
X0028864Y0199023D01*
X0028572Y0199079D01*
X0028283Y0199142D01*
X0027995Y0199213D01*
X0027708Y0199290D01*
X0027424Y0199375D01*
X0027142Y0199466D01*
X0026862Y0199564D01*
X0026585Y0199669D01*
X0026310Y0199781D01*
X0026038Y0199899D01*
X0025769Y0200024D01*
X0025503Y0200156D01*
X0025241Y0200293D01*
X0024982Y0200438D01*
X0024726Y0200588D01*
X0024474Y0200745D01*
X0024226Y0200908D01*
X0023983Y0201076D01*
X0023743Y0201251D01*
X0023508Y0201432D01*
X0023277Y0201618D01*
X0023050Y0201809D01*
X0022829Y0202006D01*
X0022612Y0202209D01*
X0022401Y0202417D01*
X0022194Y0202629D01*
X0021993Y0202847D01*
X0021797Y0203070D01*
X0021606Y0203297D01*
X0021421Y0203529D01*
X0021242Y0203765D01*
X0021069Y0204006D01*
X0020902Y0204251D01*
X0020740Y0204500D01*
X0020585Y0204752D01*
X0020436Y0205009D01*
X0020293Y0205268D01*
X0020156Y0205532D01*
X0020026Y0205798D01*
X0019903Y0206068D01*
X0019786Y0206340D01*
X0019676Y0206616D01*
X0019573Y0206894D01*
X0019476Y0207174D01*
X0019386Y0207457D01*
X0019386Y0214740D02*
X0019480Y0215021D01*
X0019582Y0215300D01*
X0019690Y0215576D01*
X0019805Y0215849D01*
X0019926Y0216120D01*
X0020054Y0216387D01*
X0020189Y0216652D01*
X0020330Y0216913D01*
X0020477Y0217170D01*
X0020630Y0217424D01*
X0020790Y0217674D01*
X0020955Y0217920D01*
X0021127Y0218162D01*
X0021304Y0218399D01*
X0021487Y0218633D01*
X0021676Y0218861D01*
X0021871Y0219086D01*
X0022070Y0219305D01*
X0022275Y0219519D01*
X0022485Y0219728D01*
X0022700Y0219932D01*
X0022921Y0220131D01*
X0023145Y0220325D01*
X0023375Y0220512D01*
X0023609Y0220695D01*
X0023847Y0220871D01*
X0024090Y0221042D01*
X0024336Y0221206D01*
X0024587Y0221365D01*
X0024841Y0221517D01*
X0025100Y0221663D01*
X0025361Y0221803D01*
X0025626Y0221937D01*
X0025894Y0222064D01*
X0026165Y0222184D01*
X0026439Y0222298D01*
X0026715Y0222405D01*
X0026995Y0222505D01*
X0027276Y0222598D01*
X0027560Y0222685D01*
X0027845Y0222764D01*
X0028133Y0222837D01*
X0028422Y0222903D01*
X0028713Y0222961D01*
X0029005Y0223012D01*
X0029298Y0223057D01*
X0029592Y0223094D01*
X0029887Y0223124D01*
X0030183Y0223147D01*
X0030479Y0223162D01*
X0030776Y0223170D01*
X0031072Y0223172D01*
X0031369Y0223165D01*
X0031665Y0223152D01*
X0031961Y0223132D01*
X0032256Y0223104D01*
X0032550Y0223069D01*
X0032844Y0223027D01*
X0033136Y0222977D01*
X0033428Y0222921D01*
X0033717Y0222858D01*
X0034005Y0222787D01*
X0034292Y0222710D01*
X0034576Y0222625D01*
X0034858Y0222534D01*
X0035138Y0222436D01*
X0035415Y0222331D01*
X0035690Y0222219D01*
X0035962Y0222101D01*
X0036231Y0221976D01*
X0036497Y0221844D01*
X0036759Y0221707D01*
X0037018Y0221562D01*
X0037274Y0221412D01*
X0037526Y0221255D01*
X0037774Y0221092D01*
X0038017Y0220924D01*
X0038257Y0220749D01*
X0038492Y0220568D01*
X0038723Y0220382D01*
X0038950Y0220191D01*
X0039171Y0219994D01*
X0039388Y0219791D01*
X0039599Y0219583D01*
X0039806Y0219371D01*
X0040007Y0219153D01*
X0040203Y0218930D01*
X0040394Y0218703D01*
X0040579Y0218471D01*
X0040758Y0218235D01*
X0040931Y0217994D01*
X0041098Y0217749D01*
X0041260Y0217500D01*
X0041415Y0217248D01*
X0041564Y0216991D01*
X0041707Y0216732D01*
X0041844Y0216468D01*
X0041974Y0216202D01*
X0042097Y0215932D01*
X0042214Y0215660D01*
X0042324Y0215384D01*
X0042427Y0215106D01*
X0042524Y0214826D01*
X0042614Y0214543D01*
X0068008Y0215331D02*
X0068008Y0223992D01*
X0090449Y0223992D01*
X0093992Y0220449D01*
X0093992Y0215331D01*
X0093992Y0206669D02*
X0093992Y0201551D01*
X0090449Y0198008D01*
X0068008Y0198008D01*
X0068008Y0206669D01*
X0069386Y0214740D02*
X0069480Y0215021D01*
X0069582Y0215300D01*
X0069690Y0215576D01*
X0069805Y0215849D01*
X0069926Y0216120D01*
X0070054Y0216387D01*
X0070189Y0216652D01*
X0070330Y0216913D01*
X0070477Y0217170D01*
X0070630Y0217424D01*
X0070790Y0217674D01*
X0070955Y0217920D01*
X0071127Y0218162D01*
X0071304Y0218399D01*
X0071487Y0218633D01*
X0071676Y0218861D01*
X0071871Y0219086D01*
X0072070Y0219305D01*
X0072275Y0219519D01*
X0072485Y0219728D01*
X0072700Y0219932D01*
X0072921Y0220131D01*
X0073145Y0220325D01*
X0073375Y0220512D01*
X0073609Y0220695D01*
X0073847Y0220871D01*
X0074090Y0221042D01*
X0074336Y0221206D01*
X0074587Y0221365D01*
X0074841Y0221517D01*
X0075100Y0221663D01*
X0075361Y0221803D01*
X0075626Y0221937D01*
X0075894Y0222064D01*
X0076165Y0222184D01*
X0076439Y0222298D01*
X0076715Y0222405D01*
X0076995Y0222505D01*
X0077276Y0222598D01*
X0077560Y0222685D01*
X0077845Y0222764D01*
X0078133Y0222837D01*
X0078422Y0222903D01*
X0078713Y0222961D01*
X0079005Y0223012D01*
X0079298Y0223057D01*
X0079592Y0223094D01*
X0079887Y0223124D01*
X0080183Y0223147D01*
X0080479Y0223162D01*
X0080776Y0223170D01*
X0081072Y0223172D01*
X0081369Y0223165D01*
X0081665Y0223152D01*
X0081961Y0223132D01*
X0082256Y0223104D01*
X0082550Y0223069D01*
X0082844Y0223027D01*
X0083136Y0222977D01*
X0083428Y0222921D01*
X0083717Y0222858D01*
X0084005Y0222787D01*
X0084292Y0222710D01*
X0084576Y0222625D01*
X0084858Y0222534D01*
X0085138Y0222436D01*
X0085415Y0222331D01*
X0085690Y0222219D01*
X0085962Y0222101D01*
X0086231Y0221976D01*
X0086497Y0221844D01*
X0086759Y0221707D01*
X0087018Y0221562D01*
X0087274Y0221412D01*
X0087526Y0221255D01*
X0087774Y0221092D01*
X0088017Y0220924D01*
X0088257Y0220749D01*
X0088492Y0220568D01*
X0088723Y0220382D01*
X0088950Y0220191D01*
X0089171Y0219994D01*
X0089388Y0219791D01*
X0089599Y0219583D01*
X0089806Y0219371D01*
X0090007Y0219153D01*
X0090203Y0218930D01*
X0090394Y0218703D01*
X0090579Y0218471D01*
X0090758Y0218235D01*
X0090931Y0217994D01*
X0091098Y0217749D01*
X0091260Y0217500D01*
X0091415Y0217248D01*
X0091564Y0216991D01*
X0091707Y0216732D01*
X0091844Y0216468D01*
X0091974Y0216202D01*
X0092097Y0215932D01*
X0092214Y0215660D01*
X0092324Y0215384D01*
X0092427Y0215106D01*
X0092524Y0214826D01*
X0092614Y0214543D01*
X0092614Y0207260D02*
X0092520Y0206979D01*
X0092418Y0206700D01*
X0092310Y0206424D01*
X0092195Y0206151D01*
X0092074Y0205880D01*
X0091946Y0205613D01*
X0091811Y0205348D01*
X0091670Y0205087D01*
X0091523Y0204830D01*
X0091370Y0204576D01*
X0091210Y0204326D01*
X0091045Y0204080D01*
X0090873Y0203838D01*
X0090696Y0203601D01*
X0090513Y0203367D01*
X0090324Y0203139D01*
X0090129Y0202914D01*
X0089930Y0202695D01*
X0089725Y0202481D01*
X0089515Y0202272D01*
X0089300Y0202068D01*
X0089079Y0201869D01*
X0088855Y0201675D01*
X0088625Y0201488D01*
X0088391Y0201305D01*
X0088153Y0201129D01*
X0087910Y0200958D01*
X0087664Y0200794D01*
X0087413Y0200635D01*
X0087159Y0200483D01*
X0086900Y0200337D01*
X0086639Y0200197D01*
X0086374Y0200063D01*
X0086106Y0199936D01*
X0085835Y0199816D01*
X0085561Y0199702D01*
X0085285Y0199595D01*
X0085005Y0199495D01*
X0084724Y0199402D01*
X0084440Y0199315D01*
X0084155Y0199236D01*
X0083867Y0199163D01*
X0083578Y0199097D01*
X0083287Y0199039D01*
X0082995Y0198988D01*
X0082702Y0198943D01*
X0082408Y0198906D01*
X0082113Y0198876D01*
X0081817Y0198853D01*
X0081521Y0198838D01*
X0081224Y0198830D01*
X0080928Y0198828D01*
X0080631Y0198835D01*
X0080335Y0198848D01*
X0080039Y0198868D01*
X0079744Y0198896D01*
X0079450Y0198931D01*
X0079156Y0198973D01*
X0078864Y0199023D01*
X0078572Y0199079D01*
X0078283Y0199142D01*
X0077995Y0199213D01*
X0077708Y0199290D01*
X0077424Y0199375D01*
X0077142Y0199466D01*
X0076862Y0199564D01*
X0076585Y0199669D01*
X0076310Y0199781D01*
X0076038Y0199899D01*
X0075769Y0200024D01*
X0075503Y0200156D01*
X0075241Y0200293D01*
X0074982Y0200438D01*
X0074726Y0200588D01*
X0074474Y0200745D01*
X0074226Y0200908D01*
X0073983Y0201076D01*
X0073743Y0201251D01*
X0073508Y0201432D01*
X0073277Y0201618D01*
X0073050Y0201809D01*
X0072829Y0202006D01*
X0072612Y0202209D01*
X0072401Y0202417D01*
X0072194Y0202629D01*
X0071993Y0202847D01*
X0071797Y0203070D01*
X0071606Y0203297D01*
X0071421Y0203529D01*
X0071242Y0203765D01*
X0071069Y0204006D01*
X0070902Y0204251D01*
X0070740Y0204500D01*
X0070585Y0204752D01*
X0070436Y0205009D01*
X0070293Y0205268D01*
X0070156Y0205532D01*
X0070026Y0205798D01*
X0069903Y0206068D01*
X0069786Y0206340D01*
X0069676Y0206616D01*
X0069573Y0206894D01*
X0069476Y0207174D01*
X0069386Y0207457D01*
X0068100Y0183000D02*
X0093900Y0183000D01*
X0093900Y0169000D01*
X0068100Y0169000D01*
X0068100Y0183000D01*
X0113008Y0185331D02*
X0113008Y0193992D01*
X0135449Y0193992D01*
X0138992Y0190449D01*
X0138992Y0185331D01*
X0138992Y0176669D02*
X0138992Y0171551D01*
X0135449Y0168008D01*
X0113008Y0168008D01*
X0113008Y0176669D01*
X0114386Y0184740D02*
X0114480Y0185021D01*
X0114582Y0185300D01*
X0114690Y0185576D01*
X0114805Y0185849D01*
X0114926Y0186120D01*
X0115054Y0186387D01*
X0115189Y0186652D01*
X0115330Y0186913D01*
X0115477Y0187170D01*
X0115630Y0187424D01*
X0115790Y0187674D01*
X0115955Y0187920D01*
X0116127Y0188162D01*
X0116304Y0188399D01*
X0116487Y0188633D01*
X0116676Y0188861D01*
X0116871Y0189086D01*
X0117070Y0189305D01*
X0117275Y0189519D01*
X0117485Y0189728D01*
X0117700Y0189932D01*
X0117921Y0190131D01*
X0118145Y0190325D01*
X0118375Y0190512D01*
X0118609Y0190695D01*
X0118847Y0190871D01*
X0119090Y0191042D01*
X0119336Y0191206D01*
X0119587Y0191365D01*
X0119841Y0191517D01*
X0120100Y0191663D01*
X0120361Y0191803D01*
X0120626Y0191937D01*
X0120894Y0192064D01*
X0121165Y0192184D01*
X0121439Y0192298D01*
X0121715Y0192405D01*
X0121995Y0192505D01*
X0122276Y0192598D01*
X0122560Y0192685D01*
X0122845Y0192764D01*
X0123133Y0192837D01*
X0123422Y0192903D01*
X0123713Y0192961D01*
X0124005Y0193012D01*
X0124298Y0193057D01*
X0124592Y0193094D01*
X0124887Y0193124D01*
X0125183Y0193147D01*
X0125479Y0193162D01*
X0125776Y0193170D01*
X0126072Y0193172D01*
X0126369Y0193165D01*
X0126665Y0193152D01*
X0126961Y0193132D01*
X0127256Y0193104D01*
X0127550Y0193069D01*
X0127844Y0193027D01*
X0128136Y0192977D01*
X0128428Y0192921D01*
X0128717Y0192858D01*
X0129005Y0192787D01*
X0129292Y0192710D01*
X0129576Y0192625D01*
X0129858Y0192534D01*
X0130138Y0192436D01*
X0130415Y0192331D01*
X0130690Y0192219D01*
X0130962Y0192101D01*
X0131231Y0191976D01*
X0131497Y0191844D01*
X0131759Y0191707D01*
X0132018Y0191562D01*
X0132274Y0191412D01*
X0132526Y0191255D01*
X0132774Y0191092D01*
X0133017Y0190924D01*
X0133257Y0190749D01*
X0133492Y0190568D01*
X0133723Y0190382D01*
X0133950Y0190191D01*
X0134171Y0189994D01*
X0134388Y0189791D01*
X0134599Y0189583D01*
X0134806Y0189371D01*
X0135007Y0189153D01*
X0135203Y0188930D01*
X0135394Y0188703D01*
X0135579Y0188471D01*
X0135758Y0188235D01*
X0135931Y0187994D01*
X0136098Y0187749D01*
X0136260Y0187500D01*
X0136415Y0187248D01*
X0136564Y0186991D01*
X0136707Y0186732D01*
X0136844Y0186468D01*
X0136974Y0186202D01*
X0137097Y0185932D01*
X0137214Y0185660D01*
X0137324Y0185384D01*
X0137427Y0185106D01*
X0137524Y0184826D01*
X0137614Y0184543D01*
X0137614Y0177260D02*
X0137520Y0176979D01*
X0137418Y0176700D01*
X0137310Y0176424D01*
X0137195Y0176151D01*
X0137074Y0175880D01*
X0136946Y0175613D01*
X0136811Y0175348D01*
X0136670Y0175087D01*
X0136523Y0174830D01*
X0136370Y0174576D01*
X0136210Y0174326D01*
X0136045Y0174080D01*
X0135873Y0173838D01*
X0135696Y0173601D01*
X0135513Y0173367D01*
X0135324Y0173139D01*
X0135129Y0172914D01*
X0134930Y0172695D01*
X0134725Y0172481D01*
X0134515Y0172272D01*
X0134300Y0172068D01*
X0134079Y0171869D01*
X0133855Y0171675D01*
X0133625Y0171488D01*
X0133391Y0171305D01*
X0133153Y0171129D01*
X0132910Y0170958D01*
X0132664Y0170794D01*
X0132413Y0170635D01*
X0132159Y0170483D01*
X0131900Y0170337D01*
X0131639Y0170197D01*
X0131374Y0170063D01*
X0131106Y0169936D01*
X0130835Y0169816D01*
X0130561Y0169702D01*
X0130285Y0169595D01*
X0130005Y0169495D01*
X0129724Y0169402D01*
X0129440Y0169315D01*
X0129155Y0169236D01*
X0128867Y0169163D01*
X0128578Y0169097D01*
X0128287Y0169039D01*
X0127995Y0168988D01*
X0127702Y0168943D01*
X0127408Y0168906D01*
X0127113Y0168876D01*
X0126817Y0168853D01*
X0126521Y0168838D01*
X0126224Y0168830D01*
X0125928Y0168828D01*
X0125631Y0168835D01*
X0125335Y0168848D01*
X0125039Y0168868D01*
X0124744Y0168896D01*
X0124450Y0168931D01*
X0124156Y0168973D01*
X0123864Y0169023D01*
X0123572Y0169079D01*
X0123283Y0169142D01*
X0122995Y0169213D01*
X0122708Y0169290D01*
X0122424Y0169375D01*
X0122142Y0169466D01*
X0121862Y0169564D01*
X0121585Y0169669D01*
X0121310Y0169781D01*
X0121038Y0169899D01*
X0120769Y0170024D01*
X0120503Y0170156D01*
X0120241Y0170293D01*
X0119982Y0170438D01*
X0119726Y0170588D01*
X0119474Y0170745D01*
X0119226Y0170908D01*
X0118983Y0171076D01*
X0118743Y0171251D01*
X0118508Y0171432D01*
X0118277Y0171618D01*
X0118050Y0171809D01*
X0117829Y0172006D01*
X0117612Y0172209D01*
X0117401Y0172417D01*
X0117194Y0172629D01*
X0116993Y0172847D01*
X0116797Y0173070D01*
X0116606Y0173297D01*
X0116421Y0173529D01*
X0116242Y0173765D01*
X0116069Y0174006D01*
X0115902Y0174251D01*
X0115740Y0174500D01*
X0115585Y0174752D01*
X0115436Y0175009D01*
X0115293Y0175268D01*
X0115156Y0175532D01*
X0115026Y0175798D01*
X0114903Y0176068D01*
X0114786Y0176340D01*
X0114676Y0176616D01*
X0114573Y0176894D01*
X0114476Y0177174D01*
X0114386Y0177457D01*
X0119000Y0158900D02*
X0133000Y0158900D01*
X0133000Y0133100D01*
X0119000Y0133100D01*
X0119000Y0158900D01*
X0114110Y0121433D02*
X0110567Y0117890D01*
X0110567Y0115331D01*
X0114110Y0121433D02*
X0131433Y0121433D01*
X0131433Y0115331D01*
X0131433Y0106669D02*
X0131433Y0100567D01*
X0114110Y0100567D01*
X0110567Y0104110D01*
X0110567Y0106669D01*
X0112339Y0114740D02*
X0112433Y0114951D01*
X0112532Y0115159D01*
X0112637Y0115366D01*
X0112746Y0115569D01*
X0112861Y0115770D01*
X0112980Y0115968D01*
X0113104Y0116163D01*
X0113233Y0116354D01*
X0113366Y0116543D01*
X0113504Y0116728D01*
X0113647Y0116910D01*
X0113794Y0117088D01*
X0113945Y0117263D01*
X0114100Y0117434D01*
X0114260Y0117601D01*
X0114423Y0117764D01*
X0114591Y0117923D01*
X0114762Y0118078D01*
X0114938Y0118228D01*
X0115116Y0118375D01*
X0115299Y0118516D01*
X0115485Y0118654D01*
X0115674Y0118786D01*
X0115866Y0118915D01*
X0116061Y0119038D01*
X0116259Y0119156D01*
X0116461Y0119270D01*
X0116664Y0119379D01*
X0116871Y0119482D01*
X0117080Y0119581D01*
X0117291Y0119674D01*
X0117505Y0119763D01*
X0117720Y0119846D01*
X0117938Y0119923D01*
X0118157Y0119995D01*
X0118378Y0120062D01*
X0118601Y0120124D01*
X0118825Y0120180D01*
X0119051Y0120230D01*
X0119277Y0120275D01*
X0119505Y0120315D01*
X0119733Y0120349D01*
X0119963Y0120377D01*
X0120192Y0120399D01*
X0120423Y0120416D01*
X0120654Y0120428D01*
X0120884Y0120433D01*
X0121116Y0120433D01*
X0121346Y0120428D01*
X0121577Y0120416D01*
X0121808Y0120399D01*
X0122037Y0120377D01*
X0122267Y0120349D01*
X0122495Y0120315D01*
X0122723Y0120275D01*
X0122949Y0120230D01*
X0123175Y0120180D01*
X0123399Y0120124D01*
X0123622Y0120062D01*
X0123843Y0119995D01*
X0124062Y0119923D01*
X0124280Y0119846D01*
X0124495Y0119763D01*
X0124709Y0119674D01*
X0124920Y0119581D01*
X0125129Y0119482D01*
X0125336Y0119379D01*
X0125539Y0119270D01*
X0125741Y0119156D01*
X0125939Y0119038D01*
X0126134Y0118915D01*
X0126326Y0118786D01*
X0126515Y0118654D01*
X0126701Y0118516D01*
X0126884Y0118375D01*
X0127062Y0118228D01*
X0127238Y0118078D01*
X0127409Y0117923D01*
X0127577Y0117764D01*
X0127740Y0117601D01*
X0127900Y0117434D01*
X0128055Y0117263D01*
X0128206Y0117088D01*
X0128353Y0116910D01*
X0128496Y0116728D01*
X0128634Y0116543D01*
X0128767Y0116354D01*
X0128896Y0116163D01*
X0129020Y0115968D01*
X0129139Y0115770D01*
X0129254Y0115569D01*
X0129363Y0115366D01*
X0129468Y0115159D01*
X0129567Y0114951D01*
X0129661Y0114740D01*
X0129661Y0107260D02*
X0129567Y0107049D01*
X0129468Y0106841D01*
X0129363Y0106634D01*
X0129254Y0106431D01*
X0129139Y0106230D01*
X0129020Y0106032D01*
X0128896Y0105837D01*
X0128767Y0105646D01*
X0128634Y0105457D01*
X0128496Y0105272D01*
X0128353Y0105090D01*
X0128206Y0104912D01*
X0128055Y0104737D01*
X0127900Y0104566D01*
X0127740Y0104399D01*
X0127577Y0104236D01*
X0127409Y0104077D01*
X0127238Y0103922D01*
X0127062Y0103772D01*
X0126884Y0103625D01*
X0126701Y0103484D01*
X0126515Y0103346D01*
X0126326Y0103214D01*
X0126134Y0103085D01*
X0125939Y0102962D01*
X0125741Y0102844D01*
X0125539Y0102730D01*
X0125336Y0102621D01*
X0125129Y0102518D01*
X0124920Y0102419D01*
X0124709Y0102326D01*
X0124495Y0102237D01*
X0124280Y0102154D01*
X0124062Y0102077D01*
X0123843Y0102005D01*
X0123622Y0101938D01*
X0123399Y0101876D01*
X0123175Y0101820D01*
X0122949Y0101770D01*
X0122723Y0101725D01*
X0122495Y0101685D01*
X0122267Y0101651D01*
X0122037Y0101623D01*
X0121808Y0101601D01*
X0121577Y0101584D01*
X0121346Y0101572D01*
X0121116Y0101567D01*
X0120884Y0101567D01*
X0120654Y0101572D01*
X0120423Y0101584D01*
X0120192Y0101601D01*
X0119963Y0101623D01*
X0119733Y0101651D01*
X0119505Y0101685D01*
X0119277Y0101725D01*
X0119051Y0101770D01*
X0118825Y0101820D01*
X0118601Y0101876D01*
X0118378Y0101938D01*
X0118157Y0102005D01*
X0117938Y0102077D01*
X0117720Y0102154D01*
X0117505Y0102237D01*
X0117291Y0102326D01*
X0117080Y0102419D01*
X0116871Y0102518D01*
X0116664Y0102621D01*
X0116461Y0102730D01*
X0116259Y0102844D01*
X0116061Y0102962D01*
X0115866Y0103085D01*
X0115674Y0103214D01*
X0115485Y0103346D01*
X0115299Y0103484D01*
X0115116Y0103625D01*
X0114938Y0103772D01*
X0114762Y0103922D01*
X0114591Y0104077D01*
X0114423Y0104236D01*
X0114260Y0104399D01*
X0114100Y0104566D01*
X0113945Y0104737D01*
X0113794Y0104912D01*
X0113647Y0105090D01*
X0113504Y0105272D01*
X0113366Y0105457D01*
X0113233Y0105646D01*
X0113104Y0105837D01*
X0112980Y0106032D01*
X0112861Y0106230D01*
X0112746Y0106431D01*
X0112637Y0106634D01*
X0112532Y0106841D01*
X0112433Y0107049D01*
X0112339Y0107260D01*
X0159465Y0129976D02*
X0159465Y0152024D01*
X0192535Y0152024D02*
X0192535Y0129976D01*
X0209465Y0129976D02*
X0209465Y0152024D01*
X0242535Y0152024D02*
X0242535Y0129976D01*
X0264465Y0129976D02*
X0264465Y0152024D01*
X0297535Y0152024D02*
X0297535Y0129976D01*
X0305188Y0188170D02*
X0313062Y0188170D01*
X0321330Y0189548D02*
X0321330Y0211202D01*
X0328170Y0211202D02*
X0328170Y0189548D01*
X0336438Y0188170D02*
X0344312Y0188170D01*
X0352580Y0189548D02*
X0352580Y0211202D01*
X0344312Y0212580D02*
X0336438Y0212580D01*
X0333485Y0200375D02*
X0333487Y0200544D01*
X0333493Y0200713D01*
X0333504Y0200882D01*
X0333518Y0201050D01*
X0333537Y0201218D01*
X0333560Y0201386D01*
X0333586Y0201553D01*
X0333617Y0201719D01*
X0333652Y0201885D01*
X0333691Y0202049D01*
X0333735Y0202213D01*
X0333782Y0202375D01*
X0333833Y0202536D01*
X0333888Y0202696D01*
X0333947Y0202855D01*
X0334009Y0203012D01*
X0334076Y0203167D01*
X0334147Y0203321D01*
X0334221Y0203473D01*
X0334299Y0203623D01*
X0334380Y0203771D01*
X0334465Y0203917D01*
X0334554Y0204061D01*
X0334646Y0204203D01*
X0334742Y0204342D01*
X0334841Y0204479D01*
X0334943Y0204614D01*
X0335049Y0204746D01*
X0335158Y0204875D01*
X0335270Y0205002D01*
X0335385Y0205126D01*
X0335503Y0205247D01*
X0335624Y0205365D01*
X0335748Y0205480D01*
X0335875Y0205592D01*
X0336004Y0205701D01*
X0336136Y0205807D01*
X0336271Y0205909D01*
X0336408Y0206008D01*
X0336547Y0206104D01*
X0336689Y0206196D01*
X0336833Y0206285D01*
X0336979Y0206370D01*
X0337127Y0206451D01*
X0337277Y0206529D01*
X0337429Y0206603D01*
X0337583Y0206674D01*
X0337738Y0206741D01*
X0337895Y0206803D01*
X0338054Y0206862D01*
X0338214Y0206917D01*
X0338375Y0206968D01*
X0338537Y0207015D01*
X0338701Y0207059D01*
X0338865Y0207098D01*
X0339031Y0207133D01*
X0339197Y0207164D01*
X0339364Y0207190D01*
X0339532Y0207213D01*
X0339700Y0207232D01*
X0339868Y0207246D01*
X0340037Y0207257D01*
X0340206Y0207263D01*
X0340375Y0207265D01*
X0340544Y0207263D01*
X0340713Y0207257D01*
X0340882Y0207246D01*
X0341050Y0207232D01*
X0341218Y0207213D01*
X0341386Y0207190D01*
X0341553Y0207164D01*
X0341719Y0207133D01*
X0341885Y0207098D01*
X0342049Y0207059D01*
X0342213Y0207015D01*
X0342375Y0206968D01*
X0342536Y0206917D01*
X0342696Y0206862D01*
X0342855Y0206803D01*
X0343012Y0206741D01*
X0343167Y0206674D01*
X0343321Y0206603D01*
X0343473Y0206529D01*
X0343623Y0206451D01*
X0343771Y0206370D01*
X0343917Y0206285D01*
X0344061Y0206196D01*
X0344203Y0206104D01*
X0344342Y0206008D01*
X0344479Y0205909D01*
X0344614Y0205807D01*
X0344746Y0205701D01*
X0344875Y0205592D01*
X0345002Y0205480D01*
X0345126Y0205365D01*
X0345247Y0205247D01*
X0345365Y0205126D01*
X0345480Y0205002D01*
X0345592Y0204875D01*
X0345701Y0204746D01*
X0345807Y0204614D01*
X0345909Y0204479D01*
X0346008Y0204342D01*
X0346104Y0204203D01*
X0346196Y0204061D01*
X0346285Y0203917D01*
X0346370Y0203771D01*
X0346451Y0203623D01*
X0346529Y0203473D01*
X0346603Y0203321D01*
X0346674Y0203167D01*
X0346741Y0203012D01*
X0346803Y0202855D01*
X0346862Y0202696D01*
X0346917Y0202536D01*
X0346968Y0202375D01*
X0347015Y0202213D01*
X0347059Y0202049D01*
X0347098Y0201885D01*
X0347133Y0201719D01*
X0347164Y0201553D01*
X0347190Y0201386D01*
X0347213Y0201218D01*
X0347232Y0201050D01*
X0347246Y0200882D01*
X0347257Y0200713D01*
X0347263Y0200544D01*
X0347265Y0200375D01*
X0347263Y0200206D01*
X0347257Y0200037D01*
X0347246Y0199868D01*
X0347232Y0199700D01*
X0347213Y0199532D01*
X0347190Y0199364D01*
X0347164Y0199197D01*
X0347133Y0199031D01*
X0347098Y0198865D01*
X0347059Y0198701D01*
X0347015Y0198537D01*
X0346968Y0198375D01*
X0346917Y0198214D01*
X0346862Y0198054D01*
X0346803Y0197895D01*
X0346741Y0197738D01*
X0346674Y0197583D01*
X0346603Y0197429D01*
X0346529Y0197277D01*
X0346451Y0197127D01*
X0346370Y0196979D01*
X0346285Y0196833D01*
X0346196Y0196689D01*
X0346104Y0196547D01*
X0346008Y0196408D01*
X0345909Y0196271D01*
X0345807Y0196136D01*
X0345701Y0196004D01*
X0345592Y0195875D01*
X0345480Y0195748D01*
X0345365Y0195624D01*
X0345247Y0195503D01*
X0345126Y0195385D01*
X0345002Y0195270D01*
X0344875Y0195158D01*
X0344746Y0195049D01*
X0344614Y0194943D01*
X0344479Y0194841D01*
X0344342Y0194742D01*
X0344203Y0194646D01*
X0344061Y0194554D01*
X0343917Y0194465D01*
X0343771Y0194380D01*
X0343623Y0194299D01*
X0343473Y0194221D01*
X0343321Y0194147D01*
X0343167Y0194076D01*
X0343012Y0194009D01*
X0342855Y0193947D01*
X0342696Y0193888D01*
X0342536Y0193833D01*
X0342375Y0193782D01*
X0342213Y0193735D01*
X0342049Y0193691D01*
X0341885Y0193652D01*
X0341719Y0193617D01*
X0341553Y0193586D01*
X0341386Y0193560D01*
X0341218Y0193537D01*
X0341050Y0193518D01*
X0340882Y0193504D01*
X0340713Y0193493D01*
X0340544Y0193487D01*
X0340375Y0193485D01*
X0340206Y0193487D01*
X0340037Y0193493D01*
X0339868Y0193504D01*
X0339700Y0193518D01*
X0339532Y0193537D01*
X0339364Y0193560D01*
X0339197Y0193586D01*
X0339031Y0193617D01*
X0338865Y0193652D01*
X0338701Y0193691D01*
X0338537Y0193735D01*
X0338375Y0193782D01*
X0338214Y0193833D01*
X0338054Y0193888D01*
X0337895Y0193947D01*
X0337738Y0194009D01*
X0337583Y0194076D01*
X0337429Y0194147D01*
X0337277Y0194221D01*
X0337127Y0194299D01*
X0336979Y0194380D01*
X0336833Y0194465D01*
X0336689Y0194554D01*
X0336547Y0194646D01*
X0336408Y0194742D01*
X0336271Y0194841D01*
X0336136Y0194943D01*
X0336004Y0195049D01*
X0335875Y0195158D01*
X0335748Y0195270D01*
X0335624Y0195385D01*
X0335503Y0195503D01*
X0335385Y0195624D01*
X0335270Y0195748D01*
X0335158Y0195875D01*
X0335049Y0196004D01*
X0334943Y0196136D01*
X0334841Y0196271D01*
X0334742Y0196408D01*
X0334646Y0196547D01*
X0334554Y0196689D01*
X0334465Y0196833D01*
X0334380Y0196979D01*
X0334299Y0197127D01*
X0334221Y0197277D01*
X0334147Y0197429D01*
X0334076Y0197583D01*
X0334009Y0197738D01*
X0333947Y0197895D01*
X0333888Y0198054D01*
X0333833Y0198214D01*
X0333782Y0198375D01*
X0333735Y0198537D01*
X0333691Y0198701D01*
X0333652Y0198865D01*
X0333617Y0199031D01*
X0333586Y0199197D01*
X0333560Y0199364D01*
X0333537Y0199532D01*
X0333518Y0199700D01*
X0333504Y0199868D01*
X0333493Y0200037D01*
X0333487Y0200206D01*
X0333485Y0200375D01*
X0313062Y0212580D02*
X0305188Y0212580D01*
X0296920Y0211202D02*
X0296920Y0189548D01*
X0302235Y0200375D02*
X0302237Y0200544D01*
X0302243Y0200713D01*
X0302254Y0200882D01*
X0302268Y0201050D01*
X0302287Y0201218D01*
X0302310Y0201386D01*
X0302336Y0201553D01*
X0302367Y0201719D01*
X0302402Y0201885D01*
X0302441Y0202049D01*
X0302485Y0202213D01*
X0302532Y0202375D01*
X0302583Y0202536D01*
X0302638Y0202696D01*
X0302697Y0202855D01*
X0302759Y0203012D01*
X0302826Y0203167D01*
X0302897Y0203321D01*
X0302971Y0203473D01*
X0303049Y0203623D01*
X0303130Y0203771D01*
X0303215Y0203917D01*
X0303304Y0204061D01*
X0303396Y0204203D01*
X0303492Y0204342D01*
X0303591Y0204479D01*
X0303693Y0204614D01*
X0303799Y0204746D01*
X0303908Y0204875D01*
X0304020Y0205002D01*
X0304135Y0205126D01*
X0304253Y0205247D01*
X0304374Y0205365D01*
X0304498Y0205480D01*
X0304625Y0205592D01*
X0304754Y0205701D01*
X0304886Y0205807D01*
X0305021Y0205909D01*
X0305158Y0206008D01*
X0305297Y0206104D01*
X0305439Y0206196D01*
X0305583Y0206285D01*
X0305729Y0206370D01*
X0305877Y0206451D01*
X0306027Y0206529D01*
X0306179Y0206603D01*
X0306333Y0206674D01*
X0306488Y0206741D01*
X0306645Y0206803D01*
X0306804Y0206862D01*
X0306964Y0206917D01*
X0307125Y0206968D01*
X0307287Y0207015D01*
X0307451Y0207059D01*
X0307615Y0207098D01*
X0307781Y0207133D01*
X0307947Y0207164D01*
X0308114Y0207190D01*
X0308282Y0207213D01*
X0308450Y0207232D01*
X0308618Y0207246D01*
X0308787Y0207257D01*
X0308956Y0207263D01*
X0309125Y0207265D01*
X0309294Y0207263D01*
X0309463Y0207257D01*
X0309632Y0207246D01*
X0309800Y0207232D01*
X0309968Y0207213D01*
X0310136Y0207190D01*
X0310303Y0207164D01*
X0310469Y0207133D01*
X0310635Y0207098D01*
X0310799Y0207059D01*
X0310963Y0207015D01*
X0311125Y0206968D01*
X0311286Y0206917D01*
X0311446Y0206862D01*
X0311605Y0206803D01*
X0311762Y0206741D01*
X0311917Y0206674D01*
X0312071Y0206603D01*
X0312223Y0206529D01*
X0312373Y0206451D01*
X0312521Y0206370D01*
X0312667Y0206285D01*
X0312811Y0206196D01*
X0312953Y0206104D01*
X0313092Y0206008D01*
X0313229Y0205909D01*
X0313364Y0205807D01*
X0313496Y0205701D01*
X0313625Y0205592D01*
X0313752Y0205480D01*
X0313876Y0205365D01*
X0313997Y0205247D01*
X0314115Y0205126D01*
X0314230Y0205002D01*
X0314342Y0204875D01*
X0314451Y0204746D01*
X0314557Y0204614D01*
X0314659Y0204479D01*
X0314758Y0204342D01*
X0314854Y0204203D01*
X0314946Y0204061D01*
X0315035Y0203917D01*
X0315120Y0203771D01*
X0315201Y0203623D01*
X0315279Y0203473D01*
X0315353Y0203321D01*
X0315424Y0203167D01*
X0315491Y0203012D01*
X0315553Y0202855D01*
X0315612Y0202696D01*
X0315667Y0202536D01*
X0315718Y0202375D01*
X0315765Y0202213D01*
X0315809Y0202049D01*
X0315848Y0201885D01*
X0315883Y0201719D01*
X0315914Y0201553D01*
X0315940Y0201386D01*
X0315963Y0201218D01*
X0315982Y0201050D01*
X0315996Y0200882D01*
X0316007Y0200713D01*
X0316013Y0200544D01*
X0316015Y0200375D01*
X0316013Y0200206D01*
X0316007Y0200037D01*
X0315996Y0199868D01*
X0315982Y0199700D01*
X0315963Y0199532D01*
X0315940Y0199364D01*
X0315914Y0199197D01*
X0315883Y0199031D01*
X0315848Y0198865D01*
X0315809Y0198701D01*
X0315765Y0198537D01*
X0315718Y0198375D01*
X0315667Y0198214D01*
X0315612Y0198054D01*
X0315553Y0197895D01*
X0315491Y0197738D01*
X0315424Y0197583D01*
X0315353Y0197429D01*
X0315279Y0197277D01*
X0315201Y0197127D01*
X0315120Y0196979D01*
X0315035Y0196833D01*
X0314946Y0196689D01*
X0314854Y0196547D01*
X0314758Y0196408D01*
X0314659Y0196271D01*
X0314557Y0196136D01*
X0314451Y0196004D01*
X0314342Y0195875D01*
X0314230Y0195748D01*
X0314115Y0195624D01*
X0313997Y0195503D01*
X0313876Y0195385D01*
X0313752Y0195270D01*
X0313625Y0195158D01*
X0313496Y0195049D01*
X0313364Y0194943D01*
X0313229Y0194841D01*
X0313092Y0194742D01*
X0312953Y0194646D01*
X0312811Y0194554D01*
X0312667Y0194465D01*
X0312521Y0194380D01*
X0312373Y0194299D01*
X0312223Y0194221D01*
X0312071Y0194147D01*
X0311917Y0194076D01*
X0311762Y0194009D01*
X0311605Y0193947D01*
X0311446Y0193888D01*
X0311286Y0193833D01*
X0311125Y0193782D01*
X0310963Y0193735D01*
X0310799Y0193691D01*
X0310635Y0193652D01*
X0310469Y0193617D01*
X0310303Y0193586D01*
X0310136Y0193560D01*
X0309968Y0193537D01*
X0309800Y0193518D01*
X0309632Y0193504D01*
X0309463Y0193493D01*
X0309294Y0193487D01*
X0309125Y0193485D01*
X0308956Y0193487D01*
X0308787Y0193493D01*
X0308618Y0193504D01*
X0308450Y0193518D01*
X0308282Y0193537D01*
X0308114Y0193560D01*
X0307947Y0193586D01*
X0307781Y0193617D01*
X0307615Y0193652D01*
X0307451Y0193691D01*
X0307287Y0193735D01*
X0307125Y0193782D01*
X0306964Y0193833D01*
X0306804Y0193888D01*
X0306645Y0193947D01*
X0306488Y0194009D01*
X0306333Y0194076D01*
X0306179Y0194147D01*
X0306027Y0194221D01*
X0305877Y0194299D01*
X0305729Y0194380D01*
X0305583Y0194465D01*
X0305439Y0194554D01*
X0305297Y0194646D01*
X0305158Y0194742D01*
X0305021Y0194841D01*
X0304886Y0194943D01*
X0304754Y0195049D01*
X0304625Y0195158D01*
X0304498Y0195270D01*
X0304374Y0195385D01*
X0304253Y0195503D01*
X0304135Y0195624D01*
X0304020Y0195748D01*
X0303908Y0195875D01*
X0303799Y0196004D01*
X0303693Y0196136D01*
X0303591Y0196271D01*
X0303492Y0196408D01*
X0303396Y0196547D01*
X0303304Y0196689D01*
X0303215Y0196833D01*
X0303130Y0196979D01*
X0303049Y0197127D01*
X0302971Y0197277D01*
X0302897Y0197429D01*
X0302826Y0197583D01*
X0302759Y0197738D01*
X0302697Y0197895D01*
X0302638Y0198054D01*
X0302583Y0198214D01*
X0302532Y0198375D01*
X0302485Y0198537D01*
X0302441Y0198701D01*
X0302402Y0198865D01*
X0302367Y0199031D01*
X0302336Y0199197D01*
X0302310Y0199364D01*
X0302287Y0199532D01*
X0302268Y0199700D01*
X0302254Y0199868D01*
X0302243Y0200037D01*
X0302237Y0200206D01*
X0302235Y0200375D01*
X0126955Y0317048D02*
X0126955Y0338702D01*
X0118687Y0340080D02*
X0110813Y0340080D01*
X0102545Y0338702D02*
X0102545Y0317048D01*
X0110813Y0315670D02*
X0118687Y0315670D01*
X0107860Y0327875D02*
X0107862Y0328044D01*
X0107868Y0328213D01*
X0107879Y0328382D01*
X0107893Y0328550D01*
X0107912Y0328718D01*
X0107935Y0328886D01*
X0107961Y0329053D01*
X0107992Y0329219D01*
X0108027Y0329385D01*
X0108066Y0329549D01*
X0108110Y0329713D01*
X0108157Y0329875D01*
X0108208Y0330036D01*
X0108263Y0330196D01*
X0108322Y0330355D01*
X0108384Y0330512D01*
X0108451Y0330667D01*
X0108522Y0330821D01*
X0108596Y0330973D01*
X0108674Y0331123D01*
X0108755Y0331271D01*
X0108840Y0331417D01*
X0108929Y0331561D01*
X0109021Y0331703D01*
X0109117Y0331842D01*
X0109216Y0331979D01*
X0109318Y0332114D01*
X0109424Y0332246D01*
X0109533Y0332375D01*
X0109645Y0332502D01*
X0109760Y0332626D01*
X0109878Y0332747D01*
X0109999Y0332865D01*
X0110123Y0332980D01*
X0110250Y0333092D01*
X0110379Y0333201D01*
X0110511Y0333307D01*
X0110646Y0333409D01*
X0110783Y0333508D01*
X0110922Y0333604D01*
X0111064Y0333696D01*
X0111208Y0333785D01*
X0111354Y0333870D01*
X0111502Y0333951D01*
X0111652Y0334029D01*
X0111804Y0334103D01*
X0111958Y0334174D01*
X0112113Y0334241D01*
X0112270Y0334303D01*
X0112429Y0334362D01*
X0112589Y0334417D01*
X0112750Y0334468D01*
X0112912Y0334515D01*
X0113076Y0334559D01*
X0113240Y0334598D01*
X0113406Y0334633D01*
X0113572Y0334664D01*
X0113739Y0334690D01*
X0113907Y0334713D01*
X0114075Y0334732D01*
X0114243Y0334746D01*
X0114412Y0334757D01*
X0114581Y0334763D01*
X0114750Y0334765D01*
X0114919Y0334763D01*
X0115088Y0334757D01*
X0115257Y0334746D01*
X0115425Y0334732D01*
X0115593Y0334713D01*
X0115761Y0334690D01*
X0115928Y0334664D01*
X0116094Y0334633D01*
X0116260Y0334598D01*
X0116424Y0334559D01*
X0116588Y0334515D01*
X0116750Y0334468D01*
X0116911Y0334417D01*
X0117071Y0334362D01*
X0117230Y0334303D01*
X0117387Y0334241D01*
X0117542Y0334174D01*
X0117696Y0334103D01*
X0117848Y0334029D01*
X0117998Y0333951D01*
X0118146Y0333870D01*
X0118292Y0333785D01*
X0118436Y0333696D01*
X0118578Y0333604D01*
X0118717Y0333508D01*
X0118854Y0333409D01*
X0118989Y0333307D01*
X0119121Y0333201D01*
X0119250Y0333092D01*
X0119377Y0332980D01*
X0119501Y0332865D01*
X0119622Y0332747D01*
X0119740Y0332626D01*
X0119855Y0332502D01*
X0119967Y0332375D01*
X0120076Y0332246D01*
X0120182Y0332114D01*
X0120284Y0331979D01*
X0120383Y0331842D01*
X0120479Y0331703D01*
X0120571Y0331561D01*
X0120660Y0331417D01*
X0120745Y0331271D01*
X0120826Y0331123D01*
X0120904Y0330973D01*
X0120978Y0330821D01*
X0121049Y0330667D01*
X0121116Y0330512D01*
X0121178Y0330355D01*
X0121237Y0330196D01*
X0121292Y0330036D01*
X0121343Y0329875D01*
X0121390Y0329713D01*
X0121434Y0329549D01*
X0121473Y0329385D01*
X0121508Y0329219D01*
X0121539Y0329053D01*
X0121565Y0328886D01*
X0121588Y0328718D01*
X0121607Y0328550D01*
X0121621Y0328382D01*
X0121632Y0328213D01*
X0121638Y0328044D01*
X0121640Y0327875D01*
X0121638Y0327706D01*
X0121632Y0327537D01*
X0121621Y0327368D01*
X0121607Y0327200D01*
X0121588Y0327032D01*
X0121565Y0326864D01*
X0121539Y0326697D01*
X0121508Y0326531D01*
X0121473Y0326365D01*
X0121434Y0326201D01*
X0121390Y0326037D01*
X0121343Y0325875D01*
X0121292Y0325714D01*
X0121237Y0325554D01*
X0121178Y0325395D01*
X0121116Y0325238D01*
X0121049Y0325083D01*
X0120978Y0324929D01*
X0120904Y0324777D01*
X0120826Y0324627D01*
X0120745Y0324479D01*
X0120660Y0324333D01*
X0120571Y0324189D01*
X0120479Y0324047D01*
X0120383Y0323908D01*
X0120284Y0323771D01*
X0120182Y0323636D01*
X0120076Y0323504D01*
X0119967Y0323375D01*
X0119855Y0323248D01*
X0119740Y0323124D01*
X0119622Y0323003D01*
X0119501Y0322885D01*
X0119377Y0322770D01*
X0119250Y0322658D01*
X0119121Y0322549D01*
X0118989Y0322443D01*
X0118854Y0322341D01*
X0118717Y0322242D01*
X0118578Y0322146D01*
X0118436Y0322054D01*
X0118292Y0321965D01*
X0118146Y0321880D01*
X0117998Y0321799D01*
X0117848Y0321721D01*
X0117696Y0321647D01*
X0117542Y0321576D01*
X0117387Y0321509D01*
X0117230Y0321447D01*
X0117071Y0321388D01*
X0116911Y0321333D01*
X0116750Y0321282D01*
X0116588Y0321235D01*
X0116424Y0321191D01*
X0116260Y0321152D01*
X0116094Y0321117D01*
X0115928Y0321086D01*
X0115761Y0321060D01*
X0115593Y0321037D01*
X0115425Y0321018D01*
X0115257Y0321004D01*
X0115088Y0320993D01*
X0114919Y0320987D01*
X0114750Y0320985D01*
X0114581Y0320987D01*
X0114412Y0320993D01*
X0114243Y0321004D01*
X0114075Y0321018D01*
X0113907Y0321037D01*
X0113739Y0321060D01*
X0113572Y0321086D01*
X0113406Y0321117D01*
X0113240Y0321152D01*
X0113076Y0321191D01*
X0112912Y0321235D01*
X0112750Y0321282D01*
X0112589Y0321333D01*
X0112429Y0321388D01*
X0112270Y0321447D01*
X0112113Y0321509D01*
X0111958Y0321576D01*
X0111804Y0321647D01*
X0111652Y0321721D01*
X0111502Y0321799D01*
X0111354Y0321880D01*
X0111208Y0321965D01*
X0111064Y0322054D01*
X0110922Y0322146D01*
X0110783Y0322242D01*
X0110646Y0322341D01*
X0110511Y0322443D01*
X0110379Y0322549D01*
X0110250Y0322658D01*
X0110123Y0322770D01*
X0109999Y0322885D01*
X0109878Y0323003D01*
X0109760Y0323124D01*
X0109645Y0323248D01*
X0109533Y0323375D01*
X0109424Y0323504D01*
X0109318Y0323636D01*
X0109216Y0323771D01*
X0109117Y0323908D01*
X0109021Y0324047D01*
X0108929Y0324189D01*
X0108840Y0324333D01*
X0108755Y0324479D01*
X0108674Y0324627D01*
X0108596Y0324777D01*
X0108522Y0324929D01*
X0108451Y0325083D01*
X0108384Y0325238D01*
X0108322Y0325395D01*
X0108263Y0325554D01*
X0108208Y0325714D01*
X0108157Y0325875D01*
X0108110Y0326037D01*
X0108066Y0326201D01*
X0108027Y0326365D01*
X0107992Y0326531D01*
X0107961Y0326697D01*
X0107935Y0326864D01*
X0107912Y0327032D01*
X0107893Y0327200D01*
X0107879Y0327368D01*
X0107868Y0327537D01*
X0107862Y0327706D01*
X0107860Y0327875D01*
D14*
X0088925Y0327085D02*
X0088158Y0327852D01*
X0087390Y0327852D01*
X0086623Y0327085D01*
X0086623Y0324783D01*
X0088158Y0324783D01*
X0088925Y0325550D01*
X0088925Y0327085D01*
X0086623Y0324783D02*
X0085088Y0326317D01*
X0084321Y0327852D01*
X0085088Y0323248D02*
X0085856Y0323248D01*
X0086623Y0322481D01*
X0087390Y0323248D01*
X0088158Y0323248D01*
X0088925Y0322481D01*
X0088925Y0320946D01*
X0088158Y0320179D01*
X0088925Y0318644D02*
X0087390Y0317110D01*
X0087390Y0317877D02*
X0087390Y0315575D01*
X0088925Y0315575D02*
X0084321Y0315575D01*
X0084321Y0317877D01*
X0085088Y0318644D01*
X0086623Y0318644D01*
X0087390Y0317877D01*
X0085088Y0320179D02*
X0084321Y0320946D01*
X0084321Y0322481D01*
X0085088Y0323248D01*
X0086623Y0322481D02*
X0086623Y0321714D01*
X0068925Y0323186D02*
X0068925Y0320117D01*
X0065856Y0323186D01*
X0065088Y0323186D01*
X0064321Y0322419D01*
X0064321Y0320884D01*
X0065088Y0320117D01*
X0065088Y0318582D02*
X0066623Y0318582D01*
X0067390Y0317815D01*
X0067390Y0315513D01*
X0067390Y0317048D02*
X0068925Y0318582D01*
X0068925Y0315513D02*
X0064321Y0315513D01*
X0064321Y0317815D01*
X0065088Y0318582D01*
X0064321Y0324721D02*
X0064321Y0327790D01*
X0065088Y0327790D01*
X0068158Y0324721D01*
X0068925Y0324721D01*
X0104325Y0349950D02*
X0107394Y0349950D01*
X0108929Y0349950D02*
X0111998Y0349950D01*
X0113533Y0349950D02*
X0115835Y0349950D01*
X0116602Y0350717D01*
X0116602Y0353787D01*
X0115835Y0354554D01*
X0113533Y0354554D01*
X0113533Y0349950D01*
X0110464Y0352252D02*
X0108929Y0352252D01*
X0108929Y0354554D02*
X0108929Y0349950D01*
X0108929Y0354554D02*
X0111998Y0354554D01*
X0118137Y0353019D02*
X0119671Y0354554D01*
X0119671Y0349950D01*
X0118137Y0349950D02*
X0121206Y0349950D01*
X0104325Y0349950D02*
X0104325Y0354554D01*
X0103700Y0370575D02*
X0106769Y0370575D01*
X0108304Y0370575D02*
X0108304Y0375179D01*
X0111373Y0375179D01*
X0112908Y0375179D02*
X0115210Y0375179D01*
X0115977Y0374412D01*
X0115977Y0371342D01*
X0115210Y0370575D01*
X0112908Y0370575D01*
X0112908Y0375179D01*
X0109839Y0372877D02*
X0108304Y0372877D01*
X0108304Y0370575D02*
X0111373Y0370575D01*
X0117512Y0370575D02*
X0120581Y0373644D01*
X0120581Y0374412D01*
X0119814Y0375179D01*
X0118279Y0375179D01*
X0117512Y0374412D01*
X0117512Y0370575D02*
X0120581Y0370575D01*
X0103700Y0370575D02*
X0103700Y0375179D01*
X0112450Y0303929D02*
X0114752Y0303929D01*
X0115519Y0303162D01*
X0115519Y0302394D01*
X0114752Y0301627D01*
X0112450Y0301627D01*
X0112450Y0299325D02*
X0112450Y0303929D01*
X0114752Y0301627D02*
X0115519Y0300860D01*
X0115519Y0300092D01*
X0114752Y0299325D01*
X0112450Y0299325D01*
X0117054Y0299325D02*
X0120123Y0302394D01*
X0120123Y0303162D01*
X0119356Y0303929D01*
X0117821Y0303929D01*
X0117054Y0303162D01*
X0117054Y0299325D02*
X0120123Y0299325D01*
X0108960Y0263304D02*
X0107425Y0263304D01*
X0106658Y0262537D01*
X0105123Y0262537D02*
X0105123Y0261769D01*
X0104356Y0261002D01*
X0105123Y0260235D01*
X0105123Y0259467D01*
X0104356Y0258700D01*
X0102821Y0258700D01*
X0102054Y0259467D01*
X0100519Y0258700D02*
X0098985Y0260235D01*
X0099752Y0260235D02*
X0097450Y0260235D01*
X0097450Y0258700D02*
X0097450Y0263304D01*
X0099752Y0263304D01*
X0100519Y0262537D01*
X0100519Y0261002D01*
X0099752Y0260235D01*
X0102054Y0262537D02*
X0102821Y0263304D01*
X0104356Y0263304D01*
X0105123Y0262537D01*
X0104356Y0261002D02*
X0103589Y0261002D01*
X0106658Y0258700D02*
X0109727Y0261769D01*
X0109727Y0262537D01*
X0108960Y0263304D01*
X0109727Y0258700D02*
X0106658Y0258700D01*
X0107085Y0243929D02*
X0105550Y0243929D01*
X0104783Y0243162D01*
X0104783Y0242394D01*
X0105550Y0241627D01*
X0107852Y0241627D01*
X0107852Y0243162D02*
X0107085Y0243929D01*
X0107852Y0243162D02*
X0107852Y0240092D01*
X0107085Y0239325D01*
X0105550Y0239325D01*
X0104783Y0240092D01*
X0103248Y0239325D02*
X0100179Y0239325D01*
X0103248Y0242394D01*
X0103248Y0243162D01*
X0102481Y0243929D01*
X0100946Y0243929D01*
X0100179Y0243162D01*
X0098644Y0243162D02*
X0098644Y0241627D01*
X0097877Y0240860D01*
X0095575Y0240860D01*
X0097110Y0240860D02*
X0098644Y0239325D01*
X0095575Y0239325D02*
X0095575Y0243929D01*
X0097877Y0243929D01*
X0098644Y0243162D01*
X0102996Y0215095D02*
X0102229Y0214328D01*
X0102229Y0211259D01*
X0102996Y0210491D01*
X0104530Y0210491D01*
X0105298Y0211259D01*
X0106832Y0210491D02*
X0109902Y0213561D01*
X0109902Y0214328D01*
X0109134Y0215095D01*
X0107600Y0215095D01*
X0106832Y0214328D01*
X0105298Y0214328D02*
X0104530Y0215095D01*
X0102996Y0215095D01*
X0106832Y0210491D02*
X0109902Y0210491D01*
X0113621Y0200095D02*
X0112854Y0199328D01*
X0112854Y0196259D01*
X0113621Y0195491D01*
X0115155Y0195491D01*
X0115923Y0196259D01*
X0117457Y0196259D02*
X0118225Y0195491D01*
X0119759Y0195491D01*
X0120527Y0196259D01*
X0120527Y0199328D01*
X0119759Y0200095D01*
X0118225Y0200095D01*
X0117457Y0199328D01*
X0117457Y0198561D01*
X0118225Y0197793D01*
X0120527Y0197793D01*
X0115923Y0199328D02*
X0115155Y0200095D01*
X0113621Y0200095D01*
X0090101Y0189002D02*
X0088700Y0187601D01*
X0090568Y0187601D01*
X0090101Y0186200D02*
X0090101Y0189002D01*
X0070692Y0188900D02*
X0067623Y0188900D01*
X0069158Y0188900D02*
X0069158Y0193504D01*
X0067623Y0191969D01*
X0066089Y0192737D02*
X0065321Y0193504D01*
X0063787Y0193504D01*
X0063019Y0192737D01*
X0063019Y0189667D01*
X0063787Y0188900D01*
X0065321Y0188900D01*
X0066089Y0189667D01*
X0061485Y0188900D02*
X0059950Y0188900D01*
X0060717Y0188900D02*
X0060717Y0193504D01*
X0059950Y0193504D02*
X0061485Y0193504D01*
X0050250Y0167155D02*
X0047448Y0167155D01*
X0048849Y0165753D01*
X0048849Y0167622D01*
X0048360Y0164754D02*
X0046825Y0164754D01*
X0047592Y0164754D02*
X0047592Y0160150D01*
X0046825Y0160150D02*
X0048360Y0160150D01*
X0049894Y0160917D02*
X0050662Y0160150D01*
X0052196Y0160150D01*
X0052964Y0160917D01*
X0054498Y0160917D02*
X0055266Y0160150D01*
X0056800Y0160150D01*
X0057567Y0160917D01*
X0057567Y0161685D01*
X0056800Y0162452D01*
X0056033Y0162452D01*
X0056800Y0162452D02*
X0057567Y0163219D01*
X0057567Y0163987D01*
X0056800Y0164754D01*
X0055266Y0164754D01*
X0054498Y0163987D01*
X0052964Y0163987D02*
X0052196Y0164754D01*
X0050662Y0164754D01*
X0049894Y0163987D01*
X0049894Y0160917D01*
X0067607Y0161068D02*
X0068541Y0162002D01*
X0068541Y0159200D01*
X0067607Y0159200D02*
X0069475Y0159200D01*
X0076119Y0159163D02*
X0077987Y0161031D01*
X0077987Y0161498D01*
X0077520Y0161965D01*
X0076586Y0161965D01*
X0076119Y0161498D01*
X0076119Y0159163D02*
X0077987Y0159163D01*
X0085219Y0159667D02*
X0085686Y0159200D01*
X0086620Y0159200D01*
X0087087Y0159667D01*
X0087087Y0160134D01*
X0086620Y0160601D01*
X0086153Y0160601D01*
X0086620Y0160601D02*
X0087087Y0161068D01*
X0087087Y0161535D01*
X0086620Y0162002D01*
X0085686Y0162002D01*
X0085219Y0161535D01*
X0109198Y0157781D02*
X0112000Y0157781D01*
X0112000Y0158715D02*
X0112000Y0156846D01*
X0110132Y0156846D02*
X0109198Y0157781D01*
X0109628Y0150203D02*
X0109161Y0149736D01*
X0109161Y0148802D01*
X0109628Y0148335D01*
X0109628Y0150203D02*
X0110095Y0150203D01*
X0111963Y0148335D01*
X0111963Y0150203D01*
X0111533Y0141103D02*
X0112000Y0140636D01*
X0112000Y0139702D01*
X0111533Y0139235D01*
X0110599Y0140169D02*
X0110599Y0140636D01*
X0111066Y0141103D01*
X0111533Y0141103D01*
X0110599Y0140636D02*
X0110132Y0141103D01*
X0109665Y0141103D01*
X0109198Y0140636D01*
X0109198Y0139702D01*
X0109665Y0139235D01*
X0136198Y0137155D02*
X0137599Y0135753D01*
X0137599Y0137622D01*
X0139000Y0137155D02*
X0136198Y0137155D01*
X0138700Y0158275D02*
X0140235Y0158275D01*
X0139467Y0158275D02*
X0139467Y0162879D01*
X0138700Y0162879D02*
X0140235Y0162879D01*
X0141769Y0162112D02*
X0141769Y0159042D01*
X0142537Y0158275D01*
X0144071Y0158275D01*
X0144839Y0159042D01*
X0146373Y0159042D02*
X0147141Y0158275D01*
X0148675Y0158275D01*
X0149442Y0159042D01*
X0149442Y0159810D01*
X0148675Y0160577D01*
X0146373Y0160577D01*
X0146373Y0159042D01*
X0146373Y0160577D02*
X0147908Y0162112D01*
X0149442Y0162879D01*
X0144839Y0162112D02*
X0144071Y0162879D01*
X0142537Y0162879D01*
X0141769Y0162112D01*
X0141892Y0105036D02*
X0141892Y0102734D01*
X0143426Y0103502D01*
X0144193Y0103502D01*
X0144961Y0102734D01*
X0144961Y0101200D01*
X0144193Y0100432D01*
X0142659Y0100432D01*
X0141892Y0101200D01*
X0140357Y0101200D02*
X0139590Y0100432D01*
X0138055Y0100432D01*
X0137288Y0101200D01*
X0137288Y0104269D01*
X0138055Y0105036D01*
X0139590Y0105036D01*
X0140357Y0104269D01*
X0141892Y0105036D02*
X0144961Y0105036D01*
X0084356Y0081429D02*
X0084356Y0076825D01*
X0085123Y0079127D02*
X0082054Y0079127D01*
X0084356Y0081429D01*
X0080519Y0080662D02*
X0080519Y0077592D01*
X0079752Y0076825D01*
X0077450Y0076825D01*
X0077450Y0081429D01*
X0079752Y0081429D01*
X0080519Y0080662D01*
X0066998Y0076825D02*
X0063929Y0076825D01*
X0065464Y0076825D02*
X0065464Y0081429D01*
X0063929Y0079894D01*
X0062394Y0080662D02*
X0062394Y0077592D01*
X0061627Y0076825D01*
X0059325Y0076825D01*
X0059325Y0081429D01*
X0061627Y0081429D01*
X0062394Y0080662D01*
X0020748Y0080037D02*
X0020748Y0079269D01*
X0019981Y0078502D01*
X0020748Y0077735D01*
X0020748Y0076967D01*
X0019981Y0076200D01*
X0018446Y0076200D01*
X0017679Y0076967D01*
X0016144Y0076967D02*
X0016144Y0080037D01*
X0015377Y0080804D01*
X0013075Y0080804D01*
X0013075Y0076200D01*
X0015377Y0076200D01*
X0016144Y0076967D01*
X0019214Y0078502D02*
X0019981Y0078502D01*
X0020748Y0080037D02*
X0019981Y0080804D01*
X0018446Y0080804D01*
X0017679Y0080037D01*
X0017176Y0125432D02*
X0017176Y0130036D01*
X0015642Y0128502D01*
X0014107Y0129269D02*
X0013340Y0130036D01*
X0011805Y0130036D01*
X0011038Y0129269D01*
X0011038Y0126200D01*
X0011805Y0125432D01*
X0013340Y0125432D01*
X0014107Y0126200D01*
X0015642Y0125432D02*
X0018711Y0125432D01*
X0020915Y0169235D02*
X0020448Y0169702D01*
X0020448Y0170636D01*
X0020915Y0171103D01*
X0021382Y0171103D01*
X0021849Y0170636D01*
X0022316Y0171103D01*
X0022783Y0171103D01*
X0023250Y0170636D01*
X0023250Y0169702D01*
X0022783Y0169235D01*
X0021849Y0170169D02*
X0021849Y0170636D01*
X0020878Y0178335D02*
X0020411Y0178802D01*
X0020411Y0179736D01*
X0020878Y0180203D01*
X0021345Y0180203D01*
X0023213Y0178335D01*
X0023213Y0180203D01*
X0023250Y0186846D02*
X0023250Y0188715D01*
X0023250Y0187781D02*
X0020448Y0187781D01*
X0021382Y0186846D01*
X0014759Y0219866D02*
X0015527Y0220634D01*
X0015527Y0221401D01*
X0014759Y0222168D01*
X0012457Y0222168D01*
X0012457Y0220634D01*
X0013225Y0219866D01*
X0014759Y0219866D01*
X0012457Y0222168D02*
X0013992Y0223703D01*
X0015527Y0224470D01*
X0010923Y0223703D02*
X0010155Y0224470D01*
X0008621Y0224470D01*
X0007854Y0223703D01*
X0007854Y0220634D01*
X0008621Y0219866D01*
X0010155Y0219866D01*
X0010923Y0220634D01*
X0047918Y0253936D02*
X0047918Y0257772D01*
X0050987Y0257772D02*
X0050987Y0253936D01*
X0050219Y0253169D01*
X0048685Y0253169D01*
X0047918Y0253936D01*
X0052521Y0253169D02*
X0055591Y0256238D01*
X0055591Y0257005D01*
X0054823Y0257772D01*
X0053289Y0257772D01*
X0052521Y0257005D01*
X0052521Y0253169D02*
X0055591Y0253169D01*
X0054752Y0239554D02*
X0053217Y0239554D01*
X0052450Y0238787D01*
X0052450Y0235717D01*
X0053217Y0234950D01*
X0054752Y0234950D01*
X0055519Y0235717D01*
X0057054Y0235717D02*
X0057054Y0234950D01*
X0057054Y0235717D02*
X0060123Y0238787D01*
X0060123Y0239554D01*
X0057054Y0239554D01*
X0055519Y0238787D02*
X0054752Y0239554D01*
X0076180Y0130661D02*
X0075413Y0129894D01*
X0075413Y0126825D01*
X0076180Y0126057D01*
X0077715Y0126057D01*
X0078482Y0126825D01*
X0080017Y0126825D02*
X0080784Y0126057D01*
X0082318Y0126057D01*
X0083086Y0126825D01*
X0083086Y0127592D01*
X0082318Y0128359D01*
X0080784Y0128359D01*
X0080017Y0129127D01*
X0080017Y0129894D01*
X0080784Y0130661D01*
X0082318Y0130661D01*
X0083086Y0129894D01*
X0083086Y0129127D01*
X0082318Y0128359D01*
X0080784Y0128359D02*
X0080017Y0127592D01*
X0080017Y0126825D01*
X0078482Y0129894D02*
X0077715Y0130661D01*
X0076180Y0130661D01*
X0166196Y0237388D02*
X0168498Y0240457D01*
X0170800Y0237388D01*
X0170033Y0241992D02*
X0170800Y0242759D01*
X0170800Y0244294D01*
X0170033Y0245061D01*
X0169265Y0245061D01*
X0168498Y0244294D01*
X0168498Y0242759D01*
X0167731Y0241992D01*
X0166963Y0241992D01*
X0166196Y0242759D01*
X0166196Y0244294D01*
X0166963Y0245061D01*
X0166196Y0246596D02*
X0166196Y0249665D01*
X0166196Y0248131D02*
X0170800Y0248131D01*
X0178638Y0258700D02*
X0178638Y0263304D01*
X0180940Y0263304D01*
X0181707Y0262537D01*
X0181707Y0261002D01*
X0180940Y0260235D01*
X0178638Y0260235D01*
X0180173Y0260235D02*
X0181707Y0258700D01*
X0183242Y0259467D02*
X0184009Y0258700D01*
X0185544Y0258700D01*
X0186311Y0259467D01*
X0186311Y0260235D01*
X0185544Y0261002D01*
X0184777Y0261002D01*
X0185544Y0261002D02*
X0186311Y0261769D01*
X0186311Y0262537D01*
X0185544Y0263304D01*
X0184009Y0263304D01*
X0183242Y0262537D01*
X0187846Y0262537D02*
X0188613Y0263304D01*
X0190148Y0263304D01*
X0190915Y0262537D01*
X0190915Y0261769D01*
X0190148Y0261002D01*
X0190915Y0260235D01*
X0190915Y0259467D01*
X0190148Y0258700D01*
X0188613Y0258700D01*
X0187846Y0259467D01*
X0189381Y0261002D02*
X0190148Y0261002D01*
X0190773Y0284325D02*
X0190773Y0288929D01*
X0188471Y0286627D01*
X0191540Y0286627D01*
X0186936Y0287394D02*
X0186169Y0286627D01*
X0186936Y0285860D01*
X0186936Y0285092D01*
X0186169Y0284325D01*
X0184634Y0284325D01*
X0183867Y0285092D01*
X0182332Y0284325D02*
X0180798Y0285860D01*
X0181565Y0285860D02*
X0179263Y0285860D01*
X0179263Y0284325D02*
X0179263Y0288929D01*
X0181565Y0288929D01*
X0182332Y0288162D01*
X0182332Y0286627D01*
X0181565Y0285860D01*
X0183867Y0288162D02*
X0184634Y0288929D01*
X0186169Y0288929D01*
X0186936Y0288162D01*
X0186936Y0287394D01*
X0186169Y0286627D02*
X0185402Y0286627D01*
X0221138Y0285179D02*
X0221138Y0280575D01*
X0221138Y0282110D02*
X0223440Y0282110D01*
X0224207Y0282877D01*
X0224207Y0284412D01*
X0223440Y0285179D01*
X0221138Y0285179D01*
X0222673Y0282110D02*
X0224207Y0280575D01*
X0225742Y0281342D02*
X0226509Y0280575D01*
X0228044Y0280575D01*
X0228811Y0281342D01*
X0228811Y0282110D01*
X0228044Y0282877D01*
X0227277Y0282877D01*
X0228044Y0282877D02*
X0228811Y0283644D01*
X0228811Y0284412D01*
X0228044Y0285179D01*
X0226509Y0285179D01*
X0225742Y0284412D01*
X0230346Y0283644D02*
X0231881Y0285179D01*
X0231881Y0280575D01*
X0233415Y0280575D02*
X0230346Y0280575D01*
X0233013Y0260179D02*
X0235315Y0260179D01*
X0236082Y0259412D01*
X0236082Y0257877D01*
X0235315Y0257110D01*
X0233013Y0257110D01*
X0234548Y0257110D02*
X0236082Y0255575D01*
X0237617Y0256342D02*
X0238384Y0255575D01*
X0239919Y0255575D01*
X0240686Y0256342D01*
X0240686Y0257110D01*
X0239919Y0257877D01*
X0239152Y0257877D01*
X0239919Y0257877D02*
X0240686Y0258644D01*
X0240686Y0259412D01*
X0239919Y0260179D01*
X0238384Y0260179D01*
X0237617Y0259412D01*
X0242221Y0259412D02*
X0242221Y0256342D01*
X0245290Y0259412D01*
X0245290Y0256342D01*
X0244523Y0255575D01*
X0242988Y0255575D01*
X0242221Y0256342D01*
X0242221Y0259412D02*
X0242988Y0260179D01*
X0244523Y0260179D01*
X0245290Y0259412D01*
X0233013Y0260179D02*
X0233013Y0255575D01*
X0303242Y0176429D02*
X0305544Y0176429D01*
X0306311Y0175662D01*
X0306311Y0174894D01*
X0305544Y0174127D01*
X0303242Y0174127D01*
X0303242Y0171825D02*
X0303242Y0176429D01*
X0305544Y0174127D02*
X0306311Y0173360D01*
X0306311Y0172592D01*
X0305544Y0171825D01*
X0303242Y0171825D01*
X0307846Y0174127D02*
X0310915Y0174127D01*
X0310148Y0171825D02*
X0310148Y0176429D01*
X0307846Y0174127D01*
X0336825Y0174127D02*
X0339127Y0174127D01*
X0339894Y0173360D01*
X0339894Y0172592D01*
X0339127Y0171825D01*
X0336825Y0171825D01*
X0336825Y0176429D01*
X0339127Y0176429D01*
X0339894Y0175662D01*
X0339894Y0174894D01*
X0339127Y0174127D01*
X0341429Y0175662D02*
X0342196Y0176429D01*
X0343731Y0176429D01*
X0344498Y0175662D01*
X0344498Y0174894D01*
X0343731Y0174127D01*
X0344498Y0173360D01*
X0344498Y0172592D01*
X0343731Y0171825D01*
X0342196Y0171825D01*
X0341429Y0172592D01*
X0342964Y0174127D02*
X0343731Y0174127D01*
X0344102Y0117054D02*
X0341033Y0117054D01*
X0341033Y0114752D01*
X0342567Y0115519D01*
X0343335Y0115519D01*
X0344102Y0114752D01*
X0344102Y0113217D01*
X0343335Y0112450D01*
X0341800Y0112450D01*
X0341033Y0113217D01*
X0339498Y0113217D02*
X0338731Y0112450D01*
X0337196Y0112450D01*
X0336429Y0113217D01*
X0334894Y0112450D02*
X0333360Y0113985D01*
X0334127Y0113985D02*
X0331825Y0113985D01*
X0331825Y0112450D02*
X0331825Y0117054D01*
X0334127Y0117054D01*
X0334894Y0116287D01*
X0334894Y0114752D01*
X0334127Y0113985D01*
X0336429Y0116287D02*
X0337196Y0117054D01*
X0338731Y0117054D01*
X0339498Y0116287D01*
X0339498Y0115519D01*
X0338731Y0114752D01*
X0339498Y0113985D01*
X0339498Y0113217D01*
X0338731Y0114752D02*
X0337964Y0114752D01*
X0318925Y0342450D02*
X0314321Y0342450D01*
X0314321Y0344752D01*
X0315088Y0345519D01*
X0316623Y0345519D01*
X0317390Y0344752D01*
X0317390Y0342450D01*
X0317390Y0343985D02*
X0318925Y0345519D01*
X0318925Y0347054D02*
X0315856Y0350123D01*
X0315088Y0350123D01*
X0314321Y0349356D01*
X0314321Y0347821D01*
X0315088Y0347054D01*
X0318925Y0347054D02*
X0318925Y0350123D01*
X0318158Y0351658D02*
X0317390Y0351658D01*
X0316623Y0352425D01*
X0316623Y0353960D01*
X0317390Y0354727D01*
X0318158Y0354727D01*
X0318925Y0353960D01*
X0318925Y0352425D01*
X0318158Y0351658D01*
X0316623Y0352425D02*
X0315856Y0351658D01*
X0315088Y0351658D01*
X0314321Y0352425D01*
X0314321Y0353960D01*
X0315088Y0354727D01*
X0315856Y0354727D01*
X0316623Y0353960D01*
X0256567Y0358527D02*
X0250429Y0358527D01*
X0251196Y0359294D02*
X0251963Y0360061D01*
X0251196Y0359294D02*
X0251196Y0357759D01*
X0251963Y0356992D01*
X0252731Y0356992D01*
X0253498Y0357759D01*
X0253498Y0359294D01*
X0254265Y0360061D01*
X0255033Y0360061D01*
X0255800Y0359294D01*
X0255800Y0357759D01*
X0255033Y0356992D01*
X0255033Y0355457D02*
X0251196Y0355457D01*
X0251196Y0352388D02*
X0255033Y0352388D01*
X0255800Y0353156D01*
X0255800Y0354690D01*
X0255033Y0355457D01*
X0255800Y0361596D02*
X0255800Y0364665D01*
X0255800Y0363131D02*
X0251196Y0363131D01*
X0252731Y0361596D01*
X0096920Y0010745D02*
X0095385Y0010745D01*
X0094618Y0009978D01*
X0093083Y0010745D02*
X0091549Y0010745D01*
X0092316Y0010745D02*
X0092316Y0006908D01*
X0091549Y0006141D01*
X0090781Y0006141D01*
X0090014Y0006908D01*
X0094618Y0006141D02*
X0097687Y0009210D01*
X0097687Y0009978D01*
X0096920Y0010745D01*
X0097687Y0006141D02*
X0094618Y0006141D01*
D15*
X0081000Y0103864D03*
X0063500Y0103864D03*
X0016000Y0103864D03*
D16*
X0332300Y0242875D02*
X0332300Y0282875D01*
X0332300Y0299750D02*
X0332300Y0339750D01*
D17*
X0111591Y0358638D03*
X0111591Y0363362D03*
X0111591Y0379263D03*
X0111591Y0383987D03*
D18*
X0111591Y0381625D03*
X0111591Y0361000D03*
D19*
X0159465Y0124268D03*
X0209465Y0124268D03*
X0264465Y0124268D03*
M02*
